<?xml version="1.0" encoding="UTF-8" standalone="no"?>
<svg
   xmlns:dc="http://purl.org/dc/elements/1.1/"
   xmlns:cc="http://creativecommons.org/ns#"
   xmlns:rdf="http://www.w3.org/1999/02/22-rdf-syntax-ns#"
   xmlns:svg="http://www.w3.org/2000/svg"
   xmlns="http://www.w3.org/2000/svg"
   xmlns:xlink="http://www.w3.org/1999/xlink"
   xmlns:sodipodi="http://sodipodi.sourceforge.net/DTD/sodipodi-0.dtd"
   xmlns:inkscape="http://www.inkscape.org/namespaces/inkscape"
   inkscape:version="1.0 (4035a4fb49, 2020-05-01)"
   sodipodi:docname="basetrinityrev2.svg"
   xml:space="preserve"
   enable-background="new 97 97.1 806 598.9"
   viewBox="97 97.1 806 598.9"
   height="598.9px"
   width="806px"
   y="0px"
   x="0px"
   id="Layer_1"
   version="1.1"><metadata
   id="metadata834"><rdf:RDF><cc:Work
       rdf:about=""><dc:format>image/svg+xml</dc:format><dc:type
         rdf:resource="http://purl.org/dc/dcmitype/StillImage" /><dc:title /></cc:Work></rdf:RDF></metadata><defs
   id="defs832">
	

	
	
	
	
	

	
	

	
	
	
	
	
	
	
	
	
	
	
	

	

	

	
	

	
	

	
	

	
	

			
			
		
			
			
		
		
	
		
		
		
		
	
			
			
		
			
			
		
			
			
		
			
			
		
		
		
		
		
	
			
			
		
			
			
		
			
			
		
			
			
		
			
			
			
			
			
			
			
			
			
			
			
		
				
				
			
				
				
			
				
				
			
				
				
			
				
				
				
				
				
			
		
		
		
		
		
		
		
	
		
		
		
		
		
	
		
	
			
			
		
		
	
			
			
		
		
	
			
			
		
		
	
			
			
		
		
	
				
				
			
		
	
				
				
			<filter
   inkscape:collect="always"
   style="color-interpolation-filters:sRGB"
   id="filter1066"
   x="-4.0961164e-06"
   width="1.0000082"
   y="-5.7959936e-06"
   height="1.0000116"><feGaussianBlur
     inkscape:collect="always"
     stdDeviation="0.00028126666"
     id="feGaussianBlur1068" /></filter></defs><sodipodi:namedview
   inkscape:current-layer="Layer_1"
   inkscape:window-maximized="1"
   inkscape:window-y="-8"
   inkscape:window-x="-8"
   inkscape:cy="379.00464"
   inkscape:cx="405.29323"
   inkscape:zoom="0.97641893"
   showgrid="false"
   id="namedview830"
   inkscape:window-height="1017"
   inkscape:window-width="1920"
   inkscape:pageshadow="2"
   inkscape:pageopacity="0"
   guidetolerance="10"
   gridtolerance="10"
   objecttolerance="10"
   borderopacity="1"
   bordercolor="#666666"
   pagecolor="#ffffff"
   inkscape:document-rotation="0" />
<pattern
   overflow="visible"
   viewBox="0 -231.7 40 103"
   id="SVGID_1_"
   patternUnits="userSpaceOnUse"
   height="103"
   width="40"
   y="696"
   x="97">
	<g
   id="g459">
		<polygon
   id="polygon423"
   points="0,-128.7 40,-128.7 40,-231.7 0,-231.7   "
   fill="none" />
		<g
   id="g457">
			<polygon
   id="polygon425"
   points="0,-128.7 40,-128.7 40,-231.7 0,-231.7    "
   fill="none" />
			<polygon
   id="polygon427"
   points="34.5,-360.5 37.5,-360.5 37.5,-206 34.5,-206    " />
			<polygon
   id="polygon429"
   points="26.5,-360.5 29.5,-360.5 29.5,-206 26.5,-206    " />
			<polygon
   id="polygon431"
   points="18.5,-360.5 21.5,-360.5 21.5,-206 18.5,-206    " />
			<polygon
   id="polygon433"
   points="10.5,-360.5 13.5,-360.5 13.5,-206 10.5,-206    " />
			<polygon
   id="polygon435"
   points="2.5,-360.5 5.5,-360.5 5.5,-206 2.5,-206    " />
			<polygon
   id="polygon437"
   points="34.5,-257.5 37.5,-257.5 37.5,-103 34.5,-103    " />
			<polygon
   id="polygon439"
   points="26.5,-257.5 29.5,-257.5 29.5,-103 26.5,-103    " />
			<polygon
   id="polygon441"
   points="18.5,-257.5 21.5,-257.5 21.5,-103 18.5,-103    " />
			<polygon
   id="polygon443"
   points="10.5,-257.5 13.5,-257.5 13.5,-103 10.5,-103    " />
			<polygon
   id="polygon445"
   points="2.5,-257.5 5.5,-257.5 5.5,-103 2.5,-103    " />
			<polygon
   id="polygon447"
   points="34.5,-154.5 37.5,-154.5 37.5,0 34.5,0    " />
			<polygon
   id="polygon449"
   points="26.5,-154.5 29.5,-154.5 29.5,0 26.5,0    " />
			<polygon
   id="polygon451"
   points="18.5,-154.5 21.5,-154.5 21.5,0 18.5,0    " />
			<polygon
   id="polygon453"
   points="10.5,-154.5 13.5,-154.5 13.5,0 10.5,0    " />
			<polygon
   id="polygon455"
   points="2.5,-154.5 5.5,-154.5 5.5,0 2.5,0    " />
		</g>
	</g>
</pattern>
<pattern
   overflow="visible"
   viewBox="0 -231.7 40 103"
   id="SVGID_2_"
   patternUnits="userSpaceOnUse"
   height="103"
   width="40"
   y="696"
   x="97">
	<g
   id="g498">
		<polygon
   id="polygon462"
   points="0,-128.7 40,-128.7 40,-231.7 0,-231.7   "
   fill="none" />
		<g
   id="g496">
			<polygon
   id="polygon464"
   points="0,-128.7 40,-128.7 40,-231.7 0,-231.7    "
   fill="none" />
			<polygon
   id="polygon466"
   points="34.5,-360.5 37.5,-360.5 37.5,-206 34.5,-206    " />
			<polygon
   id="polygon468"
   points="26.5,-360.5 29.5,-360.5 29.5,-206 26.5,-206    " />
			<polygon
   id="polygon470"
   points="18.5,-360.5 21.5,-360.5 21.5,-206 18.5,-206    " />
			<polygon
   id="polygon472"
   points="10.5,-360.5 13.5,-360.5 13.5,-206 10.5,-206    " />
			<polygon
   id="polygon474"
   points="2.5,-360.5 5.5,-360.5 5.5,-206 2.5,-206    " />
			<polygon
   id="polygon476"
   points="34.5,-257.5 37.5,-257.5 37.5,-103 34.5,-103    " />
			<polygon
   id="polygon478"
   points="26.5,-257.5 29.5,-257.5 29.5,-103 26.5,-103    " />
			<polygon
   id="polygon480"
   points="18.5,-257.5 21.5,-257.5 21.5,-103 18.5,-103    " />
			<polygon
   id="polygon482"
   points="10.5,-257.5 13.5,-257.5 13.5,-103 10.5,-103    " />
			<polygon
   id="polygon484"
   points="2.5,-257.5 5.5,-257.5 5.5,-103 2.5,-103    " />
			<polygon
   id="polygon486"
   points="34.5,-154.5 37.5,-154.5 37.5,0 34.5,0    " />
			<polygon
   id="polygon488"
   points="26.5,-154.5 29.5,-154.5 29.5,0 26.5,0    " />
			<polygon
   id="polygon490"
   points="18.5,-154.5 21.5,-154.5 21.5,0 18.5,0    " />
			<polygon
   id="polygon492"
   points="10.5,-154.5 13.5,-154.5 13.5,0 10.5,0    " />
			<polygon
   id="polygon494"
   points="2.5,-154.5 5.5,-154.5 5.5,0 2.5,0    " />
		</g>
	</g>
</pattern>
<pattern
   overflow="visible"
   viewBox="0 -71 71 71"
   id="SVGID_3_"
   patternUnits="userSpaceOnUse"
   height="71"
   width="71"
   y="696"
   x="97">
	<g
   id="g509">
		<polygon
   id="polygon501"
   points="0,0 71,0 71,-71 0,-71   "
   fill="none" />
		<g
   id="g507">
			<polygon
   id="polygon503"
   points="0,0 71,0 71,-71 0,-71    "
   fill="none" />
			<path
   id="path505"
   d="M41.8-35.5c0-3.5-2.8-6.3-6.3-6.3s-6.3,2.8-6.3,6.3s2.8,6.3,6.3,6.3S41.8-32,41.8-35.5z"
   fill="#B3B3B3" />
		</g>
	</g>
</pattern>
<path
   fill="#0d0e13"
   d="m 898.3,515.7 c -2.9,-15.5 -17.7,-102.5 -32,-144.6 -9.4,-27.7 -13.1,-53 -17,-64.9 -12,-35.7 -33,-65.7 -33,-65.7 0,0 -9.5,-13.1 -10.1,-16.3 -0.6,-3.3 -4.7,-8.6 -4.7,-8.6 0,0 -17.4,-5.7 -62.3,-5.7 -44.9,0 -53.7,5 -53.7,5 0,0 -2.4,2.9 -5.9,4.8 -3.5,1.8 -11.7,1.7 -11.7,1.7 h -33.4 c 0,0 -0.6,-0.1 -0.9,0.3 -0.4,0.4 -0.6,2 -0.6,2 H 500 366.9 c 0,0 -0.3,-1.7 -0.6,-2 -0.4,-0.4 -0.9,-0.3 -0.9,-0.3 H 332 c 0,0 -8.2,0.2 -11.7,-1.7 -3.5,-1.8 -5.9,-4.8 -5.9,-4.8 0,0 -8.8,-5 -53.7,-5 -44.8,0 -62.3,5.7 -62.3,5.7 0,0 -4.1,5.3 -4.7,8.6 -0.6,3.3 -10.1,16.3 -10.1,16.3 0,0 -21,30 -33,65.7 -4,11.9 -7.7,37.2 -17,64.9 -14.3,42.1 -29.1,129.1 -32,144.6 -4.3,23.2 -4.6,90.2 -4.6,90.2 0,0 4.5,53.4 36.2,74.9 31.7,21.5 56.7,14 56.7,14 0,0 33.1,-8.2 57.8,-41.9 24.7,-33.7 56.6,-129.2 56.6,-129.2 0,0 2.2,-3 5.7,-5.3 3.5,-2.3 6.3,-2.6 6.3,-2.6 l 183.7,0.1 183.7,-0.1 c 0,0 2.8,0.3 6.3,2.6 3.5,2.3 5.7,5.3 5.7,5.3 0,0 31.9,95.4 56.6,129.2 24.7,33.8 57.8,41.9 57.8,41.9 0,0 25,7.5 56.7,-14 31.7,-21.5 36.2,-74.9 36.2,-74.9 0,0 -0.3,-67 -4.7,-90.2 z"
   id="path512"
   style="fill:#f7f7f7;fill-opacity:1" /><g
   opacity="0.06"
   id="g516">
				<path
   fill="#ffffff"
   d="m 133.6,373.1 c 9.4,-27.7 13.1,-53 17,-64.9 12,-35.7 33,-65.7 33,-65.7 0,0 9.5,-13.1 10.1,-16.3 0.6,-3.3 4.7,-8.6 4.7,-8.6 0,0 17.4,-5.7 62.3,-5.7 44.8,0 53.7,5 53.7,5 0,0 2.4,2.9 5.9,4.8 3.5,1.8 11.7,1.7 11.7,1.7 h 33.4 c 0,0 0.6,-0.1 0.9,0.3 0.4,0.4 0.6,2 0.6,2 H 500 633.1 c 0,0 0.3,-1.7 0.6,-2 0.4,-0.4 0.9,-0.3 0.9,-0.3 H 668 c 0,0 8.2,0.2 11.7,-1.7 3.5,-1.8 5.9,-4.8 5.9,-4.8 0,0 8.8,-5 53.7,-5 44.9,0 62.3,5.7 62.3,5.7 0,0 4.1,5.3 4.7,8.6 0.6,3.3 10.1,16.3 10.1,16.3 0,0 21,30 33,65.7 4,11.9 7.7,37.2 17,64.9 14.3,42.1 29.1,129.1 32,144.6 3.9,20.9 4.6,77.3 4.7,88.3 0,-0.1 0,-0.1 0,-0.1 0,0 -0.3,-66.9 -4.7,-90.1 -2.9,-15.5 -17.7,-102.5 -32,-144.6 -9.4,-27.7 -13.1,-53 -17,-64.9 -12,-35.7 -33,-65.7 -33,-65.7 0,0 -9.5,-13.1 -10.1,-16.3 -0.6,-3.3 -4.7,-8.6 -4.7,-8.6 0,0 -17.4,-5.7 -62.3,-5.7 -44.9,0 -53.7,5 -53.7,5 0,0 -2.4,2.9 -5.9,4.8 -3.5,1.8 -11.7,1.7 -11.7,1.7 h -33.4 c 0,0 -0.6,-0.1 -0.9,0.3 -0.4,0.4 -0.6,2 -0.6,2 H 500 366.9 c 0,0 -0.3,-1.7 -0.6,-2 -0.4,-0.4 -0.9,-0.3 -0.9,-0.3 H 332 c 0,0 -8.2,0.2 -11.7,-1.7 -3.5,-1.8 -5.9,-4.8 -5.9,-4.8 0,0 -8.8,-5 -53.7,-5 -44.8,0 -62.3,5.7 -62.3,5.7 0,0 -4.1,5.3 -4.7,8.6 -0.6,3.3 -10.1,16.3 -10.1,16.3 0,0 -21,30 -33,65.7 -4,11.9 -7.7,37.2 -17,64.9 -14.3,42.1 -29.1,129.1 -32,144.6 -4.3,23.1 -4.6,90.1 -4.6,90.1 v 0.1 c 0.1,-10.9 0.7,-67.4 4.7,-88.3 2.9,-15.4 17.6,-102.5 31.9,-144.6 z"
   id="path514" />
			</g><path
   fill="#13161f"
   d="m 448.2,457.1 c 0,-42.2 -34.3,-76.5 -76.5,-76.5 -42.2,0 -76.5,34.3 -76.5,76.5 0,0.7 0,1.3 0.1,2 0,0.7 -0.1,1.3 -0.1,2 0,42.2 34.3,76.5 76.5,76.5 42.2,0 76.5,-34.3 76.5,-76.5 0,-0.7 0,-1.3 -0.1,-2 0,-0.7 0.1,-1.4 0.1,-2 z"
   id="path518"
   style="fill:#0fb7bd;fill-opacity:1" /><circle
   fill="#0f1015"
   cx="371.70001"
   cy="453.10001"
   r="73"
   id="circle520"
   style="fill:#11cbd2;fill-opacity:1" /><circle
   cx="371.70001"
   cy="453.10001"
   r="51.5"
   id="circle522"
   style="fill:#f7f7f7;fill-opacity:1" /><path
   fill="#13161f"
   d="m 704.8,457.1 c 0,-42.2 -34.3,-76.5 -76.5,-76.5 -42.2,0 -76.5,34.3 -76.5,76.5 0,0.7 0,1.3 0.1,2 0,0.7 -0.1,1.3 -0.1,2 0,42.2 34.3,76.5 76.5,76.5 42.2,0 76.5,-34.3 76.5,-76.5 0,-0.7 0,-1.3 -0.1,-2 0.1,-0.7 0.1,-1.4 0.1,-2 z"
   id="path524"
   style="fill:#0fb7bd;fill-opacity:1" /><circle
   fill="#0f1015"
   cx="628.29999"
   cy="453.10001"
   r="73"
   id="circle526"
   style="fill:#11cbd2;fill-opacity:1" /><circle
   cx="628.29999"
   cy="453.10001"
   r="51.5"
   id="circle528"
   style="fill:#f7f7f7;fill-opacity:1" /><path
   fill="#121212"
   d="m 631.8,225.1 c -0.4,-3.2 -3.3,-5.6 -6.5,-5.6 v 0 H 500 v 0 H 374.7 v 0 c -3.2,0 -6.1,2.3 -6.5,5.6 -0.1,0.7 -0.1,1.4 -0.1,2.1 v 127.4 c 0,8.9 7.2,16.1 16.1,16.1 H 500 v 0 h 115.8 c 8.9,0 16.1,-7.2 16.1,-16.1 V 227.2 c 0.1,-0.7 0,-1.4 -0.1,-2.1 z"
   id="path530"
   style="opacity:1;fill:#0fb7bd;fill-opacity:1" /><circle
   fill="#080808"
   cx="749.29999"
   cy="341.89999"
   r="94.300003"
   id="circle532"
   style="fill:#f7f7f7;fill-opacity:1" /><circle
   style="fill:#f7f7f7;fill-opacity:1;stroke:none;stroke-opacity:1;stroke-width:7.42677165;stroke-miterlimit:4;stroke-dasharray:none"
   id="circle534"
   r="94.300003"
   cy="341.89999"
   cx="250.7"
   fill="#080808" /><path
   id="path536"
   d="m 327.4,351.2 9.5,-8.9 c 0.5,-0.5 0.5,-1.2 0,-1.7 l -9.5,-8.9 c -0.7,-0.7 -1.9,-0.2 -1.9,0.8 v 8.9 8.9 c -0.1,1 1.1,1.5 1.9,0.9 z"
   fill="#1f1f1f"
   style="fill:#0fb7bd;fill-opacity:1;stroke:#11cbd2;stroke-opacity:1" /><path
   id="path538"
   d="m 242,266.9 h 8.9 8.9 c 1,0 1.5,-1.2 0.8,-1.9 l -8.9,-9.5 c -0.5,-0.5 -1.2,-0.5 -1.7,0 l -8.9,9.5 c -0.6,0.7 -0.1,1.9 0.9,1.9 z"
   fill="#1f1f1f"
   style="fill:#0fb7bd;fill-opacity:1;stroke:#11cbd2;stroke-opacity:1" /><path
   id="path540"
   d="m 174.5,331.7 -9.5,8.9 c -0.5,0.5 -0.5,1.2 0,1.7 l 9.5,8.9 c 0.7,0.7 1.9,0.2 1.9,-0.8 v -8.9 -8.9 c 0,-1.1 -1.2,-1.6 -1.9,-0.9 z"
   fill="#1f1f1f"
   style="fill:#0fb7bd;fill-opacity:1;stroke:#11cbd2;stroke-opacity:1" /><path
   id="path542"
   d="m 259.8,415.9 h -8.9 -8.9 c -1,0 -1.5,1.2 -0.8,1.9 l 8.9,9.5 c 0.5,0.5 1.2,0.5 1.7,0 l 8.9,-9.5 c 0.6,-0.7 0.1,-1.9 -0.9,-1.9 z"
   fill="#1f1f1f"
   style="fill:#0fb7bd;fill-opacity:1;stroke:#11cbd2;stroke-opacity:1" />
<g
   style="fill:#11cbd2;fill-opacity:1"
   id="g559">
		<path
   style="fill:#11cbd2;fill-opacity:1"
   opacity="0.1"
   fill="#e6e6e6"
   enable-background="new    "
   d="m 202.2,641.6 c -40.5,-2.8 -75.8,-20.3 -87.3,-30.5 -11.5,-10.3 -17.5,-31.6 -17.5,-31.6 -0.4,15 -0.4,26.3 -0.4,26.3 0,0 4.5,53.4 36.2,74.9 31.7,21.5 56.7,14 56.7,14 0,0 33.1,-8.2 57.8,-41.9 4.5,-6.2 9.3,-14.5 14.1,-23.8 -0.1,0 -19.2,15.3 -59.6,12.6 z"
   id="path552" />
		
			<pattern
   id="SVGID_4_"
   xlink:href="#SVGID_1_"
   patternTransform="matrix(0.3298 9.457588e-002 9.457588e-002 -0.3298 -10180.4512 -7431.5161)">
		</pattern>
		<path
   style="fill:#11cbd2;fill-opacity:1;opacity:1"
   opacity="0.08"
   fill="url(#SVGID_4_)"
   enable-background="new    "
   d="m 202.2,641.6 c -40.5,-2.8 -75.8,-20.3 -87.3,-30.5 -11.5,-10.3 -17.5,-31.6 -17.5,-31.6 -0.4,15 -0.4,26.3 -0.4,26.3 0,0 4.5,53.4 36.2,74.9 31.7,21.5 56.7,14 56.7,14 0,0 33.1,-8.2 57.8,-41.9 4.5,-6.2 9.3,-14.5 14.1,-23.8 -0.1,0 -19.2,15.3 -59.6,12.6 z"
   id="path555" />
		<path
   style="fill:#0fb7bd;fill-opacity:1"
   opacity="0.22"
   enable-background="new    "
   d="m 187,689.6 c -12.5,1.8 -31.3,-2 -45.1,-7.7 -13.6,-5.7 -24,-16.4 -24,-16.4 4.2,5.8 9.3,11.1 15.3,15.2 31.7,21.5 56.7,14 56.7,14 0,0 11.7,-2.9 26.3,-12.3 0,0 -14.6,5.2 -29.2,7.2 z"
   id="path557" />
	</g><g
   style="opacity:1;fill:#11cbd2;fill-opacity:1"
   id="g568">
		<path
   style="fill:#11cbd2;fill-opacity:1"
   opacity="0.1"
   fill="#e6e6e6"
   enable-background="new    "
   d="m 797.8,641.6 c 40.5,-2.8 75.8,-20.3 87.3,-30.5 11.5,-10.2 17.5,-31.5 17.5,-31.5 0.4,15 0.4,26.3 0.4,26.3 0,0 -4.5,53.4 -36.2,74.9 -31.7,21.5 -56.7,14 -56.7,14 0,0 -33.1,-8.2 -57.8,-41.9 -4.5,-6.2 -9.3,-14.5 -14.1,-23.8 0.1,-0.1 19.2,15.2 59.6,12.5 z"
   id="path561" />
		
			<pattern
   id="SVGID_5_"
   xlink:href="#SVGID_2_"
   patternTransform="matrix(-0.3298 9.457588e-002 -9.457588e-002 -0.3298 -21159.9766 -7429.6616)">
		</pattern>
		<path
   style="fill:#11cbd2;fill-opacity:1;opacity:1;filter:url(#filter1066)"
   opacity="0.08"
   fill="url(#SVGID_5_)"
   enable-background="new    "
   d="m 797.8,641.6 c 40.5,-2.8 75.8,-20.3 87.3,-30.5 11.5,-10.2 17.5,-31.5 17.5,-31.5 0.4,15 0.4,26.3 0.4,26.3 0,0 -4.5,53.4 -36.2,74.9 -31.7,21.5 -56.7,14 -56.7,14 0,0 -33.1,-8.2 -57.8,-41.9 -4.5,-6.2 -9.3,-14.5 -14.1,-23.8 0.1,-0.1 19.2,15.2 59.6,12.5 z"
   id="path564" />
		<path
   style="fill:#0fb7bd;fill-opacity:1"
   opacity="0.22"
   enable-background="new    "
   d="m 813,689.6 c 12.5,1.8 31.3,-2 45.1,-7.7 13.6,-5.7 24,-16.4 24,-16.4 -4.2,5.8 -9.3,11.1 -15.3,15.2 -31.7,21.5 -56.7,14 -56.7,14 0,0 -11.7,-2.9 -26.3,-12.3 0,0 14.6,5.2 29.2,7.2 z"
   id="path566" />
	</g><path
   d="m 337.5,240.6 c 6.9,0 12.5,5.6 12.5,12.5 v 18.3 c 0,6.9 -5.6,12.5 -12.5,12.5 -6.9,0 -12.5,-5.6 -12.5,-12.5 v -18.3 c 0,-6.9 5.6,-12.5 12.5,-12.5 m 0,-1.7 c -7.8,0 -14.2,6.4 -14.2,14.2 v 18.3 c 0,7.8 6.4,14.2 14.2,14.2 7.8,0 14.2,-6.4 14.2,-14.2 v -18.3 c 0,-7.9 -6.4,-14.2 -14.2,-14.2 z"
   id="path570"
   style="fill:#0fb7bd;fill-opacity:1" /><path
   fill="#10111a"
   d="m 337.5,240.6 c -6.9,0 -12.5,5.6 -12.5,12.5 v 18.3 c 0,6.9 5.6,12.5 12.5,12.5 6.9,0 12.5,-5.6 12.5,-12.5 v -18.3 c 0,-6.9 -5.6,-12.5 -12.5,-12.5 z"
   id="path572"
   style="fill:#11cbd2;fill-opacity:1" /><path
   d="m 662.5,240.6 c 6.9,0 12.5,5.6 12.5,12.5 v 18.3 c 0,6.9 -5.6,12.5 -12.5,12.5 v 0 c -6.9,0 -12.5,-5.6 -12.5,-12.5 v -18.3 c 0,-6.9 5.6,-12.5 12.5,-12.5 v 0 m 0,-1.7 c -7.8,0 -14.2,6.4 -14.2,14.2 v 18.3 c 0,7.8 6.4,14.2 14.2,14.2 7.8,0 14.2,-6.4 14.2,-14.2 v -18.3 c 0,-7.9 -6.4,-14.2 -14.2,-14.2 z"
   id="path578"
   style="fill:#0fb7bd;fill-opacity:1" /><path
   fill="#10111a"
   d="m 662.5,240.6 c -6.9,0 -12.5,5.6 -12.5,12.5 v 18.3 c 0,6.9 5.6,12.5 12.5,12.5 6.9,0 12.5,-5.6 12.5,-12.5 v -18.3 c 0,-6.9 -5.6,-12.5 -12.5,-12.5 z"
   id="path580"
   style="fill:#11cbd2;fill-opacity:1" /><path
   fill="#1a1a1a"
   d="m 238.2,344.3 c 1.4,-2 1.2,-2.9 1.2,-2.9 0,0 0.2,-0.9 -1.2,-2.9 -1.4,-2 -15,-13.6 -15.7,-14 -0.7,-0.4 -28.5,-2.2 -31.4,1.3 -2.9,3.5 -2.6,15.6 -2.6,15.6 0,0 -0.3,12.1 2.6,15.6 2.9,3.5 30.7,1.7 31.4,1.3 0.7,-0.4 14.3,-12 15.7,-14 z"
   id="path586"
   style="fill:#11cbd2;fill-opacity:1;stroke:#0fb7bd;stroke-opacity:1" /><path
   opacity="0.25"
   enable-background="new    "
   d="m 238.2,344.3 c 1.4,-2 1.2,-2.9 1.2,-2.9 0,0 0.2,-0.9 -1.2,-2.9 -0.9,-1.3 -6.9,-6.6 -11.2,-10.3 -2.1,3.9 -3.4,8.4 -3.4,13.2 0,4.8 1.2,9.3 3.4,13.2 4.3,-3.7 10.3,-9 11.2,-10.3 z"
   id="path588"
   style="fill:#0fb7bd;fill-opacity:1;opacity:1" /><path
   fill="#1a1a1a"
   d="m 248,328.7 c 2,1.4 2.9,1.2 2.9,1.2 0,0 0.9,0.2 2.9,-1.2 2,-1.4 13.6,-15 14,-15.7 0.4,-0.7 2.2,-28.5 -1.3,-31.4 -3.5,-2.9 -15.6,-2.6 -15.6,-2.6 0,0 -12.1,-0.3 -15.6,2.6 -3.5,2.9 -1.7,30.7 -1.3,31.4 0.5,0.7 12,14.3 14,15.7 z"
   id="path592"
   style="fill:#11cbd2;fill-opacity:1;stroke:#0fb7bd;stroke-opacity:1" /><path
   opacity="0.25"
   enable-background="new    "
   d="m 248,328.7 c 2,1.4 2.9,1.2 2.9,1.2 0,0 0.9,0.2 2.9,-1.2 1.3,-0.9 6.6,-6.9 10.3,-11.2 -3.9,-2.1 -8.4,-3.4 -13.2,-3.4 -4.8,0 -9.3,1.2 -13.2,3.4 3.8,4.3 9,10.3 10.3,11.2 z"
   id="path594"
   style="fill:#0fb7bd;fill-opacity:1;opacity:1" /><path
   fill="#1a1a1a"
   d="m 310.7,325.9 c -2.9,-3.5 -30.7,-1.7 -31.4,-1.3 -0.7,0.4 -14.3,12 -15.7,14 -1.4,2 -1.2,2.9 -1.2,2.9 0,0 -0.2,0.9 1.2,2.9 1.4,2 15,13.6 15.7,14 0.7,0.4 28.5,2.2 31.4,-1.3 2.9,-3.5 2.6,-15.6 2.6,-15.6 0,0 0.3,-12.1 -2.6,-15.6 z"
   id="path598"
   style="fill:#11cbd2;fill-opacity:1;stroke:#0fb7bd;stroke-opacity:1" /><path
   opacity="0.25"
   enable-background="new    "
   d="m 274.9,328.3 c -4.3,3.7 -10.3,9 -11.2,10.3 -1.4,2 -1.2,2.9 -1.2,2.9 0,0 -0.2,0.9 1.2,2.9 0.9,1.3 6.9,6.6 11.2,10.3 2.1,-3.9 3.4,-8.4 3.4,-13.2 0,-4.8 -1.3,-9.3 -3.4,-13.2 z"
   id="path600"
   style="fill:#0fb7bd;fill-opacity:1;opacity:1" /><path
   fill="#1a1a1a"
   d="m 253.8,354.2 c -2,-1.4 -2.9,-1.2 -2.9,-1.2 0,0 -0.9,-0.2 -2.9,1.2 -2,1.4 -13.6,15 -14,15.7 -0.4,0.7 -2.2,28.5 1.3,31.4 3.5,2.9 15.6,2.6 15.6,2.6 0,0 12.1,0.3 15.6,-2.6 3.5,-2.9 1.7,-30.7 1.3,-31.4 -0.4,-0.8 -12,-14.3 -14,-15.7 z"
   id="path604"
   style="fill:#11cbd2;fill-opacity:1;stroke:#0fb7bd;stroke-opacity:1" /><path
   opacity="0.25"
   enable-background="new    "
   d="m 253.8,354.2 c -2,-1.4 -2.9,-1.2 -2.9,-1.2 0,0 -0.9,-0.2 -2.9,1.2 -1.3,0.9 -6.6,6.9 -10.3,11.2 3.9,2.1 8.4,3.4 13.2,3.4 4.8,0 9.3,-1.2 13.2,-3.4 -3.7,-4.3 -9,-10.3 -10.3,-11.2 z"
   id="path606"
   style="fill:#0fb7bd;fill-opacity:1;opacity:1" />

<path
   fill="#ffffff"
   d="m 500,396.7 c 2.3,0 4.1,-1.8 4.1,-4.1 0,-0.2 0,-0.3 -0.1,-0.5 -0.2,2 -2,3.6 -4.1,3.6 -2.1,0 -3.8,-1.6 -4.1,-3.6 0,0.2 -0.1,0.3 -0.1,0.5 0.2,2.2 2,4.1 4.3,4.1 z"
   id="path646"
   style="opacity:0.12" />
<path
   id="path670"
   d="M533.6,518.1h-67.9c-2.8,0-4.6,0.6-4.6-2.2l0,0c0-2.8,2.3-5,5-5H534c2.8,0,5,2.3,5,5l0,0  C539.1,518.6,536.4,518.1,533.6,518.1z"
   fill="#0B0B0F"
   style="fill:#11cbd2;fill-opacity:1;stroke:#0fb7bd;stroke-opacity:1" />
<path
   id="path672"
   d="M505.3,515.9h-36.5c-0.5,0-0.9-0.4-0.9-0.9l0,0c0-1.1,0.9-2,2-2h34.2c1.1,0,2,0.9,2,2l0,0  C506.2,515.5,505.8,515.9,505.3,515.9z"
   style="fill:#f7f7f7;fill-opacity:1" />
<path
   id="path674"
   d="M527.5,516.7h-4.2c-0.9,0-1.7-0.8-1.7-1.7l0,0c0-1.6,1.3-2.8,2.8-2.8h1.9c1.6,0,2.8,1.3,2.8,2.8l0,0  C529.2,516,528.5,516.7,527.5,516.7z"
   style="fill:#f7f7f7;fill-opacity:1" />
<g
   id="g683"
   style="fill:#11cbd2;fill-opacity:1">
		<path
   fill="#080808"
   d="m 627.4,221.4 c 0,-1 -0.8,-1.9 -1.9,-1.9 H 500 v 0 H 374.4 c -1,0 -1.9,0.8 -1.9,1.9 v 6 123.2 c 0,8.6 7,15.6 15.6,15.6 H 500 v 0 h 111.9 c 8.6,0 15.6,-7 15.6,-15.6 V 227.5 Z"
   id="path676"
   style="fill:#11cbd2;fill-opacity:1" />
		<g
   opacity="0.12"
   id="g681"
   style="fill:#11cbd2;fill-opacity:1">
			
				<pattern
   id="SVGID_6_"
   xlink:href="#SVGID_3_"
   patternTransform="matrix(0.1017 0 0 -0.1017 -13979.8896 -2289.7598)"
   opacity="0.12">
			</pattern>
			<path
   fill="url(#SVGID_6_)"
   d="m 372.5,350.6 c 0,8.6 7,15.6 15.6,15.6 H 500 v 0 h 111.9 c 8.6,0 15.6,-7 15.6,-15.6 V 244.1 h -255 z"
   id="path679"
   style="fill:#11cbd2;fill-opacity:1" />
		</g>
	</g>
<path
   style="fill:#11cbd2;fill-opacity:1"
   id="path687"
   d="m 806.9,368.1 c -14.5,0 -26.3,-11.8 -26.3,-26.3 0,-14.5 11.8,-26.3 26.3,-26.3 14.5,0 26.3,11.8 26.3,26.3 0,14.5 -11.8,26.3 -26.3,26.3 z"
   fill="#1a1a1a" /><path
   style="fill:#0fb7bd;fill-opacity:1"
   id="path689"
   d="m 806.9,316.6 c 13.9,0 25.3,11.3 25.3,25.3 0,14 -11.3,25.2 -25.3,25.2 -14,0 -25.3,-11.3 -25.3,-25.3 0,-14 11.4,-25.2 25.3,-25.2 m 0,-2 c -15,0 -27.3,12.2 -27.3,27.3 0,15.1 12.2,27.3 27.3,27.3 15.1,0 27.3,-12.2 27.3,-27.3 0,-15.1 -12.3,-27.3 -27.3,-27.3 z"
   fill="#0f0f0f" /><path
   fill="#ff6666"
   d="m 806.9,323 c -10.4,0 -18.9,8.5 -18.9,18.9 0,10.4 8.5,18.9 18.9,18.9 10.4,0 18.9,-8.5 18.9,-18.9 0,-10.4 -8.4,-18.9 -18.9,-18.9 z m 0,34.9 c -8.9,0 -16,-7.2 -16,-16 0,-8.9 7.2,-16 16,-16 8.8,0 16,7.2 16,16 0.1,8.9 -7.1,16 -16,16 z"
   id="path693"
   style="fill:#f7f7f7;fill-opacity:1" /><path
   style="fill:#11cbd2;fill-opacity:1"
   id="path697"
   d="m 749.3,425.7 c -14.5,0 -26.3,-11.8 -26.3,-26.3 0,-14.5 11.8,-26.3 26.3,-26.3 14.5,0 26.3,11.8 26.3,26.3 0,14.5 -11.8,26.3 -26.3,26.3 z"
   fill="#1a1a1a" /><path
   style="fill:#0fb7bd;fill-opacity:1"
   id="path699"
   d="m 749.3,374.2 c 13.9,0 25.3,11.3 25.3,25.3 0,14 -11.3,25.3 -25.3,25.3 -14,0 -25.3,-11.3 -25.3,-25.3 0,-14 11.4,-25.3 25.3,-25.3 m 0,-2 c -15,0 -27.3,12.2 -27.3,27.3 0,15 12.2,27.3 27.3,27.3 15.1,0 27.3,-12.2 27.3,-27.3 0,-15 -12.2,-27.3 -27.3,-27.3 z"
   fill="#0f0f0f" /><polygon
   fill="#7cb2e8"
   points="735,411.8 737,413.8 749.3,401.5 761.7,413.8 763.7,411.8 751.3,399.5 763.7,387.1 761.7,385.1 749.3,397.5 737,385.1 735,387.1 747.3,399.5 "
   id="polygon703"
   style="fill:#f7f7f7;fill-opacity:1" /><path
   style="fill:#11cbd2;fill-opacity:1"
   id="path707"
   d="m 691.8,368.1 c -14.5,0 -26.3,-11.8 -26.3,-26.3 0,-14.5 11.8,-26.3 26.3,-26.3 14.5,0 26.3,11.8 26.3,26.3 0,14.5 -11.9,26.3 -26.3,26.3 z"
   fill="#1a1a1a" /><path
   style="fill:#0fb7bd;fill-opacity:1"
   id="path709"
   d="m 691.7,316.6 c 13.9,0 25.3,11.3 25.3,25.3 0,14 -11.3,25.2 -25.3,25.2 -14,0 -25.3,-11.3 -25.3,-25.3 0,-14 11.4,-25.2 25.3,-25.2 m 0,-2 c -15,0 -27.3,12.2 -27.3,27.3 0,15.1 12.2,27.3 27.3,27.3 15.1,0 27.3,-12.2 27.3,-27.3 0,-15.1 -12.2,-27.3 -27.3,-27.3 z"
   fill="#0f0f0f" /><path
   fill="#ff69f8"
   d="m 703.3,327.5 h -23 -2.8 v 2.8 23 2.8 h 2.8 23 2.8 v -2.8 -23 -2.8 z m 0,25.9 h -23 v -23 h 23 z"
   id="path713"
   style="fill:#f7f7f7;fill-opacity:1" /><path
   style="fill:#11cbd2;fill-opacity:1"
   id="path717"
   d="m 749.3,310.6 c -14.5,0 -26.3,-11.8 -26.3,-26.3 0,-14.5 11.8,-26.3 26.3,-26.3 14.5,0 26.3,11.8 26.3,26.3 0,14.5 -11.8,26.3 -26.3,26.3 z"
   fill="#1a1a1a" /><path
   style="fill:#0fb7bd;fill-opacity:1"
   id="path719"
   d="m 749.3,259.1 c 13.9,0 25.3,11.3 25.3,25.3 0,14 -11.3,25.3 -25.3,25.3 -14,0 -25.3,-11.3 -25.3,-25.3 0,-14 11.4,-25.3 25.3,-25.3 m 0,-2 c -15,0 -27.3,12.2 -27.3,27.3 0,15.1 12.2,27.3 27.3,27.3 15.1,0 27.3,-12.2 27.3,-27.3 0,-15.1 -12.2,-27.3 -27.3,-27.3 z"
   fill="#0f0f0f" /><path
   fill="#40e2a0"
   d="m 765.3,292.3 -16,-27.6 -16,27.6 -1.6,2.8 h 3.3 14.3 14.3 3.3 z m -16,0 h -12.7 l 12.7,-21.9 12.7,21.9 z"
   id="path723"
   style="fill:#f7f7f7;fill-opacity:1" />

<path
   fill="#0a0a0a"
   d="m 794.2,207 c 0,-0.8 -0.4,-1.5 -1.1,-1.9 -4.5,-2.9 -23.4,-13.6 -51.5,-13.6 -26.9,0 -41.1,5.9 -45.1,8 -0.8,0.4 -1.2,1.2 -1.2,2 0,0 9.8,-2.9 47.5,-2.9 37.7,0 51.4,8.4 51.4,8.4 z"
   id="path743"
   style="fill:#0fb7bd;fill-opacity:1" /><path
   fill="#121212"
   d="m 794.1,213.9 v 0 -6.9 c 0,0 -13.7,-8.4 -51.4,-8.4 -37.8,0 -47.5,2.9 -47.5,2.9 v 11 0 c 7.7,-1.3 21.2,-2.6 44.1,-2.6 28.5,0.1 45.9,2.4 54.8,4 z"
   id="path745"
   style="fill:#11cbd2;fill-opacity:1;stroke:#0fb7bd;stroke-opacity:1" /><path
   fill="#0a0a0a"
   d="m 205.8,207 c 0,-0.8 0.4,-1.5 1.1,-1.9 4.5,-2.9 23.4,-13.6 51.5,-13.6 26.9,0 41.1,5.9 45.1,8 0.8,0.4 1.2,1.2 1.2,2 0,0 -9.8,-2.9 -47.5,-2.9 -37.7,0 -51.4,8.4 -51.4,8.4 z"
   id="path751"
   style="fill:#0fb7bd;fill-opacity:1" /><path
   fill="#121212"
   d="m 205.9,213.9 v 0 -6.9 c 0,0 13.7,-8.4 51.4,-8.4 37.8,0 47.5,2.9 47.5,2.9 v 11 0 c -7.7,-1.3 -21.2,-2.6 -44.1,-2.6 -28.5,0.1 -45.9,2.4 -54.8,4 z"
   id="path753"
   style="fill:#11cbd2;fill-opacity:1;stroke:#0fb7bd;stroke-opacity:1" />
<path
   id="path761"
   d="m 794.2,187.9 c 0,0 -32.7,-3.2 -50.6,-3.2 -17.9,0 -48.4,2.4 -48.4,2.4 0,0 3.1,-44.7 4.8,-52 1.6,-7.3 7.7,-21.3 16.9,-27.9 9.2,-6.6 11.9,-10.1 22.7,-10.1 10.8,0 25.4,6.4 34.6,21.4 9.3,15 20,69.4 20,69.4 z"
   fill="#121212"
   style="fill:#11cbd2;fill-opacity:1;stroke:#0fb7bd;stroke-opacity:1" /><path
   id="path763"
   d="m 695.7,180.3 c 0,0 26.1,-4.4 49,-4.4 22.8,0 47.9,4.4 47.9,4.4 1,4.7 1.6,7.6 1.6,7.6 0,0 -32.7,-3.2 -50.6,-3.2 -17.9,0 -48.4,2.4 -48.4,2.4 0,0 0.2,-2.7 0.5,-6.8 z"
   fill="#0a0a0a"
   style="fill:#0fb7bd;fill-opacity:1" /><path
   id="path779"
   d="m 205.8,187.9 c 0,0 32.7,-3.2 50.6,-3.2 17.9,0 48.3,2.4 48.3,2.4 0,0 -3.1,-44.7 -4.8,-52 -1.6,-7.3 -7.7,-21.3 -16.9,-27.9 -9.1,-6.7 -11.8,-10.1 -22.6,-10.1 -10.8,0 -25.4,6.4 -34.6,21.4 -9.2,15 -20,69.4 -20,69.4 z"
   fill="#121212"
   style="fill:#11cbd2;fill-opacity:1;stroke:#0fb7bd;stroke-opacity:1" /><path
   id="path781"
   d="m 304.3,180.3 c 0,0 -26.1,-4.4 -49,-4.4 -22.8,0 -47.9,4.4 -47.9,4.4 -1,4.7 -1.6,7.6 -1.6,7.6 0,0 32.7,-3.2 50.6,-3.2 17.9,0 48.3,2.4 48.3,2.4 0,0 -0.1,-2.7 -0.4,-6.8 z"
   fill="#0a0a0a"
   style="fill:#0fb7bd;fill-opacity:1" />

</svg>
