<?xml version="1.0" encoding="utf-8"?>
<!-- Generator: Adobe Illustrator 22.1.0, SVG Export Plug-In . SVG Version: 6.00 Build 0)  -->
<svg version="1.1" id="Layer_1" xmlns="http://www.w3.org/2000/svg" xmlns:xlink="http://www.w3.org/1999/xlink" x="0px" y="0px"
	 viewBox="0 0 806 598.9" style="enable-background:new 0 0 806 598.9;" xml:space="preserve">
<style type="text/css">
	.st0{fill:none;}
	.st1{fill:#B3B3B3;}
	.st2{fill:#F7F7F7;}
	.st3{opacity:6.000000e-02;}
	.st4{fill:#FFFFFF;}
	.st5{clip-path:url(#SVGID_2_);}
	.st6{fill:none;stroke:#11CBD2;stroke-width:0.25;stroke-miterlimit:10;}
	.st7{fill:none;stroke:#0FB7BD;stroke-miterlimit:10;}
	.st8{fill:#0FB7BD;}
	.st9{fill:#FFFFFF;stroke:#11CBD2;stroke-miterlimit:10;}
	.st10{fill:#11CBD2;}
	.st11{fill:none;stroke:#E6E7E8;stroke-width:3;stroke-linecap:round;stroke-miterlimit:10;stroke-dasharray:0,10;}
	.st12{fill:none;stroke:#11CBD2;stroke-width:2;stroke-miterlimit:10;}
	.st13{fill:#0FB7BD;stroke:#FFFFFF;stroke-miterlimit:10;}
	.st14{fill:#0FB7BD;stroke:#11CBD2;stroke-width:2;stroke-miterlimit:10;}
	.st15{opacity:0.1;fill:#E6E6E6;enable-background:new    ;}
	.st16{opacity:0.22;enable-background:new    ;}
	.st17{fill:#11CBD2;stroke:#0FB7BD;stroke-width:2;stroke-miterlimit:10;}
	.st18{opacity:0.12;}
	.st19{fill:url(#SVGID_3_);}
</style>
<pattern  y="598.9" width="71" height="71" patternUnits="userSpaceOnUse" id="SVGID_4_" viewBox="0 -71 71 71" style="overflow:visible;">
	<g>
		<rect y="-71" class="st0" width="71" height="71"/>
		<g>
			<rect y="-71" class="st0" width="71" height="71"/>
			<rect y="-71" class="st0" width="71" height="71"/>
			<rect y="-71" class="st0" width="71" height="71"/>
			<rect y="-71" class="st0" width="71" height="71"/>
			<polygon class="st0" points="0,-71 71,-71 71,0 0,0 			"/>
			<polygon class="st0" points="0,-71 71,-71 71,0 0,0 			"/>
			<path class="st1" d="M41.8-35.5c0,3.5-2.8,6.3-6.3,6.3s-6.3-2.8-6.3-6.3s2.8-6.3,6.3-6.3l0,0C39-41.8,41.8-39,41.8-35.5
				L41.8-35.5z"/>
		</g>
	</g>
</pattern>
<title>basetrinityrev2</title>
<path class="st2" d="M801.1,418.5c-2.9-15.5-17.7-102.5-32-144.6c-9.4-27.7-13.1-53-17-64.9c-12-35.7-33-65.7-33-65.7
	s-9.5-13.1-10.1-16.3c-0.6-3.2-4.7-8.6-4.7-8.6s-17.4-5.7-62.3-5.7c-44.9,0-53.7,5-53.7,5c-1.7,1.9-3.7,3.5-5.9,4.8
	c-3.5,1.8-11.7,1.7-11.7,1.7h-33.4c-0.3-0.1-0.7,0.1-0.9,0.3c-0.3,0.6-0.5,1.3-0.6,2h-266c-0.1-0.7-0.3-1.4-0.6-2
	c-0.2-0.2-0.6-0.3-0.9-0.3H235c0,0-8.2,0.2-11.7-1.7c-2.2-1.2-4.2-2.8-5.9-4.8c0,0-8.8-5-53.7-5s-62.3,5.7-62.3,5.7
	s-4.1,5.3-4.7,8.6c-0.6,3.3-10.1,16.3-10.1,16.3s-21,30-33,65.7c-4,11.9-7.7,37.2-17,64.9C22.4,316,7.6,403,4.7,418.5
	c-4.3,23.2-4.6,90.2-4.6,90.2s4.5,53.4,36.2,74.9C68,605,93,597.5,93,597.5s33.1-8.2,57.8-41.9s56.6-129.2,56.6-129.2
	c1.6-2.1,3.5-3.8,5.7-5.3c1.9-1.3,4-2.2,6.3-2.6l183.6,0.1l183.6-0.1c2.3,0.4,4.4,1.3,6.3,2.6c2.2,1.5,4.1,3.2,5.7,5.3
	c0,0,31.9,95.4,56.6,129.2s57.8,41.9,57.8,41.9s25,7.5,56.7-14c31.7-21.5,36.2-74.9,36.2-74.9S805.5,441.7,801.1,418.5z"/>
<g class="st3">
	<path class="st4" d="M36.7,275.9c9.4-27.7,13.1-53,17-64.9c12-35.7,33-65.7,33-65.7s9.5-13.1,10.1-16.3c0.6-3.2,4.7-8.6,4.7-8.6
		s17.4-5.7,62.3-5.7s53.7,5,53.7,5c1.7,1.9,3.7,3.5,5.9,4.8c3.5,1.8,11.7,1.7,11.7,1.7h33.4c0.3-0.1,0.7,0.1,0.9,0.3
		c0.3,0.6,0.5,1.3,0.6,2H536c0.1-0.7,0.3-1.4,0.6-2c0.2-0.2,0.6-0.3,0.9-0.3h33.4c0,0,8.2,0.2,11.7-1.7c2.2-1.2,4.2-2.8,5.9-4.8
		c0,0,8.8-5,53.7-5c44.9,0,62.3,5.7,62.3,5.7s4.1,5.3,4.7,8.6c0.6,3.3,10.1,16.3,10.1,16.3s21,30,33,65.7c4,11.9,7.7,37.2,17,64.9
		c14.3,42.1,29.1,129.1,32,144.6c3.9,20.9,4.6,77.3,4.7,88.3v-0.1c0,0-0.3-66.9-4.7-90.1c-2.9-15.5-17.7-102.5-32-144.6
		c-9.4-27.7-13.1-53-17-64.9c-12-35.7-33-65.7-33-65.7s-9.5-13.1-10.1-16.3c-0.6-3.2-4.7-8.6-4.7-8.6s-17.4-5.7-62.3-5.7
		c-44.9,0-53.7,5-53.7,5c-1.7,1.9-3.7,3.5-5.9,4.8c-3.5,1.8-11.7,1.7-11.7,1.7h-33.4c-0.3-0.1-0.7,0.1-0.9,0.3
		c-0.3,0.6-0.5,1.3-0.6,2H269.9c-0.1-0.7-0.3-1.4-0.6-2c-0.2-0.2-0.6-0.3-0.9-0.3H235c0,0-8.2,0.2-11.7-1.7
		c-2.2-1.2-4.2-2.8-5.9-4.8c0,0-8.8-5-53.7-5s-62.3,5.7-62.3,5.7s-4.1,5.3-4.7,8.6c-0.6,3.3-10.1,16.3-10.1,16.3s-21,30-33,65.7
		c-4,11.9-7.7,37.2-17,64.9c-14.3,42.1-29.1,129.1-32,144.6c-4.3,23.1-4.6,90.1-4.6,90.1v0.1c0.1-10.9,0.7-67.4,4.7-88.3
		C7.7,405.1,22.4,318,36.7,275.9z"/>
</g>
<g>
	<g>
		<defs>
			<path id="SVGID_1_" d="M801.1,418.6c-2.9-15.5-17.7-102.5-32-144.6c-9.4-27.7-13.1-53-17-64.9c-12-35.7-33-65.7-33-65.7
				s-9.5-13.1-10.1-16.3c-0.6-3.2-4.7-8.6-4.7-8.6s-17.4-5.7-62.3-5.7c-44.9,0-53.7,5-53.7,5c-1.7,1.9-3.7,3.5-5.9,4.8
				c-3.5,1.8-11.7,1.7-11.7,1.7h-33.4c-0.3-0.1-0.7,0.1-0.9,0.3c-0.3,0.6-0.5,1.3-0.6,2H270c-0.1-0.7-0.3-1.4-0.6-2
				c-0.2-0.2-0.6-0.3-0.9-0.3h-33.4c0,0-8.2,0.2-11.7-1.7c-2.2-1.2-4.2-2.8-5.9-4.8c0,0-8.8-5-53.7-5s-62.3,5.7-62.3,5.7
				s-4.1,5.3-4.7,8.6c-0.6,3.3-10.1,16.3-10.1,16.3s-21,30-33,65.7c-4,11.9-7.7,37.2-17,64.9c-14.3,42.1-29.1,129.1-32,144.6
				c-4.3,23.2-4.6,90.2-4.6,90.2s4.5,53.4,36.2,74.9c31.7,21.5,56.7,14,56.7,14s33.1-8.2,57.8-41.9c24.7-33.7,56.6-129.2,56.6-129.2
				c1.6-2.1,3.5-3.8,5.7-5.3c1.9-1.3,4-2.2,6.3-2.6l183.6,0.1l183.6-0.1c2.3,0.4,4.4,1.3,6.3,2.6c2.2,1.5,4.1,3.2,5.7,5.3
				c0,0,31.9,95.4,56.6,129.2c24.7,33.8,57.8,41.9,57.8,41.9s25,7.5,56.7-14c31.7-21.5,36.2-74.9,36.2-74.9S805.6,441.8,801.1,418.6
				z"/>
		</defs>
		<clipPath id="SVGID_2_">
			<use xlink:href="#SVGID_1_"  style="overflow:visible;"/>
		</clipPath>
		<g class="st5">
			<g id="Pattern">
				<rect x="22.2" y="35.1" class="st0" width="752.3" height="635"/>
				<line class="st6" x1="765.2" y1="651.1" x2="732.7" y2="791.3"/>
				<line class="st6" x1="765.2" y1="651.1" x2="732.7" y2="791.3"/>
				<line class="st6" x1="766.9" y1="656.8" x2="736.9" y2="786.4"/>
				<line class="st6" x1="766.9" y1="656.8" x2="736.9" y2="786.4"/>
				<line class="st6" x1="768.6" y1="662.5" x2="741.1" y2="781.4"/>
				<line class="st6" x1="768.6" y1="662.5" x2="741.1" y2="781.4"/>
				<line class="st6" x1="770.4" y1="668.2" x2="745.3" y2="776.4"/>
				<line class="st6" x1="770.4" y1="668.2" x2="745.3" y2="776.4"/>
				<line class="st6" x1="765.2" y1="333.6" x2="732.7" y2="473.8"/>
				<line class="st6" x1="765.2" y1="333.6" x2="732.7" y2="473.8"/>
				<line class="st6" x1="766.9" y1="339.3" x2="736.9" y2="468.9"/>
				<line class="st6" x1="766.9" y1="339.3" x2="736.9" y2="468.9"/>
				<line class="st6" x1="768.6" y1="345" x2="741.1" y2="463.9"/>
				<line class="st6" x1="768.6" y1="345" x2="741.1" y2="463.9"/>
				<line class="st6" x1="770.4" y1="350.7" x2="745.3" y2="459"/>
				<line class="st6" x1="770.4" y1="350.7" x2="745.3" y2="459"/>
				<line class="st6" x1="772.1" y1="356.5" x2="749.5" y2="454"/>
				<line class="st6" x1="772.1" y1="356.5" x2="749.5" y2="454"/>
				<line class="st6" x1="773.9" y1="362.2" x2="753.7" y2="449.2"/>
				<line class="st6" x1="773.9" y1="362.2" x2="753.7" y2="449.2"/>
				<line class="st6" x1="753.7" y1="383.1" x2="721.2" y2="523.3"/>
				<line class="st6" x1="753.7" y1="383.1" x2="721.2" y2="523.3"/>
				<line class="st6" x1="755.4" y1="388.8" x2="725.4" y2="518.3"/>
				<line class="st6" x1="755.4" y1="388.8" x2="725.4" y2="518.3"/>
				<line class="st6" x1="757.2" y1="394.5" x2="729.6" y2="513.4"/>
				<line class="st6" x1="757.2" y1="394.5" x2="729.6" y2="513.4"/>
				<line class="st6" x1="758.9" y1="400.2" x2="733.8" y2="508.4"/>
				<line class="st6" x1="758.9" y1="400.2" x2="733.8" y2="508.4"/>
				<line class="st6" x1="760.7" y1="405.9" x2="738" y2="503.4"/>
				<line class="st6" x1="760.7" y1="405.9" x2="738" y2="503.4"/>
				<line class="st6" x1="790.8" y1="417.7" x2="758.3" y2="557.9"/>
				<line class="st6" x1="790.8" y1="417.7" x2="758.3" y2="557.9"/>
				<line class="st6" x1="792.5" y1="423.4" x2="762.5" y2="553"/>
				<line class="st6" x1="792.5" y1="423.4" x2="762.5" y2="553"/>
				<line class="st7" x1="794.3" y1="429.1" x2="766.7" y2="548"/>
				<line class="st7" x1="794.3" y1="429.1" x2="766.7" y2="548"/>
				<line class="st7" x1="796" y1="434.8" x2="770.9" y2="543.1"/>
				<line class="st7" x1="796" y1="434.8" x2="770.9" y2="543.1"/>
				<line class="st7" x1="779.3" y1="467.1" x2="746.8" y2="607.4"/>
				<line class="st7" x1="779.3" y1="467.1" x2="746.8" y2="607.4"/>
				<line class="st7" x1="781.1" y1="472.8" x2="751.1" y2="602.4"/>
				<line class="st7" x1="781.1" y1="472.8" x2="751.1" y2="602.4"/>
				<line class="st7" x1="782.8" y1="478.5" x2="755.3" y2="597.5"/>
				<line class="st7" x1="782.8" y1="478.5" x2="755.3" y2="597.5"/>
				<line class="st7" x1="784.6" y1="484.2" x2="759.5" y2="592.5"/>
				<line class="st7" x1="784.6" y1="484.2" x2="759.5" y2="592.5"/>
				<polygon class="st8" points="638.9,561.9 616.2,659.5 712,630.3 638.9,561.9 616.2,659.5 712,630.3 				"/>
				<polygon class="st9" points="680.6,444.6 655.5,552.9 761.8,520.4 680.6,444.6 655.5,552.9 761.8,520.4 				"/>
				<polygon class="st10" points="659.5,565.9 645.3,627.3 705.5,609 659.5,565.9 645.3,627.3 705.5,609 				"/>
				<line class="st11" x1="747.9" y1="413.4" x2="646.5" y2="444.4"/>
				<line class="st11" x1="745.3" y1="404.6" x2="643.9" y2="435.6"/>
				<line class="st11" x1="742.6" y1="395.8" x2="641.2" y2="426.8"/>
				<line class="st11" x1="739.9" y1="387" x2="638.5" y2="418"/>
				<line class="st11" x1="737.2" y1="378.2" x2="635.8" y2="409.2"/>
				<path class="st12" d="M494.1,538.7c13.8-4.2,19.6,14.9,33.4,10.7c13.8-4.2,8-23.3,21.7-27.5c13.7-4.2,19.6,14.9,33.4,10.7
					c13.8-4.2,8-23.3,21.7-27.5s19.6,14.9,33.4,10.7"/>
				<polygon class="st8" points="825.3,557.9 768.8,640.7 868.8,648.2 825.3,557.9 768.8,640.7 868.8,648.2 				"/>
				<line class="st6" x1="389" y1="492.3" x2="356.5" y2="632.6"/>
				<line class="st6" x1="389" y1="492.3" x2="356.5" y2="632.6"/>
				<line class="st6" x1="390.8" y1="498" x2="360.8" y2="627.7"/>
				<line class="st6" x1="390.8" y1="498" x2="360.8" y2="627.7"/>
				<line class="st6" x1="392.5" y1="503.7" x2="365" y2="622.7"/>
				<line class="st6" x1="392.5" y1="503.7" x2="365" y2="622.7"/>
				<line class="st6" x1="394.3" y1="509.4" x2="369.2" y2="617.7"/>
				<line class="st6" x1="394.3" y1="509.4" x2="369.2" y2="617.7"/>
				<line class="st6" x1="396" y1="515.1" x2="373.4" y2="612.8"/>
				<line class="st6" x1="396" y1="515.1" x2="373.4" y2="612.8"/>
				<line class="st6" x1="397.7" y1="520.8" x2="377.6" y2="607.8"/>
				<line class="st6" x1="397.7" y1="520.8" x2="377.6" y2="607.8"/>
				<line class="st6" x1="377.6" y1="541.8" x2="345.1" y2="682.1"/>
				<line class="st6" x1="377.6" y1="541.8" x2="345.1" y2="682.1"/>
				<line class="st6" x1="379.3" y1="547.5" x2="349.3" y2="677.1"/>
				<line class="st6" x1="379.3" y1="547.5" x2="349.3" y2="677.1"/>
				<line class="st6" x1="381.1" y1="553.2" x2="353.5" y2="672.2"/>
				<line class="st6" x1="381.1" y1="553.2" x2="353.5" y2="672.2"/>
				<line class="st6" x1="382.8" y1="558.9" x2="357.7" y2="667.2"/>
				<line class="st6" x1="382.8" y1="558.9" x2="357.7" y2="667.2"/>
				<line class="st6" x1="384.5" y1="564.6" x2="361.9" y2="662.2"/>
				<line class="st6" x1="384.5" y1="564.6" x2="361.9" y2="662.2"/>
				<line class="st6" x1="414.6" y1="576.4" x2="382.2" y2="716.7"/>
				<line class="st6" x1="414.6" y1="576.4" x2="382.2" y2="716.7"/>
				<line class="st6" x1="416.3" y1="582.1" x2="386.4" y2="711.8"/>
				<line class="st6" x1="416.3" y1="582.1" x2="386.4" y2="711.8"/>
				<line class="st7" x1="418.1" y1="587.8" x2="390.6" y2="706.8"/>
				<line class="st7" x1="418.1" y1="587.8" x2="390.6" y2="706.8"/>
				<line class="st7" x1="419.8" y1="593.5" x2="394.8" y2="701.8"/>
				<line class="st7" x1="419.8" y1="593.5" x2="394.8" y2="701.8"/>
				<line class="st7" x1="421.5" y1="599.2" x2="399" y2="696.9"/>
				<line class="st7" x1="421.5" y1="599.2" x2="399" y2="696.9"/>
				<line class="st7" x1="423.3" y1="604.9" x2="403.1" y2="691.9"/>
				<line class="st7" x1="423.3" y1="604.9" x2="403.1" y2="691.9"/>
				<line class="st7" x1="425" y1="610.6" x2="407.3" y2="687"/>
				<line class="st7" x1="425" y1="610.6" x2="407.3" y2="687"/>
				<line class="st7" x1="426.8" y1="616.3" x2="411.5" y2="682"/>
				<line class="st7" x1="426.8" y1="616.3" x2="411.5" y2="682"/>
				<line class="st7" x1="428.5" y1="622" x2="415.8" y2="677.1"/>
				<line class="st7" x1="428.5" y1="622" x2="415.8" y2="677.1"/>
				<line class="st7" x1="403.1" y1="625.9" x2="370.7" y2="766.1"/>
				<line class="st7" x1="403.1" y1="625.9" x2="370.7" y2="766.1"/>
				<line class="st7" x1="404.9" y1="631.6" x2="374.9" y2="761.1"/>
				<line class="st7" x1="404.9" y1="631.6" x2="374.9" y2="761.1"/>
				<line class="st7" x1="406.6" y1="637.3" x2="379.1" y2="756.1"/>
				<line class="st7" x1="406.6" y1="637.3" x2="379.1" y2="756.1"/>
				<line class="st7" x1="408.3" y1="643" x2="383.4" y2="751.2"/>
				<line class="st7" x1="408.3" y1="643" x2="383.4" y2="751.2"/>
				<polygon class="st9" points="304.4,603.3 279.3,711.6 385.7,679.2 304.4,603.3 279.3,711.6 385.7,679.2 				"/>
				<line class="st7" x1="440.2" y1="660.5" x2="407.7" y2="800.7"/>
				<line class="st7" x1="440.2" y1="660.5" x2="407.7" y2="800.7"/>
				<line class="st7" x1="442" y1="666.2" x2="411.9" y2="795.7"/>
				<line class="st7" x1="442" y1="666.2" x2="411.9" y2="795.7"/>
				<polygon class="st13" points="455,658.6 440.8,720 501.1,701.6 455,658.6 440.8,720 501.1,701.6 				"/>
				<polygon class="st10" points="455,576.7 440.8,638.1 501.1,619.7 455,576.7 440.8,638.1 501.1,619.7 				"/>
				<line class="st11" x1="371.8" y1="572.1" x2="270.3" y2="603.1"/>
				<line class="st11" x1="369.1" y1="563.3" x2="267.6" y2="594.2"/>
				<line class="st11" x1="366.5" y1="554.5" x2="265" y2="585.4"/>
				<line class="st11" x1="363.8" y1="545.7" x2="262.3" y2="576.6"/>
				<line class="st11" x1="361.1" y1="536.9" x2="259.6" y2="567.8"/>
				<path class="st12" d="M117.9,697.5c13.8-4.2,19.6,14.9,33.4,10.7s8-23.3,21.7-27.5c13.7-4.2,19.6,14.9,33.4,10.7
					c13.8-4.2,8-23.3,21.7-27.5c13.7-4.2,19.6,14.9,33.4,10.7"/>
				<polygon class="st10" points="412.1,547.5 406,573.9 432,566 412.1,547.5 406,573.9 432,566 				"/>
				<line class="st6" x1="649.8" y1="549.7" x2="568.6" y2="668.7"/>
				<line class="st6" x1="649.8" y1="549.7" x2="568.6" y2="668.7"/>
				<line class="st6" x1="649.3" y1="555.7" x2="574.3" y2="665.6"/>
				<line class="st6" x1="649.3" y1="555.7" x2="574.3" y2="665.6"/>
				<line class="st6" x1="648.9" y1="561.6" x2="580" y2="662.5"/>
				<line class="st6" x1="648.9" y1="561.6" x2="580" y2="662.5"/>
				<line class="st6" x1="648.4" y1="567.6" x2="585.7" y2="659.4"/>
				<line class="st6" x1="648.4" y1="567.6" x2="585.7" y2="659.4"/>
				<line class="st6" x1="648" y1="573.5" x2="591.5" y2="656.3"/>
				<line class="st6" x1="648" y1="573.5" x2="591.5" y2="656.3"/>
				<line class="st6" x1="647.5" y1="579.5" x2="597.2" y2="653.2"/>
				<line class="st6" x1="647.5" y1="579.5" x2="597.2" y2="653.2"/>
				<line class="st6" x1="621.2" y1="591.7" x2="540" y2="710.6"/>
				<line class="st6" x1="621.2" y1="591.7" x2="540" y2="710.6"/>
				<line class="st6" x1="620.7" y1="597.6" x2="545.7" y2="707.5"/>
				<line class="st6" x1="620.7" y1="597.6" x2="545.7" y2="707.5"/>
				<line class="st6" x1="620.3" y1="603.6" x2="551.4" y2="704.4"/>
				<line class="st6" x1="620.3" y1="603.6" x2="551.4" y2="704.4"/>
				<line class="st6" x1="619.8" y1="609.5" x2="557.1" y2="701.3"/>
				<line class="st6" x1="619.8" y1="609.5" x2="557.1" y2="701.3"/>
				<line class="st6" x1="619.4" y1="615.4" x2="562.9" y2="698.2"/>
				<line class="st6" x1="619.4" y1="615.4" x2="562.9" y2="698.2"/>
				<line class="st6" x1="643.2" y1="637.4" x2="562" y2="756.3"/>
				<line class="st6" x1="643.2" y1="637.4" x2="562" y2="756.3"/>
				<line class="st6" x1="642.7" y1="643.3" x2="567.7" y2="753.2"/>
				<line class="st6" x1="642.7" y1="643.3" x2="567.7" y2="753.2"/>
				<line class="st7" x1="642.3" y1="649.3" x2="573.4" y2="750.1"/>
				<line class="st7" x1="642.3" y1="649.3" x2="573.4" y2="750.1"/>
				<line class="st7" x1="641.8" y1="655.2" x2="579.1" y2="747.1"/>
				<line class="st7" x1="641.8" y1="655.2" x2="579.1" y2="747.1"/>
				<line class="st7" x1="641.4" y1="661.2" x2="584.9" y2="744"/>
				<line class="st7" x1="641.4" y1="661.2" x2="584.9" y2="744"/>
				<line class="st7" x1="640.9" y1="667.1" x2="590.6" y2="740.9"/>
				<line class="st7" x1="640.9" y1="667.1" x2="590.6" y2="740.9"/>
				<polygon class="st9" points="530.6,622.5 468,714.3 578.8,722.7 530.6,622.5 468,714.3 578.8,722.7 				"/>
				<polygon class="st8" points="553.9,650.9 518.4,703 581.3,707.7 553.9,650.9 518.4,703 581.3,707.7 				"/>
				<line class="st11" x1="604.8" y1="617.8" x2="499" y2="609.8"/>
				<line class="st11" x1="605.5" y1="608.7" x2="499.7" y2="600.7"/>
				<line class="st11" x1="606.2" y1="599.5" x2="500.3" y2="591.5"/>
				<line class="st11" x1="606.9" y1="590.3" x2="501" y2="582.3"/>
				<line class="st11" x1="607.5" y1="581.1" x2="501.7" y2="573.2"/>
				<polygon class="st10" points="651.4,609.5 636,632 663.2,634.1 651.4,609.5 636,632 663.2,634.1 				"/>
				<line class="st6" x1="38.5" y1="417.7" x2="6" y2="557.9"/>
				<line class="st6" x1="38.5" y1="417.7" x2="6" y2="557.9"/>
				<line class="st6" x1="40.2" y1="423.4" x2="10.2" y2="553"/>
				<line class="st6" x1="40.2" y1="423.4" x2="10.2" y2="553"/>
				<line class="st7" x1="41.9" y1="429.1" x2="14.4" y2="548"/>
				<line class="st7" x1="41.9" y1="429.1" x2="14.4" y2="548"/>
				<line class="st7" x1="43.7" y1="434.8" x2="18.6" y2="543.1"/>
				<line class="st7" x1="43.7" y1="434.8" x2="18.6" y2="543.1"/>
				<line class="st7" x1="45.4" y1="440.5" x2="22.8" y2="538.1"/>
				<line class="st7" x1="45.4" y1="440.5" x2="22.8" y2="538.1"/>
				<line class="st7" x1="47.2" y1="446.2" x2="27" y2="533.1"/>
				<line class="st7" x1="47.2" y1="446.2" x2="27" y2="533.1"/>
				<line class="st7" x1="48.9" y1="451.8" x2="31.2" y2="528.2"/>
				<line class="st7" x1="48.9" y1="451.8" x2="31.2" y2="528.2"/>
				<line class="st7" x1="50.6" y1="457.6" x2="35.4" y2="523.2"/>
				<line class="st7" x1="50.6" y1="457.6" x2="35.4" y2="523.2"/>
				<line class="st7" x1="52.4" y1="463.2" x2="39.6" y2="518.3"/>
				<line class="st7" x1="52.4" y1="463.2" x2="39.6" y2="518.3"/>
				<line class="st7" x1="27" y1="467.1" x2="-5.5" y2="607.4"/>
				<line class="st7" x1="27" y1="467.1" x2="-5.5" y2="607.4"/>
				<line class="st7" x1="28.8" y1="472.8" x2="-1.3" y2="602.4"/>
				<line class="st7" x1="28.8" y1="472.8" x2="-1.3" y2="602.4"/>
				<line class="st7" x1="30.5" y1="478.5" x2="2.9" y2="597.5"/>
				<line class="st7" x1="30.5" y1="478.5" x2="2.9" y2="597.5"/>
				<line class="st7" x1="32.2" y1="484.2" x2="7.1" y2="592.5"/>
				<line class="st7" x1="32.2" y1="484.2" x2="7.1" y2="592.5"/>
				<line class="st7" x1="64.1" y1="501.7" x2="31.6" y2="642"/>
				<line class="st7" x1="64.1" y1="501.7" x2="31.6" y2="642"/>
				<line class="st7" x1="65.9" y1="507.4" x2="35.8" y2="637.1"/>
				<line class="st7" x1="65.9" y1="507.4" x2="35.8" y2="637.1"/>
				<polygon class="st13" points="78.9,499.8 64.6,561.2 124.8,542.8 78.9,499.8 64.6,561.2 124.8,542.8 				"/>
				<polygon class="st10" points="78.9,418 64.6,479.3 124.8,460.9 78.9,418 64.6,479.3 124.8,460.9 				"/>
				<polygon class="st10" points="36,388.8 29.9,415.3 55.9,407.3 36,388.8 29.9,415.3 55.9,407.3 				"/>
				<line class="st6" x1="273.5" y1="391" x2="192.4" y2="509.9"/>
				<line class="st6" x1="273.5" y1="391" x2="192.4" y2="509.9"/>
				<line class="st6" x1="273.1" y1="397" x2="198.1" y2="506.8"/>
				<line class="st6" x1="273.1" y1="397" x2="198.1" y2="506.8"/>
				<line class="st6" x1="272.7" y1="402.9" x2="203.8" y2="503.7"/>
				<line class="st6" x1="272.7" y1="402.9" x2="203.8" y2="503.7"/>
				<line class="st6" x1="272.2" y1="408.9" x2="209.5" y2="500.6"/>
				<line class="st6" x1="272.2" y1="408.9" x2="209.5" y2="500.6"/>
				<line class="st6" x1="271.8" y1="414.8" x2="215.3" y2="497.5"/>
				<line class="st6" x1="271.8" y1="414.8" x2="215.3" y2="497.5"/>
				<line class="st6" x1="271.3" y1="420.8" x2="221" y2="494.4"/>
				<line class="st6" x1="271.3" y1="420.8" x2="221" y2="494.4"/>
				<line class="st6" x1="244.9" y1="433" x2="163.8" y2="551.8"/>
				<line class="st6" x1="244.9" y1="433" x2="163.8" y2="551.8"/>
				<line class="st6" x1="244.5" y1="438.9" x2="169.5" y2="548.7"/>
				<line class="st6" x1="244.5" y1="438.9" x2="169.5" y2="548.7"/>
				<line class="st6" x1="244" y1="444.9" x2="175.2" y2="545.6"/>
				<line class="st6" x1="244" y1="444.9" x2="175.2" y2="545.6"/>
				<line class="st6" x1="243.6" y1="450.7" x2="180.9" y2="542.6"/>
				<line class="st6" x1="243.6" y1="450.7" x2="180.9" y2="542.6"/>
				<line class="st6" x1="243.1" y1="456.7" x2="186.6" y2="539.5"/>
				<line class="st6" x1="243.1" y1="456.7" x2="186.6" y2="539.5"/>
				<line class="st6" x1="266.9" y1="478.6" x2="185.8" y2="597.6"/>
				<line class="st6" x1="266.9" y1="478.6" x2="185.8" y2="597.6"/>
				<line class="st6" x1="266.5" y1="484.6" x2="191.5" y2="594.5"/>
				<line class="st6" x1="266.5" y1="484.6" x2="191.5" y2="594.5"/>
				<line class="st7" x1="266" y1="490.5" x2="197.2" y2="591.4"/>
				<line class="st7" x1="266" y1="490.5" x2="197.2" y2="591.4"/>
				<line class="st7" x1="265.6" y1="496.4" x2="202.9" y2="588.3"/>
				<line class="st7" x1="265.6" y1="496.4" x2="202.9" y2="588.3"/>
				<line class="st7" x1="265.1" y1="502.4" x2="208.6" y2="585.2"/>
				<line class="st7" x1="265.1" y1="502.4" x2="208.6" y2="585.2"/>
				<line class="st7" x1="264.7" y1="508.3" x2="214.4" y2="582.1"/>
				<line class="st7" x1="264.7" y1="508.3" x2="214.4" y2="582.1"/>
				<line class="st7" x1="264.3" y1="514.3" x2="220.1" y2="579"/>
				<line class="st7" x1="264.3" y1="514.3" x2="220.1" y2="579"/>
				<line class="st7" x1="263.8" y1="520.2" x2="225.8" y2="575.9"/>
				<line class="st7" x1="263.8" y1="520.2" x2="225.8" y2="575.9"/>
				<line class="st7" x1="263.4" y1="526.2" x2="231.5" y2="572.8"/>
				<line class="st7" x1="263.4" y1="526.2" x2="231.5" y2="572.8"/>
				<line class="st7" x1="238.3" y1="520.5" x2="157.1" y2="639.5"/>
				<line class="st7" x1="238.3" y1="520.5" x2="157.1" y2="639.5"/>
				<line class="st7" x1="237.9" y1="526.5" x2="162.9" y2="636.4"/>
				<line class="st7" x1="237.9" y1="526.5" x2="162.9" y2="636.4"/>
				<line class="st7" x1="237.4" y1="532.4" x2="168.6" y2="633.3"/>
				<line class="st7" x1="237.4" y1="532.4" x2="168.6" y2="633.3"/>
				<line class="st7" x1="237" y1="538.4" x2="174.3" y2="630.2"/>
				<line class="st7" x1="237" y1="538.4" x2="174.3" y2="630.2"/>
				<polygon class="st8" points="73,557.9 16.5,640.7 116.4,648.2 73,557.9 16.5,640.7 116.4,648.2 				"/>
				<polygon class="st9" points="154.4,463.7 91.8,555.5 202.6,563.9 154.4,463.7 91.8,555.5 202.6,563.9 				"/>
				<line class="st7" x1="260.3" y1="566.3" x2="179.1" y2="685.2"/>
				<line class="st7" x1="260.3" y1="566.3" x2="179.1" y2="685.2"/>
				<line class="st7" x1="259.9" y1="572.2" x2="184.9" y2="682.1"/>
				<line class="st7" x1="259.9" y1="572.2" x2="184.9" y2="682.1"/>
				<polygon class="st10" points="90.8,569.1 55.3,621.2 118,626 90.8,569.1 55.3,621.2 118,626 				"/>
				<polygon class="st13" points="274.8,569.9 239.2,621.9 302.1,626.7 274.8,569.9 239.2,621.9 302.1,626.7 				"/>
				<polygon class="st8" points="177.7,492.1 142.2,544.2 205.1,548.9 177.7,492.1 142.2,544.2 205.1,548.9 				"/>
				<line class="st11" x1="228.6" y1="459.1" x2="122.8" y2="451.1"/>
				<line class="st11" x1="229.3" y1="449.9" x2="123.4" y2="442"/>
				<line class="st11" x1="229.9" y1="440.8" x2="124.1" y2="432.8"/>
				<line class="st11" x1="230.6" y1="431.6" x2="124.8" y2="423.6"/>
				<line class="st11" x1="231.3" y1="422.5" x2="125.5" y2="414.5"/>
				<polygon class="st10" points="275.2,450.7 259.8,473.2 286.9,475.3 275.2,450.7 259.8,473.2 286.9,475.3 				"/>
				<line class="st6" x1="765.2" y1="16.2" x2="732.7" y2="156.4"/>
				<line class="st6" x1="765.2" y1="16.2" x2="732.7" y2="156.4"/>
				<line class="st6" x1="766.9" y1="21.9" x2="736.9" y2="151.4"/>
				<line class="st6" x1="766.9" y1="21.9" x2="736.9" y2="151.4"/>
				<line class="st6" x1="768.6" y1="27.6" x2="741.1" y2="146.5"/>
				<line class="st6" x1="768.6" y1="27.6" x2="741.1" y2="146.5"/>
				<line class="st6" x1="770.4" y1="33.3" x2="745.3" y2="141.6"/>
				<line class="st6" x1="770.4" y1="33.3" x2="745.3" y2="141.6"/>
				<line class="st6" x1="772.1" y1="39" x2="749.5" y2="136.6"/>
				<line class="st6" x1="772.1" y1="39" x2="749.5" y2="136.6"/>
				<line class="st6" x1="773.9" y1="44.7" x2="753.7" y2="131.7"/>
				<line class="st6" x1="773.9" y1="44.7" x2="753.7" y2="131.7"/>
				<line class="st6" x1="753.7" y1="65.6" x2="721.2" y2="205.8"/>
				<line class="st6" x1="753.7" y1="65.6" x2="721.2" y2="205.8"/>
				<line class="st6" x1="755.4" y1="71.3" x2="725.4" y2="200.9"/>
				<line class="st6" x1="755.4" y1="71.3" x2="725.4" y2="200.9"/>
				<line class="st6" x1="757.2" y1="77" x2="729.6" y2="195.9"/>
				<line class="st6" x1="757.2" y1="77" x2="729.6" y2="195.9"/>
				<line class="st6" x1="758.9" y1="82.7" x2="733.8" y2="190.9"/>
				<line class="st6" x1="758.9" y1="82.7" x2="733.8" y2="190.9"/>
				<line class="st6" x1="760.7" y1="88.4" x2="738" y2="186"/>
				<line class="st6" x1="760.7" y1="88.4" x2="738" y2="186"/>
				<line class="st6" x1="790.8" y1="100.3" x2="758.3" y2="240.5"/>
				<line class="st6" x1="790.8" y1="100.3" x2="758.3" y2="240.5"/>
				<line class="st6" x1="792.5" y1="106" x2="762.5" y2="235.5"/>
				<line class="st6" x1="792.5" y1="106" x2="762.5" y2="235.5"/>
				<line class="st7" x1="794.3" y1="111.7" x2="766.7" y2="230.5"/>
				<line class="st7" x1="794.3" y1="111.7" x2="766.7" y2="230.5"/>
				<line class="st7" x1="796" y1="117.4" x2="770.9" y2="225.6"/>
				<line class="st7" x1="796" y1="117.4" x2="770.9" y2="225.6"/>
				<line class="st7" x1="779.3" y1="149.7" x2="746.8" y2="289.9"/>
				<line class="st7" x1="779.3" y1="149.7" x2="746.8" y2="289.9"/>
				<line class="st7" x1="781.1" y1="155.3" x2="751.1" y2="285"/>
				<line class="st7" x1="781.1" y1="155.3" x2="751.1" y2="285"/>
				<line class="st7" x1="782.8" y1="161" x2="755.3" y2="280"/>
				<line class="st7" x1="782.8" y1="161" x2="755.3" y2="280"/>
				<line class="st7" x1="784.6" y1="166.7" x2="759.5" y2="275"/>
				<line class="st7" x1="784.6" y1="166.7" x2="759.5" y2="275"/>
				<polygon class="st8" points="638.9,244.4 616.2,342.1 712,312.8 638.9,244.4 616.2,342.1 712,312.8 				"/>
				<polygon class="st9" points="680.6,127.2 655.5,235.4 761.8,203 680.6,127.2 655.5,235.4 761.8,203 				"/>
				<polygon class="st10" points="659.5,248.5 645.3,309.9 705.5,291.5 659.5,248.5 645.3,309.9 705.5,291.5 				"/>
				<line class="st11" x1="747.9" y1="95.9" x2="646.5" y2="126.9"/>
				<line class="st11" x1="745.3" y1="87.1" x2="643.9" y2="118.1"/>
				<line class="st11" x1="742.6" y1="78.3" x2="641.2" y2="109.3"/>
				<line class="st11" x1="739.9" y1="69.5" x2="638.5" y2="100.5"/>
				<line class="st11" x1="737.2" y1="60.7" x2="635.8" y2="91.7"/>
				<path class="st12" d="M494.1,221.3c13.8-4.2,19.6,14.9,33.4,10.8c13.8-4.1,8-23.3,21.7-27.5c13.7-4.2,19.6,14.9,33.4,10.7
					c13.8-4.2,8-23.3,21.7-27.5c13.7-4.2,19.6,14.9,33.4,10.7"/>
				<polygon class="st8" points="825.3,240.4 768.8,323.2 868.8,330.8 825.3,240.4 768.8,323.2 868.8,330.8 				"/>
				<line class="st6" x1="389" y1="174.9" x2="356.5" y2="315.2"/>
				<line class="st6" x1="389" y1="174.9" x2="356.5" y2="315.2"/>
				<line class="st6" x1="390.8" y1="180.5" x2="360.8" y2="310.2"/>
				<line class="st6" x1="390.8" y1="180.5" x2="360.8" y2="310.2"/>
				<line class="st6" x1="392.5" y1="186.3" x2="365" y2="305.2"/>
				<line class="st6" x1="392.5" y1="186.3" x2="365" y2="305.2"/>
				<line class="st6" x1="394.3" y1="192" x2="369.2" y2="300.3"/>
				<line class="st6" x1="394.3" y1="192" x2="369.2" y2="300.3"/>
				<line class="st6" x1="396" y1="197.7" x2="373.4" y2="295.3"/>
				<line class="st6" x1="396" y1="197.7" x2="373.4" y2="295.3"/>
				<line class="st6" x1="397.7" y1="203.4" x2="377.6" y2="290.4"/>
				<line class="st6" x1="397.7" y1="203.4" x2="377.6" y2="290.4"/>
				<line class="st6" x1="377.6" y1="224.3" x2="345.1" y2="364.6"/>
				<line class="st6" x1="377.6" y1="224.3" x2="345.1" y2="364.6"/>
				<line class="st6" x1="379.3" y1="230" x2="349.3" y2="359.6"/>
				<line class="st6" x1="379.3" y1="230" x2="349.3" y2="359.6"/>
				<line class="st6" x1="381.1" y1="235.7" x2="353.5" y2="354.7"/>
				<line class="st6" x1="381.1" y1="235.7" x2="353.5" y2="354.7"/>
				<line class="st6" x1="382.8" y1="241.4" x2="357.7" y2="349.7"/>
				<line class="st6" x1="382.8" y1="241.4" x2="357.7" y2="349.7"/>
				<line class="st6" x1="384.5" y1="247.1" x2="361.9" y2="344.8"/>
				<line class="st6" x1="384.5" y1="247.1" x2="361.9" y2="344.8"/>
				<line class="st6" x1="414.6" y1="258.9" x2="382.2" y2="399.3"/>
				<line class="st6" x1="414.6" y1="258.9" x2="382.2" y2="399.3"/>
				<line class="st6" x1="416.3" y1="264.6" x2="386.4" y2="394.3"/>
				<line class="st6" x1="416.3" y1="264.6" x2="386.4" y2="394.3"/>
				<line class="st7" x1="418.1" y1="270.3" x2="390.6" y2="389.3"/>
				<line class="st7" x1="418.1" y1="270.3" x2="390.6" y2="389.3"/>
				<line class="st7" x1="419.8" y1="276" x2="394.8" y2="384.4"/>
				<line class="st7" x1="419.8" y1="276" x2="394.8" y2="384.4"/>
				<line class="st7" x1="421.5" y1="281.8" x2="399" y2="379.4"/>
				<line class="st7" x1="421.5" y1="281.8" x2="399" y2="379.4"/>
				<line class="st7" x1="423.3" y1="287.5" x2="403.1" y2="374.5"/>
				<line class="st7" x1="423.3" y1="287.5" x2="403.1" y2="374.5"/>
				<line class="st7" x1="425" y1="293.2" x2="407.3" y2="369.5"/>
				<line class="st7" x1="425" y1="293.2" x2="407.3" y2="369.5"/>
				<line class="st7" x1="426.8" y1="298.9" x2="411.5" y2="364.5"/>
				<line class="st7" x1="426.8" y1="298.9" x2="411.5" y2="364.5"/>
				<line class="st7" x1="428.5" y1="304.6" x2="415.8" y2="359.6"/>
				<line class="st7" x1="428.5" y1="304.6" x2="415.8" y2="359.6"/>
				<line class="st7" x1="403.1" y1="308.4" x2="370.7" y2="448.7"/>
				<line class="st7" x1="403.1" y1="308.4" x2="370.7" y2="448.7"/>
				<line class="st7" x1="404.9" y1="314.1" x2="374.9" y2="443.7"/>
				<line class="st7" x1="404.9" y1="314.1" x2="374.9" y2="443.7"/>
				<line class="st7" x1="406.6" y1="319.8" x2="379.1" y2="438.8"/>
				<line class="st7" x1="406.6" y1="319.8" x2="379.1" y2="438.8"/>
				<line class="st7" x1="408.3" y1="325.5" x2="383.4" y2="433.8"/>
				<line class="st7" x1="408.3" y1="325.5" x2="383.4" y2="433.8"/>
				<polygon class="st8" points="262.6,403.2 240,500.7 335.9,471.5 262.6,403.2 240,500.7 335.9,471.5 				"/>
				<polygon class="st9" points="304.4,285.9 279.3,394.2 385.7,361.8 304.4,285.9 279.3,394.2 385.7,361.8 				"/>
				<line class="st7" x1="440.2" y1="343" x2="407.7" y2="483.2"/>
				<line class="st7" x1="440.2" y1="343" x2="407.7" y2="483.2"/>
				<line class="st7" x1="442" y1="348.7" x2="411.9" y2="478.3"/>
				<line class="st7" x1="442" y1="348.7" x2="411.9" y2="478.3"/>
				<polygon class="st10" points="283.3,407.2 269.1,468.6 329.4,450.2 283.3,407.2 269.1,468.6 329.4,450.2 				"/>
				<polygon class="st13" points="455,341.1 440.8,402.5 501.1,384.2 455,341.1 440.8,402.5 501.1,384.2 				"/>
				<polygon class="st10" points="455,259.2 440.8,320.6 501.1,302.2 455,259.2 440.8,320.6 501.1,302.2 				"/>
				<line class="st11" x1="371.8" y1="254.6" x2="270.3" y2="285.6"/>
				<line class="st11" x1="369.1" y1="245.8" x2="267.6" y2="276.8"/>
				<line class="st11" x1="366.5" y1="237" x2="265" y2="268"/>
				<line class="st11" x1="363.8" y1="228.2" x2="262.3" y2="259.2"/>
				<line class="st11" x1="361.1" y1="219.4" x2="259.6" y2="250.4"/>
				<path class="st12" d="M117.9,380c13.8-4.2,19.6,14.9,33.4,10.7s8-23.3,21.7-27.5c13.7-4.2,19.6,14.9,33.4,10.7s8-23.3,21.7-27.5
					c13.7-4.2,19.6,14.9,33.4,10.7"/>
				<polygon class="st10" points="412.1,230 406,256.5 432,248.5 412.1,230 406,256.5 432,248.5 				"/>
				<line class="st6" x1="649.8" y1="232.3" x2="568.6" y2="351.2"/>
				<line class="st6" x1="649.8" y1="232.3" x2="568.6" y2="351.2"/>
				<line class="st6" x1="649.3" y1="238.2" x2="574.3" y2="348.1"/>
				<line class="st6" x1="649.3" y1="238.2" x2="574.3" y2="348.1"/>
				<line class="st6" x1="648.9" y1="244.2" x2="580" y2="345"/>
				<line class="st6" x1="648.9" y1="244.2" x2="580" y2="345"/>
				<line class="st6" x1="648.4" y1="250.1" x2="585.7" y2="341.9"/>
				<line class="st6" x1="648.4" y1="250.1" x2="585.7" y2="341.9"/>
				<line class="st6" x1="648" y1="256" x2="591.5" y2="338.9"/>
				<line class="st6" x1="648" y1="256" x2="591.5" y2="338.9"/>
				<line class="st6" x1="647.5" y1="262" x2="597.2" y2="335.8"/>
				<line class="st6" x1="647.5" y1="262" x2="597.2" y2="335.8"/>
				<line class="st6" x1="621.2" y1="274.2" x2="540" y2="393.2"/>
				<line class="st6" x1="621.2" y1="274.2" x2="540" y2="393.2"/>
				<line class="st6" x1="620.7" y1="280.1" x2="545.7" y2="390"/>
				<line class="st6" x1="620.7" y1="280.1" x2="545.7" y2="390"/>
				<line class="st6" x1="620.3" y1="286.1" x2="551.4" y2="387"/>
				<line class="st6" x1="620.3" y1="286.1" x2="551.4" y2="387"/>
				<line class="st6" x1="619.8" y1="292" x2="557.1" y2="383.9"/>
				<line class="st6" x1="619.8" y1="292" x2="557.1" y2="383.9"/>
				<line class="st6" x1="619.4" y1="298" x2="562.9" y2="380.8"/>
				<line class="st6" x1="619.4" y1="298" x2="562.9" y2="380.8"/>
				<line class="st6" x1="643.2" y1="319.9" x2="562" y2="438.9"/>
				<line class="st6" x1="643.2" y1="319.9" x2="562" y2="438.9"/>
				<line class="st6" x1="642.7" y1="325.9" x2="567.7" y2="435.8"/>
				<line class="st6" x1="642.7" y1="325.9" x2="567.7" y2="435.8"/>
				<line class="st7" x1="642.3" y1="331.8" x2="573.4" y2="432.7"/>
				<line class="st7" x1="642.3" y1="331.8" x2="573.4" y2="432.7"/>
				<line class="st7" x1="641.8" y1="337.8" x2="579.1" y2="429.6"/>
				<line class="st7" x1="641.8" y1="337.8" x2="579.1" y2="429.6"/>
				<line class="st7" x1="641.4" y1="343.7" x2="584.9" y2="426.5"/>
				<line class="st7" x1="641.4" y1="343.7" x2="584.9" y2="426.5"/>
				<line class="st7" x1="640.9" y1="349.7" x2="590.6" y2="423.4"/>
				<line class="st7" x1="640.9" y1="349.7" x2="590.6" y2="423.4"/>
				<line class="st7" x1="640.5" y1="355.6" x2="596.3" y2="420.3"/>
				<line class="st7" x1="640.5" y1="355.6" x2="596.3" y2="420.3"/>
				<line class="st7" x1="640" y1="361.5" x2="602" y2="417.2"/>
				<line class="st7" x1="640" y1="361.5" x2="602" y2="417.2"/>
				<line class="st7" x1="639.6" y1="367.5" x2="607.7" y2="414.1"/>
				<line class="st7" x1="639.6" y1="367.5" x2="607.7" y2="414.1"/>
				<line class="st7" x1="614.5" y1="361.9" x2="533.4" y2="480.7"/>
				<line class="st7" x1="614.5" y1="361.9" x2="533.4" y2="480.7"/>
				<line class="st7" x1="614.1" y1="367.8" x2="539.1" y2="477.6"/>
				<line class="st7" x1="614.1" y1="367.8" x2="539.1" y2="477.6"/>
				<line class="st7" x1="613.6" y1="373.7" x2="544.8" y2="474.5"/>
				<line class="st7" x1="613.6" y1="373.7" x2="544.8" y2="474.5"/>
				<line class="st7" x1="613.2" y1="379.7" x2="550.5" y2="471.4"/>
				<line class="st7" x1="613.2" y1="379.7" x2="550.5" y2="471.4"/>
				<polygon class="st8" points="449.1,399.2 392.7,481.9 492.6,489.4 449.1,399.2 392.7,481.9 492.6,489.4 				"/>
				<polygon class="st9" points="530.6,305 468,396.9 578.8,405.2 530.6,305 468,396.9 578.8,405.2 				"/>
				<line class="st7" x1="636.5" y1="407.6" x2="555.4" y2="526.4"/>
				<line class="st7" x1="636.5" y1="407.6" x2="555.4" y2="526.4"/>
				<line class="st7" x1="636.1" y1="413.5" x2="561.1" y2="523.4"/>
				<line class="st7" x1="636.1" y1="413.5" x2="561.1" y2="523.4"/>
				<polygon class="st10" points="466.9,410.5 431.4,462.4 494.3,467.2 466.9,410.5 431.4,462.4 494.3,467.2 				"/>
				<polygon class="st13" points="651,411.2 615.4,463.2 678.3,467.9 651,411.2 615.4,463.2 678.3,467.9 				"/>
				<polygon class="st8" points="553.9,333.4 518.4,385.5 581.3,390.3 553.9,333.4 518.4,385.5 581.3,390.3 				"/>
				<line class="st11" x1="604.8" y1="300.4" x2="499" y2="292.4"/>
				<line class="st11" x1="605.5" y1="291.2" x2="499.7" y2="283.2"/>
				<line class="st11" x1="606.2" y1="282" x2="500.3" y2="274"/>
				<line class="st11" x1="606.9" y1="272.8" x2="501" y2="264.9"/>
				<line class="st11" x1="607.5" y1="263.7" x2="501.7" y2="255.7"/>
				<polygon class="st10" points="651.4,292.1 636,314.5 663.2,316.6 651.4,292.1 636,314.5 663.2,316.6 				"/>
				<line class="st6" x1="38.5" y1="100.3" x2="6" y2="240.5"/>
				<line class="st6" x1="38.5" y1="100.3" x2="6" y2="240.5"/>
				<line class="st6" x1="40.2" y1="106" x2="10.2" y2="235.5"/>
				<line class="st6" x1="40.2" y1="106" x2="10.2" y2="235.5"/>
				<line class="st7" x1="41.9" y1="111.7" x2="14.4" y2="230.5"/>
				<line class="st7" x1="41.9" y1="111.7" x2="14.4" y2="230.5"/>
				<line class="st7" x1="43.7" y1="117.4" x2="18.6" y2="225.6"/>
				<line class="st7" x1="43.7" y1="117.4" x2="18.6" y2="225.6"/>
				<line class="st7" x1="45.4" y1="123.1" x2="22.8" y2="220.6"/>
				<line class="st7" x1="45.4" y1="123.1" x2="22.8" y2="220.6"/>
				<line class="st7" x1="47.2" y1="128.8" x2="27" y2="215.7"/>
				<line class="st7" x1="47.2" y1="128.8" x2="27" y2="215.7"/>
				<line class="st7" x1="48.9" y1="134.5" x2="31.2" y2="210.7"/>
				<line class="st7" x1="48.9" y1="134.5" x2="31.2" y2="210.7"/>
				<line class="st7" x1="50.6" y1="140.2" x2="35.4" y2="205.8"/>
				<line class="st7" x1="50.6" y1="140.2" x2="35.4" y2="205.8"/>
				<line class="st7" x1="52.4" y1="145.9" x2="39.6" y2="200.8"/>
				<line class="st7" x1="52.4" y1="145.9" x2="39.6" y2="200.8"/>
				<line class="st7" x1="27" y1="149.7" x2="-5.5" y2="289.9"/>
				<line class="st7" x1="27" y1="149.7" x2="-5.5" y2="289.9"/>
				<line class="st7" x1="28.8" y1="155.3" x2="-1.3" y2="285"/>
				<line class="st7" x1="28.8" y1="155.3" x2="-1.3" y2="285"/>
				<line class="st7" x1="30.5" y1="161" x2="2.9" y2="280"/>
				<line class="st7" x1="30.5" y1="161" x2="2.9" y2="280"/>
				<line class="st7" x1="32.2" y1="166.7" x2="7.1" y2="275"/>
				<line class="st7" x1="32.2" y1="166.7" x2="7.1" y2="275"/>
				<line class="st7" x1="64.1" y1="184.2" x2="31.6" y2="324.5"/>
				<line class="st7" x1="64.1" y1="184.2" x2="31.6" y2="324.5"/>
				<line class="st7" x1="65.9" y1="189.9" x2="35.8" y2="319.6"/>
				<line class="st7" x1="65.9" y1="189.9" x2="35.8" y2="319.6"/>
				<polygon class="st13" points="78.9,182.3 64.6,243.8 124.8,225.4 78.9,182.3 64.6,243.8 124.8,225.4 				"/>
				<polygon class="st10" points="78.9,100.5 64.6,161.8 124.8,143.5 78.9,100.5 64.6,161.8 124.8,143.5 				"/>
				<polygon class="st10" points="36,71.3 29.9,97.8 55.9,89.9 36,71.3 29.9,97.8 55.9,89.9 				"/>
				<line class="st6" x1="273.5" y1="73.6" x2="192.4" y2="192.4"/>
				<line class="st6" x1="273.5" y1="73.6" x2="192.4" y2="192.4"/>
				<line class="st6" x1="273.1" y1="79.5" x2="198.1" y2="189.3"/>
				<line class="st6" x1="273.1" y1="79.5" x2="198.1" y2="189.3"/>
				<line class="st6" x1="272.7" y1="85.5" x2="203.8" y2="186.3"/>
				<line class="st6" x1="272.7" y1="85.5" x2="203.8" y2="186.3"/>
				<line class="st6" x1="272.2" y1="91.4" x2="209.5" y2="183.2"/>
				<line class="st6" x1="272.2" y1="91.4" x2="209.5" y2="183.2"/>
				<line class="st6" x1="271.8" y1="97.4" x2="215.3" y2="180.1"/>
				<line class="st6" x1="271.8" y1="97.4" x2="215.3" y2="180.1"/>
				<line class="st6" x1="271.3" y1="103.3" x2="221" y2="177"/>
				<line class="st6" x1="271.3" y1="103.3" x2="221" y2="177"/>
				<line class="st6" x1="244.9" y1="115.5" x2="163.8" y2="234.4"/>
				<line class="st6" x1="244.9" y1="115.5" x2="163.8" y2="234.4"/>
				<line class="st6" x1="244.5" y1="121.5" x2="169.5" y2="231.3"/>
				<line class="st6" x1="244.5" y1="121.5" x2="169.5" y2="231.3"/>
				<line class="st6" x1="244" y1="127.4" x2="175.2" y2="228.2"/>
				<line class="st6" x1="244" y1="127.4" x2="175.2" y2="228.2"/>
				<line class="st6" x1="243.6" y1="133.3" x2="180.9" y2="225.1"/>
				<line class="st6" x1="243.6" y1="133.3" x2="180.9" y2="225.1"/>
				<line class="st6" x1="243.1" y1="139.3" x2="186.6" y2="222"/>
				<line class="st6" x1="243.1" y1="139.3" x2="186.6" y2="222"/>
				<line class="st6" x1="266.9" y1="161.1" x2="185.8" y2="280.1"/>
				<line class="st6" x1="266.9" y1="161.1" x2="185.8" y2="280.1"/>
				<line class="st6" x1="266.5" y1="167.1" x2="191.5" y2="277"/>
				<line class="st6" x1="266.5" y1="167.1" x2="191.5" y2="277"/>
				<line class="st7" x1="266" y1="173" x2="197.2" y2="273.9"/>
				<line class="st7" x1="266" y1="173" x2="197.2" y2="273.9"/>
				<line class="st7" x1="265.6" y1="179" x2="202.9" y2="270.8"/>
				<line class="st7" x1="265.6" y1="179" x2="202.9" y2="270.8"/>
				<line class="st7" x1="265.1" y1="184.9" x2="208.6" y2="267.7"/>
				<line class="st7" x1="265.1" y1="184.9" x2="208.6" y2="267.7"/>
				<line class="st7" x1="264.7" y1="190.9" x2="214.4" y2="264.6"/>
				<line class="st7" x1="264.7" y1="190.9" x2="214.4" y2="264.6"/>
				<line class="st7" x1="264.3" y1="196.8" x2="220.1" y2="261.5"/>
				<line class="st7" x1="264.3" y1="196.8" x2="220.1" y2="261.5"/>
				<line class="st7" x1="263.8" y1="202.8" x2="225.8" y2="258.4"/>
				<line class="st7" x1="263.8" y1="202.8" x2="225.8" y2="258.4"/>
				<line class="st7" x1="263.4" y1="208.7" x2="231.5" y2="255.4"/>
				<line class="st7" x1="263.4" y1="208.7" x2="231.5" y2="255.4"/>
				<line class="st7" x1="238.3" y1="203.1" x2="157.1" y2="322"/>
				<line class="st7" x1="238.3" y1="203.1" x2="157.1" y2="322"/>
				<line class="st7" x1="237.9" y1="209" x2="162.9" y2="318.9"/>
				<line class="st7" x1="237.9" y1="209" x2="162.9" y2="318.9"/>
				<line class="st7" x1="237.4" y1="215" x2="168.6" y2="315.8"/>
				<line class="st7" x1="237.4" y1="215" x2="168.6" y2="315.8"/>
				<line class="st7" x1="237" y1="220.9" x2="174.3" y2="312.7"/>
				<line class="st7" x1="237" y1="220.9" x2="174.3" y2="312.7"/>
				<polygon class="st8" points="73,240.4 16.5,323.2 116.4,330.8 73,240.4 16.5,323.2 116.4,330.8 				"/>
				<polygon class="st9" points="154.4,146.3 91.8,238.1 202.6,246.4 154.4,146.3 91.8,238.1 202.6,246.4 				"/>
				<line class="st7" x1="260.3" y1="248.8" x2="179.1" y2="367.8"/>
				<line class="st7" x1="260.3" y1="248.8" x2="179.1" y2="367.8"/>
				<line class="st7" x1="259.9" y1="254.8" x2="184.9" y2="364.7"/>
				<line class="st7" x1="259.9" y1="254.8" x2="184.9" y2="364.7"/>
				<polygon class="st10" points="90.8,251.7 55.3,303.8 118,308.5 90.8,251.7 55.3,303.8 118,308.5 				"/>
				<polygon class="st13" points="274.8,252.4 239.2,304.5 302.1,309.2 274.8,252.4 239.2,304.5 302.1,309.2 				"/>
				<polygon class="st8" points="177.7,174.6 142.2,226.7 205.1,231.5 177.7,174.6 142.2,226.7 205.1,231.5 				"/>
				<line class="st11" x1="228.6" y1="141.7" x2="122.8" y2="133.7"/>
				<line class="st11" x1="229.3" y1="132.5" x2="123.4" y2="124.5"/>
				<line class="st11" x1="229.9" y1="123.3" x2="124.1" y2="115.3"/>
				<line class="st11" x1="230.6" y1="114.2" x2="124.8" y2="106.2"/>
				<line class="st11" x1="231.3" y1="105" x2="125.5" y2="97"/>
				<polygon class="st10" points="275.2,133.4 259.8,155.7 286.9,157.8 275.2,133.4 259.8,155.7 286.9,157.8 				"/>
				<line class="st6" x1="377.6" y1="-93.2" x2="345.1" y2="47.1"/>
				<line class="st6" x1="377.6" y1="-93.2" x2="345.1" y2="47.1"/>
				<line class="st6" x1="379.3" y1="-87.5" x2="349.3" y2="42.2"/>
				<line class="st6" x1="379.3" y1="-87.5" x2="349.3" y2="42.2"/>
				<line class="st6" x1="381.1" y1="-81.8" x2="353.5" y2="37.2"/>
				<line class="st6" x1="381.1" y1="-81.8" x2="353.5" y2="37.2"/>
				<line class="st6" x1="414.6" y1="-58.5" x2="382.2" y2="81.8"/>
				<line class="st6" x1="414.6" y1="-58.5" x2="382.2" y2="81.8"/>
				<line class="st6" x1="416.3" y1="-52.8" x2="386.4" y2="76.8"/>
				<line class="st6" x1="416.3" y1="-52.8" x2="386.4" y2="76.8"/>
				<line class="st7" x1="418.1" y1="-47.1" x2="390.6" y2="71.9"/>
				<line class="st7" x1="418.1" y1="-47.1" x2="390.6" y2="71.9"/>
				<line class="st7" x1="419.8" y1="-41.4" x2="394.8" y2="66.9"/>
				<line class="st7" x1="419.8" y1="-41.4" x2="394.8" y2="66.9"/>
				<line class="st7" x1="421.5" y1="-35.7" x2="399" y2="61.9"/>
				<line class="st7" x1="421.5" y1="-35.7" x2="399" y2="61.9"/>
				<line class="st7" x1="423.3" y1="-30" x2="403.1" y2="57"/>
				<line class="st7" x1="423.3" y1="-30" x2="403.1" y2="57"/>
				<line class="st7" x1="425" y1="-24.3" x2="407.3" y2="52"/>
				<line class="st7" x1="425" y1="-24.3" x2="407.3" y2="52"/>
				<line class="st7" x1="426.8" y1="-18.6" x2="411.5" y2="47.1"/>
				<line class="st7" x1="426.8" y1="-18.6" x2="411.5" y2="47.1"/>
				<line class="st7" x1="428.5" y1="-12.9" x2="415.8" y2="42.1"/>
				<line class="st7" x1="428.5" y1="-12.9" x2="415.8" y2="42.1"/>
				<line class="st7" x1="403.1" y1="-9.1" x2="370.7" y2="131.2"/>
				<line class="st7" x1="403.1" y1="-9.1" x2="370.7" y2="131.2"/>
				<line class="st7" x1="404.9" y1="-3.4" x2="374.9" y2="126.3"/>
				<line class="st7" x1="404.9" y1="-3.4" x2="374.9" y2="126.3"/>
				<line class="st7" x1="406.6" y1="2.3" x2="379.1" y2="121.3"/>
				<line class="st7" x1="406.6" y1="2.3" x2="379.1" y2="121.3"/>
				<line class="st7" x1="408.3" y1="8" x2="383.4" y2="116.3"/>
				<line class="st7" x1="408.3" y1="8" x2="383.4" y2="116.3"/>
				<polygon class="st8" points="262.6,85.7 240,183.3 335.9,154 262.6,85.7 240,183.3 335.9,154 				"/>
				<polygon class="st9" points="304.4,-31.6 279.3,76.7 385.7,44.3 304.4,-31.6 279.3,76.7 385.7,44.3 				"/>
				<line class="st7" x1="440.2" y1="25.6" x2="407.7" y2="165.8"/>
				<line class="st7" x1="440.2" y1="25.6" x2="407.7" y2="165.8"/>
				<line class="st7" x1="442" y1="31.3" x2="411.9" y2="160.8"/>
				<line class="st7" x1="442" y1="31.3" x2="411.9" y2="160.8"/>
				<polygon class="st10" points="283.3,89.8 269.1,151.1 329.4,132.8 283.3,89.8 269.1,151.1 329.4,132.8 				"/>
				<polygon class="st13" points="455,23.7 440.8,85.1 501.1,66.7 455,23.7 440.8,85.1 501.1,66.7 				"/>
				<path class="st12" d="M117.9,62.6c13.8-4.2,19.6,14.9,33.4,10.7c13.8-4.2,8-23.3,21.7-27.5c13.7-4.2,19.6,14.9,33.4,10.7
					s8-23.3,21.7-27.5c13.7-4.2,19.6,14.9,33.4,10.7"/>
				<line class="st6" x1="621.2" y1="-43.3" x2="540" y2="75.7"/>
				<line class="st6" x1="621.2" y1="-43.3" x2="540" y2="75.7"/>
				<line class="st6" x1="620.7" y1="-37.3" x2="545.7" y2="72.6"/>
				<line class="st6" x1="620.7" y1="-37.3" x2="545.7" y2="72.6"/>
				<line class="st6" x1="620.3" y1="-31.4" x2="551.4" y2="69.5"/>
				<line class="st6" x1="620.3" y1="-31.4" x2="551.4" y2="69.5"/>
				<line class="st6" x1="619.8" y1="-25.4" x2="557.1" y2="66.4"/>
				<line class="st6" x1="619.8" y1="-25.4" x2="557.1" y2="66.4"/>
				<line class="st6" x1="619.4" y1="-19.5" x2="562.9" y2="63.3"/>
				<line class="st6" x1="619.4" y1="-19.5" x2="562.9" y2="63.3"/>
				<line class="st6" x1="643.2" y1="2.5" x2="562" y2="121.4"/>
				<line class="st6" x1="643.2" y1="2.5" x2="562" y2="121.4"/>
				<line class="st6" x1="642.7" y1="8.4" x2="567.7" y2="118.3"/>
				<line class="st6" x1="642.7" y1="8.4" x2="567.7" y2="118.3"/>
				<line class="st7" x1="642.3" y1="14.3" x2="573.4" y2="115.2"/>
				<line class="st7" x1="642.3" y1="14.3" x2="573.4" y2="115.2"/>
				<line class="st7" x1="641.8" y1="20.3" x2="579.1" y2="112.1"/>
				<line class="st7" x1="641.8" y1="20.3" x2="579.1" y2="112.1"/>
				<line class="st7" x1="641.4" y1="26.2" x2="584.9" y2="109"/>
				<line class="st7" x1="641.4" y1="26.2" x2="584.9" y2="109"/>
				<line class="st7" x1="640.9" y1="32.2" x2="590.6" y2="105.9"/>
				<line class="st7" x1="640.9" y1="32.2" x2="590.6" y2="105.9"/>
				<line class="st7" x1="640.5" y1="38.1" x2="596.3" y2="102.8"/>
				<line class="st7" x1="640.5" y1="38.1" x2="596.3" y2="102.8"/>
				<line class="st7" x1="640" y1="44.1" x2="602" y2="99.8"/>
				<line class="st7" x1="640" y1="44.1" x2="602" y2="99.8"/>
				<line class="st7" x1="639.6" y1="50" x2="607.7" y2="96.7"/>
				<line class="st7" x1="639.6" y1="50" x2="607.7" y2="96.7"/>
				<line class="st7" x1="614.5" y1="44.4" x2="533.4" y2="163.2"/>
				<line class="st7" x1="614.5" y1="44.4" x2="533.4" y2="163.2"/>
				<line class="st7" x1="614.1" y1="50.3" x2="539.1" y2="160.1"/>
				<line class="st7" x1="614.1" y1="50.3" x2="539.1" y2="160.1"/>
				<line class="st7" x1="613.6" y1="56.3" x2="544.8" y2="157"/>
				<line class="st7" x1="613.6" y1="56.3" x2="544.8" y2="157"/>
				<line class="st7" x1="613.2" y1="62.2" x2="550.5" y2="153.9"/>
				<line class="st7" x1="613.2" y1="62.2" x2="550.5" y2="153.9"/>
				<polygon class="st8" points="449.1,81.7 392.7,164.4 492.6,172 449.1,81.7 392.7,164.4 492.6,172 				"/>
				<polygon class="st9" points="530.6,-12.5 468,79.4 578.8,87.7 530.6,-12.5 468,79.4 578.8,87.7 				"/>
				<line class="st7" x1="636.5" y1="90.1" x2="555.4" y2="209"/>
				<line class="st7" x1="636.5" y1="90.1" x2="555.4" y2="209"/>
				<line class="st7" x1="636.1" y1="96.1" x2="561.1" y2="205.9"/>
				<line class="st7" x1="636.1" y1="96.1" x2="561.1" y2="205.9"/>
				<polygon class="st10" points="466.9,93 431.4,145.1 494.3,149.8 466.9,93 431.4,145.1 494.3,149.8 				"/>
				<polygon class="st13" points="651,93.7 615.4,145.8 678.3,150.4 651,93.7 615.4,145.8 678.3,150.4 				"/>
				<polygon class="st8" points="553.9,16 518.4,68 581.3,72.8 553.9,16 518.4,68 581.3,72.8 				"/>
				<line class="st7" x1="260.3" y1="-68.7" x2="179.1" y2="50.3"/>
				<line class="st7" x1="260.3" y1="-68.7" x2="179.1" y2="50.3"/>
				<line class="st7" x1="259.9" y1="-62.7" x2="184.9" y2="47.2"/>
				<line class="st7" x1="259.9" y1="-62.7" x2="184.9" y2="47.2"/>
			</g>
		</g>
	</g>
</g>
<path class="st8" d="M351.2,359.9c0-42.2-34.3-76.5-76.5-76.5s-76.5,34.3-76.5,76.5c0,0.7,0,1.3,0.1,2c0,0.7-0.1,1.3-0.1,2
	c0,42.2,34.3,76.5,76.5,76.5s76.5-34.3,76.5-76.5c0-0.7,0-1.3-0.1-2C351.1,361.2,351.2,360.5,351.2,359.9z"/>
<circle class="st10" cx="274.7" cy="355.9" r="73"/>
<circle class="st2" cx="274.7" cy="355.9" r="51.5"/>
<path class="st8" d="M607.7,359.9c0-42.2-34.3-76.5-76.5-76.5s-76.5,34.3-76.5,76.5c0,0.7,0,1.3,0.1,2c0,0.7-0.1,1.3-0.1,2
	c0,42.2,34.3,76.5,76.5,76.5s76.5-34.3,76.5-76.5c0-0.7,0-1.3-0.1-2C607.7,361.2,607.7,360.6,607.7,359.9z"/>
<circle class="st10" cx="531.2" cy="355.9" r="73"/>
<circle class="st2" cx="531.2" cy="355.9" r="51.5"/>
<path class="st8" d="M534.7,128c-0.5-3.2-3.2-5.6-6.5-5.6H277.7c-3.3,0-6.1,2.4-6.5,5.6c-0.1,0.7-0.1,1.4-0.1,2.1v127.4
	c0,8.9,7.2,16.1,16.1,16.1l0,0h231.5c8.9,0,16.1-7.2,16.1-16.1l0,0V130.1C534.9,129.4,534.8,128.7,534.7,128z"/>
<circle class="st2" cx="652.2" cy="244.7" r="94.3"/>
<circle class="st2" cx="153.7" cy="244.7" r="94.3"/>
<path class="st14" d="M230.4,254l9.5-8.9c0.5-0.4,0.5-1.2,0.1-1.6c0,0,0-0.1-0.1-0.1l-9.5-8.9c-0.4-0.4-1.2-0.4-1.6,0
	c-0.2,0.2-0.3,0.5-0.3,0.8v17.8c0,0.6,0.5,1.2,1.1,1.2C229.9,254.3,230.2,254.2,230.4,254z"/>
<path class="st14" d="M145,169.7h17.8c0.6,0,1.1-0.5,1.1-1.1c0-0.3-0.1-0.6-0.3-0.8l-8.9-9.5c-0.4-0.5-1.2-0.5-1.6-0.1
	c0,0-0.1,0-0.1,0.1l-8.9,9.5c-0.4,0.5-0.3,1.2,0.2,1.6C144.5,169.6,144.7,169.7,145,169.7z"/>
<path class="st14" d="M77.6,234.5l-9.5,8.9c-0.5,0.4-0.5,1.2-0.1,1.6c0,0,0,0.1,0.1,0.1l9.5,8.9c0.4,0.4,1.2,0.4,1.6,0
	c0.2-0.2,0.3-0.5,0.3-0.8v-17.8c0-0.6-0.4-1.2-1.1-1.2C78.1,234.2,77.8,234.3,77.6,234.5z"/>
<path class="st14" d="M162.8,318.7H145c-0.6,0-1.1,0.5-1.1,1.1c0,0.3,0.1,0.6,0.3,0.8l8.9,9.5c0.4,0.5,1.2,0.5,1.6,0.1
	c0,0,0.1,0,0.1-0.1l8.9-9.5c0.4-0.5,0.3-1.2-0.2-1.6C163.3,318.8,163.1,318.7,162.8,318.7z"/>
<path class="st15" d="M105.2,544.3C64.8,541.5,29.5,524,18,513.8C6.5,503.6,0.5,482.2,0.5,482.2c-0.4,15-0.4,26.3-0.4,26.3
	s4.5,53.4,36.2,74.9s56.7,14,56.7,14s33.1-8.2,57.8-41.9c5.3-7.6,10-15.5,14.1-23.8C164.7,531.7,145.6,547,105.2,544.3z"/>
<path class="st10" d="M105.2,544.3C64.8,541.5,29.5,524,18,513.8C6.5,503.6,0.5,482.2,0.5,482.2c-0.4,15-0.4,26.3-0.4,26.3
	s4.5,53.4,36.2,74.9s56.7,14,56.7,14s33.1-8.2,57.8-41.9c5.3-7.6,10-15.5,14.1-23.8C164.7,531.7,145.6,547,105.2,544.3z"/>
<path class="st16" d="M90.1,592.3c-12.5,1.8-31.3-2-45.1-7.7c-13.6-5.7-24-16.4-24-16.4c4.2,5.9,9.4,11,15.3,15.2
	c31.7,21.5,56.7,14,56.7,14s11.7-2.9,26.3-12.3C109.7,588.4,100,590.8,90.1,592.3z"/>
<path class="st15" d="M700.7,544.3c40.5-2.8,75.8-20.3,87.3-30.5c11.5-10.2,17.5-31.5,17.5-31.5c0.4,15,0.4,26.3,0.4,26.3
	s-4.5,53.4-36.2,74.9c-31.7,21.5-56.7,14-56.7,14s-33.1-8.2-57.8-41.9c-5.3-7.6-10-15.5-14.1-23.8
	C641.2,531.7,660.3,547,700.7,544.3z"/>
<path class="st10" d="M700.7,544.3c40.5-2.8,75.8-20.3,87.3-30.5c11.5-10.2,17.5-31.5,17.5-31.5c0.4,15,0.4,26.3,0.4,26.3
	s-4.5,53.4-36.2,74.9c-31.7,21.5-56.7,14-56.7,14s-33.1-8.2-57.8-41.9c-5.3-7.6-10-15.5-14.1-23.8
	C641.2,531.7,660.3,547,700.7,544.3z"/>
<path class="st16" d="M715.8,592.3c12.5,1.8,31.3-2,45.1-7.7c13.6-5.7,24-16.4,24-16.4c-4.2,5.9-9.4,11-15.3,15.2
	c-31.7,21.5-56.7,14-56.7,14s-11.7-2.9-26.3-12.3C696.2,588.4,705.9,590.8,715.8,592.3z"/>
<path class="st8" d="M240.5,143.5c6.9,0,12.5,5.6,12.5,12.5v18.3c0,6.9-5.6,12.5-12.5,12.5s-12.5-5.6-12.5-12.5v-18.3
	C228,149.1,233.6,143.5,240.5,143.5 M240.5,141.8c-7.8,0-14.2,6.4-14.2,14.2v18.3c0,7.8,6.4,14.2,14.2,14.2s14.2-6.4,14.2-14.2
	v-18.3C254.7,148.2,248.4,141.8,240.5,141.8L240.5,141.8z"/>
<path class="st10" d="M240.5,143.5c-6.9,0-12.5,5.6-12.5,12.5v18.3c0,6.9,5.6,12.5,12.5,12.5s12.5-5.6,12.5-12.5v-18.3
	C253,149.1,247.4,143.5,240.5,143.5z"/>
<path class="st8" d="M565.4,143.5c6.9,0,12.5,5.6,12.5,12.5v18.3c0,6.9-5.6,12.5-12.5,12.5l0,0l0,0c-6.9,0-12.5-5.6-12.5-12.5l0,0
	v-18.3C552.9,149.1,558.5,143.5,565.4,143.5L565.4,143.5 M565.4,141.8c-7.8,0-14.2,6.4-14.2,14.2v18.3c0,7.8,6.4,14.2,14.2,14.2
	s14.2-6.4,14.2-14.2l0,0v-18.3C579.6,148.2,573.3,141.8,565.4,141.8L565.4,141.8z"/>
<path class="st10" d="M565.4,143.5c-6.9,0-12.5,5.6-12.5,12.5v18.3c0,6.9,5.6,12.5,12.5,12.5s12.5-5.6,12.5-12.5v-18.3
	C577.9,149.1,572.3,143.5,565.4,143.5z"/>
<path class="st17" d="M141.2,247.1c1.4-2,1.2-2.9,1.2-2.9s0.2-0.9-1.2-2.9c-1.4-2-15-13.6-15.7-14c-0.7-0.4-28.5-2.2-31.4,1.3
	c-2.9,3.5-2.6,15.6-2.6,15.6s-0.3,12.1,2.6,15.6s30.7,1.7,31.4,1.3C126.2,260.7,139.8,249.1,141.2,247.1z"/>
<path class="st8" d="M141.2,247.1c1.4-2,1.2-2.9,1.2-2.9s0.2-0.9-1.2-2.9c-0.9-1.3-6.9-6.6-11.2-10.3c-2.2,4.1-3.4,8.6-3.4,13.2
	s1.1,9.2,3.4,13.2C134.3,253.7,140.3,248.4,141.2,247.1z"/>
<path class="st17" d="M151,231.5c2,1.4,2.9,1.2,2.9,1.2s0.9,0.2,2.9-1.2c2-1.4,13.6-15,14-15.7c0.4-0.7,2.2-28.5-1.3-31.4
	c-3.5-2.9-15.6-2.6-15.6-2.6s-12.1-0.3-15.6,2.6c-3.5,2.9-1.7,30.7-1.3,31.4C137.4,216.5,149,230.1,151,231.5z"/>
<path class="st8" d="M151,231.5c2,1.4,2.9,1.2,2.9,1.2s0.9,0.2,2.9-1.2c1.3-0.9,6.6-6.9,10.3-11.2c-4.1-2.2-8.6-3.4-13.2-3.4
	c-4.6,0-9.2,1.1-13.2,3.4C144.5,224.6,149.7,230.6,151,231.5z"/>
<path class="st17" d="M213.7,228.7c-2.9-3.5-30.7-1.7-31.4-1.3c-0.7,0.4-14.3,12-15.7,14c-1.4,2-1.2,2.9-1.2,2.9s-0.2,0.9,1.2,2.9
	c1.4,2,15,13.6,15.7,14c0.7,0.4,28.5,2.2,31.4-1.3c2.9-3.5,2.6-15.6,2.6-15.6S216.6,232.2,213.7,228.7z"/>
<path class="st8" d="M177.9,231.1c-4.3,3.7-10.3,9-11.2,10.3c-1.4,2-1.2,2.9-1.2,2.9s-0.2,0.9,1.2,2.9c0.9,1.3,6.9,6.6,11.2,10.3
	C182.4,249.3,182.4,239.3,177.9,231.1L177.9,231.1z"/>
<path class="st17" d="M156.8,257c-2-1.4-2.9-1.2-2.9-1.2s-0.9-0.2-2.9,1.2c-2,1.4-13.6,15-14,15.7c-0.4,0.7-2.2,28.5,1.3,31.4
	c3.5,2.9,15.6,2.6,15.6,2.6s12.1,0.3,15.6-2.6c3.5-2.9,1.7-30.7,1.3-31.4C170.4,272,158.8,258.4,156.8,257z"/>
<path class="st8" d="M156.8,257c-2-1.4-2.9-1.2-2.9-1.2s-0.9-0.2-2.9,1.2c-1.3,0.9-6.6,6.9-10.3,11.2c4.1,2.2,8.6,3.4,13.2,3.4
	c4.6,0,9.2-1.1,13.2-3.4C163.4,263.9,158.1,257.9,156.8,257z"/>
<g class="st18">
	<path class="st4" d="M403,319.4c-2.1,0-3.8-1.6-4.1-3.6c0,0.2-0.1,0.3-0.1,0.5c0,2.3,1.8,4.1,4.1,4.1s4.1-1.8,4.1-4.1
		c0-0.2,0-0.3-0.1-0.5C406.7,317.8,405,319.4,403,319.4z"/>
	<path class="st4" d="M403,299.5c2.2,0,4.1-1.8,4.1-4v-0.1c0-0.2,0-0.3-0.1-0.5c-0.3,2.1-2,3.6-4.1,3.6s-3.8-1.6-4.1-3.6
		c0,0.2-0.1,0.3-0.1,0.5C398.9,297.7,400.7,299.4,403,299.5z"/>
	<path class="st4" d="M400.2,305.6c0-0.2,0-0.3-0.1-0.5c-0.3,2.1-2,3.6-4.1,3.6c-2.1,0-3.8-1.6-4.1-3.6c0,0.2-0.1,0.3-0.1,0.5
		c0,2.2,1.8,4.1,4,4.1h0.1C398.2,309.8,400.1,308,400.2,305.6L400.2,305.6z"/>
	<path class="st4" d="M385.4,305.1c-0.3,2.1-2,3.6-4.1,3.6s-3.8-1.6-4.1-3.6c0,0.2-0.1,0.3-0.1,0.5c0,2.3,1.8,4.1,4.1,4.1
		c2.3,0,4.1-1.8,4.1-4.1C385.5,305.4,385.5,305.3,385.4,305.1z"/>
	<path class="st4" d="M388.8,319.4c-2.1,0-3.8-1.6-4.1-3.6c0,0.2-0.1,0.3-0.1,0.5c0,2.3,1.8,4.1,4.1,4.1c2.3,0,4.1-1.8,4.1-4.1
		c0-0.2,0-0.3-0.1-0.5C392.6,317.8,390.9,319.4,388.8,319.4z"/>
	<path class="st4" d="M388.8,299.5c2.2,0,4.1-1.8,4.1-4v-0.1c0-0.2,0-0.3-0.1-0.5c-0.3,2.1-2,3.6-4.1,3.6s-3.8-1.6-4.1-3.6
		c0,0.2-0.1,0.3-0.1,0.5C384.6,297.7,386.5,299.5,388.8,299.5z"/>
	<path class="st4" d="M378.6,295.4c0-0.2,0-0.3-0.1-0.5c-0.3,2.1-2,3.6-4.1,3.6s-3.8-1.6-4.1-3.6c0,0.2-0.1,0.3-0.1,0.5
		c0,2.2,1.8,4.1,4,4.1h0.1C376.6,299.5,378.5,297.7,378.6,295.4z"/>
	<path class="st4" d="M413.9,305.1c-0.3,2.1-2,3.6-4.1,3.6c-2.1,0-3.8-1.6-4.1-3.6c0,0.2-0.1,0.3-0.1,0.5c0,2.3,1.8,4.1,4.1,4.1
		c2.3,0,4.1-1.8,4.1-4.1C414,305.4,413.9,305.3,413.9,305.1z"/>
	<path class="st4" d="M424.5,308.7c-2.1,0-3.8-1.6-4.1-3.6c0,0.2-0.1,0.3-0.1,0.5c0,2.3,1.8,4.1,4.1,4.1s4.1-1.8,4.1-4.1
		c0-0.2,0-0.3-0.1-0.5C428.3,307.2,426.6,308.8,424.5,308.7L424.5,308.7z"/>
	<path class="st4" d="M417.2,319.4c-2.1,0-3.8-1.6-4.1-3.6c0,0.2-0.1,0.3-0.1,0.5c0,2.3,1.8,4.1,4.1,4.1s4.1-1.8,4.1-4.1
		c0-0.2,0-0.3-0.1-0.5C421,317.8,419.3,319.4,417.2,319.4z"/>
	<path class="st4" d="M417.2,299.5c2.2,0,4.1-1.8,4.1-4v-0.1c0-0.2,0-0.3-0.1-0.5c-0.3,2.1-2,3.6-4.1,3.6s-3.8-1.6-4.1-3.6
		c0,0.2-0.1,0.3-0.1,0.5C413,297.7,414.9,299.5,417.2,299.5z"/>
	<path class="st4" d="M431.5,298.5c-2.1,0-3.8-1.6-4.1-3.6c0,0.2-0.1,0.3-0.1,0.5c0,2.3,1.8,4.1,4.1,4.1s4.1-1.8,4.1-4.1
		c0-0.2,0-0.3-0.1-0.5C435.3,296.9,433.6,298.5,431.5,298.5z"/>
</g>
<path class="st17" d="M436.5,420.9h-67.9c-2.8,0-4.6,0.6-4.6-2.2l0,0c0-2.8,2.2-5,5-5h67.9c2.8,0,5,2.2,5,5l0,0
	C442,421.4,439.3,420.9,436.5,420.9z"/>
<path class="st2" d="M408.2,418.7h-36.5c-0.5,0-0.9-0.4-0.9-0.9l0,0c0-1.1,0.9-2,2-2H407c1.1,0,2,0.9,2,2l0,0
	c0.1,0.4-0.2,0.8-0.6,0.9C408.3,418.7,408.3,418.7,408.2,418.7z"/>
<path class="st2" d="M430.4,419.5h-4.2c-0.9,0-1.7-0.8-1.7-1.7l0,0c0-1.5,1.3-2.8,2.8-2.8h1.9c1.5,0,2.8,1.3,2.8,2.8l0,0
	c0.1,0.8-0.5,1.6-1.3,1.7C430.6,419.5,430.5,419.5,430.4,419.5z"/>
<path class="st10" d="M530.3,124.3c0-1-0.9-1.9-1.9-1.9l0,0h-251c-1,0-1.9,0.9-1.9,1.9v129.2c0,8.6,7,15.6,15.6,15.6h223.7
	c8.6,0,15.6-7,15.6-15.6V130.4L530.3,124.3z"/>
<g class="st18">
	
		<pattern  id="SVGID_3_" xlink:href="#SVGID_4_" patternTransform="matrix(9.996663e-02 0 0 9.996663e-02 -41829.2344 5360.3745)"  class="st18">
	</pattern>
	<path class="st19" d="M275.5,253.4c0,8.6,7,15.6,15.6,15.6h223.7c8.6,0,15.6-7,15.6-15.6V147H275.5V253.4z"/>
</g>
<path class="st10" d="M709.7,270.9c-14.5,0-26.3-11.8-26.3-26.3c0-14.5,11.8-26.3,26.3-26.3c14.5,0,26.3,11.8,26.3,26.3l0,0
	C736,259.1,724.2,270.9,709.7,270.9z"/>
<path class="st8" d="M709.7,219.4c13.9,0,25.2,11.4,25.2,25.3s-11.4,25.2-25.3,25.2c-13.9,0-25.2-11.4-25.2-25.3
	C684.6,230.7,695.9,219.4,709.7,219.4 M709.7,217.4c-15.1,0-27.3,12.2-27.3,27.3c0,15.1,12.2,27.3,27.3,27.3
	c15.1,0,27.3-12.2,27.3-27.3l0,0C737,229.6,724.8,217.4,709.7,217.4z"/>
<path class="st2" d="M709.7,225.8c-10.4,0-18.9,8.5-18.9,18.9c0,10.4,8.5,18.9,18.9,18.9c10.4,0,18.9-8.5,18.9-18.9
	C728.6,234.3,720.1,225.8,709.7,225.8z M709.7,260.7c-8.8,0-16-7.2-16-16c0-8.8,7.2-16,16-16c8.8,0,16,7.2,16,16
	C725.7,253.5,718.5,260.7,709.7,260.7z"/>
<path class="st10" d="M652.2,328.5c-14.5,0-26.3-11.8-26.3-26.3c0-14.5,11.8-26.3,26.3-26.3c14.5,0,26.3,11.8,26.3,26.3l0,0
	C678.5,316.7,666.7,328.5,652.2,328.5z"/>
<path class="st8" d="M652.2,277c14,0,25.3,11.3,25.3,25.3s-11.3,25.3-25.3,25.3c-14,0-25.3-11.3-25.3-25.3l0,0
	C626.9,288.3,638.2,277,652.2,277 M652.2,275c-15.1,0-27.3,12.2-27.3,27.3s12.2,27.3,27.3,27.3c15.1,0,27.3-12.2,27.3-27.3l0,0
	C679.5,287.2,667.3,275,652.2,275z"/>
<polygon class="st2" points="666.6,289.9 664.6,287.9 652.2,300.3 639.9,287.9 637.9,289.9 650.2,302.3 637.9,314.6 639.9,316.6 
	652.2,304.3 664.6,316.6 666.6,314.6 654.2,302.3 "/>
<path class="st10" d="M594.7,270.9c-14.5,0-26.3-11.8-26.3-26.3c0-14.5,11.8-26.3,26.3-26.3c14.5,0,26.3,11.8,26.3,26.3l0,0
	C621,259.1,609.2,270.9,594.7,270.9z"/>
<path class="st8" d="M594.6,219.4c13.9,0,25.2,11.4,25.2,25.3s-11.4,25.2-25.3,25.2c-13.9,0-25.2-11.4-25.2-25.3
	C569.4,230.7,580.7,219.4,594.6,219.4 M594.6,217.4c-15.1,0-27.3,12.2-27.3,27.3c0,15.1,12.2,27.3,27.3,27.3
	c15.1,0,27.3-12.2,27.3-27.3l0,0C621.9,229.6,609.7,217.4,594.6,217.4z"/>
<path class="st2" d="M606.2,230.3h-25.8v28.6H609v-28.6H606.2z M606.2,256.2h-23v-23h23V256.2z"/>
<path class="st10" d="M652.2,213.4c-14.5,0-26.3-11.8-26.3-26.3s11.8-26.3,26.3-26.3c14.5,0,26.3,11.8,26.3,26.3l0,0
	C678.5,201.6,666.7,213.4,652.2,213.4z"/>
<path class="st8" d="M652.2,161.9c14,0,25.3,11.3,25.3,25.3c0,14-11.3,25.3-25.3,25.3c-14,0-25.3-11.3-25.3-25.3l0,0
	C626.9,173.2,638.2,161.9,652.2,161.9 M652.2,159.9c-15.1,0-27.3,12.2-27.3,27.3c0,15.1,12.2,27.3,27.3,27.3
	c15.1,0,27.3-12.2,27.3-27.3l0,0C679.5,172.1,667.3,159.9,652.2,159.9z"/>
<path class="st2" d="M668.2,195.1l-16-27.6l-16,27.6l-1.6,2.8h35.2L668.2,195.1z M652.2,195.1h-12.7l12.7-21.9l12.7,21.9H652.2z"/>
<path class="st2" d="M697.1,109.9c0-0.8-0.4-1.5-1.1-1.9c-4.5-2.9-23.4-13.6-51.5-13.6c-26.9,0-41.1,5.9-45.1,8
	c-0.7,0.4-1.2,1.2-1.2,2c0,0,9.8-2.9,47.5-2.9S697.1,109.9,697.1,109.9z"/>
<path class="st10" d="M697,116.8L697,116.8v-6.9c0,0-13.7-8.4-51.4-8.4c-37.7,0-47.5,2.9-47.5,2.9v11l0,0c7.7-1.3,21.2-2.6,44.1-2.6
	C670.7,112.9,688.1,115.2,697,116.8z"/>
<path class="st2" d="M108.8,109.9c0-0.8,0.4-1.5,1.1-1.9c4.5-2.9,23.4-13.6,51.5-13.6c26.9,0,41.1,5.9,45.1,8c0.7,0.4,1.2,1.2,1.2,2
	c0,0-9.8-2.9-47.5-2.9S108.8,109.9,108.8,109.9z"/>
<path class="st10" d="M108.9,116.8L108.9,116.8v-6.9c0,0,13.7-8.4,51.4-8.4s47.5,2.9,47.5,2.9v11l0,0c-7.7-1.3-21.2-2.6-44.1-2.6
	C135.2,112.9,117.8,115.2,108.9,116.8z"/>
<path class="st10" d="M697.1,90.8c0,0-32.7-3.2-50.6-3.2c-17.9,0-48.4,2.4-48.4,2.4s3.1-44.7,4.8-52s7.7-21.3,16.9-27.9
	C629,3.5,631.7,0,642.5,0s25.4,6.4,34.6,21.4C686.3,36.4,697.1,90.8,697.1,90.8z"/>
<path class="st2" d="M598.6,83.2c0,0,26.1-4.4,49-4.4c22.9,0,47.9,4.4,47.9,4.4c1,4.7,1.6,7.6,1.6,7.6s-32.7-3.2-50.6-3.2
	c-17.9,0-48.4,2.4-48.4,2.4S598.3,87.3,598.6,83.2z"/>
<path class="st10" d="M108.8,90.8c0,0,32.7-3.2,50.6-3.2s48.3,2.4,48.3,2.4s-3.1-44.7-4.8-52c-1.7-7.3-7.7-21.3-16.9-27.9
	S174.2,0,163.4,0S138,6.4,128.8,21.4S108.8,90.8,108.8,90.8z"/>
<path class="st2" d="M207.3,83.2c0,0-26.1-4.4-49-4.4s-47.9,4.4-47.9,4.4c-1,4.7-1.6,7.6-1.6,7.6s32.7-3.2,50.6-3.2
	s48.3,2.4,48.3,2.4S207.6,87.3,207.3,83.2z"/>
</svg>
