<svg id="Layer_1" data-name="Layer 1" xmlns="http://www.w3.org/2000/svg" xmlns:xlink="http://www.w3.org/1999/xlink" viewBox="0 0 875.06 894.33"><defs><style>.cls-1,.cls-12,.cls-13,.cls-7,.cls-8{fill:none;}.cls-2{fill:#b3b3b3;}.cls-3{fill:#f7f7f7;}.cls-4{opacity:0.06;}.cls-10,.cls-5{fill:#fff;}.cls-6{clip-path:url(#clip-path);}.cls-10,.cls-13,.cls-15,.cls-7{stroke:#11cbd2;}.cls-10,.cls-12,.cls-13,.cls-14,.cls-15,.cls-18,.cls-7,.cls-8{stroke-miterlimit:10;}.cls-7{stroke-width:0.25px;}.cls-18,.cls-8{stroke:#0fb7bd;}.cls-14,.cls-15,.cls-9{fill:#0fb7bd;}.cls-11,.cls-18{fill:#11cbd2;}.cls-12{stroke:#e6e7e8;stroke-linecap:round;stroke-width:3px;stroke-dasharray:0 10;}.cls-13,.cls-15,.cls-18{stroke-width:2px;}.cls-14{stroke:#fff;}.cls-16{fill:#e6e6e6;opacity:0.1;}.cls-16,.cls-17{isolation:isolate;}.cls-17{opacity:0.22;}.cls-19{opacity:0.12;}.cls-20{fill:url(#SVGID_2_);}</style><clipPath id="clip-path" transform="translate(6.07 93.21)"><path class="cls-1" d="M801.35,418.72c-2.9-15.5-17.7-102.5-32-144.6-9.4-27.7-13.1-53-17-64.9-12-35.7-33-65.7-33-65.7s-9.5-13.1-10.1-16.3-4.7-8.6-4.7-8.6-17.4-5.7-62.3-5.7-53.7,5-53.7,5a22.51,22.51,0,0,1-5.9,4.8c-3.5,1.8-11.7,1.7-11.7,1.7h-33.4a1,1,0,0,0-.9.3,5.3,5.3,0,0,0-.6,2H270a7.13,7.13,0,0,0-.6-2,1.06,1.06,0,0,0-.9-.3h-33.4s-8.2.2-11.7-1.7a20.51,20.51,0,0,1-5.9-4.8s-8.8-5-53.7-5-62.3,5.7-62.3,5.7-4.1,5.3-4.7,8.6-10.1,16.3-10.1,16.3-21,30-33,65.7c-4,11.9-7.7,37.2-17,64.9-14.3,42.1-29.1,129.1-32,144.6-4.3,23.2-4.6,90.2-4.6,90.2s4.5,53.4,36.2,74.9,56.7,14,56.7,14,33.1-8.2,57.8-41.9,56.6-129.2,56.6-129.2a24.5,24.5,0,0,1,5.7-5.3,15.79,15.79,0,0,1,6.3-2.6l183.7.1,183.7-.1a15.79,15.79,0,0,1,6.3,2.6,24.5,24.5,0,0,1,5.7,5.3s31.9,95.4,56.6,129.2,57.8,41.9,57.8,41.9,25,7.5,56.7-14,36.2-74.9,36.2-74.9S805.75,441.92,801.35,418.72Z"/></clipPath><pattern id="SVGID_2_" data-name="SVGID 2 " width="71" height="71" patternTransform="translate(-27864.1 4033.59) scale(0.1)" patternUnits="userSpaceOnUse" viewBox="0 0 71 71"><rect class="cls-1" width="71" height="71"/><rect class="cls-1" width="71" height="71"/><rect class="cls-1" width="71" height="71"/><polygon class="cls-1" points="0 0 71 0 71 71 0 71 0 0"/><polygon class="cls-1" points="0 0 71 0 71 71 0 71 0 0"/><path class="cls-2" d="M41.8,35.5a6.3,6.3,0,1,1-6.3-6.3A6.27,6.27,0,0,1,41.8,35.5Z"/></pattern></defs><title>basetrinityrev2</title><path class="cls-3" d="M801.3,418.6c-2.9-15.5-17.7-102.5-32-144.6-9.4-27.7-13.1-53-17-64.9-12-35.7-33-65.7-33-65.7s-9.5-13.1-10.1-16.3-4.7-8.6-4.7-8.6-17.4-5.7-62.3-5.7-53.7,5-53.7,5a22.51,22.51,0,0,1-5.9,4.8c-3.5,1.8-11.7,1.7-11.7,1.7H537.5a1,1,0,0,0-.9.3,5.3,5.3,0,0,0-.6,2H269.9a7.13,7.13,0,0,0-.6-2,1.06,1.06,0,0,0-.9-.3H235s-8.2.2-11.7-1.7a20.51,20.51,0,0,1-5.9-4.8s-8.8-5-53.7-5-62.3,5.7-62.3,5.7-4.1,5.3-4.7,8.6-10.1,16.3-10.1,16.3-21,30-33,65.7c-4,11.9-7.7,37.2-17,64.9C22.3,316.1,7.5,403.1,4.6,418.6.3,441.8,0,508.8,0,508.8s4.5,53.4,36.2,74.9,56.7,14,56.7,14,33.1-8.2,57.8-41.9,56.6-129.2,56.6-129.2a24.5,24.5,0,0,1,5.7-5.3,15.79,15.79,0,0,1,6.3-2.6l183.7.1,183.7-.1a15.79,15.79,0,0,1,6.3,2.6,24.5,24.5,0,0,1,5.7,5.3s31.9,95.4,56.6,129.2,57.8,41.9,57.8,41.9,25,7.5,56.7-14S806,508.8,806,508.8,805.7,441.8,801.3,418.6Z" transform="translate(6.07 93.21)"/><g class="cls-4"><path class="cls-5" d="M36.6,276c9.4-27.7,13.1-53,17-64.9,12-35.7,33-65.7,33-65.7s9.5-13.1,10.1-16.3,4.7-8.6,4.7-8.6,17.4-5.7,62.3-5.7,53.7,5,53.7,5a22.51,22.51,0,0,0,5.9,4.8c3.5,1.8,11.7,1.7,11.7,1.7h33.4a1,1,0,0,1,.9.3,5.3,5.3,0,0,1,.6,2H536.1a7.13,7.13,0,0,1,.6-2,1.06,1.06,0,0,1,.9-.3H571s8.2.2,11.7-1.7a20.51,20.51,0,0,0,5.9-4.8s8.8-5,53.7-5,62.3,5.7,62.3,5.7,4.1,5.3,4.7,8.6,10.1,16.3,10.1,16.3,21,30,33,65.7c4,11.9,7.7,37.2,17,64.9,14.3,42.1,29.1,129.1,32,144.6,3.9,20.9,4.6,77.3,4.7,88.3v-.1s-.3-66.9-4.7-90.1c-2.9-15.5-17.7-102.5-32-144.6-9.4-27.7-13.1-53-17-64.9-12-35.7-33-65.7-33-65.7s-9.5-13.1-10.1-16.3-4.7-8.6-4.7-8.6-17.4-5.7-62.3-5.7-53.7,5-53.7,5a22.51,22.51,0,0,1-5.9,4.8c-3.5,1.8-11.7,1.7-11.7,1.7H537.6a1,1,0,0,0-.9.3,5.3,5.3,0,0,0-.6,2H269.9a7.13,7.13,0,0,0-.6-2,1.06,1.06,0,0,0-.9-.3H235s-8.2.2-11.7-1.7a20.51,20.51,0,0,1-5.9-4.8s-8.8-5-53.7-5-62.3,5.7-62.3,5.7-4.1,5.3-4.7,8.6-10.1,16.3-10.1,16.3-21,30-33,65.7c-4,11.9-7.7,37.2-17,64.9C22.3,316.2,7.5,403.2,4.6,418.7.3,441.8,0,508.8,0,508.8v.1c.1-10.9.7-67.4,4.7-88.3C7.6,405.2,22.3,318.1,36.6,276Z" transform="translate(6.07 93.21)"/></g><g class="cls-6"><g id="Pattern"><rect class="cls-1" x="28.12" y="128.33" width="752.63" height="635.15"/><line class="cls-7" x1="771.43" y1="744.52" x2="738.93" y2="884.82"/><line class="cls-7" x1="771.43" y1="744.52" x2="738.93" y2="884.82"/><line class="cls-7" x1="773.17" y1="750.22" x2="743.14" y2="879.87"/><line class="cls-7" x1="773.17" y1="750.22" x2="743.14" y2="879.87"/><line class="cls-7" x1="774.91" y1="755.92" x2="747.35" y2="874.91"/><line class="cls-7" x1="774.91" y1="755.92" x2="747.35" y2="874.91"/><line class="cls-7" x1="776.65" y1="761.63" x2="751.56" y2="869.95"/><line class="cls-7" x1="776.65" y1="761.63" x2="751.56" y2="869.95"/><line class="cls-7" x1="771.43" y1="426.94" x2="738.93" y2="567.25"/><line class="cls-7" x1="771.43" y1="426.94" x2="738.93" y2="567.25"/><line class="cls-7" x1="773.17" y1="432.65" x2="743.14" y2="562.29"/><line class="cls-7" x1="773.17" y1="432.65" x2="743.14" y2="562.29"/><line class="cls-7" x1="774.91" y1="438.35" x2="747.35" y2="557.33"/><line class="cls-7" x1="774.91" y1="438.35" x2="747.35" y2="557.33"/><line class="cls-7" x1="776.65" y1="444.05" x2="751.56" y2="552.38"/><line class="cls-7" x1="776.65" y1="444.05" x2="751.56" y2="552.38"/><line class="cls-7" x1="778.39" y1="449.76" x2="755.76" y2="547.42"/><line class="cls-7" x1="778.39" y1="449.76" x2="755.76" y2="547.42"/><line class="cls-7" x1="780.13" y1="455.46" x2="759.97" y2="542.46"/><line class="cls-7" x1="780.13" y1="455.46" x2="759.97" y2="542.46"/><line class="cls-7" x1="759.98" y1="476.39" x2="727.47" y2="616.7"/><line class="cls-7" x1="759.98" y1="476.39" x2="727.47" y2="616.7"/><line class="cls-7" x1="761.72" y1="482.09" x2="731.68" y2="611.74"/><line class="cls-7" x1="761.72" y1="482.09" x2="731.68" y2="611.74"/><line class="cls-7" x1="763.46" y1="487.8" x2="735.89" y2="606.78"/><line class="cls-7" x1="763.46" y1="487.8" x2="735.89" y2="606.78"/><line class="cls-7" x1="765.19" y1="493.5" x2="740.1" y2="601.82"/><line class="cls-7" x1="765.19" y1="493.5" x2="740.1" y2="601.82"/><line class="cls-7" x1="766.93" y1="499.2" x2="744.31" y2="596.86"/><line class="cls-7" x1="766.93" y1="499.2" x2="744.31" y2="596.86"/><line class="cls-7" x1="797.07" y1="511.03" x2="764.57" y2="651.34"/><line class="cls-7" x1="797.07" y1="511.03" x2="764.57" y2="651.34"/><line class="cls-7" x1="798.81" y1="516.74" x2="768.78" y2="646.38"/><line class="cls-7" x1="798.81" y1="516.74" x2="768.78" y2="646.38"/><line class="cls-8" x1="800.55" y1="522.44" x2="772.99" y2="641.42"/><line class="cls-8" x1="800.55" y1="522.44" x2="772.99" y2="641.42"/><line class="cls-8" x1="802.29" y1="528.14" x2="777.2" y2="636.47"/><line class="cls-8" x1="802.29" y1="528.14" x2="777.2" y2="636.47"/><line class="cls-8" x1="785.62" y1="560.48" x2="753.11" y2="700.79"/><line class="cls-8" x1="785.62" y1="560.48" x2="753.11" y2="700.79"/><line class="cls-8" x1="787.36" y1="566.18" x2="757.32" y2="695.83"/><line class="cls-8" x1="787.36" y1="566.18" x2="757.32" y2="695.83"/><line class="cls-8" x1="789.1" y1="571.89" x2="761.53" y2="690.87"/><line class="cls-8" x1="789.1" y1="571.89" x2="761.53" y2="690.87"/><line class="cls-8" x1="790.83" y1="577.59" x2="765.74" y2="685.91"/><line class="cls-8" x1="790.83" y1="577.59" x2="765.74" y2="685.91"/><polygon class="cls-9" points="645.02 655.29 622.4 752.95 718.29 723.71 645.02 655.29 622.4 752.95 718.29 723.71 645.02 655.29"/><polygon class="cls-10" points="686.81 537.95 661.72 646.28 768.07 613.85 686.81 537.95 661.72 646.28 768.07 613.85 686.81 537.95"/><polygon class="cls-11" points="665.7 659.33 651.47 720.76 711.78 702.37 665.7 659.33 651.47 720.76 711.78 702.37 665.7 659.33"/><line class="cls-12" x1="754.22" y1="506.72" x2="652.71" y2="537.67"/><line class="cls-12" x1="751.53" y1="497.92" x2="650.03" y2="528.87"/><line class="cls-12" x1="748.85" y1="489.12" x2="647.34" y2="520.07"/><line class="cls-12" x1="746.17" y1="480.32" x2="644.66" y2="511.27"/><line class="cls-12" x1="743.49" y1="471.52" x2="641.98" y2="502.47"/><path class="cls-13" d="M494.24,538.93c13.78-4.2,19.62,14.93,33.4,10.72s8-23.33,21.74-27.54S569,537,582.78,532.83s8-23.33,21.74-27.54,19.62,14.93,33.41,10.72" transform="translate(6.07 93.21)"/><polygon class="cls-9" points="831.61 651.29 775.1 734.09 875.06 741.63 831.61 651.29 775.1 734.09 875.06 741.63 831.61 651.29"/><line class="cls-7" x1="395.12" y1="585.73" x2="362.62" y2="726.04"/><line class="cls-7" x1="395.12" y1="585.73" x2="362.62" y2="726.04"/><line class="cls-7" x1="396.86" y1="591.43" x2="366.82" y2="721.08"/><line class="cls-7" x1="396.86" y1="591.43" x2="366.82" y2="721.08"/><line class="cls-7" x1="398.6" y1="597.14" x2="371.03" y2="716.12"/><line class="cls-7" x1="398.6" y1="597.14" x2="371.03" y2="716.12"/><line class="cls-7" x1="400.34" y1="602.84" x2="375.24" y2="711.16"/><line class="cls-7" x1="400.34" y1="602.84" x2="375.24" y2="711.16"/><line class="cls-7" x1="402.08" y1="608.54" x2="379.45" y2="706.2"/><line class="cls-7" x1="402.08" y1="608.54" x2="379.45" y2="706.2"/><line class="cls-7" x1="403.81" y1="614.25" x2="383.66" y2="701.25"/><line class="cls-7" x1="403.81" y1="614.25" x2="383.66" y2="701.25"/><line class="cls-7" x1="383.66" y1="635.18" x2="351.16" y2="775.49"/><line class="cls-7" x1="383.66" y1="635.18" x2="351.16" y2="775.49"/><line class="cls-7" x1="385.4" y1="640.88" x2="355.37" y2="770.53"/><line class="cls-7" x1="385.4" y1="640.88" x2="355.37" y2="770.53"/><line class="cls-7" x1="387.14" y1="646.58" x2="359.58" y2="765.57"/><line class="cls-7" x1="387.14" y1="646.58" x2="359.58" y2="765.57"/><line class="cls-7" x1="388.88" y1="652.29" x2="363.79" y2="760.61"/><line class="cls-7" x1="388.88" y1="652.29" x2="363.79" y2="760.61"/><line class="cls-7" x1="390.62" y1="657.99" x2="368" y2="755.65"/><line class="cls-7" x1="390.62" y1="657.99" x2="368" y2="755.65"/><line class="cls-7" x1="420.76" y1="669.82" x2="388.26" y2="810.13"/><line class="cls-7" x1="420.76" y1="669.82" x2="388.26" y2="810.13"/><line class="cls-7" x1="422.5" y1="675.52" x2="392.46" y2="805.17"/><line class="cls-7" x1="422.5" y1="675.52" x2="392.46" y2="805.17"/><line class="cls-8" x1="424.24" y1="681.23" x2="396.67" y2="800.21"/><line class="cls-8" x1="424.24" y1="681.23" x2="396.67" y2="800.21"/><line class="cls-8" x1="425.98" y1="686.93" x2="400.88" y2="795.25"/><line class="cls-8" x1="425.98" y1="686.93" x2="400.88" y2="795.25"/><line class="cls-8" x1="427.72" y1="692.63" x2="405.09" y2="790.29"/><line class="cls-8" x1="427.72" y1="692.63" x2="405.09" y2="790.29"/><line class="cls-8" x1="429.45" y1="698.34" x2="409.3" y2="785.34"/><line class="cls-8" x1="429.45" y1="698.34" x2="409.3" y2="785.34"/><line class="cls-8" x1="431.19" y1="704.04" x2="413.51" y2="780.38"/><line class="cls-8" x1="431.19" y1="704.04" x2="413.51" y2="780.38"/><line class="cls-8" x1="432.93" y1="709.74" x2="417.72" y2="775.42"/><line class="cls-8" x1="432.93" y1="709.74" x2="417.72" y2="775.42"/><line class="cls-8" x1="434.67" y1="715.45" x2="421.93" y2="770.46"/><line class="cls-8" x1="434.67" y1="715.45" x2="421.93" y2="770.46"/><line class="cls-8" x1="409.3" y1="719.27" x2="376.8" y2="859.58"/><line class="cls-8" x1="409.3" y1="719.27" x2="376.8" y2="859.58"/><line class="cls-8" x1="411.04" y1="724.97" x2="381.01" y2="854.62"/><line class="cls-8" x1="411.04" y1="724.97" x2="381.01" y2="854.62"/><line class="cls-8" x1="412.78" y1="730.67" x2="385.22" y2="849.66"/><line class="cls-8" x1="412.78" y1="730.67" x2="385.22" y2="849.66"/><line class="cls-8" x1="414.52" y1="736.38" x2="389.43" y2="844.7"/><line class="cls-8" x1="414.52" y1="736.38" x2="389.43" y2="844.7"/><polygon class="cls-10" points="310.5 696.74 285.4 805.06 391.76 772.63 310.5 696.74 285.4 805.06 391.76 772.63 310.5 696.74"/><line class="cls-8" x1="446.4" y1="753.91" x2="413.9" y2="894.22"/><line class="cls-8" x1="446.4" y1="753.91" x2="413.9" y2="894.22"/><line class="cls-8" x1="448.14" y1="759.61" x2="418.1" y2="889.26"/><line class="cls-8" x1="448.14" y1="759.61" x2="418.1" y2="889.26"/><polygon class="cls-14" points="461.16 752.01 446.93 813.43 507.24 795.04 461.16 752.01 446.93 813.43 507.24 795.04 461.16 752.01"/><polygon class="cls-11" points="461.16 670.07 446.93 731.49 507.24 713.1 461.16 670.07 446.93 731.49 507.24 713.1 461.16 670.07"/><line class="cls-12" x1="377.9" y1="665.5" x2="276.39" y2="696.46"/><line class="cls-12" x1="375.22" y1="656.71" x2="273.71" y2="687.66"/><line class="cls-12" x1="372.54" y1="647.91" x2="271.03" y2="678.86"/><line class="cls-12" x1="369.86" y1="639.11" x2="268.35" y2="670.06"/><line class="cls-12" x1="367.17" y1="630.31" x2="265.66" y2="661.26"/><path class="cls-13" d="M117.93,697.72c13.78-4.2,19.62,14.93,33.4,10.72s8-23.33,21.74-27.54,19.62,14.93,33.4,10.72,8-23.33,21.74-27.54S247.83,679,261.62,674.8" transform="translate(6.07 93.21)"/><polygon class="cls-11" points="418.31 640.87 412.18 667.36 438.19 659.43 418.31 640.87 412.18 667.36 438.19 659.43 418.31 640.87"/><line class="cls-7" x1="655.94" y1="643.15" x2="574.75" y2="762.11"/><line class="cls-7" x1="655.94" y1="643.15" x2="574.75" y2="762.11"/><line class="cls-7" x1="655.49" y1="649.09" x2="580.47" y2="759.01"/><line class="cls-7" x1="655.49" y1="649.09" x2="580.47" y2="759.01"/><line class="cls-7" x1="655.04" y1="655.04" x2="586.19" y2="755.92"/><line class="cls-7" x1="655.04" y1="655.04" x2="586.19" y2="755.92"/><line class="cls-7" x1="654.59" y1="660.98" x2="591.91" y2="752.82"/><line class="cls-7" x1="654.59" y1="660.98" x2="591.91" y2="752.82"/><line class="cls-7" x1="654.14" y1="666.93" x2="597.63" y2="749.73"/><line class="cls-7" x1="654.14" y1="666.93" x2="597.63" y2="749.73"/><line class="cls-7" x1="653.69" y1="672.88" x2="603.35" y2="746.64"/><line class="cls-7" x1="653.69" y1="672.88" x2="603.35" y2="746.64"/><line class="cls-7" x1="627.32" y1="685.07" x2="546.13" y2="804.03"/><line class="cls-7" x1="627.32" y1="685.07" x2="546.13" y2="804.03"/><line class="cls-7" x1="626.88" y1="691.02" x2="551.85" y2="800.93"/><line class="cls-7" x1="626.88" y1="691.02" x2="551.85" y2="800.93"/><line class="cls-7" x1="626.43" y1="696.96" x2="557.58" y2="797.84"/><line class="cls-7" x1="626.43" y1="696.96" x2="557.58" y2="797.84"/><line class="cls-7" x1="625.98" y1="702.91" x2="563.3" y2="794.75"/><line class="cls-7" x1="625.98" y1="702.91" x2="563.3" y2="794.75"/><line class="cls-7" x1="625.53" y1="708.85" x2="569.02" y2="791.65"/><line class="cls-7" x1="625.53" y1="708.85" x2="569.02" y2="791.65"/><line class="cls-7" x1="649.32" y1="730.81" x2="568.13" y2="849.77"/><line class="cls-7" x1="649.32" y1="730.81" x2="568.13" y2="849.77"/><line class="cls-7" x1="648.88" y1="736.76" x2="573.85" y2="846.68"/><line class="cls-7" x1="648.88" y1="736.76" x2="573.85" y2="846.68"/><line class="cls-8" x1="648.43" y1="742.7" x2="579.58" y2="843.58"/><line class="cls-8" x1="648.43" y1="742.7" x2="579.58" y2="843.58"/><line class="cls-8" x1="647.98" y1="748.65" x2="585.3" y2="840.49"/><line class="cls-8" x1="647.98" y1="748.65" x2="585.3" y2="840.49"/><line class="cls-8" x1="647.53" y1="754.59" x2="591.02" y2="837.39"/><line class="cls-8" x1="647.53" y1="754.59" x2="591.02" y2="837.39"/><line class="cls-8" x1="647.08" y1="760.54" x2="596.74" y2="834.3"/><line class="cls-8" x1="647.08" y1="760.54" x2="596.74" y2="834.3"/><polygon class="cls-10" points="536.81 715.9 474.13 807.73 585 816.1 536.81 715.9 474.13 807.73 585 816.1 536.81 715.9"/><polygon class="cls-9" points="560.11 744.31 524.57 796.39 587.44 801.13 560.11 744.31 524.57 796.39 587.44 801.13 560.11 744.31"/><line class="cls-12" x1="610.95" y1="711.24" x2="505.13" y2="703.26"/><line class="cls-12" x1="611.65" y1="702.07" x2="505.82" y2="694.09"/><line class="cls-12" x1="612.34" y1="692.9" x2="506.52" y2="684.91"/><line class="cls-12" x1="613.03" y1="683.72" x2="507.21" y2="675.74"/><line class="cls-12" x1="613.72" y1="674.55" x2="507.9" y2="666.57"/><polygon class="cls-11" points="657.55 702.95 642.22 725.41 669.34 727.46 657.55 702.95 642.22 725.41 669.34 727.46 657.55 702.95"/><line class="cls-7" x1="44.45" y1="511.03" x2="11.94" y2="651.34"/><line class="cls-7" x1="44.45" y1="511.03" x2="11.94" y2="651.34"/><line class="cls-7" x1="46.19" y1="516.74" x2="16.15" y2="646.38"/><line class="cls-7" x1="46.19" y1="516.74" x2="16.15" y2="646.38"/><line class="cls-8" x1="47.92" y1="522.44" x2="20.36" y2="641.42"/><line class="cls-8" x1="47.92" y1="522.44" x2="20.36" y2="641.42"/><line class="cls-8" x1="49.66" y1="528.14" x2="24.57" y2="636.47"/><line class="cls-8" x1="49.66" y1="528.14" x2="24.57" y2="636.47"/><line class="cls-8" x1="51.4" y1="533.85" x2="28.78" y2="631.51"/><line class="cls-8" x1="51.4" y1="533.85" x2="28.78" y2="631.51"/><line class="cls-8" x1="53.14" y1="539.55" x2="32.99" y2="626.55"/><line class="cls-8" x1="53.14" y1="539.55" x2="32.99" y2="626.55"/><line class="cls-8" x1="54.88" y1="545.25" x2="37.2" y2="621.59"/><line class="cls-8" x1="54.88" y1="545.25" x2="37.2" y2="621.59"/><line class="cls-8" x1="56.62" y1="550.96" x2="41.41" y2="616.63"/><line class="cls-8" x1="56.62" y1="550.96" x2="41.41" y2="616.63"/><line class="cls-8" x1="58.36" y1="556.66" x2="45.61" y2="611.67"/><line class="cls-8" x1="58.36" y1="556.66" x2="45.61" y2="611.67"/><line class="cls-8" x1="32.99" y1="560.48" x2="0.49" y2="700.79"/><line class="cls-8" x1="32.99" y1="560.48" x2="0.49" y2="700.79"/><line class="cls-8" x1="34.73" y1="566.18" x2="4.7" y2="695.83"/><line class="cls-8" x1="34.73" y1="566.18" x2="4.7" y2="695.83"/><line class="cls-8" x1="36.47" y1="571.89" x2="8.91" y2="690.87"/><line class="cls-8" x1="36.47" y1="571.89" x2="8.91" y2="690.87"/><line class="cls-8" x1="38.21" y1="577.59" x2="13.11" y2="685.91"/><line class="cls-8" x1="38.21" y1="577.59" x2="13.11" y2="685.91"/><line class="cls-8" x1="70.09" y1="595.12" x2="37.58" y2="735.43"/><line class="cls-8" x1="70.09" y1="595.12" x2="37.58" y2="735.43"/><line class="cls-8" x1="71.83" y1="600.83" x2="41.79" y2="730.47"/><line class="cls-8" x1="71.83" y1="600.83" x2="41.79" y2="730.47"/><polygon class="cls-14" points="84.84 593.22 70.61 654.64 130.92 636.26 84.84 593.22 70.61 654.64 130.92 636.26 84.84 593.22"/><polygon class="cls-11" points="84.84 511.28 70.61 572.71 130.92 554.32 84.84 511.28 70.61 572.71 130.92 554.32 84.84 511.28"/><polygon class="cls-11" points="42 482.09 35.87 508.58 61.88 500.65 42 482.09 35.87 508.58 61.88 500.65 42 482.09"/><line class="cls-7" x1="279.62" y1="484.36" x2="198.43" y2="603.32"/><line class="cls-7" x1="279.62" y1="484.36" x2="198.43" y2="603.32"/><line class="cls-7" x1="279.18" y1="490.31" x2="204.15" y2="600.23"/><line class="cls-7" x1="279.18" y1="490.31" x2="204.15" y2="600.23"/><line class="cls-7" x1="278.73" y1="496.25" x2="209.88" y2="597.13"/><line class="cls-7" x1="278.73" y1="496.25" x2="209.88" y2="597.13"/><line class="cls-7" x1="278.28" y1="502.2" x2="215.6" y2="594.04"/><line class="cls-7" x1="278.28" y1="502.2" x2="215.6" y2="594.04"/><line class="cls-7" x1="277.83" y1="508.14" x2="221.32" y2="590.94"/><line class="cls-7" x1="277.83" y1="508.14" x2="221.32" y2="590.94"/><line class="cls-7" x1="277.38" y1="514.09" x2="227.04" y2="587.85"/><line class="cls-7" x1="277.38" y1="514.09" x2="227.04" y2="587.85"/><line class="cls-7" x1="251.01" y1="526.28" x2="169.82" y2="645.24"/><line class="cls-7" x1="251.01" y1="526.28" x2="169.82" y2="645.24"/><line class="cls-7" x1="250.56" y1="532.23" x2="175.54" y2="642.15"/><line class="cls-7" x1="250.56" y1="532.23" x2="175.54" y2="642.15"/><line class="cls-7" x1="250.11" y1="538.18" x2="181.26" y2="639.05"/><line class="cls-7" x1="250.11" y1="538.18" x2="181.26" y2="639.05"/><line class="cls-7" x1="249.67" y1="544.12" x2="186.98" y2="635.96"/><line class="cls-7" x1="249.67" y1="544.12" x2="186.98" y2="635.96"/><line class="cls-7" x1="249.22" y1="550.07" x2="192.7" y2="632.87"/><line class="cls-7" x1="249.22" y1="550.07" x2="192.7" y2="632.87"/><line class="cls-7" x1="273.01" y1="572.02" x2="191.82" y2="690.98"/><line class="cls-7" x1="273.01" y1="572.02" x2="191.82" y2="690.98"/><line class="cls-7" x1="272.56" y1="577.97" x2="197.54" y2="687.89"/><line class="cls-7" x1="272.56" y1="577.97" x2="197.54" y2="687.89"/><line class="cls-8" x1="272.11" y1="583.92" x2="203.26" y2="684.79"/><line class="cls-8" x1="272.11" y1="583.92" x2="203.26" y2="684.79"/><line class="cls-8" x1="271.67" y1="589.86" x2="208.98" y2="681.7"/><line class="cls-8" x1="271.67" y1="589.86" x2="208.98" y2="681.7"/><line class="cls-8" x1="271.22" y1="595.81" x2="214.7" y2="678.61"/><line class="cls-8" x1="271.22" y1="595.81" x2="214.7" y2="678.61"/><line class="cls-8" x1="270.77" y1="601.75" x2="220.43" y2="675.51"/><line class="cls-8" x1="270.77" y1="601.75" x2="220.43" y2="675.51"/><line class="cls-8" x1="270.32" y1="607.7" x2="226.15" y2="672.42"/><line class="cls-8" x1="270.32" y1="607.7" x2="226.15" y2="672.42"/><line class="cls-8" x1="269.87" y1="613.64" x2="231.87" y2="669.33"/><line class="cls-8" x1="269.87" y1="613.64" x2="231.87" y2="669.33"/><line class="cls-8" x1="269.42" y1="619.59" x2="237.59" y2="666.23"/><line class="cls-8" x1="269.42" y1="619.59" x2="237.59" y2="666.23"/><line class="cls-8" x1="244.4" y1="613.95" x2="163.21" y2="732.91"/><line class="cls-8" x1="244.4" y1="613.95" x2="163.21" y2="732.91"/><line class="cls-8" x1="243.95" y1="619.89" x2="168.93" y2="729.81"/><line class="cls-8" x1="243.95" y1="619.89" x2="168.93" y2="729.81"/><line class="cls-8" x1="243.5" y1="625.84" x2="174.65" y2="726.72"/><line class="cls-8" x1="243.5" y1="625.84" x2="174.65" y2="726.72"/><line class="cls-8" x1="243.05" y1="631.78" x2="180.37" y2="723.62"/><line class="cls-8" x1="243.05" y1="631.78" x2="180.37" y2="723.62"/><polygon class="cls-9" points="78.99 651.29 22.47 734.09 122.44 741.63 78.99 651.29 22.47 734.09 122.44 741.63 78.99 651.29"/><polygon class="cls-10" points="160.49 557.11 97.81 648.95 208.69 657.31 160.49 557.11 97.81 648.95 208.69 657.31 160.49 557.11"/><line class="cls-8" x1="266.4" y1="659.69" x2="185.21" y2="778.65"/><line class="cls-8" x1="266.4" y1="659.69" x2="185.21" y2="778.65"/><line class="cls-8" x1="265.95" y1="665.63" x2="190.93" y2="775.55"/><line class="cls-8" x1="265.95" y1="665.63" x2="190.93" y2="775.55"/><polygon class="cls-11" points="96.79 662.56 61.24 714.64 124.11 719.38 96.79 662.56 61.24 714.64 124.11 719.38 96.79 662.56"/><polygon class="cls-14" points="280.84 663.27 245.3 715.34 308.17 720.09 280.84 663.27 245.3 715.34 308.17 720.09 280.84 663.27"/><polygon class="cls-9" points="183.8 585.52 148.26 637.6 211.13 642.34 183.8 585.52 148.26 637.6 211.13 642.34 183.8 585.52"/><line class="cls-12" x1="234.64" y1="552.46" x2="128.82" y2="544.47"/><line class="cls-12" x1="235.33" y1="543.28" x2="129.51" y2="535.3"/><line class="cls-12" x1="236.02" y1="534.11" x2="130.2" y2="526.13"/><line class="cls-12" x1="236.72" y1="524.94" x2="130.89" y2="516.95"/><line class="cls-12" x1="237.41" y1="515.76" x2="131.59" y2="507.78"/><polygon class="cls-11" points="281.24 544.16 265.9 566.62 293.02 568.67 281.24 544.16 265.9 566.62 293.02 568.67 281.24 544.16"/><line class="cls-7" x1="771.43" y1="109.37" x2="738.93" y2="249.68"/><line class="cls-7" x1="771.43" y1="109.37" x2="738.93" y2="249.68"/><line class="cls-7" x1="773.17" y1="115.07" x2="743.14" y2="244.72"/><line class="cls-7" x1="773.17" y1="115.07" x2="743.14" y2="244.72"/><line class="cls-7" x1="774.91" y1="120.78" x2="747.35" y2="239.76"/><line class="cls-7" x1="774.91" y1="120.78" x2="747.35" y2="239.76"/><line class="cls-7" x1="776.65" y1="126.48" x2="751.56" y2="234.8"/><line class="cls-7" x1="776.65" y1="126.48" x2="751.56" y2="234.8"/><line class="cls-7" x1="778.39" y1="132.18" x2="755.76" y2="229.84"/><line class="cls-7" x1="778.39" y1="132.18" x2="755.76" y2="229.84"/><line class="cls-7" x1="780.13" y1="137.89" x2="759.97" y2="224.89"/><line class="cls-7" x1="780.13" y1="137.89" x2="759.97" y2="224.89"/><line class="cls-7" x1="759.98" y1="158.82" x2="727.47" y2="299.13"/><line class="cls-7" x1="759.98" y1="158.82" x2="727.47" y2="299.13"/><line class="cls-7" x1="761.72" y1="164.52" x2="731.68" y2="294.17"/><line class="cls-7" x1="761.72" y1="164.52" x2="731.68" y2="294.17"/><line class="cls-7" x1="763.46" y1="170.22" x2="735.89" y2="289.21"/><line class="cls-7" x1="763.46" y1="170.22" x2="735.89" y2="289.21"/><line class="cls-7" x1="765.19" y1="175.93" x2="740.1" y2="284.25"/><line class="cls-7" x1="765.19" y1="175.93" x2="740.1" y2="284.25"/><line class="cls-7" x1="766.93" y1="181.63" x2="744.31" y2="279.29"/><line class="cls-7" x1="766.93" y1="181.63" x2="744.31" y2="279.29"/><line class="cls-7" x1="797.07" y1="193.46" x2="764.57" y2="333.77"/><line class="cls-7" x1="797.07" y1="193.46" x2="764.57" y2="333.77"/><line class="cls-7" x1="798.81" y1="199.16" x2="768.78" y2="328.81"/><line class="cls-7" x1="798.81" y1="199.16" x2="768.78" y2="328.81"/><line class="cls-8" x1="800.55" y1="204.87" x2="772.99" y2="323.85"/><line class="cls-8" x1="800.55" y1="204.87" x2="772.99" y2="323.85"/><line class="cls-8" x1="802.29" y1="210.57" x2="777.2" y2="318.89"/><line class="cls-8" x1="802.29" y1="210.57" x2="777.2" y2="318.89"/><line class="cls-8" x1="785.62" y1="242.91" x2="753.11" y2="383.22"/><line class="cls-8" x1="785.62" y1="242.91" x2="753.11" y2="383.22"/><line class="cls-8" x1="787.36" y1="248.61" x2="757.32" y2="378.26"/><line class="cls-8" x1="787.36" y1="248.61" x2="757.32" y2="378.26"/><line class="cls-8" x1="789.1" y1="254.31" x2="761.53" y2="373.3"/><line class="cls-8" x1="789.1" y1="254.31" x2="761.53" y2="373.3"/><line class="cls-8" x1="790.83" y1="260.02" x2="765.74" y2="368.34"/><line class="cls-8" x1="790.83" y1="260.02" x2="765.74" y2="368.34"/><polygon class="cls-9" points="645.02 337.72 622.4 435.38 718.29 406.14 645.02 337.72 622.4 435.38 718.29 406.14 645.02 337.72"/><polygon class="cls-10" points="686.81 220.38 661.72 328.7 768.07 296.27 686.81 220.38 661.72 328.7 768.07 296.27 686.81 220.38"/><polygon class="cls-11" points="665.7 341.76 651.47 403.18 711.78 384.79 665.7 341.76 651.47 403.18 711.78 384.79 665.7 341.76"/><line class="cls-12" x1="754.22" y1="189.15" x2="652.71" y2="220.1"/><line class="cls-12" x1="751.53" y1="180.35" x2="650.03" y2="211.3"/><line class="cls-12" x1="748.85" y1="171.55" x2="647.34" y2="202.5"/><line class="cls-12" x1="746.17" y1="162.75" x2="644.66" y2="193.7"/><line class="cls-12" x1="743.49" y1="153.95" x2="641.98" y2="184.9"/><path class="cls-13" d="M494.24,221.36c13.81-4.24,19.62,14.93,33.4,10.76s8-23.33,21.74-27.54,19.62,14.93,33.4,10.72,8-23.33,21.74-27.54,19.62,14.93,33.41,10.72" transform="translate(6.07 93.21)"/><polygon class="cls-9" points="831.61 333.72 775.1 416.52 875.06 424.06 831.61 333.72 775.1 416.52 875.06 424.06 831.61 333.72"/><line class="cls-7" x1="395.12" y1="268.16" x2="362.62" y2="408.47"/><line class="cls-7" x1="395.12" y1="268.16" x2="362.62" y2="408.47"/><line class="cls-7" x1="396.86" y1="273.86" x2="366.82" y2="403.51"/><line class="cls-7" x1="396.86" y1="273.86" x2="366.82" y2="403.51"/><line class="cls-7" x1="398.6" y1="279.56" x2="371.03" y2="398.55"/><line class="cls-7" x1="398.6" y1="279.56" x2="371.03" y2="398.55"/><line class="cls-7" x1="400.34" y1="285.27" x2="375.24" y2="393.59"/><line class="cls-7" x1="400.34" y1="285.27" x2="375.24" y2="393.59"/><line class="cls-7" x1="402.08" y1="290.97" x2="379.45" y2="388.63"/><line class="cls-7" x1="402.08" y1="290.97" x2="379.45" y2="388.63"/><line class="cls-7" x1="403.81" y1="296.67" x2="383.66" y2="383.67"/><line class="cls-7" x1="403.81" y1="296.67" x2="383.66" y2="383.67"/><line class="cls-7" x1="383.66" y1="317.6" x2="351.16" y2="457.91"/><line class="cls-7" x1="383.66" y1="317.6" x2="351.16" y2="457.91"/><line class="cls-7" x1="385.4" y1="323.31" x2="355.37" y2="452.95"/><line class="cls-7" x1="385.4" y1="323.31" x2="355.37" y2="452.95"/><line class="cls-7" x1="387.14" y1="329.01" x2="359.58" y2="448"/><line class="cls-7" x1="387.14" y1="329.01" x2="359.58" y2="448"/><line class="cls-7" x1="388.88" y1="334.71" x2="363.79" y2="443.04"/><line class="cls-7" x1="388.88" y1="334.71" x2="363.79" y2="443.04"/><line class="cls-7" x1="390.62" y1="340.42" x2="368" y2="438.08"/><line class="cls-7" x1="390.62" y1="340.42" x2="368" y2="438.08"/><line class="cls-7" x1="420.76" y1="352.25" x2="388.26" y2="492.56"/><line class="cls-7" x1="420.76" y1="352.25" x2="388.26" y2="492.56"/><line class="cls-7" x1="422.5" y1="357.95" x2="392.46" y2="487.6"/><line class="cls-7" x1="422.5" y1="357.95" x2="392.46" y2="487.6"/><line class="cls-8" x1="424.24" y1="363.65" x2="396.67" y2="482.64"/><line class="cls-8" x1="424.24" y1="363.65" x2="396.67" y2="482.64"/><line class="cls-8" x1="425.98" y1="369.36" x2="400.88" y2="477.68"/><line class="cls-8" x1="425.98" y1="369.36" x2="400.88" y2="477.68"/><line class="cls-8" x1="427.72" y1="375.06" x2="405.09" y2="472.72"/><line class="cls-8" x1="427.72" y1="375.06" x2="405.09" y2="472.72"/><line class="cls-8" x1="429.45" y1="380.76" x2="409.3" y2="467.76"/><line class="cls-8" x1="429.45" y1="380.76" x2="409.3" y2="467.76"/><line class="cls-8" x1="431.19" y1="386.47" x2="413.51" y2="462.8"/><line class="cls-8" x1="431.19" y1="386.47" x2="413.51" y2="462.8"/><line class="cls-8" x1="432.93" y1="392.17" x2="417.72" y2="457.85"/><line class="cls-8" x1="432.93" y1="392.17" x2="417.72" y2="457.85"/><line class="cls-8" x1="434.67" y1="397.87" x2="421.93" y2="452.89"/><line class="cls-8" x1="434.67" y1="397.87" x2="421.93" y2="452.89"/><line class="cls-8" x1="409.3" y1="401.69" x2="376.8" y2="542"/><line class="cls-8" x1="409.3" y1="401.69" x2="376.8" y2="542"/><line class="cls-8" x1="411.04" y1="407.4" x2="381.01" y2="537.04"/><line class="cls-8" x1="411.04" y1="407.4" x2="381.01" y2="537.04"/><line class="cls-8" x1="412.78" y1="413.1" x2="385.22" y2="532.09"/><line class="cls-8" x1="412.78" y1="413.1" x2="385.22" y2="532.09"/><line class="cls-8" x1="414.52" y1="418.8" x2="389.43" y2="527.13"/><line class="cls-8" x1="414.52" y1="418.8" x2="389.43" y2="527.13"/><polygon class="cls-9" points="268.71 496.5 246.08 594.16 341.97 564.93 268.71 496.5 246.08 594.16 341.97 564.93 268.71 496.5"/><polygon class="cls-10" points="310.5 379.17 285.4 487.49 391.76 455.06 310.5 379.17 285.4 487.49 391.76 455.06 310.5 379.17"/><line class="cls-8" x1="446.4" y1="436.34" x2="413.9" y2="576.65"/><line class="cls-8" x1="446.4" y1="436.34" x2="413.9" y2="576.65"/><line class="cls-8" x1="448.14" y1="442.04" x2="418.1" y2="571.69"/><line class="cls-8" x1="448.14" y1="442.04" x2="418.1" y2="571.69"/><polygon class="cls-11" points="289.38 500.55 275.15 561.97 335.46 543.58 289.38 500.55 275.15 561.97 335.46 543.58 289.38 500.55"/><polygon class="cls-14" points="461.16 434.43 446.93 495.86 507.24 477.47 461.16 434.43 446.93 495.86 507.24 477.47 461.16 434.43"/><polygon class="cls-11" points="461.16 352.49 446.93 413.92 507.24 395.53 461.16 352.49 446.93 413.92 507.24 395.53 461.16 352.49"/><line class="cls-12" x1="377.9" y1="347.93" x2="276.39" y2="378.88"/><line class="cls-12" x1="375.22" y1="339.13" x2="273.71" y2="370.08"/><line class="cls-12" x1="372.54" y1="330.33" x2="271.03" y2="361.28"/><line class="cls-12" x1="369.86" y1="321.53" x2="268.35" y2="352.49"/><line class="cls-12" x1="367.17" y1="312.73" x2="265.66" y2="343.69"/><path class="cls-13" d="M117.93,380.12c13.78-4.2,19.62,14.93,33.4,10.72s8-23.33,21.74-27.54,19.62,14.93,33.4,10.72,8-23.33,21.74-27.54,19.62,14.93,33.41,10.72" transform="translate(6.07 93.21)"/><polygon class="cls-11" points="418.31 323.3 412.18 349.79 438.19 341.86 418.31 323.3 412.18 349.79 438.19 341.86 418.31 323.3"/><line class="cls-7" x1="655.94" y1="325.58" x2="574.75" y2="444.53"/><line class="cls-7" x1="655.94" y1="325.58" x2="574.75" y2="444.53"/><line class="cls-7" x1="655.49" y1="331.52" x2="580.47" y2="441.44"/><line class="cls-7" x1="655.49" y1="331.52" x2="580.47" y2="441.44"/><line class="cls-7" x1="655.04" y1="337.47" x2="586.19" y2="438.35"/><line class="cls-7" x1="655.04" y1="337.47" x2="586.19" y2="438.35"/><line class="cls-7" x1="654.59" y1="343.41" x2="591.91" y2="435.25"/><line class="cls-7" x1="654.59" y1="343.41" x2="591.91" y2="435.25"/><line class="cls-7" x1="654.14" y1="349.36" x2="597.63" y2="432.16"/><line class="cls-7" x1="654.14" y1="349.36" x2="597.63" y2="432.16"/><line class="cls-7" x1="653.69" y1="355.3" x2="603.35" y2="429.06"/><line class="cls-7" x1="653.69" y1="355.3" x2="603.35" y2="429.06"/><line class="cls-7" x1="627.32" y1="367.5" x2="546.13" y2="486.46"/><line class="cls-7" x1="627.32" y1="367.5" x2="546.13" y2="486.46"/><line class="cls-7" x1="626.88" y1="373.44" x2="551.85" y2="483.36"/><line class="cls-7" x1="626.88" y1="373.44" x2="551.85" y2="483.36"/><line class="cls-7" x1="626.43" y1="379.39" x2="557.58" y2="480.27"/><line class="cls-7" x1="626.43" y1="379.39" x2="557.58" y2="480.27"/><line class="cls-7" x1="625.98" y1="385.33" x2="563.3" y2="477.17"/><line class="cls-7" x1="625.98" y1="385.33" x2="563.3" y2="477.17"/><line class="cls-7" x1="625.53" y1="391.28" x2="569.02" y2="474.08"/><line class="cls-7" x1="625.53" y1="391.28" x2="569.02" y2="474.08"/><line class="cls-7" x1="649.32" y1="413.24" x2="568.13" y2="532.2"/><line class="cls-7" x1="649.32" y1="413.24" x2="568.13" y2="532.2"/><line class="cls-7" x1="648.88" y1="419.18" x2="573.85" y2="529.1"/><line class="cls-7" x1="648.88" y1="419.18" x2="573.85" y2="529.1"/><line class="cls-8" x1="648.43" y1="425.13" x2="579.58" y2="526.01"/><line class="cls-8" x1="648.43" y1="425.13" x2="579.58" y2="526.01"/><line class="cls-8" x1="647.98" y1="431.08" x2="585.3" y2="522.91"/><line class="cls-8" x1="647.98" y1="431.08" x2="585.3" y2="522.91"/><line class="cls-8" x1="647.53" y1="437.02" x2="591.02" y2="519.82"/><line class="cls-8" x1="647.53" y1="437.02" x2="591.02" y2="519.82"/><line class="cls-8" x1="647.08" y1="442.97" x2="596.74" y2="516.73"/><line class="cls-8" x1="647.08" y1="442.97" x2="596.74" y2="516.73"/><line class="cls-8" x1="646.63" y1="448.91" x2="602.46" y2="513.63"/><line class="cls-8" x1="646.63" y1="448.91" x2="602.46" y2="513.63"/><line class="cls-8" x1="646.18" y1="454.86" x2="608.18" y2="510.54"/><line class="cls-8" x1="646.18" y1="454.86" x2="608.18" y2="510.54"/><line class="cls-8" x1="645.74" y1="460.8" x2="613.9" y2="507.45"/><line class="cls-8" x1="645.74" y1="460.8" x2="613.9" y2="507.45"/><line class="cls-8" x1="620.71" y1="455.16" x2="539.52" y2="574.12"/><line class="cls-8" x1="620.71" y1="455.16" x2="539.52" y2="574.12"/><line class="cls-8" x1="620.26" y1="461.11" x2="545.24" y2="571.03"/><line class="cls-8" x1="620.26" y1="461.11" x2="545.24" y2="571.03"/><line class="cls-8" x1="619.81" y1="467.05" x2="550.96" y2="567.93"/><line class="cls-8" x1="619.81" y1="467.05" x2="550.96" y2="567.93"/><line class="cls-8" x1="619.37" y1="473" x2="556.68" y2="564.84"/><line class="cls-8" x1="619.37" y1="473" x2="556.68" y2="564.84"/><polygon class="cls-9" points="455.3 492.51 398.79 575.31 498.75 582.85 455.3 492.51 398.79 575.31 498.75 582.85 455.3 492.51"/><polygon class="cls-10" points="536.81 398.32 474.13 490.16 585 498.53 536.81 398.32 474.13 490.16 585 498.53 536.81 398.32"/><line class="cls-8" x1="642.71" y1="500.9" x2="561.52" y2="619.86"/><line class="cls-8" x1="642.71" y1="500.9" x2="561.52" y2="619.86"/><line class="cls-8" x1="642.26" y1="506.85" x2="567.24" y2="616.77"/><line class="cls-8" x1="642.26" y1="506.85" x2="567.24" y2="616.77"/><polygon class="cls-11" points="473.1 503.77 437.56 555.85 500.43 560.59 473.1 503.77 437.56 555.85 500.43 560.59 473.1 503.77"/><polygon class="cls-14" points="657.15 504.48 621.61 556.56 684.48 561.3 657.15 504.48 621.61 556.56 684.48 561.3 657.15 504.48"/><polygon class="cls-9" points="560.11 426.74 524.57 478.81 587.44 483.56 560.11 426.74 524.57 478.81 587.44 483.56 560.11 426.74"/><line class="cls-12" x1="610.95" y1="393.67" x2="505.13" y2="385.69"/><line class="cls-12" x1="611.65" y1="384.5" x2="505.82" y2="376.51"/><line class="cls-12" x1="612.34" y1="375.32" x2="506.52" y2="367.34"/><line class="cls-12" x1="613.03" y1="366.15" x2="507.21" y2="358.17"/><line class="cls-12" x1="613.72" y1="356.98" x2="507.9" y2="348.99"/><polygon class="cls-11" points="657.55 385.38 642.22 407.84 669.34 409.88 657.55 385.38 642.22 407.84 669.34 409.88 657.55 385.38"/><line class="cls-7" x1="44.45" y1="193.46" x2="11.94" y2="333.77"/><line class="cls-7" x1="44.45" y1="193.46" x2="11.94" y2="333.77"/><line class="cls-7" x1="46.19" y1="199.16" x2="16.15" y2="328.81"/><line class="cls-7" x1="46.19" y1="199.16" x2="16.15" y2="328.81"/><line class="cls-8" x1="47.92" y1="204.87" x2="20.36" y2="323.85"/><line class="cls-8" x1="47.92" y1="204.87" x2="20.36" y2="323.85"/><line class="cls-8" x1="49.66" y1="210.57" x2="24.57" y2="318.89"/><line class="cls-8" x1="49.66" y1="210.57" x2="24.57" y2="318.89"/><line class="cls-8" x1="51.4" y1="216.27" x2="28.78" y2="313.94"/><line class="cls-8" x1="51.4" y1="216.27" x2="28.78" y2="313.94"/><line class="cls-8" x1="53.14" y1="221.98" x2="32.99" y2="308.98"/><line class="cls-8" x1="53.14" y1="221.98" x2="32.99" y2="308.98"/><line class="cls-8" x1="54.88" y1="227.68" x2="37.2" y2="304.02"/><line class="cls-8" x1="54.88" y1="227.68" x2="37.2" y2="304.02"/><line class="cls-8" x1="56.62" y1="233.38" x2="41.41" y2="299.06"/><line class="cls-8" x1="56.62" y1="233.38" x2="41.41" y2="299.06"/><line class="cls-8" x1="58.36" y1="239.09" x2="45.61" y2="294.1"/><line class="cls-8" x1="58.36" y1="239.09" x2="45.61" y2="294.1"/><line class="cls-8" x1="32.99" y1="242.91" x2="0.49" y2="383.22"/><line class="cls-8" x1="32.99" y1="242.91" x2="0.49" y2="383.22"/><line class="cls-8" x1="34.73" y1="248.61" x2="4.7" y2="378.26"/><line class="cls-8" x1="34.73" y1="248.61" x2="4.7" y2="378.26"/><line class="cls-8" x1="36.47" y1="254.31" x2="8.91" y2="373.3"/><line class="cls-8" x1="36.47" y1="254.31" x2="8.91" y2="373.3"/><line class="cls-8" x1="38.21" y1="260.02" x2="13.11" y2="368.34"/><line class="cls-8" x1="38.21" y1="260.02" x2="13.11" y2="368.34"/><line class="cls-8" x1="70.09" y1="277.55" x2="37.58" y2="417.86"/><line class="cls-8" x1="70.09" y1="277.55" x2="37.58" y2="417.86"/><line class="cls-8" x1="71.83" y1="283.25" x2="41.79" y2="412.9"/><line class="cls-8" x1="71.83" y1="283.25" x2="41.79" y2="412.9"/><polygon class="cls-14" points="84.84 275.65 70.61 337.07 130.92 318.68 84.84 275.65 70.61 337.07 130.92 318.68 84.84 275.65"/><polygon class="cls-11" points="84.84 193.71 70.61 255.13 130.92 236.74 84.84 193.71 70.61 255.13 130.92 236.74 84.84 193.71"/><polygon class="cls-11" points="42 164.51 35.87 191 61.88 183.07 42 164.51 35.87 191 61.88 183.07 42 164.51"/><line class="cls-7" x1="279.62" y1="166.79" x2="198.43" y2="285.75"/><line class="cls-7" x1="279.62" y1="166.79" x2="198.43" y2="285.75"/><line class="cls-7" x1="279.18" y1="172.73" x2="204.15" y2="282.65"/><line class="cls-7" x1="279.18" y1="172.73" x2="204.15" y2="282.65"/><line class="cls-7" x1="278.73" y1="178.68" x2="209.88" y2="279.56"/><line class="cls-7" x1="278.73" y1="178.68" x2="209.88" y2="279.56"/><line class="cls-7" x1="278.28" y1="184.63" x2="215.6" y2="276.47"/><line class="cls-7" x1="278.28" y1="184.63" x2="215.6" y2="276.47"/><line class="cls-7" x1="277.83" y1="190.57" x2="221.32" y2="273.37"/><line class="cls-7" x1="277.83" y1="190.57" x2="221.32" y2="273.37"/><line class="cls-7" x1="277.38" y1="196.52" x2="227.04" y2="270.28"/><line class="cls-7" x1="277.38" y1="196.52" x2="227.04" y2="270.28"/><line class="cls-7" x1="251.01" y1="208.71" x2="169.82" y2="327.67"/><line class="cls-7" x1="251.01" y1="208.71" x2="169.82" y2="327.67"/><line class="cls-7" x1="250.56" y1="214.66" x2="175.54" y2="324.58"/><line class="cls-7" x1="250.56" y1="214.66" x2="175.54" y2="324.58"/><line class="cls-7" x1="250.11" y1="220.6" x2="181.26" y2="321.48"/><line class="cls-7" x1="250.11" y1="220.6" x2="181.26" y2="321.48"/><line class="cls-7" x1="249.67" y1="226.55" x2="186.98" y2="318.39"/><line class="cls-7" x1="249.67" y1="226.55" x2="186.98" y2="318.39"/><line class="cls-7" x1="249.22" y1="232.49" x2="192.7" y2="315.29"/><line class="cls-7" x1="249.22" y1="232.49" x2="192.7" y2="315.29"/><line class="cls-7" x1="273.01" y1="254.45" x2="191.82" y2="373.41"/><line class="cls-7" x1="273.01" y1="254.45" x2="191.82" y2="373.41"/><line class="cls-7" x1="272.56" y1="260.4" x2="197.54" y2="370.32"/><line class="cls-7" x1="272.56" y1="260.4" x2="197.54" y2="370.32"/><line class="cls-8" x1="272.11" y1="266.34" x2="203.26" y2="367.22"/><line class="cls-8" x1="272.11" y1="266.34" x2="203.26" y2="367.22"/><line class="cls-8" x1="271.67" y1="272.29" x2="208.98" y2="364.13"/><line class="cls-8" x1="271.67" y1="272.29" x2="208.98" y2="364.13"/><line class="cls-8" x1="271.22" y1="278.23" x2="214.7" y2="361.03"/><line class="cls-8" x1="271.22" y1="278.23" x2="214.7" y2="361.03"/><line class="cls-8" x1="270.77" y1="284.18" x2="220.43" y2="357.94"/><line class="cls-8" x1="270.77" y1="284.18" x2="220.43" y2="357.94"/><line class="cls-8" x1="270.32" y1="290.13" x2="226.15" y2="354.85"/><line class="cls-8" x1="270.32" y1="290.13" x2="226.15" y2="354.85"/><line class="cls-8" x1="269.87" y1="296.07" x2="231.87" y2="351.75"/><line class="cls-8" x1="269.87" y1="296.07" x2="231.87" y2="351.75"/><line class="cls-8" x1="269.42" y1="302.02" x2="237.59" y2="348.66"/><line class="cls-8" x1="269.42" y1="302.02" x2="237.59" y2="348.66"/><line class="cls-8" x1="244.4" y1="296.37" x2="163.21" y2="415.33"/><line class="cls-8" x1="244.4" y1="296.37" x2="163.21" y2="415.33"/><line class="cls-8" x1="243.95" y1="302.32" x2="168.93" y2="412.24"/><line class="cls-8" x1="243.95" y1="302.32" x2="168.93" y2="412.24"/><line class="cls-8" x1="243.5" y1="308.27" x2="174.65" y2="409.14"/><line class="cls-8" x1="243.5" y1="308.27" x2="174.65" y2="409.14"/><line class="cls-8" x1="243.05" y1="314.21" x2="180.37" y2="406.05"/><line class="cls-8" x1="243.05" y1="314.21" x2="180.37" y2="406.05"/><polygon class="cls-9" points="78.99 333.72 22.47 416.52 122.44 424.06 78.99 333.72 22.47 416.52 122.44 424.06 78.99 333.72"/><polygon class="cls-10" points="160.49 239.54 97.81 331.38 208.69 339.74 160.49 239.54 97.81 331.38 208.69 339.74 160.49 239.54"/><line class="cls-8" x1="266.4" y1="342.11" x2="185.21" y2="461.07"/><line class="cls-8" x1="266.4" y1="342.11" x2="185.21" y2="461.07"/><line class="cls-8" x1="265.95" y1="348.06" x2="190.93" y2="457.98"/><line class="cls-8" x1="265.95" y1="348.06" x2="190.93" y2="457.98"/><polygon class="cls-11" points="96.79 344.99 61.24 397.06 124.11 401.81 96.79 344.99 61.24 397.06 124.11 401.81 96.79 344.99"/><polygon class="cls-14" points="280.84 345.7 245.3 397.77 308.17 402.52 280.84 345.7 245.3 397.77 308.17 402.52 280.84 345.7"/><polygon class="cls-9" points="183.8 267.95 148.26 320.03 211.13 324.77 183.8 267.95 148.26 320.03 211.13 324.77 183.8 267.95"/><line class="cls-12" x1="234.64" y1="234.88" x2="128.82" y2="226.9"/><line class="cls-12" x1="235.33" y1="225.71" x2="129.51" y2="217.73"/><line class="cls-12" x1="236.02" y1="216.54" x2="130.2" y2="208.55"/><line class="cls-12" x1="236.72" y1="207.36" x2="130.89" y2="199.38"/><line class="cls-12" x1="237.41" y1="198.19" x2="131.59" y2="190.21"/><polygon class="cls-11" points="281.24 226.59 265.9 249.05 293.02 251.1 281.24 226.59 265.9 249.05 293.02 251.1 281.24 226.59"/><line class="cls-7" x1="383.66" y1="0.03" x2="351.16" y2="140.34"/><line class="cls-7" x1="383.66" y1="0.03" x2="351.16" y2="140.34"/><line class="cls-7" x1="385.4" y1="5.73" x2="355.37" y2="135.38"/><line class="cls-7" x1="385.4" y1="5.73" x2="355.37" y2="135.38"/><line class="cls-7" x1="387.14" y1="11.44" x2="359.58" y2="130.42"/><line class="cls-7" x1="387.14" y1="11.44" x2="359.58" y2="130.42"/><line class="cls-7" x1="420.76" y1="34.67" x2="388.26" y2="174.98"/><line class="cls-7" x1="420.76" y1="34.67" x2="388.26" y2="174.98"/><line class="cls-7" x1="422.5" y1="40.38" x2="392.46" y2="170.02"/><line class="cls-7" x1="422.5" y1="40.38" x2="392.46" y2="170.02"/><line class="cls-8" x1="424.24" y1="46.08" x2="396.67" y2="165.07"/><line class="cls-8" x1="424.24" y1="46.08" x2="396.67" y2="165.07"/><line class="cls-8" x1="425.98" y1="51.78" x2="400.88" y2="160.11"/><line class="cls-8" x1="425.98" y1="51.78" x2="400.88" y2="160.11"/><line class="cls-8" x1="427.72" y1="57.49" x2="405.09" y2="155.15"/><line class="cls-8" x1="427.72" y1="57.49" x2="405.09" y2="155.15"/><line class="cls-8" x1="429.45" y1="63.19" x2="409.3" y2="150.19"/><line class="cls-8" x1="429.45" y1="63.19" x2="409.3" y2="150.19"/><line class="cls-8" x1="431.19" y1="68.89" x2="413.51" y2="145.23"/><line class="cls-8" x1="431.19" y1="68.89" x2="413.51" y2="145.23"/><line class="cls-8" x1="432.93" y1="74.6" x2="417.72" y2="140.27"/><line class="cls-8" x1="432.93" y1="74.6" x2="417.72" y2="140.27"/><line class="cls-8" x1="434.67" y1="80.3" x2="421.93" y2="135.31"/><line class="cls-8" x1="434.67" y1="80.3" x2="421.93" y2="135.31"/><line class="cls-8" x1="409.3" y1="84.12" x2="376.8" y2="224.43"/><line class="cls-8" x1="409.3" y1="84.12" x2="376.8" y2="224.43"/><line class="cls-8" x1="411.04" y1="89.82" x2="381.01" y2="219.47"/><line class="cls-8" x1="411.04" y1="89.82" x2="381.01" y2="219.47"/><line class="cls-8" x1="412.78" y1="95.53" x2="385.22" y2="214.51"/><line class="cls-8" x1="412.78" y1="95.53" x2="385.22" y2="214.51"/><line class="cls-8" x1="414.52" y1="101.23" x2="389.43" y2="209.55"/><line class="cls-8" x1="414.52" y1="101.23" x2="389.43" y2="209.55"/><polygon class="cls-9" points="268.71 178.93 246.08 276.59 341.97 247.35 268.71 178.93 246.08 276.59 341.97 247.35 268.71 178.93"/><polygon class="cls-10" points="310.5 61.59 285.4 169.92 391.76 137.49 310.5 61.59 285.4 169.92 391.76 137.49 310.5 61.59"/><line class="cls-8" x1="446.4" y1="118.76" x2="413.9" y2="259.07"/><line class="cls-8" x1="446.4" y1="118.76" x2="413.9" y2="259.07"/><line class="cls-8" x1="448.14" y1="124.47" x2="418.1" y2="254.11"/><line class="cls-8" x1="448.14" y1="124.47" x2="418.1" y2="254.11"/><polygon class="cls-11" points="289.38 182.97 275.15 244.4 335.46 226.01 289.38 182.97 275.15 244.4 335.46 226.01 289.38 182.97"/><polygon class="cls-14" points="461.16 116.86 446.93 178.28 507.24 159.9 461.16 116.86 446.93 178.28 507.24 159.9 461.16 116.86"/><path class="cls-13" d="M117.93,62.57c13.78-4.2,19.62,14.93,33.4,10.72s8-23.33,21.74-27.54,19.62,14.93,33.4,10.72,8-23.33,21.74-27.54,19.62,14.94,33.4,10.74" transform="translate(6.07 93.21)"/><line class="cls-7" x1="627.32" y1="49.92" x2="546.13" y2="168.88"/><line class="cls-7" x1="627.32" y1="49.92" x2="546.13" y2="168.88"/><line class="cls-7" x1="626.88" y1="55.87" x2="551.85" y2="165.79"/><line class="cls-7" x1="626.88" y1="55.87" x2="551.85" y2="165.79"/><line class="cls-7" x1="626.43" y1="61.82" x2="557.58" y2="162.7"/><line class="cls-7" x1="626.43" y1="61.82" x2="557.58" y2="162.7"/><line class="cls-7" x1="625.98" y1="67.76" x2="563.3" y2="159.6"/><line class="cls-7" x1="625.98" y1="67.76" x2="563.3" y2="159.6"/><line class="cls-7" x1="625.53" y1="73.71" x2="569.02" y2="156.51"/><line class="cls-7" x1="625.53" y1="73.71" x2="569.02" y2="156.51"/><line class="cls-7" x1="649.32" y1="95.67" x2="568.13" y2="214.62"/><line class="cls-7" x1="649.32" y1="95.67" x2="568.13" y2="214.62"/><line class="cls-7" x1="648.88" y1="101.61" x2="573.85" y2="211.53"/><line class="cls-7" x1="648.88" y1="101.61" x2="573.85" y2="211.53"/><line class="cls-8" x1="648.43" y1="107.56" x2="579.58" y2="208.44"/><line class="cls-8" x1="648.43" y1="107.56" x2="579.58" y2="208.44"/><line class="cls-8" x1="647.98" y1="113.5" x2="585.3" y2="205.34"/><line class="cls-8" x1="647.98" y1="113.5" x2="585.3" y2="205.34"/><line class="cls-8" x1="647.53" y1="119.45" x2="591.02" y2="202.25"/><line class="cls-8" x1="647.53" y1="119.45" x2="591.02" y2="202.25"/><line class="cls-8" x1="647.08" y1="125.39" x2="596.74" y2="199.15"/><line class="cls-8" x1="647.08" y1="125.39" x2="596.74" y2="199.15"/><line class="cls-8" x1="646.63" y1="131.34" x2="602.46" y2="196.06"/><line class="cls-8" x1="646.63" y1="131.34" x2="602.46" y2="196.06"/><line class="cls-8" x1="646.18" y1="137.28" x2="608.18" y2="192.97"/><line class="cls-8" x1="646.18" y1="137.28" x2="608.18" y2="192.97"/><line class="cls-8" x1="645.74" y1="143.23" x2="613.9" y2="189.87"/><line class="cls-8" x1="645.74" y1="143.23" x2="613.9" y2="189.87"/><line class="cls-8" x1="620.71" y1="137.59" x2="539.52" y2="256.55"/><line class="cls-8" x1="620.71" y1="137.59" x2="539.52" y2="256.55"/><line class="cls-8" x1="620.26" y1="143.53" x2="545.24" y2="253.45"/><line class="cls-8" x1="620.26" y1="143.53" x2="545.24" y2="253.45"/><line class="cls-8" x1="619.81" y1="149.48" x2="550.96" y2="250.36"/><line class="cls-8" x1="619.81" y1="149.48" x2="550.96" y2="250.36"/><line class="cls-8" x1="619.37" y1="155.42" x2="556.68" y2="247.26"/><line class="cls-8" x1="619.37" y1="155.42" x2="556.68" y2="247.26"/><polygon class="cls-9" points="455.3 174.93 398.79 257.73 498.75 265.27 455.3 174.93 398.79 257.73 498.75 265.27 455.3 174.93"/><polygon class="cls-10" points="536.81 80.75 474.13 172.59 585 180.95 536.81 80.75 474.13 172.59 585 180.95 536.81 80.75"/><line class="cls-8" x1="642.71" y1="183.33" x2="561.52" y2="302.29"/><line class="cls-8" x1="642.71" y1="183.33" x2="561.52" y2="302.29"/><line class="cls-8" x1="642.26" y1="189.27" x2="567.24" y2="299.19"/><line class="cls-8" x1="642.26" y1="189.27" x2="567.24" y2="299.19"/><polygon class="cls-11" points="473.1 186.2 437.56 238.28 500.43 243.02 473.1 186.2 437.56 238.28 500.43 243.02 473.1 186.2"/><polygon class="cls-14" points="657.15 186.91 621.61 238.99 684.48 243.73 657.15 186.91 621.61 238.99 684.48 243.73 657.15 186.91"/><polygon class="cls-9" points="560.11 109.16 524.57 161.24 587.44 165.98 560.11 109.16 524.57 161.24 587.44 165.98 560.11 109.16"/><line class="cls-8" x1="266.4" y1="24.54" x2="185.21" y2="143.5"/><line class="cls-8" x1="266.4" y1="24.54" x2="185.21" y2="143.5"/><line class="cls-8" x1="265.95" y1="30.49" x2="190.93" y2="140.41"/><line class="cls-8" x1="265.95" y1="30.49" x2="190.93" y2="140.41"/></g></g><path class="cls-9" d="M351.2,360a76.5,76.5,0,0,0-153,0,13.4,13.4,0,0,0,.1,2c0,.7-.1,1.3-.1,2a76.5,76.5,0,0,0,153,0,13.4,13.4,0,0,0-.1-2C351.1,361.3,351.2,360.6,351.2,360Z" transform="translate(6.07 93.21)"/><circle class="cls-11" cx="280.77" cy="449.21" r="73"/><circle class="cls-3" cx="280.77" cy="449.21" r="51.5"/><path class="cls-9" d="M607.8,360a76.5,76.5,0,0,0-153,0,13.4,13.4,0,0,0,.1,2c0,.7-.1,1.3-.1,2a76.5,76.5,0,0,0,153,0,13.4,13.4,0,0,0-.1-2A14.08,14.08,0,0,0,607.8,360Z" transform="translate(6.07 93.21)"/><circle class="cls-11" cx="537.37" cy="449.21" r="73"/><circle class="cls-3" cx="537.37" cy="449.21" r="51.5"/><path class="cls-9" d="M534.8,128a6.57,6.57,0,0,0-6.5-5.6H277.7a6.48,6.48,0,0,0-6.5,5.6,14.77,14.77,0,0,0-.1,2.1V257.5a16.09,16.09,0,0,0,16.1,16.1H518.8a16.09,16.09,0,0,0,16.1-16.1V130.1A7.41,7.41,0,0,0,534.8,128Z" transform="translate(6.07 93.21)"/><circle class="cls-3" cx="658.37" cy="338.01" r="94.3"/><circle class="cls-3" cx="159.77" cy="338.01" r="94.3"/><path class="cls-15" d="M230.4,254.1l9.5-8.9a1.15,1.15,0,0,0,0-1.7l-9.5-8.9a1.12,1.12,0,0,0-1.9.8v17.8A1.15,1.15,0,0,0,230.4,254.1Z" transform="translate(6.07 93.21)"/><path class="cls-15" d="M145,169.8h17.8a1.12,1.12,0,0,0,.8-1.9l-8.9-9.5a1.15,1.15,0,0,0-1.7,0l-8.9,9.5A1.17,1.17,0,0,0,145,169.8Z" transform="translate(6.07 93.21)"/><path class="cls-15" d="M77.5,234.6,68,243.5a1.15,1.15,0,0,0,0,1.7l9.5,8.9a1.12,1.12,0,0,0,1.9-.8V235.5A1.13,1.13,0,0,0,77.5,234.6Z" transform="translate(6.07 93.21)"/><path class="cls-15" d="M162.8,318.8H145a1.12,1.12,0,0,0-.8,1.9l8.9,9.5a1.15,1.15,0,0,0,1.7,0l8.9-9.5A1.17,1.17,0,0,0,162.8,318.8Z" transform="translate(6.07 93.21)"/><path class="cls-16" d="M105.2,544.5c-40.5-2.8-75.8-20.3-87.3-30.5S.4,482.4.4,482.4c-.4,15-.4,26.3-.4,26.3s4.5,53.4,36.2,74.9,56.7,14,56.7,14,33.1-8.2,57.8-41.9a192.08,192.08,0,0,0,14.1-23.8C164.7,531.9,145.6,547.2,105.2,544.5Z" transform="translate(6.07 93.21)"/><path class="cls-11" d="M105.2,544.5c-40.5-2.8-75.8-20.3-87.3-30.5S.4,482.4.4,482.4c-.4,15-.4,26.3-.4,26.3s4.5,53.4,36.2,74.9,56.7,14,56.7,14,33.1-8.2,57.8-41.9a192.08,192.08,0,0,0,14.1-23.8C164.7,531.9,145.6,547.2,105.2,544.5Z" transform="translate(6.07 93.21)"/><path class="cls-17" d="M90,592.5c-12.5,1.8-31.3-2-45.1-7.7-13.6-5.7-24-16.4-24-16.4a63.12,63.12,0,0,0,15.3,15.2c31.7,21.5,56.7,14,56.7,14s11.7-2.9,26.3-12.3A168.54,168.54,0,0,1,90,592.5Z" transform="translate(6.07 93.21)"/><path class="cls-16" d="M700.8,544.5c40.5-2.8,75.8-20.3,87.3-30.5s17.5-31.5,17.5-31.5c.4,15,.4,26.3.4,26.3s-4.5,53.4-36.2,74.9-56.7,14-56.7,14-33.1-8.2-57.8-41.9A192.08,192.08,0,0,1,641.2,532C641.3,531.9,660.4,547.2,700.8,544.5Z" transform="translate(6.07 93.21)"/><path class="cls-11" d="M700.8,544.5c40.5-2.8,75.8-20.3,87.3-30.5s17.5-31.5,17.5-31.5c.4,15,.4,26.3.4,26.3s-4.5,53.4-36.2,74.9-56.7,14-56.7,14-33.1-8.2-57.8-41.9A192.08,192.08,0,0,1,641.2,532C641.3,531.9,660.4,547.2,700.8,544.5Z" transform="translate(6.07 93.21)"/><path class="cls-17" d="M716,592.5c12.5,1.8,31.3-2,45.1-7.7,13.6-5.7,24-16.4,24-16.4a63.12,63.12,0,0,1-15.3,15.2c-31.7,21.5-56.7,14-56.7,14s-11.7-2.9-26.3-12.3A168.54,168.54,0,0,0,716,592.5Z" transform="translate(6.07 93.21)"/><path class="cls-9" d="M240.5,143.5A12.5,12.5,0,0,1,253,156v18.3a12.5,12.5,0,0,1-25,0V156a12.5,12.5,0,0,1,12.5-12.5m0-1.7A14.25,14.25,0,0,0,226.3,156v18.3a14.2,14.2,0,0,0,28.4,0V156a14.19,14.19,0,0,0-14.2-14.2Z" transform="translate(6.07 93.21)"/><path class="cls-11" d="M240.5,143.5A12.5,12.5,0,0,0,228,156v18.3a12.5,12.5,0,0,0,25,0V156A12.5,12.5,0,0,0,240.5,143.5Z" transform="translate(6.07 93.21)"/><path class="cls-9" d="M565.5,143.5A12.5,12.5,0,0,1,578,156v18.3a12.5,12.5,0,0,1-12.5,12.5h0A12.5,12.5,0,0,1,553,174.3V156a12.5,12.5,0,0,1,12.5-12.5h0m0-1.7A14.25,14.25,0,0,0,551.3,156v18.3a14.2,14.2,0,0,0,28.4,0V156a14.19,14.19,0,0,0-14.2-14.2Z" transform="translate(6.07 93.21)"/><path class="cls-11" d="M565.5,143.5A12.5,12.5,0,0,0,553,156v18.3a12.5,12.5,0,0,0,25,0V156A12.5,12.5,0,0,0,565.5,143.5Z" transform="translate(6.07 93.21)"/><path class="cls-18" d="M141.2,247.2c1.4-2,1.2-2.9,1.2-2.9s.2-.9-1.2-2.9-15-13.6-15.7-14-28.5-2.2-31.4,1.3-2.6,15.6-2.6,15.6-.3,12.1,2.6,15.6,30.7,1.7,31.4,1.3S139.8,249.2,141.2,247.2Z" transform="translate(6.07 93.21)"/><path class="cls-9" d="M141.2,247.2c1.4-2,1.2-2.9,1.2-2.9s.2-.9-1.2-2.9c-.9-1.3-6.9-6.6-11.2-10.3a27.84,27.84,0,0,0-3.4,13.2,26.73,26.73,0,0,0,3.4,13.2C134.3,253.8,140.3,248.5,141.2,247.2Z" transform="translate(6.07 93.21)"/><path class="cls-18" d="M151,231.6c2,1.4,2.9,1.2,2.9,1.2s.9.2,2.9-1.2,13.6-15,14-15.7,2.2-28.5-1.3-31.4-15.6-2.6-15.6-2.6-12.1-.3-15.6,2.6-1.7,30.7-1.3,31.4S149,230.2,151,231.6Z" transform="translate(6.07 93.21)"/><path class="cls-9" d="M151,231.6c2,1.4,2.9,1.2,2.9,1.2s.9.2,2.9-1.2c1.3-.9,6.6-6.9,10.3-11.2a27.84,27.84,0,0,0-13.2-3.4,26.73,26.73,0,0,0-13.2,3.4C144.5,224.7,149.7,230.7,151,231.6Z" transform="translate(6.07 93.21)"/><path class="cls-18" d="M213.7,228.8c-2.9-3.5-30.7-1.7-31.4-1.3s-14.3,12-15.7,14-1.2,2.9-1.2,2.9-.2.9,1.2,2.9,15,13.6,15.7,14,28.5,2.2,31.4-1.3,2.6-15.6,2.6-15.6S216.6,232.3,213.7,228.8Z" transform="translate(6.07 93.21)"/><path class="cls-9" d="M177.9,231.2c-4.3,3.7-10.3,9-11.2,10.3-1.4,2-1.2,2.9-1.2,2.9s-.2.9,1.2,2.9c.9,1.3,6.9,6.6,11.2,10.3a27.32,27.32,0,0,0,0-26.4Z" transform="translate(6.07 93.21)"/><path class="cls-18" d="M156.8,257.1c-2-1.4-2.9-1.2-2.9-1.2s-.9-.2-2.9,1.2-13.6,15-14,15.7-2.2,28.5,1.3,31.4,15.6,2.6,15.6,2.6,12.1.3,15.6-2.6,1.7-30.7,1.3-31.4S158.8,258.5,156.8,257.1Z" transform="translate(6.07 93.21)"/><path class="cls-9" d="M156.8,257.1c-2-1.4-2.9-1.2-2.9-1.2s-.9-.2-2.9,1.2c-1.3.9-6.6,6.9-10.3,11.2a27.84,27.84,0,0,0,13.2,3.4,26.73,26.73,0,0,0,13.2-3.4C163.4,264,158.1,258,156.8,257.1Z" transform="translate(6.07 93.21)"/><g class="cls-19"><path class="cls-5" d="M403,319.5a4.19,4.19,0,0,1-4.1-3.6c0,.2-.1.3-.1.5a4.1,4.1,0,0,0,8.2,0,.9.9,0,0,0-.1-.5A3.85,3.85,0,0,1,403,319.5Z" transform="translate(6.07 93.21)"/><path class="cls-5" d="M403,299.6a4.06,4.06,0,0,0,4.1-4.1.9.9,0,0,0-.1-.5,4.12,4.12,0,0,1-4.1,3.6,4.19,4.19,0,0,1-4.1-3.6c0,.2-.1.3-.1.5A4.44,4.44,0,0,0,403,299.6Z" transform="translate(6.07 93.21)"/><path class="cls-5" d="M400.2,305.7a.9.9,0,0,0-.1-.5,4.12,4.12,0,0,1-4.1,3.6,4.19,4.19,0,0,1-4.1-3.6c0,.2-.1.3-.1.5a4.06,4.06,0,0,0,4.1,4.1A4.17,4.17,0,0,0,400.2,305.7Z" transform="translate(6.07 93.21)"/><path class="cls-5" d="M385.4,305.2a4.12,4.12,0,0,1-4.1,3.6,4.19,4.19,0,0,1-4.1-3.6c0,.2-.1.3-.1.5a4.1,4.1,0,0,0,8.2,0C385.5,305.5,385.5,305.4,385.4,305.2Z" transform="translate(6.07 93.21)"/><path class="cls-5" d="M388.8,319.5a4.19,4.19,0,0,1-4.1-3.6c0,.2-.1.3-.1.5a4.1,4.1,0,0,0,8.2,0,.9.9,0,0,0-.1-.5A3.85,3.85,0,0,1,388.8,319.5Z" transform="translate(6.07 93.21)"/><path class="cls-5" d="M388.8,299.6a4.06,4.06,0,0,0,4.1-4.1.9.9,0,0,0-.1-.5,4.12,4.12,0,0,1-4.1,3.6,4.19,4.19,0,0,1-4.1-3.6c0,.2-.1.3-.1.5A4.37,4.37,0,0,0,388.8,299.6Z" transform="translate(6.07 93.21)"/><path class="cls-5" d="M378.6,295.5a.9.9,0,0,0-.1-.5,4.12,4.12,0,0,1-4.1,3.6,4.19,4.19,0,0,1-4.1-3.6c0,.2-.1.3-.1.5a4.06,4.06,0,0,0,4.1,4.1A4.23,4.23,0,0,0,378.6,295.5Z" transform="translate(6.07 93.21)"/><path class="cls-5" d="M414,305.2a4.12,4.12,0,0,1-4.1,3.6,4.19,4.19,0,0,1-4.1-3.6c0,.2-.1.3-.1.5a4.1,4.1,0,0,0,8.2,0C414.1,305.5,414,305.4,414,305.2Z" transform="translate(6.07 93.21)"/><path class="cls-5" d="M424.6,308.8a4.19,4.19,0,0,1-4.1-3.6c0,.2-.1.3-.1.5a4.1,4.1,0,1,0,8.2,0,.9.9,0,0,0-.1-.5A3.72,3.72,0,0,1,424.6,308.8Z" transform="translate(6.07 93.21)"/><path class="cls-5" d="M417.3,319.5a4.19,4.19,0,0,1-4.1-3.6c0,.2-.1.3-.1.5a4.1,4.1,0,0,0,8.2,0,.9.9,0,0,0-.1-.5A3.85,3.85,0,0,1,417.3,319.5Z" transform="translate(6.07 93.21)"/><path class="cls-5" d="M417.3,299.6a4.06,4.06,0,0,0,4.1-4.1.9.9,0,0,0-.1-.5,4.12,4.12,0,0,1-4.1,3.6,4.19,4.19,0,0,1-4.1-3.6c0,.2-.1.3-.1.5A4.37,4.37,0,0,0,417.3,299.6Z" transform="translate(6.07 93.21)"/><path class="cls-5" d="M431.6,298.6a4.19,4.19,0,0,1-4.1-3.6c0,.2-.1.3-.1.5a4.1,4.1,0,0,0,8.2,0,.9.9,0,0,0-.1-.5A3.85,3.85,0,0,1,431.6,298.6Z" transform="translate(6.07 93.21)"/></g><path class="cls-18" d="M436.6,421H368.7c-2.8,0-4.6.6-4.6-2.2h0a5,5,0,0,1,5-5H437a5,5,0,0,1,5,5h0C442.1,421.5,439.4,421,436.6,421Z" transform="translate(6.07 93.21)"/><path class="cls-3" d="M408.3,418.8H371.8a.9.9,0,0,1-.9-.9h0a2,2,0,0,1,2-2h34.2a2,2,0,0,1,2,2h0A.77.77,0,0,1,408.3,418.8Z" transform="translate(6.07 93.21)"/><path class="cls-3" d="M430.5,419.6h-4.2a1.75,1.75,0,0,1-1.7-1.7h0a2.8,2.8,0,0,1,2.8-2.8h1.9a2.8,2.8,0,0,1,2.8,2.8h0A1.5,1.5,0,0,1,430.5,419.6Z" transform="translate(6.07 93.21)"/><path class="cls-11" d="M530.4,124.3a1.9,1.9,0,0,0-1.9-1.9H277.4a1.9,1.9,0,0,0-1.9,1.9V253.5a15.62,15.62,0,0,0,15.6,15.6H514.9a15.62,15.62,0,0,0,15.6-15.6V130.4Z" transform="translate(6.07 93.21)"/><g class="cls-19"><path class="cls-20" d="M275.5,253.5a15.62,15.62,0,0,0,15.6,15.6H514.9a15.62,15.62,0,0,0,15.6-15.6V147h-255Z" transform="translate(6.07 93.21)"/></g><path class="cls-11" d="M709.9,271a26.3,26.3,0,1,1,26.3-26.3A26.33,26.33,0,0,1,709.9,271Z" transform="translate(6.07 93.21)"/><path class="cls-9" d="M709.9,219.5a25.25,25.25,0,1,1-25.3,25.2,25.33,25.33,0,0,1,25.3-25.2m0-2a27.3,27.3,0,1,0,27.3,27.3,27.34,27.34,0,0,0-27.3-27.3Z" transform="translate(6.07 93.21)"/><path class="cls-3" d="M709.9,225.9a18.9,18.9,0,1,0,18.9,18.9A18.95,18.95,0,0,0,709.9,225.9Zm0,34.9a16,16,0,1,1,16-16A16,16,0,0,1,709.9,260.8Z" transform="translate(6.07 93.21)"/><path class="cls-11" d="M652.3,328.6a26.3,26.3,0,1,1,26.3-26.3A26.33,26.33,0,0,1,652.3,328.6Z" transform="translate(6.07 93.21)"/><path class="cls-9" d="M652.3,277.1A25.3,25.3,0,1,1,627,302.4a25.33,25.33,0,0,1,25.3-25.3m0-2a27.3,27.3,0,1,0,27.3,27.3,27.34,27.34,0,0,0-27.3-27.3Z" transform="translate(6.07 93.21)"/><polygon class="cls-3" points="672.77 383.21 670.77 381.21 658.37 393.61 646.07 381.21 644.07 383.21 656.37 395.61 644.07 407.91 646.07 409.91 658.37 397.61 670.77 409.91 672.77 407.91 660.37 395.61 672.77 383.21"/><path class="cls-11" d="M594.8,271a26.3,26.3,0,1,1,26.3-26.3A26.33,26.33,0,0,1,594.8,271Z" transform="translate(6.07 93.21)"/><path class="cls-9" d="M594.7,219.5a25.25,25.25,0,1,1-25.3,25.2,25.33,25.33,0,0,1,25.3-25.2m0-2A27.3,27.3,0,1,0,622,244.8a27.34,27.34,0,0,0-27.3-27.3Z" transform="translate(6.07 93.21)"/><path class="cls-3" d="M606.3,230.4H580.5V259h28.6V230.4Zm0,25.9h-23v-23h23Z" transform="translate(6.07 93.21)"/><path class="cls-11" d="M652.3,213.5a26.3,26.3,0,1,1,26.3-26.3A26.33,26.33,0,0,1,652.3,213.5Z" transform="translate(6.07 93.21)"/><path class="cls-9" d="M652.3,162A25.3,25.3,0,1,1,627,187.3,25.33,25.33,0,0,1,652.3,162m0-2a27.3,27.3,0,1,0,27.3,27.3A27.34,27.34,0,0,0,652.3,160Z" transform="translate(6.07 93.21)"/><path class="cls-3" d="M668.3,195.2l-16-27.6-16,27.6-1.6,2.8h35.2Zm-16,0H639.6l12.7-21.9L665,195.2Z" transform="translate(6.07 93.21)"/><path class="cls-9" d="M697.2,109.9a2.14,2.14,0,0,0-1.1-1.9c-4.5-2.9-23.4-13.6-51.5-13.6-26.9,0-41.1,5.9-45.1,8a2.2,2.2,0,0,0-1.2,2s9.8-2.9,47.5-2.9S697.2,109.9,697.2,109.9Z" transform="translate(6.07 93.21)"/><path class="cls-11" d="M697.1,116.8h0v-6.9s-13.7-8.4-51.4-8.4-47.5,2.9-47.5,2.9v11h0c7.7-1.3,21.2-2.6,44.1-2.6C670.8,112.9,688.2,115.2,697.1,116.8Z" transform="translate(6.07 93.21)"/><path class="cls-9" d="M108.8,109.9a2.14,2.14,0,0,1,1.1-1.9c4.5-2.9,23.4-13.6,51.5-13.6,26.9,0,41.1,5.9,45.1,8a2.2,2.2,0,0,1,1.2,2s-9.8-2.9-47.5-2.9S108.8,109.9,108.8,109.9Z" transform="translate(6.07 93.21)"/><path class="cls-11" d="M108.9,116.8h0v-6.9s13.7-8.4,51.4-8.4,47.5,2.9,47.5,2.9v11h0c-7.7-1.3-21.2-2.6-44.1-2.6C135.2,112.9,117.8,115.2,108.9,116.8Z" transform="translate(6.07 93.21)"/><path class="cls-11" d="M697.2,90.8s-32.7-3.2-50.6-3.2S598.2,90,598.2,90s3.1-44.7,4.8-52,7.7-21.3,16.9-27.9S631.8,0,642.6,0,668,6.4,677.2,21.4,697.2,90.8,697.2,90.8Z" transform="translate(6.07 93.21)"/><path class="cls-9" d="M598.7,83.2s26.1-4.4,49-4.4,47.9,4.4,47.9,4.4c1,4.7,1.6,7.6,1.6,7.6s-32.7-3.2-50.6-3.2S598.2,90,598.2,90,598.4,87.3,598.7,83.2Z" transform="translate(6.07 93.21)"/><path class="cls-11" d="M108.8,90.8s32.7-3.2,50.6-3.2S207.7,90,207.7,90s-3.1-44.7-4.8-52S195.2,16.7,186,10.1,174.2,0,163.4,0,138,6.4,128.8,21.4,108.8,90.8,108.8,90.8Z" transform="translate(6.07 93.21)"/><path class="cls-9" d="M207.3,83.2s-26.1-4.4-49-4.4-47.9,4.4-47.9,4.4c-1,4.7-1.6,7.6-1.6,7.6s32.7-3.2,50.6-3.2S207.7,90,207.7,90,207.6,87.3,207.3,83.2Z" transform="translate(6.07 93.21)"/></svg>