<?xml version="1.0" encoding="utf-8"?>
<!-- Generator: Adobe Illustrator 22.1.0, SVG Export Plug-In . SVG Version: 6.00 Build 0)  -->
<svg version="1.1" id="Layer_1" xmlns="http://www.w3.org/2000/svg" xmlns:xlink="http://www.w3.org/1999/xlink" x="0px" y="0px"
	 viewBox="0 0 806.1 599.1" style="enable-background:new 0 0 806.1 599.1;" xml:space="preserve">
<style type="text/css">
	.st0{fill:none;}
	.st1{fill:#B3B3B3;}
	.st2{fill:#F7F7F7;}
	.st3{opacity:6.000000e-02;}
	.st4{fill:#FFFFFF;}
	.st5{clip-path:url(#SVGID_3_);}
	.st6{fill:none;stroke:#11CBD2;stroke-width:0.25;stroke-miterlimit:10;}
	.st7{fill:none;stroke:#0FB7BD;stroke-miterlimit:10;}
	.st8{fill:#0FB7BD;}
	.st9{fill:#FFFFFF;stroke:#11CBD2;stroke-miterlimit:10;}
	.st10{fill:#11CBD2;}
	.st11{fill:none;stroke:#E6E7E8;stroke-width:3;stroke-linecap:round;stroke-miterlimit:10;stroke-dasharray:0,10;}
	.st12{fill:none;stroke:#11CBD2;stroke-width:2;stroke-miterlimit:10;}
	.st13{fill:#0FB7BD;stroke:#FFFFFF;stroke-miterlimit:10;}
	.st14{fill:#0FB7BD;stroke:#11CBD2;stroke-width:2;stroke-miterlimit:10;}
	.st15{opacity:0.1;fill:#E6E6E6;enable-background:new    ;}
	.st16{opacity:0.22;enable-background:new    ;}
	.st17{fill:#11CBD2;stroke:#0FB7BD;stroke-width:2;stroke-miterlimit:10;}
	.st18{opacity:0.12;}
	.st19{fill:url(#SVGID_4_);}
</style>
<pattern  x="-6.1" y="801.1" width="71" height="71" patternUnits="userSpaceOnUse" id="SVGID_2_" viewBox="0 -71 71 71" style="overflow:visible;">
	<g>
		<rect y="-71" class="st0" width="71" height="71"/>
		<rect y="-71" class="st0" width="71" height="71"/>
		<rect y="-71" class="st0" width="71" height="71"/>
		<rect y="-71" class="st0" width="71" height="71"/>
		<polygon class="st0" points="0,0 71,0 71,-71 0,-71 		"/>
		<polygon class="st0" points="0,0 71,0 71,-71 0,-71 		"/>
		<path class="st1" d="M41.8-35.5c0-3.5-2.8-6.3-6.3-6.3c-3.5,0-6.3,2.8-6.3,6.3c0,3.5,2.8,6.3,6.3,6.3c0,0,0,0,0,0
			C39-29.2,41.8-32,41.8-35.5C41.8-35.5,41.8-35.5,41.8-35.5z"/>
	</g>
</pattern>
<title>basetrinityrev2</title>
<path class="st2" d="M801.3,418.6c-2.9-15.5-17.7-102.5-32-144.6c-9.4-27.7-13.1-53-17-64.9c-12-35.7-33-65.7-33-65.7
	s-9.5-13.1-10.1-16.3s-4.7-8.6-4.7-8.6s-17.4-5.7-62.3-5.7s-53.7,5-53.7,5c-1.7,1.9-3.7,3.5-5.9,4.8c-3.5,1.8-11.7,1.7-11.7,1.7
	h-33.4c-0.3-0.1-0.7,0.1-0.9,0.3c-0.3,0.6-0.5,1.3-0.6,2H269.9c-0.1-0.7-0.3-1.4-0.6-2c-0.2-0.2-0.6-0.3-0.9-0.3H235
	c0,0-8.2,0.2-11.7-1.7c-2.2-1.2-4.2-2.8-5.9-4.8c0,0-8.8-5-53.7-5s-62.3,5.7-62.3,5.7s-4.1,5.3-4.7,8.6
	c-0.6,3.3-10.1,16.3-10.1,16.3s-21,30-33,65.7c-4,11.9-7.7,37.2-17,64.9c-14.3,42.1-29.1,129.1-32,144.6C0.3,441.8,0,508.8,0,508.8
	s4.5,53.4,36.2,74.9s56.7,14,56.7,14s33.1-8.2,57.8-41.9s56.6-129.2,56.6-129.2c1.6-2.1,3.5-3.8,5.7-5.3c1.9-1.3,4-2.2,6.3-2.6
	l183.7,0.1l183.7-0.1c2.3,0.4,4.4,1.3,6.3,2.6c2.2,1.5,4.1,3.2,5.7,5.3c0,0,31.9,95.4,56.6,129.2s57.8,41.9,57.8,41.9
	s25,7.5,56.7-14s36.2-74.9,36.2-74.9S805.7,441.8,801.3,418.6z"/>
<g class="st3">
	<path class="st4" d="M36.6,276c9.4-27.7,13.1-53,17-64.9c12-35.7,33-65.7,33-65.7s9.5-13.1,10.1-16.3s4.7-8.6,4.7-8.6
		s17.4-5.7,62.3-5.7s53.7,5,53.7,5c1.7,1.9,3.7,3.5,5.9,4.8c3.5,1.8,11.7,1.7,11.7,1.7h33.4c0.3-0.1,0.7,0.1,0.9,0.3
		c0.3,0.6,0.5,1.3,0.6,2h266.2c0.1-0.7,0.3-1.4,0.6-2c0.2-0.2,0.6-0.3,0.9-0.3H571c0,0,8.2,0.2,11.7-1.7c2.2-1.2,4.2-2.8,5.9-4.8
		c0,0,8.8-5,53.7-5s62.3,5.7,62.3,5.7s4.1,5.3,4.7,8.6s10.1,16.3,10.1,16.3s21,30,33,65.7c4,11.9,7.7,37.2,17,64.9
		c14.3,42.1,29.1,129.1,32,144.6c3.9,20.9,4.6,77.3,4.7,88.3v-0.1c0,0-0.3-66.9-4.7-90.1c-2.9-15.5-17.7-102.5-32-144.6
		c-9.4-27.7-13.1-53-17-64.9c-12-35.7-33-65.7-33-65.7s-9.5-13.1-10.1-16.3s-4.7-8.6-4.7-8.6s-17.4-5.7-62.3-5.7s-53.7,5-53.7,5
		c-1.7,1.9-3.7,3.5-5.9,4.8c-3.5,1.8-11.7,1.7-11.7,1.7h-33.4c-0.3-0.1-0.7,0.1-0.9,0.3c-0.3,0.6-0.5,1.3-0.6,2H269.9
		c-0.1-0.7-0.3-1.4-0.6-2c-0.2-0.2-0.6-0.3-0.9-0.3H235c0,0-8.2,0.2-11.7-1.7c-2.2-1.2-4.2-2.8-5.9-4.8c0,0-8.8-5-53.7-5
		s-62.3,5.7-62.3,5.7s-4.1,5.3-4.7,8.6c-0.6,3.3-10.1,16.3-10.1,16.3s-21,30-33,65.7c-4,11.9-7.7,37.2-17,64.9
		c-14.3,42.1-29.1,129.1-32,144.6C0.3,441.8,0,508.8,0,508.8v0.1c0.1-10.9,0.7-67.4,4.7-88.3C7.6,405.2,22.3,318.1,36.6,276z"/>
</g>
<g>
	<defs>
		<path id="SVGID_1_" d="M801.3,418.7c-2.9-15.5-17.7-102.5-32-144.6c-9.4-27.7-13.1-53-17-64.9c-12-35.7-33-65.7-33-65.7
			s-9.5-13.1-10.1-16.3s-4.7-8.6-4.7-8.6s-17.4-5.7-62.3-5.7s-53.7,5-53.7,5c-1.7,1.9-3.7,3.5-5.9,4.8c-3.5,1.8-11.7,1.7-11.7,1.7
			h-33.4c-0.3-0.1-0.7,0.1-0.9,0.3c-0.3,0.6-0.5,1.3-0.6,2H270c-0.1-0.7-0.3-1.4-0.6-2c-0.2-0.2-0.6-0.3-0.9-0.3h-33.4
			c0,0-8.2,0.2-11.7-1.7c-2.2-1.2-4.2-2.8-5.9-4.8c0,0-8.8-5-53.7-5s-62.3,5.7-62.3,5.7s-4.1,5.3-4.7,8.6
			c-0.6,3.3-10.1,16.3-10.1,16.3s-21,30-33,65.7c-4,11.9-7.7,37.2-17,64.9c-14.3,42.1-29.1,129.1-32,144.6
			c-4.3,23.2-4.6,90.2-4.6,90.2s4.5,53.4,36.2,74.9s56.7,14,56.7,14s33.1-8.2,57.8-41.9s56.6-129.2,56.6-129.2
			c1.6-2.1,3.5-3.8,5.7-5.3c1.9-1.3,4-2.2,6.3-2.6l183.7,0.1l183.7-0.1c2.3,0.4,4.4,1.3,6.3,2.6c2.2,1.5,4.1,3.2,5.7,5.3
			c0,0,31.9,95.4,56.6,129.2s57.8,41.9,57.8,41.9s25,7.5,56.7-14s36.2-74.9,36.2-74.9S805.8,441.9,801.3,418.7z"/>
	</defs>
	<clipPath id="SVGID_3_">
		<use xlink:href="#SVGID_1_"  style="overflow:visible;"/>
	</clipPath>
	<g class="st5">
		<g id="Pattern">
			<rect x="22.1" y="35.1" class="st0" width="752.6" height="635.2"/>
			<line class="st6" x1="765.4" y1="651.3" x2="732.9" y2="791.6"/>
			<line class="st6" x1="765.4" y1="651.3" x2="732.9" y2="791.6"/>
			<line class="st6" x1="767.1" y1="657" x2="737.1" y2="786.7"/>
			<line class="st6" x1="767.1" y1="657" x2="737.1" y2="786.7"/>
			<line class="st6" x1="768.8" y1="662.7" x2="741.3" y2="781.7"/>
			<line class="st6" x1="768.8" y1="662.7" x2="741.3" y2="781.7"/>
			<line class="st6" x1="770.6" y1="668.4" x2="745.5" y2="776.7"/>
			<line class="st6" x1="770.6" y1="668.4" x2="745.5" y2="776.7"/>
			<line class="st6" x1="765.4" y1="333.7" x2="732.9" y2="474"/>
			<line class="st6" x1="765.4" y1="333.7" x2="732.9" y2="474"/>
			<line class="st6" x1="767.1" y1="339.4" x2="737.1" y2="469.1"/>
			<line class="st6" x1="767.1" y1="339.4" x2="737.1" y2="469.1"/>
			<line class="st6" x1="768.8" y1="345.1" x2="741.3" y2="464.1"/>
			<line class="st6" x1="768.8" y1="345.1" x2="741.3" y2="464.1"/>
			<line class="st6" x1="770.6" y1="350.8" x2="745.5" y2="459.2"/>
			<line class="st6" x1="770.6" y1="350.8" x2="745.5" y2="459.2"/>
			<line class="st6" x1="772.3" y1="356.6" x2="749.7" y2="454.2"/>
			<line class="st6" x1="772.3" y1="356.6" x2="749.7" y2="454.2"/>
			<line class="st6" x1="774.1" y1="362.3" x2="753.9" y2="449.3"/>
			<line class="st6" x1="774.1" y1="362.3" x2="753.9" y2="449.3"/>
			<line class="st6" x1="753.9" y1="383.2" x2="721.4" y2="523.5"/>
			<line class="st6" x1="753.9" y1="383.2" x2="721.4" y2="523.5"/>
			<line class="st6" x1="755.6" y1="388.9" x2="725.6" y2="518.5"/>
			<line class="st6" x1="755.6" y1="388.9" x2="725.6" y2="518.5"/>
			<line class="st6" x1="757.4" y1="394.6" x2="729.8" y2="513.6"/>
			<line class="st6" x1="757.4" y1="394.6" x2="729.8" y2="513.6"/>
			<line class="st6" x1="759.1" y1="400.3" x2="734" y2="508.6"/>
			<line class="st6" x1="759.1" y1="400.3" x2="734" y2="508.6"/>
			<line class="st6" x1="760.9" y1="406" x2="738.2" y2="503.6"/>
			<line class="st6" x1="760.9" y1="406" x2="738.2" y2="503.6"/>
			<line class="st6" x1="791" y1="417.8" x2="758.5" y2="558.1"/>
			<line class="st6" x1="791" y1="417.8" x2="758.5" y2="558.1"/>
			<line class="st6" x1="792.7" y1="423.5" x2="762.7" y2="553.2"/>
			<line class="st6" x1="792.7" y1="423.5" x2="762.7" y2="553.2"/>
			<line class="st7" x1="794.5" y1="429.2" x2="766.9" y2="548.2"/>
			<line class="st7" x1="794.5" y1="429.2" x2="766.9" y2="548.2"/>
			<line class="st7" x1="796.2" y1="434.9" x2="771.1" y2="543.3"/>
			<line class="st7" x1="796.2" y1="434.9" x2="771.1" y2="543.3"/>
			<line class="st7" x1="779.5" y1="467.3" x2="747" y2="607.6"/>
			<line class="st7" x1="779.5" y1="467.3" x2="747" y2="607.6"/>
			<line class="st7" x1="781.3" y1="473" x2="751.3" y2="602.6"/>
			<line class="st7" x1="781.3" y1="473" x2="751.3" y2="602.6"/>
			<line class="st7" x1="783" y1="478.7" x2="755.5" y2="597.7"/>
			<line class="st7" x1="783" y1="478.7" x2="755.5" y2="597.7"/>
			<line class="st7" x1="784.8" y1="484.4" x2="759.7" y2="592.7"/>
			<line class="st7" x1="784.8" y1="484.4" x2="759.7" y2="592.7"/>
			<polygon class="st8" points="639,562.1 616.3,659.7 712.2,630.5 639,562.1 616.3,659.7 712.2,630.5 			"/>
			<polygon class="st9" points="680.7,444.7 655.6,553.1 762,520.6 680.7,444.7 655.6,553.1 762,520.6 			"/>
			<polygon class="st10" points="659.6,566.1 645.4,627.5 705.7,609.2 659.6,566.1 645.4,627.5 705.7,609.2 			"/>
			<line class="st11" x1="748.1" y1="413.5" x2="646.6" y2="444.5"/>
			<line class="st11" x1="745.5" y1="404.7" x2="644" y2="435.7"/>
			<line class="st11" x1="742.8" y1="395.9" x2="641.3" y2="426.9"/>
			<line class="st11" x1="740.1" y1="387.1" x2="638.6" y2="418.1"/>
			<line class="st11" x1="737.4" y1="378.3" x2="635.9" y2="409.3"/>
			<path class="st12" d="M494.2,538.9c13.8-4.2,19.6,14.9,33.4,10.7s8-23.3,21.7-27.5s19.6,14.9,33.4,10.7s8-23.3,21.7-27.5
				s19.6,14.9,33.4,10.7"/>
			<polygon class="st8" points="825.5,558.1 769,640.9 869,648.4 825.5,558.1 769,640.9 869,648.4 			"/>
			<line class="st6" x1="389" y1="492.5" x2="356.5" y2="632.8"/>
			<line class="st6" x1="389" y1="492.5" x2="356.5" y2="632.8"/>
			<line class="st6" x1="390.8" y1="498.2" x2="360.8" y2="627.9"/>
			<line class="st6" x1="390.8" y1="498.2" x2="360.8" y2="627.9"/>
			<line class="st6" x1="392.5" y1="503.9" x2="365" y2="622.9"/>
			<line class="st6" x1="392.5" y1="503.9" x2="365" y2="622.9"/>
			<line class="st6" x1="394.3" y1="509.6" x2="369.2" y2="617.9"/>
			<line class="st6" x1="394.3" y1="509.6" x2="369.2" y2="617.9"/>
			<line class="st6" x1="396" y1="515.3" x2="373.4" y2="613"/>
			<line class="st6" x1="396" y1="515.3" x2="373.4" y2="613"/>
			<line class="st6" x1="397.7" y1="521" x2="377.6" y2="608"/>
			<line class="st6" x1="397.7" y1="521" x2="377.6" y2="608"/>
			<line class="st6" x1="377.6" y1="542" x2="345.1" y2="682.3"/>
			<line class="st6" x1="377.6" y1="542" x2="345.1" y2="682.3"/>
			<line class="st6" x1="379.3" y1="547.7" x2="349.3" y2="677.3"/>
			<line class="st6" x1="379.3" y1="547.7" x2="349.3" y2="677.3"/>
			<line class="st6" x1="381.1" y1="553.4" x2="353.5" y2="672.4"/>
			<line class="st6" x1="381.1" y1="553.4" x2="353.5" y2="672.4"/>
			<line class="st6" x1="382.8" y1="559.1" x2="357.7" y2="667.4"/>
			<line class="st6" x1="382.8" y1="559.1" x2="357.7" y2="667.4"/>
			<line class="st6" x1="384.5" y1="564.8" x2="361.9" y2="662.4"/>
			<line class="st6" x1="384.5" y1="564.8" x2="361.9" y2="662.4"/>
			<line class="st6" x1="414.7" y1="576.6" x2="382.2" y2="716.9"/>
			<line class="st6" x1="414.7" y1="576.6" x2="382.2" y2="716.9"/>
			<line class="st6" x1="416.4" y1="582.3" x2="386.4" y2="712"/>
			<line class="st6" x1="416.4" y1="582.3" x2="386.4" y2="712"/>
			<line class="st7" x1="418.2" y1="588" x2="390.6" y2="707"/>
			<line class="st7" x1="418.2" y1="588" x2="390.6" y2="707"/>
			<line class="st7" x1="419.9" y1="593.7" x2="394.8" y2="702"/>
			<line class="st7" x1="419.9" y1="593.7" x2="394.8" y2="702"/>
			<line class="st7" x1="421.6" y1="599.4" x2="399" y2="697.1"/>
			<line class="st7" x1="421.6" y1="599.4" x2="399" y2="697.1"/>
			<line class="st7" x1="423.4" y1="605.1" x2="403.2" y2="692.1"/>
			<line class="st7" x1="423.4" y1="605.1" x2="403.2" y2="692.1"/>
			<line class="st7" x1="425.1" y1="610.8" x2="407.4" y2="687.2"/>
			<line class="st7" x1="425.1" y1="610.8" x2="407.4" y2="687.2"/>
			<line class="st7" x1="426.9" y1="616.5" x2="411.6" y2="682.2"/>
			<line class="st7" x1="426.9" y1="616.5" x2="411.6" y2="682.2"/>
			<line class="st7" x1="428.6" y1="622.2" x2="415.9" y2="677.3"/>
			<line class="st7" x1="428.6" y1="622.2" x2="415.9" y2="677.3"/>
			<line class="st7" x1="403.2" y1="626.1" x2="370.7" y2="766.4"/>
			<line class="st7" x1="403.2" y1="626.1" x2="370.7" y2="766.4"/>
			<line class="st7" x1="405" y1="631.8" x2="374.9" y2="761.4"/>
			<line class="st7" x1="405" y1="631.8" x2="374.9" y2="761.4"/>
			<line class="st7" x1="406.7" y1="637.5" x2="379.1" y2="756.4"/>
			<line class="st7" x1="406.7" y1="637.5" x2="379.1" y2="756.4"/>
			<line class="st7" x1="408.4" y1="643.2" x2="383.4" y2="751.5"/>
			<line class="st7" x1="408.4" y1="643.2" x2="383.4" y2="751.5"/>
			<polygon class="st9" points="304.4,603.5 279.3,711.8 385.7,679.4 304.4,603.5 279.3,711.8 385.7,679.4 			"/>
			<line class="st7" x1="440.3" y1="660.7" x2="407.8" y2="801"/>
			<line class="st7" x1="440.3" y1="660.7" x2="407.8" y2="801"/>
			<line class="st7" x1="442.1" y1="666.4" x2="412" y2="796"/>
			<line class="st7" x1="442.1" y1="666.4" x2="412" y2="796"/>
			<polygon class="st13" points="455.1,658.8 440.9,720.2 501.2,701.8 455.1,658.8 440.9,720.2 501.2,701.8 			"/>
			<polygon class="st10" points="455.1,576.9 440.9,638.3 501.2,619.9 455.1,576.9 440.9,638.3 501.2,619.9 			"/>
			<line class="st11" x1="371.8" y1="572.3" x2="270.3" y2="603.3"/>
			<line class="st11" x1="369.1" y1="563.5" x2="267.6" y2="594.4"/>
			<line class="st11" x1="366.5" y1="554.7" x2="265" y2="585.6"/>
			<line class="st11" x1="363.8" y1="545.9" x2="262.3" y2="576.8"/>
			<line class="st11" x1="361.1" y1="537.1" x2="259.6" y2="568"/>
			<path class="st12" d="M117.9,697.7c13.8-4.2,19.6,14.9,33.4,10.7s8-23.3,21.7-27.5s19.6,14.9,33.4,10.7s8-23.3,21.7-27.5
				s19.6,14.9,33.4,10.7"/>
			<polygon class="st10" points="412.2,547.7 406.1,574.1 432.1,566.2 412.2,547.7 406.1,574.1 432.1,566.2 			"/>
			<line class="st6" x1="649.9" y1="549.9" x2="568.7" y2="668.9"/>
			<line class="st6" x1="649.9" y1="549.9" x2="568.7" y2="668.9"/>
			<line class="st6" x1="649.4" y1="555.9" x2="574.4" y2="665.8"/>
			<line class="st6" x1="649.4" y1="555.9" x2="574.4" y2="665.8"/>
			<line class="st6" x1="649" y1="561.8" x2="580.1" y2="662.7"/>
			<line class="st6" x1="649" y1="561.8" x2="580.1" y2="662.7"/>
			<line class="st6" x1="648.5" y1="567.8" x2="585.8" y2="659.6"/>
			<line class="st6" x1="648.5" y1="567.8" x2="585.8" y2="659.6"/>
			<line class="st6" x1="648.1" y1="573.7" x2="591.6" y2="656.5"/>
			<line class="st6" x1="648.1" y1="573.7" x2="591.6" y2="656.5"/>
			<line class="st6" x1="647.6" y1="579.7" x2="597.3" y2="653.4"/>
			<line class="st6" x1="647.6" y1="579.7" x2="597.3" y2="653.4"/>
			<line class="st6" x1="621.3" y1="591.9" x2="540.1" y2="710.8"/>
			<line class="st6" x1="621.3" y1="591.9" x2="540.1" y2="710.8"/>
			<line class="st6" x1="620.8" y1="597.8" x2="545.8" y2="707.7"/>
			<line class="st6" x1="620.8" y1="597.8" x2="545.8" y2="707.7"/>
			<line class="st6" x1="620.4" y1="603.8" x2="551.5" y2="704.6"/>
			<line class="st6" x1="620.4" y1="603.8" x2="551.5" y2="704.6"/>
			<line class="st6" x1="619.9" y1="609.7" x2="557.2" y2="701.5"/>
			<line class="st6" x1="619.9" y1="609.7" x2="557.2" y2="701.5"/>
			<line class="st6" x1="619.5" y1="615.6" x2="563" y2="698.4"/>
			<line class="st6" x1="619.5" y1="615.6" x2="563" y2="698.4"/>
			<line class="st6" x1="643.3" y1="637.6" x2="562.1" y2="756.6"/>
			<line class="st6" x1="643.3" y1="637.6" x2="562.1" y2="756.6"/>
			<line class="st6" x1="642.8" y1="643.5" x2="567.8" y2="753.5"/>
			<line class="st6" x1="642.8" y1="643.5" x2="567.8" y2="753.5"/>
			<line class="st7" x1="642.4" y1="649.5" x2="573.5" y2="750.4"/>
			<line class="st7" x1="642.4" y1="649.5" x2="573.5" y2="750.4"/>
			<line class="st7" x1="641.9" y1="655.4" x2="579.2" y2="747.3"/>
			<line class="st7" x1="641.9" y1="655.4" x2="579.2" y2="747.3"/>
			<line class="st7" x1="641.5" y1="661.4" x2="585" y2="744.2"/>
			<line class="st7" x1="641.5" y1="661.4" x2="585" y2="744.2"/>
			<line class="st7" x1="641" y1="667.3" x2="590.7" y2="741.1"/>
			<line class="st7" x1="641" y1="667.3" x2="590.7" y2="741.1"/>
			<polygon class="st9" points="530.7,622.7 468.1,714.5 578.9,722.9 530.7,622.7 468.1,714.5 578.9,722.9 			"/>
			<polygon class="st8" points="554,651.1 518.5,703.2 581.4,707.9 554,651.1 518.5,703.2 581.4,707.9 			"/>
			<line class="st11" x1="604.9" y1="618" x2="499.1" y2="610"/>
			<line class="st11" x1="605.6" y1="608.9" x2="499.8" y2="600.9"/>
			<line class="st11" x1="606.3" y1="599.7" x2="500.4" y2="591.7"/>
			<line class="st11" x1="607" y1="590.5" x2="501.1" y2="582.5"/>
			<line class="st11" x1="607.6" y1="581.3" x2="501.8" y2="573.4"/>
			<polygon class="st10" points="651.5,609.7 636.1,632.2 663.3,634.3 651.5,609.7 636.1,632.2 663.3,634.3 			"/>
			<line class="st6" x1="38.4" y1="417.8" x2="5.9" y2="558.1"/>
			<line class="st6" x1="38.4" y1="417.8" x2="5.9" y2="558.1"/>
			<line class="st6" x1="40.1" y1="423.5" x2="10.1" y2="553.2"/>
			<line class="st6" x1="40.1" y1="423.5" x2="10.1" y2="553.2"/>
			<line class="st7" x1="41.8" y1="429.2" x2="14.3" y2="548.2"/>
			<line class="st7" x1="41.8" y1="429.2" x2="14.3" y2="548.2"/>
			<line class="st7" x1="43.6" y1="434.9" x2="18.5" y2="543.3"/>
			<line class="st7" x1="43.6" y1="434.9" x2="18.5" y2="543.3"/>
			<line class="st7" x1="45.3" y1="440.6" x2="22.7" y2="538.3"/>
			<line class="st7" x1="45.3" y1="440.6" x2="22.7" y2="538.3"/>
			<line class="st7" x1="47.1" y1="446.3" x2="26.9" y2="533.3"/>
			<line class="st7" x1="47.1" y1="446.3" x2="26.9" y2="533.3"/>
			<line class="st7" x1="48.8" y1="452" x2="31.1" y2="528.4"/>
			<line class="st7" x1="48.8" y1="452" x2="31.1" y2="528.4"/>
			<line class="st7" x1="50.5" y1="457.8" x2="35.3" y2="523.4"/>
			<line class="st7" x1="50.5" y1="457.8" x2="35.3" y2="523.4"/>
			<line class="st7" x1="52.3" y1="463.4" x2="39.5" y2="518.5"/>
			<line class="st7" x1="52.3" y1="463.4" x2="39.5" y2="518.5"/>
			<line class="st7" x1="26.9" y1="467.3" x2="-5.6" y2="607.6"/>
			<line class="st7" x1="26.9" y1="467.3" x2="-5.6" y2="607.6"/>
			<line class="st7" x1="28.7" y1="473" x2="-1.4" y2="602.6"/>
			<line class="st7" x1="28.7" y1="473" x2="-1.4" y2="602.6"/>
			<line class="st7" x1="30.4" y1="478.7" x2="2.8" y2="597.7"/>
			<line class="st7" x1="30.4" y1="478.7" x2="2.8" y2="597.7"/>
			<line class="st7" x1="32.1" y1="484.4" x2="7" y2="592.7"/>
			<line class="st7" x1="32.1" y1="484.4" x2="7" y2="592.7"/>
			<line class="st7" x1="64" y1="501.9" x2="31.5" y2="642.2"/>
			<line class="st7" x1="64" y1="501.9" x2="31.5" y2="642.2"/>
			<line class="st7" x1="65.8" y1="507.6" x2="35.7" y2="637.3"/>
			<line class="st7" x1="65.8" y1="507.6" x2="35.7" y2="637.3"/>
			<polygon class="st13" points="78.8,500 64.5,561.4 124.8,543 78.8,500 64.5,561.4 124.8,543 			"/>
			<polygon class="st10" points="78.8,418.1 64.5,479.5 124.8,461.1 78.8,418.1 64.5,479.5 124.8,461.1 			"/>
			<polygon class="st10" points="35.9,388.9 29.8,415.4 55.8,407.4 35.9,388.9 29.8,415.4 55.8,407.4 			"/>
			<line class="st6" x1="273.5" y1="391.1" x2="192.4" y2="510.1"/>
			<line class="st6" x1="273.5" y1="391.1" x2="192.4" y2="510.1"/>
			<line class="st6" x1="273.1" y1="397.1" x2="198.1" y2="507"/>
			<line class="st6" x1="273.1" y1="397.1" x2="198.1" y2="507"/>
			<line class="st6" x1="272.7" y1="403" x2="203.8" y2="503.9"/>
			<line class="st6" x1="272.7" y1="403" x2="203.8" y2="503.9"/>
			<line class="st6" x1="272.2" y1="409" x2="209.5" y2="500.8"/>
			<line class="st6" x1="272.2" y1="409" x2="209.5" y2="500.8"/>
			<line class="st6" x1="271.8" y1="414.9" x2="215.3" y2="497.7"/>
			<line class="st6" x1="271.8" y1="414.9" x2="215.3" y2="497.7"/>
			<line class="st6" x1="271.3" y1="420.9" x2="221" y2="494.6"/>
			<line class="st6" x1="271.3" y1="420.9" x2="221" y2="494.6"/>
			<line class="st6" x1="244.9" y1="433.1" x2="163.8" y2="552"/>
			<line class="st6" x1="244.9" y1="433.1" x2="163.8" y2="552"/>
			<line class="st6" x1="244.5" y1="439" x2="169.5" y2="548.9"/>
			<line class="st6" x1="244.5" y1="439" x2="169.5" y2="548.9"/>
			<line class="st6" x1="244" y1="445" x2="175.2" y2="545.8"/>
			<line class="st6" x1="244" y1="445" x2="175.2" y2="545.8"/>
			<line class="st6" x1="243.6" y1="450.9" x2="180.9" y2="542.8"/>
			<line class="st6" x1="243.6" y1="450.9" x2="180.9" y2="542.8"/>
			<line class="st6" x1="243.1" y1="456.9" x2="186.6" y2="539.7"/>
			<line class="st6" x1="243.1" y1="456.9" x2="186.6" y2="539.7"/>
			<line class="st6" x1="266.9" y1="478.8" x2="185.8" y2="597.8"/>
			<line class="st6" x1="266.9" y1="478.8" x2="185.8" y2="597.8"/>
			<line class="st6" x1="266.5" y1="484.8" x2="191.5" y2="594.7"/>
			<line class="st6" x1="266.5" y1="484.8" x2="191.5" y2="594.7"/>
			<line class="st7" x1="266" y1="490.7" x2="197.2" y2="591.6"/>
			<line class="st7" x1="266" y1="490.7" x2="197.2" y2="591.6"/>
			<line class="st7" x1="265.6" y1="496.6" x2="202.9" y2="588.5"/>
			<line class="st7" x1="265.6" y1="496.6" x2="202.9" y2="588.5"/>
			<line class="st7" x1="265.1" y1="502.6" x2="208.6" y2="585.4"/>
			<line class="st7" x1="265.1" y1="502.6" x2="208.6" y2="585.4"/>
			<line class="st7" x1="264.7" y1="508.5" x2="214.4" y2="582.3"/>
			<line class="st7" x1="264.7" y1="508.5" x2="214.4" y2="582.3"/>
			<line class="st7" x1="264.3" y1="514.5" x2="220.1" y2="579.2"/>
			<line class="st7" x1="264.3" y1="514.5" x2="220.1" y2="579.2"/>
			<line class="st7" x1="263.8" y1="520.4" x2="225.8" y2="576.1"/>
			<line class="st7" x1="263.8" y1="520.4" x2="225.8" y2="576.1"/>
			<line class="st7" x1="263.4" y1="526.4" x2="231.5" y2="573"/>
			<line class="st7" x1="263.4" y1="526.4" x2="231.5" y2="573"/>
			<line class="st7" x1="238.3" y1="520.7" x2="157.1" y2="639.7"/>
			<line class="st7" x1="238.3" y1="520.7" x2="157.1" y2="639.7"/>
			<line class="st7" x1="237.9" y1="526.7" x2="162.9" y2="636.6"/>
			<line class="st7" x1="237.9" y1="526.7" x2="162.9" y2="636.6"/>
			<line class="st7" x1="237.4" y1="532.6" x2="168.6" y2="633.5"/>
			<line class="st7" x1="237.4" y1="532.6" x2="168.6" y2="633.5"/>
			<line class="st7" x1="237" y1="538.6" x2="174.3" y2="630.4"/>
			<line class="st7" x1="237" y1="538.6" x2="174.3" y2="630.4"/>
			<polygon class="st8" points="72.9,558.1 16.4,640.9 116.4,648.4 72.9,558.1 16.4,640.9 116.4,648.4 			"/>
			<polygon class="st9" points="154.4,463.9 91.7,555.7 202.6,564.1 154.4,463.9 91.7,555.7 202.6,564.1 			"/>
			<line class="st7" x1="260.3" y1="566.5" x2="179.1" y2="685.4"/>
			<line class="st7" x1="260.3" y1="566.5" x2="179.1" y2="685.4"/>
			<line class="st7" x1="259.9" y1="572.4" x2="184.9" y2="682.3"/>
			<line class="st7" x1="259.9" y1="572.4" x2="184.9" y2="682.3"/>
			<polygon class="st10" points="90.7,569.3 55.2,621.4 118,626.2 90.7,569.3 55.2,621.4 118,626.2 			"/>
			<polygon class="st13" points="274.8,570.1 239.2,622.1 302.1,626.9 274.8,570.1 239.2,622.1 302.1,626.9 			"/>
			<polygon class="st8" points="177.7,492.3 142.2,544.4 205.1,549.1 177.7,492.3 142.2,544.4 205.1,549.1 			"/>
			<line class="st11" x1="228.6" y1="459.3" x2="122.8" y2="451.3"/>
			<line class="st11" x1="229.3" y1="450.1" x2="123.4" y2="442.1"/>
			<line class="st11" x1="229.9" y1="440.9" x2="124.1" y2="432.9"/>
			<line class="st11" x1="230.6" y1="431.7" x2="124.8" y2="423.7"/>
			<line class="st11" x1="231.3" y1="422.6" x2="125.5" y2="414.6"/>
			<polygon class="st10" points="275.2,450.9 259.8,473.4 286.9,475.5 275.2,450.9 259.8,473.4 286.9,475.5 			"/>
			<line class="st6" x1="765.4" y1="16.2" x2="732.9" y2="156.5"/>
			<line class="st6" x1="765.4" y1="16.2" x2="732.9" y2="156.5"/>
			<line class="st6" x1="767.1" y1="21.9" x2="737.1" y2="151.5"/>
			<line class="st6" x1="767.1" y1="21.9" x2="737.1" y2="151.5"/>
			<line class="st6" x1="768.8" y1="27.6" x2="741.3" y2="146.5"/>
			<line class="st6" x1="768.8" y1="27.6" x2="741.3" y2="146.5"/>
			<line class="st6" x1="770.6" y1="33.3" x2="745.5" y2="141.6"/>
			<line class="st6" x1="770.6" y1="33.3" x2="745.5" y2="141.6"/>
			<line class="st6" x1="772.3" y1="39" x2="749.7" y2="136.6"/>
			<line class="st6" x1="772.3" y1="39" x2="749.7" y2="136.6"/>
			<line class="st6" x1="774.1" y1="44.7" x2="753.9" y2="131.7"/>
			<line class="st6" x1="774.1" y1="44.7" x2="753.9" y2="131.7"/>
			<line class="st6" x1="753.9" y1="65.6" x2="721.4" y2="205.9"/>
			<line class="st6" x1="753.9" y1="65.6" x2="721.4" y2="205.9"/>
			<line class="st6" x1="755.6" y1="71.3" x2="725.6" y2="201"/>
			<line class="st6" x1="755.6" y1="71.3" x2="725.6" y2="201"/>
			<line class="st6" x1="757.4" y1="77" x2="729.8" y2="196"/>
			<line class="st6" x1="757.4" y1="77" x2="729.8" y2="196"/>
			<line class="st6" x1="759.1" y1="82.7" x2="734" y2="191"/>
			<line class="st6" x1="759.1" y1="82.7" x2="734" y2="191"/>
			<line class="st6" x1="760.9" y1="88.4" x2="738.2" y2="186.1"/>
			<line class="st6" x1="760.9" y1="88.4" x2="738.2" y2="186.1"/>
			<line class="st6" x1="791" y1="100.3" x2="758.5" y2="240.6"/>
			<line class="st6" x1="791" y1="100.3" x2="758.5" y2="240.6"/>
			<line class="st6" x1="792.7" y1="106" x2="762.7" y2="235.6"/>
			<line class="st6" x1="792.7" y1="106" x2="762.7" y2="235.6"/>
			<line class="st7" x1="794.5" y1="111.7" x2="766.9" y2="230.6"/>
			<line class="st7" x1="794.5" y1="111.7" x2="766.9" y2="230.6"/>
			<line class="st7" x1="796.2" y1="117.4" x2="771.1" y2="225.7"/>
			<line class="st7" x1="796.2" y1="117.4" x2="771.1" y2="225.7"/>
			<line class="st7" x1="779.5" y1="149.7" x2="747" y2="290"/>
			<line class="st7" x1="779.5" y1="149.7" x2="747" y2="290"/>
			<line class="st7" x1="781.3" y1="155.4" x2="751.3" y2="285.1"/>
			<line class="st7" x1="781.3" y1="155.4" x2="751.3" y2="285.1"/>
			<line class="st7" x1="783" y1="161.1" x2="755.5" y2="280.1"/>
			<line class="st7" x1="783" y1="161.1" x2="755.5" y2="280.1"/>
			<line class="st7" x1="784.8" y1="166.8" x2="759.7" y2="275.1"/>
			<line class="st7" x1="784.8" y1="166.8" x2="759.7" y2="275.1"/>
			<polygon class="st8" points="639,244.5 616.3,342.2 712.2,312.9 639,244.5 616.3,342.2 712.2,312.9 			"/>
			<polygon class="st9" points="680.7,127.2 655.6,235.5 762,203.1 680.7,127.2 655.6,235.5 762,203.1 			"/>
			<polygon class="st10" points="659.6,248.6 645.4,310 705.7,291.6 659.6,248.6 645.4,310 705.7,291.6 			"/>
			<line class="st11" x1="748.1" y1="95.9" x2="646.6" y2="126.9"/>
			<line class="st11" x1="745.5" y1="87.1" x2="644" y2="118.1"/>
			<line class="st11" x1="742.8" y1="78.3" x2="641.3" y2="109.3"/>
			<line class="st11" x1="740.1" y1="69.5" x2="638.6" y2="100.5"/>
			<line class="st11" x1="737.4" y1="60.7" x2="635.9" y2="91.7"/>
			<path class="st12" d="M494.2,221.4c13.8-4.2,19.6,14.9,33.4,10.8s8-23.3,21.7-27.5s19.6,14.9,33.4,10.7s8-23.3,21.7-27.5
				s19.6,14.9,33.4,10.7"/>
			<polygon class="st8" points="825.5,240.5 769,323.3 869,330.9 825.5,240.5 769,323.3 869,330.9 			"/>
			<line class="st6" x1="389" y1="175" x2="356.5" y2="315.3"/>
			<line class="st6" x1="389" y1="175" x2="356.5" y2="315.3"/>
			<line class="st6" x1="390.8" y1="180.6" x2="360.8" y2="310.3"/>
			<line class="st6" x1="390.8" y1="180.6" x2="360.8" y2="310.3"/>
			<line class="st6" x1="392.5" y1="186.4" x2="365" y2="305.3"/>
			<line class="st6" x1="392.5" y1="186.4" x2="365" y2="305.3"/>
			<line class="st6" x1="394.3" y1="192.1" x2="369.2" y2="300.4"/>
			<line class="st6" x1="394.3" y1="192.1" x2="369.2" y2="300.4"/>
			<line class="st6" x1="396" y1="197.8" x2="373.4" y2="295.4"/>
			<line class="st6" x1="396" y1="197.8" x2="373.4" y2="295.4"/>
			<line class="st6" x1="397.7" y1="203.5" x2="377.6" y2="290.5"/>
			<line class="st6" x1="397.7" y1="203.5" x2="377.6" y2="290.5"/>
			<line class="st6" x1="377.6" y1="224.4" x2="345.1" y2="364.7"/>
			<line class="st6" x1="377.6" y1="224.4" x2="345.1" y2="364.7"/>
			<line class="st6" x1="379.3" y1="230.1" x2="349.3" y2="359.7"/>
			<line class="st6" x1="379.3" y1="230.1" x2="349.3" y2="359.7"/>
			<line class="st6" x1="381.1" y1="235.8" x2="353.5" y2="354.8"/>
			<line class="st6" x1="381.1" y1="235.8" x2="353.5" y2="354.8"/>
			<line class="st6" x1="382.8" y1="241.5" x2="357.7" y2="349.8"/>
			<line class="st6" x1="382.8" y1="241.5" x2="357.7" y2="349.8"/>
			<line class="st6" x1="384.5" y1="247.2" x2="361.9" y2="344.9"/>
			<line class="st6" x1="384.5" y1="247.2" x2="361.9" y2="344.9"/>
			<line class="st6" x1="414.7" y1="259" x2="382.2" y2="399.4"/>
			<line class="st6" x1="414.7" y1="259" x2="382.2" y2="399.4"/>
			<line class="st6" x1="416.4" y1="264.7" x2="386.4" y2="394.4"/>
			<line class="st6" x1="416.4" y1="264.7" x2="386.4" y2="394.4"/>
			<line class="st7" x1="418.2" y1="270.4" x2="390.6" y2="389.4"/>
			<line class="st7" x1="418.2" y1="270.4" x2="390.6" y2="389.4"/>
			<line class="st7" x1="419.9" y1="276.1" x2="394.8" y2="384.5"/>
			<line class="st7" x1="419.9" y1="276.1" x2="394.8" y2="384.5"/>
			<line class="st7" x1="421.6" y1="281.9" x2="399" y2="379.5"/>
			<line class="st7" x1="421.6" y1="281.9" x2="399" y2="379.5"/>
			<line class="st7" x1="423.4" y1="287.6" x2="403.2" y2="374.6"/>
			<line class="st7" x1="423.4" y1="287.6" x2="403.2" y2="374.6"/>
			<line class="st7" x1="425.1" y1="293.3" x2="407.4" y2="369.6"/>
			<line class="st7" x1="425.1" y1="293.3" x2="407.4" y2="369.6"/>
			<line class="st7" x1="426.9" y1="299" x2="411.6" y2="364.6"/>
			<line class="st7" x1="426.9" y1="299" x2="411.6" y2="364.6"/>
			<line class="st7" x1="428.6" y1="304.7" x2="415.9" y2="359.7"/>
			<line class="st7" x1="428.6" y1="304.7" x2="415.9" y2="359.7"/>
			<line class="st7" x1="403.2" y1="308.5" x2="370.7" y2="448.8"/>
			<line class="st7" x1="403.2" y1="308.5" x2="370.7" y2="448.8"/>
			<line class="st7" x1="405" y1="314.2" x2="374.9" y2="443.8"/>
			<line class="st7" x1="405" y1="314.2" x2="374.9" y2="443.8"/>
			<line class="st7" x1="406.7" y1="319.9" x2="379.1" y2="438.9"/>
			<line class="st7" x1="406.7" y1="319.9" x2="379.1" y2="438.9"/>
			<line class="st7" x1="408.4" y1="325.6" x2="383.4" y2="433.9"/>
			<line class="st7" x1="408.4" y1="325.6" x2="383.4" y2="433.9"/>
			<polygon class="st8" points="262.6,403.3 240,500.9 335.9,471.7 262.6,403.3 240,500.9 335.9,471.7 			"/>
			<polygon class="st9" points="304.4,286 279.3,394.3 385.7,361.9 304.4,286 279.3,394.3 385.7,361.9 			"/>
			<line class="st7" x1="440.3" y1="343.1" x2="407.8" y2="483.4"/>
			<line class="st7" x1="440.3" y1="343.1" x2="407.8" y2="483.4"/>
			<line class="st7" x1="442.1" y1="348.8" x2="412" y2="478.5"/>
			<line class="st7" x1="442.1" y1="348.8" x2="412" y2="478.5"/>
			<polygon class="st10" points="283.3,407.3 269.1,468.8 329.4,450.4 283.3,407.3 269.1,468.8 329.4,450.4 			"/>
			<polygon class="st13" points="455.1,341.2 440.9,402.6 501.2,384.3 455.1,341.2 440.9,402.6 501.2,384.3 			"/>
			<polygon class="st10" points="455.1,259.3 440.9,320.7 501.2,302.3 455.1,259.3 440.9,320.7 501.2,302.3 			"/>
			<line class="st11" x1="371.8" y1="254.7" x2="270.3" y2="285.7"/>
			<line class="st11" x1="369.1" y1="245.9" x2="267.6" y2="276.9"/>
			<line class="st11" x1="366.5" y1="237.1" x2="265" y2="268.1"/>
			<line class="st11" x1="363.8" y1="228.3" x2="262.3" y2="259.3"/>
			<line class="st11" x1="361.1" y1="219.5" x2="259.6" y2="250.5"/>
			<path class="st12" d="M117.9,380.1c13.8-4.2,19.6,14.9,33.4,10.7s8-23.3,21.7-27.5s19.6,14.9,33.4,10.7s8-23.3,21.7-27.5
				s19.6,14.9,33.4,10.7"/>
			<polygon class="st10" points="412.2,230.1 406.1,256.6 432.1,248.6 412.2,230.1 406.1,256.6 432.1,248.6 			"/>
			<line class="st6" x1="649.9" y1="232.4" x2="568.7" y2="351.3"/>
			<line class="st6" x1="649.9" y1="232.4" x2="568.7" y2="351.3"/>
			<line class="st6" x1="649.4" y1="238.3" x2="574.4" y2="348.2"/>
			<line class="st6" x1="649.4" y1="238.3" x2="574.4" y2="348.2"/>
			<line class="st6" x1="649" y1="244.3" x2="580.1" y2="345.1"/>
			<line class="st6" x1="649" y1="244.3" x2="580.1" y2="345.1"/>
			<line class="st6" x1="648.5" y1="250.2" x2="585.8" y2="342"/>
			<line class="st6" x1="648.5" y1="250.2" x2="585.8" y2="342"/>
			<line class="st6" x1="648.1" y1="256.1" x2="591.6" y2="339"/>
			<line class="st6" x1="648.1" y1="256.1" x2="591.6" y2="339"/>
			<line class="st6" x1="647.6" y1="262.1" x2="597.3" y2="335.9"/>
			<line class="st6" x1="647.6" y1="262.1" x2="597.3" y2="335.9"/>
			<line class="st6" x1="621.3" y1="274.3" x2="540.1" y2="393.3"/>
			<line class="st6" x1="621.3" y1="274.3" x2="540.1" y2="393.3"/>
			<line class="st6" x1="620.8" y1="280.2" x2="545.8" y2="390.1"/>
			<line class="st6" x1="620.8" y1="280.2" x2="545.8" y2="390.1"/>
			<line class="st6" x1="620.4" y1="286.2" x2="551.5" y2="387.1"/>
			<line class="st6" x1="620.4" y1="286.2" x2="551.5" y2="387.1"/>
			<line class="st6" x1="619.9" y1="292.1" x2="557.2" y2="384"/>
			<line class="st6" x1="619.9" y1="292.1" x2="557.2" y2="384"/>
			<line class="st6" x1="619.5" y1="298.1" x2="563" y2="380.9"/>
			<line class="st6" x1="619.5" y1="298.1" x2="563" y2="380.9"/>
			<line class="st6" x1="643.3" y1="320" x2="562.1" y2="439"/>
			<line class="st6" x1="643.3" y1="320" x2="562.1" y2="439"/>
			<line class="st6" x1="642.8" y1="326" x2="567.8" y2="435.9"/>
			<line class="st6" x1="642.8" y1="326" x2="567.8" y2="435.9"/>
			<line class="st7" x1="642.4" y1="331.9" x2="573.5" y2="432.8"/>
			<line class="st7" x1="642.4" y1="331.9" x2="573.5" y2="432.8"/>
			<line class="st7" x1="641.9" y1="337.9" x2="579.2" y2="429.7"/>
			<line class="st7" x1="641.9" y1="337.9" x2="579.2" y2="429.7"/>
			<line class="st7" x1="641.5" y1="343.8" x2="585" y2="426.6"/>
			<line class="st7" x1="641.5" y1="343.8" x2="585" y2="426.6"/>
			<line class="st7" x1="641" y1="349.8" x2="590.7" y2="423.5"/>
			<line class="st7" x1="641" y1="349.8" x2="590.7" y2="423.5"/>
			<line class="st7" x1="640.6" y1="355.7" x2="596.4" y2="420.4"/>
			<line class="st7" x1="640.6" y1="355.7" x2="596.4" y2="420.4"/>
			<line class="st7" x1="640.1" y1="361.6" x2="602.1" y2="417.3"/>
			<line class="st7" x1="640.1" y1="361.6" x2="602.1" y2="417.3"/>
			<line class="st7" x1="639.7" y1="367.6" x2="607.8" y2="414.2"/>
			<line class="st7" x1="639.7" y1="367.6" x2="607.8" y2="414.2"/>
			<line class="st7" x1="614.6" y1="362" x2="533.5" y2="480.9"/>
			<line class="st7" x1="614.6" y1="362" x2="533.5" y2="480.9"/>
			<line class="st7" x1="614.2" y1="367.9" x2="539.2" y2="477.8"/>
			<line class="st7" x1="614.2" y1="367.9" x2="539.2" y2="477.8"/>
			<line class="st7" x1="613.7" y1="373.8" x2="544.9" y2="474.7"/>
			<line class="st7" x1="613.7" y1="373.8" x2="544.9" y2="474.7"/>
			<line class="st7" x1="613.3" y1="379.8" x2="550.6" y2="471.6"/>
			<line class="st7" x1="613.3" y1="379.8" x2="550.6" y2="471.6"/>
			<polygon class="st8" points="449.2,399.3 392.7,482.1 492.7,489.6 449.2,399.3 392.7,482.1 492.7,489.6 			"/>
			<polygon class="st9" points="530.7,305.1 468.1,397 578.9,405.3 530.7,305.1 468.1,397 578.9,405.3 			"/>
			<line class="st7" x1="636.6" y1="407.7" x2="555.5" y2="526.6"/>
			<line class="st7" x1="636.6" y1="407.7" x2="555.5" y2="526.6"/>
			<line class="st7" x1="636.2" y1="413.6" x2="561.2" y2="523.6"/>
			<line class="st7" x1="636.2" y1="413.6" x2="561.2" y2="523.6"/>
			<polygon class="st10" points="467,410.6 431.5,462.6 494.4,467.4 467,410.6 431.5,462.6 494.4,467.4 			"/>
			<polygon class="st13" points="651.1,411.3 615.5,463.4 678.4,468.1 651.1,411.3 615.5,463.4 678.4,468.1 			"/>
			<polygon class="st8" points="554,333.5 518.5,385.6 581.4,390.4 554,333.5 518.5,385.6 581.4,390.4 			"/>
			<line class="st11" x1="604.9" y1="300.5" x2="499.1" y2="292.5"/>
			<line class="st11" x1="605.6" y1="291.3" x2="499.8" y2="283.3"/>
			<line class="st11" x1="606.3" y1="282.1" x2="500.4" y2="274.1"/>
			<line class="st11" x1="607" y1="272.9" x2="501.1" y2="265"/>
			<line class="st11" x1="607.6" y1="263.8" x2="501.8" y2="255.8"/>
			<polygon class="st10" points="651.5,292.2 636.1,314.6 663.3,316.7 651.5,292.2 636.1,314.6 663.3,316.7 			"/>
			<line class="st6" x1="38.4" y1="100.3" x2="5.9" y2="240.6"/>
			<line class="st6" x1="38.4" y1="100.3" x2="5.9" y2="240.6"/>
			<line class="st6" x1="40.1" y1="106" x2="10.1" y2="235.6"/>
			<line class="st6" x1="40.1" y1="106" x2="10.1" y2="235.6"/>
			<line class="st7" x1="41.8" y1="111.7" x2="14.3" y2="230.6"/>
			<line class="st7" x1="41.8" y1="111.7" x2="14.3" y2="230.6"/>
			<line class="st7" x1="43.6" y1="117.4" x2="18.5" y2="225.7"/>
			<line class="st7" x1="43.6" y1="117.4" x2="18.5" y2="225.7"/>
			<line class="st7" x1="45.3" y1="123.1" x2="22.7" y2="220.7"/>
			<line class="st7" x1="45.3" y1="123.1" x2="22.7" y2="220.7"/>
			<line class="st7" x1="47.1" y1="128.8" x2="26.9" y2="215.8"/>
			<line class="st7" x1="47.1" y1="128.8" x2="26.9" y2="215.8"/>
			<line class="st7" x1="48.8" y1="134.5" x2="31.1" y2="210.8"/>
			<line class="st7" x1="48.8" y1="134.5" x2="31.1" y2="210.8"/>
			<line class="st7" x1="50.5" y1="140.2" x2="35.3" y2="205.9"/>
			<line class="st7" x1="50.5" y1="140.2" x2="35.3" y2="205.9"/>
			<line class="st7" x1="52.3" y1="145.9" x2="39.5" y2="200.9"/>
			<line class="st7" x1="52.3" y1="145.9" x2="39.5" y2="200.9"/>
			<line class="st7" x1="26.9" y1="149.7" x2="-5.6" y2="290"/>
			<line class="st7" x1="26.9" y1="149.7" x2="-5.6" y2="290"/>
			<line class="st7" x1="28.7" y1="155.4" x2="-1.4" y2="285.1"/>
			<line class="st7" x1="28.7" y1="155.4" x2="-1.4" y2="285.1"/>
			<line class="st7" x1="30.4" y1="161.1" x2="2.8" y2="280.1"/>
			<line class="st7" x1="30.4" y1="161.1" x2="2.8" y2="280.1"/>
			<line class="st7" x1="32.1" y1="166.8" x2="7" y2="275.1"/>
			<line class="st7" x1="32.1" y1="166.8" x2="7" y2="275.1"/>
			<line class="st7" x1="64" y1="184.3" x2="31.5" y2="324.6"/>
			<line class="st7" x1="64" y1="184.3" x2="31.5" y2="324.6"/>
			<line class="st7" x1="65.8" y1="190" x2="35.7" y2="319.7"/>
			<line class="st7" x1="65.8" y1="190" x2="35.7" y2="319.7"/>
			<polygon class="st13" points="78.8,182.4 64.5,243.9 124.8,225.5 78.8,182.4 64.5,243.9 124.8,225.5 			"/>
			<polygon class="st10" points="78.8,100.5 64.5,161.9 124.8,143.5 78.8,100.5 64.5,161.9 124.8,143.5 			"/>
			<polygon class="st10" points="35.9,71.3 29.8,97.8 55.8,89.9 35.9,71.3 29.8,97.8 55.8,89.9 			"/>
			<line class="st6" x1="273.5" y1="73.6" x2="192.4" y2="192.5"/>
			<line class="st6" x1="273.5" y1="73.6" x2="192.4" y2="192.5"/>
			<line class="st6" x1="273.1" y1="79.5" x2="198.1" y2="189.4"/>
			<line class="st6" x1="273.1" y1="79.5" x2="198.1" y2="189.4"/>
			<line class="st6" x1="272.7" y1="85.5" x2="203.8" y2="186.4"/>
			<line class="st6" x1="272.7" y1="85.5" x2="203.8" y2="186.4"/>
			<line class="st6" x1="272.2" y1="91.4" x2="209.5" y2="183.3"/>
			<line class="st6" x1="272.2" y1="91.4" x2="209.5" y2="183.3"/>
			<line class="st6" x1="271.8" y1="97.4" x2="215.3" y2="180.2"/>
			<line class="st6" x1="271.8" y1="97.4" x2="215.3" y2="180.2"/>
			<line class="st6" x1="271.3" y1="103.3" x2="221" y2="177.1"/>
			<line class="st6" x1="271.3" y1="103.3" x2="221" y2="177.1"/>
			<line class="st6" x1="244.9" y1="115.5" x2="163.8" y2="234.5"/>
			<line class="st6" x1="244.9" y1="115.5" x2="163.8" y2="234.5"/>
			<line class="st6" x1="244.5" y1="121.5" x2="169.5" y2="231.4"/>
			<line class="st6" x1="244.5" y1="121.5" x2="169.5" y2="231.4"/>
			<line class="st6" x1="244" y1="127.4" x2="175.2" y2="228.3"/>
			<line class="st6" x1="244" y1="127.4" x2="175.2" y2="228.3"/>
			<line class="st6" x1="243.6" y1="133.3" x2="180.9" y2="225.2"/>
			<line class="st6" x1="243.6" y1="133.3" x2="180.9" y2="225.2"/>
			<line class="st6" x1="243.1" y1="139.3" x2="186.6" y2="222.1"/>
			<line class="st6" x1="243.1" y1="139.3" x2="186.6" y2="222.1"/>
			<line class="st6" x1="266.9" y1="161.2" x2="185.8" y2="280.2"/>
			<line class="st6" x1="266.9" y1="161.2" x2="185.8" y2="280.2"/>
			<line class="st6" x1="266.5" y1="167.2" x2="191.5" y2="277.1"/>
			<line class="st6" x1="266.5" y1="167.2" x2="191.5" y2="277.1"/>
			<line class="st7" x1="266" y1="173.1" x2="197.2" y2="274"/>
			<line class="st7" x1="266" y1="173.1" x2="197.2" y2="274"/>
			<line class="st7" x1="265.6" y1="179.1" x2="202.9" y2="270.9"/>
			<line class="st7" x1="265.6" y1="179.1" x2="202.9" y2="270.9"/>
			<line class="st7" x1="265.1" y1="185" x2="208.6" y2="267.8"/>
			<line class="st7" x1="265.1" y1="185" x2="208.6" y2="267.8"/>
			<line class="st7" x1="264.7" y1="191" x2="214.4" y2="264.7"/>
			<line class="st7" x1="264.7" y1="191" x2="214.4" y2="264.7"/>
			<line class="st7" x1="264.3" y1="196.9" x2="220.1" y2="261.6"/>
			<line class="st7" x1="264.3" y1="196.9" x2="220.1" y2="261.6"/>
			<line class="st7" x1="263.8" y1="202.9" x2="225.8" y2="258.5"/>
			<line class="st7" x1="263.8" y1="202.9" x2="225.8" y2="258.5"/>
			<line class="st7" x1="263.4" y1="208.8" x2="231.5" y2="255.5"/>
			<line class="st7" x1="263.4" y1="208.8" x2="231.5" y2="255.5"/>
			<line class="st7" x1="238.3" y1="203.2" x2="157.1" y2="322.1"/>
			<line class="st7" x1="238.3" y1="203.2" x2="157.1" y2="322.1"/>
			<line class="st7" x1="237.9" y1="209.1" x2="162.9" y2="319"/>
			<line class="st7" x1="237.9" y1="209.1" x2="162.9" y2="319"/>
			<line class="st7" x1="237.4" y1="215.1" x2="168.6" y2="315.9"/>
			<line class="st7" x1="237.4" y1="215.1" x2="168.6" y2="315.9"/>
			<line class="st7" x1="237" y1="221" x2="174.3" y2="312.8"/>
			<line class="st7" x1="237" y1="221" x2="174.3" y2="312.8"/>
			<polygon class="st8" points="72.9,240.5 16.4,323.3 116.4,330.9 72.9,240.5 16.4,323.3 116.4,330.9 			"/>
			<polygon class="st9" points="154.4,146.3 91.7,238.2 202.6,246.5 154.4,146.3 91.7,238.2 202.6,246.5 			"/>
			<line class="st7" x1="260.3" y1="248.9" x2="179.1" y2="367.9"/>
			<line class="st7" x1="260.3" y1="248.9" x2="179.1" y2="367.9"/>
			<line class="st7" x1="259.9" y1="254.9" x2="184.9" y2="364.8"/>
			<line class="st7" x1="259.9" y1="254.9" x2="184.9" y2="364.8"/>
			<polygon class="st10" points="90.7,251.8 55.2,303.9 118,308.6 90.7,251.8 55.2,303.9 118,308.6 			"/>
			<polygon class="st13" points="274.8,252.5 239.2,304.6 302.1,309.3 274.8,252.5 239.2,304.6 302.1,309.3 			"/>
			<polygon class="st8" points="177.7,174.7 142.2,226.8 205.1,231.6 177.7,174.7 142.2,226.8 205.1,231.6 			"/>
			<line class="st11" x1="228.6" y1="141.7" x2="122.8" y2="133.7"/>
			<line class="st11" x1="229.3" y1="132.5" x2="123.4" y2="124.5"/>
			<line class="st11" x1="229.9" y1="123.3" x2="124.1" y2="115.3"/>
			<line class="st11" x1="230.6" y1="114.2" x2="124.8" y2="106.2"/>
			<line class="st11" x1="231.3" y1="105" x2="125.5" y2="97"/>
			<polygon class="st10" points="275.2,133.4 259.8,155.8 286.9,157.9 275.2,133.4 259.8,155.8 286.9,157.9 			"/>
			<line class="st6" x1="377.6" y1="-93.2" x2="345.1" y2="47.1"/>
			<line class="st6" x1="377.6" y1="-93.2" x2="345.1" y2="47.1"/>
			<line class="st6" x1="379.3" y1="-87.5" x2="349.3" y2="42.2"/>
			<line class="st6" x1="379.3" y1="-87.5" x2="349.3" y2="42.2"/>
			<line class="st6" x1="381.1" y1="-81.8" x2="353.5" y2="37.2"/>
			<line class="st6" x1="381.1" y1="-81.8" x2="353.5" y2="37.2"/>
			<line class="st6" x1="414.7" y1="-58.5" x2="382.2" y2="81.8"/>
			<line class="st6" x1="414.7" y1="-58.5" x2="382.2" y2="81.8"/>
			<line class="st6" x1="416.4" y1="-52.8" x2="386.4" y2="76.8"/>
			<line class="st6" x1="416.4" y1="-52.8" x2="386.4" y2="76.8"/>
			<line class="st7" x1="418.2" y1="-47.1" x2="390.6" y2="71.9"/>
			<line class="st7" x1="418.2" y1="-47.1" x2="390.6" y2="71.9"/>
			<line class="st7" x1="419.9" y1="-41.4" x2="394.8" y2="66.9"/>
			<line class="st7" x1="419.9" y1="-41.4" x2="394.8" y2="66.9"/>
			<line class="st7" x1="421.6" y1="-35.7" x2="399" y2="61.9"/>
			<line class="st7" x1="421.6" y1="-35.7" x2="399" y2="61.9"/>
			<line class="st7" x1="423.4" y1="-30" x2="403.2" y2="57"/>
			<line class="st7" x1="423.4" y1="-30" x2="403.2" y2="57"/>
			<line class="st7" x1="425.1" y1="-24.3" x2="407.4" y2="52"/>
			<line class="st7" x1="425.1" y1="-24.3" x2="407.4" y2="52"/>
			<line class="st7" x1="426.9" y1="-18.6" x2="411.6" y2="47.1"/>
			<line class="st7" x1="426.9" y1="-18.6" x2="411.6" y2="47.1"/>
			<line class="st7" x1="428.6" y1="-12.9" x2="415.9" y2="42.1"/>
			<line class="st7" x1="428.6" y1="-12.9" x2="415.9" y2="42.1"/>
			<line class="st7" x1="403.2" y1="-9.1" x2="370.7" y2="131.2"/>
			<line class="st7" x1="403.2" y1="-9.1" x2="370.7" y2="131.2"/>
			<line class="st7" x1="405" y1="-3.4" x2="374.9" y2="126.3"/>
			<line class="st7" x1="405" y1="-3.4" x2="374.9" y2="126.3"/>
			<line class="st7" x1="406.7" y1="2.3" x2="379.1" y2="121.3"/>
			<line class="st7" x1="406.7" y1="2.3" x2="379.1" y2="121.3"/>
			<line class="st7" x1="408.4" y1="8" x2="383.4" y2="116.3"/>
			<line class="st7" x1="408.4" y1="8" x2="383.4" y2="116.3"/>
			<polygon class="st8" points="262.6,85.7 240,183.4 335.9,154.1 262.6,85.7 240,183.4 335.9,154.1 			"/>
			<polygon class="st9" points="304.4,-31.6 279.3,76.7 385.7,44.3 304.4,-31.6 279.3,76.7 385.7,44.3 			"/>
			<line class="st7" x1="440.3" y1="25.6" x2="407.8" y2="165.9"/>
			<line class="st7" x1="440.3" y1="25.6" x2="407.8" y2="165.9"/>
			<line class="st7" x1="442.1" y1="31.3" x2="412" y2="160.9"/>
			<line class="st7" x1="442.1" y1="31.3" x2="412" y2="160.9"/>
			<polygon class="st10" points="283.3,89.8 269.1,151.2 329.4,132.8 283.3,89.8 269.1,151.2 329.4,132.8 			"/>
			<polygon class="st13" points="455.1,23.7 440.9,85.1 501.2,66.7 455.1,23.7 440.9,85.1 501.2,66.7 			"/>
			<path class="st12" d="M117.9,62.6c13.8-4.2,19.6,14.9,33.4,10.7s8-23.3,21.7-27.5s19.6,14.9,33.4,10.7s8-23.3,21.7-27.5
				s19.6,14.9,33.4,10.7"/>
			<line class="st6" x1="621.3" y1="-43.3" x2="540.1" y2="75.7"/>
			<line class="st6" x1="621.3" y1="-43.3" x2="540.1" y2="75.7"/>
			<line class="st6" x1="620.8" y1="-37.3" x2="545.8" y2="72.6"/>
			<line class="st6" x1="620.8" y1="-37.3" x2="545.8" y2="72.6"/>
			<line class="st6" x1="620.4" y1="-31.4" x2="551.5" y2="69.5"/>
			<line class="st6" x1="620.4" y1="-31.4" x2="551.5" y2="69.5"/>
			<line class="st6" x1="619.9" y1="-25.4" x2="557.2" y2="66.4"/>
			<line class="st6" x1="619.9" y1="-25.4" x2="557.2" y2="66.4"/>
			<line class="st6" x1="619.5" y1="-19.5" x2="563" y2="63.3"/>
			<line class="st6" x1="619.5" y1="-19.5" x2="563" y2="63.3"/>
			<line class="st6" x1="643.3" y1="2.5" x2="562.1" y2="121.4"/>
			<line class="st6" x1="643.3" y1="2.5" x2="562.1" y2="121.4"/>
			<line class="st6" x1="642.8" y1="8.4" x2="567.8" y2="118.3"/>
			<line class="st6" x1="642.8" y1="8.4" x2="567.8" y2="118.3"/>
			<line class="st7" x1="642.4" y1="14.3" x2="573.5" y2="115.2"/>
			<line class="st7" x1="642.4" y1="14.3" x2="573.5" y2="115.2"/>
			<line class="st7" x1="641.9" y1="20.3" x2="579.2" y2="112.1"/>
			<line class="st7" x1="641.9" y1="20.3" x2="579.2" y2="112.1"/>
			<line class="st7" x1="641.5" y1="26.2" x2="585" y2="109"/>
			<line class="st7" x1="641.5" y1="26.2" x2="585" y2="109"/>
			<line class="st7" x1="641" y1="32.2" x2="590.7" y2="105.9"/>
			<line class="st7" x1="641" y1="32.2" x2="590.7" y2="105.9"/>
			<line class="st7" x1="640.6" y1="38.1" x2="596.4" y2="102.8"/>
			<line class="st7" x1="640.6" y1="38.1" x2="596.4" y2="102.8"/>
			<line class="st7" x1="640.1" y1="44.1" x2="602.1" y2="99.8"/>
			<line class="st7" x1="640.1" y1="44.1" x2="602.1" y2="99.8"/>
			<line class="st7" x1="639.7" y1="50" x2="607.8" y2="96.7"/>
			<line class="st7" x1="639.7" y1="50" x2="607.8" y2="96.7"/>
			<line class="st7" x1="614.6" y1="44.4" x2="533.5" y2="163.3"/>
			<line class="st7" x1="614.6" y1="44.4" x2="533.5" y2="163.3"/>
			<line class="st7" x1="614.2" y1="50.3" x2="539.2" y2="160.2"/>
			<line class="st7" x1="614.2" y1="50.3" x2="539.2" y2="160.2"/>
			<line class="st7" x1="613.7" y1="56.3" x2="544.9" y2="157.1"/>
			<line class="st7" x1="613.7" y1="56.3" x2="544.9" y2="157.1"/>
			<line class="st7" x1="613.3" y1="62.2" x2="550.6" y2="154"/>
			<line class="st7" x1="613.3" y1="62.2" x2="550.6" y2="154"/>
			<polygon class="st8" points="449.2,81.7 392.7,164.5 492.7,172.1 449.2,81.7 392.7,164.5 492.7,172.1 			"/>
			<polygon class="st9" points="530.7,-12.5 468.1,79.4 578.9,87.7 530.7,-12.5 468.1,79.4 578.9,87.7 			"/>
			<line class="st7" x1="636.6" y1="90.1" x2="555.5" y2="209.1"/>
			<line class="st7" x1="636.6" y1="90.1" x2="555.5" y2="209.1"/>
			<line class="st7" x1="636.2" y1="96.1" x2="561.2" y2="206"/>
			<line class="st7" x1="636.2" y1="96.1" x2="561.2" y2="206"/>
			<polygon class="st10" points="467,93 431.5,145.1 494.4,149.8 467,93 431.5,145.1 494.4,149.8 			"/>
			<polygon class="st13" points="651.1,93.7 615.5,145.8 678.4,150.5 651.1,93.7 615.5,145.8 678.4,150.5 			"/>
			<polygon class="st8" points="554,16 518.5,68 581.4,72.8 554,16 518.5,68 581.4,72.8 			"/>
			<line class="st7" x1="260.3" y1="-68.7" x2="179.1" y2="50.3"/>
			<line class="st7" x1="260.3" y1="-68.7" x2="179.1" y2="50.3"/>
			<line class="st7" x1="259.9" y1="-62.7" x2="184.9" y2="47.2"/>
			<line class="st7" x1="259.9" y1="-62.7" x2="184.9" y2="47.2"/>
		</g>
	</g>
</g>
<path class="st8" d="M351.2,360c0-42.2-34.3-76.5-76.5-76.5s-76.5,34.3-76.5,76.5c0,0.7,0,1.3,0.1,2c0,0.7-0.1,1.3-0.1,2
	c0,42.2,34.3,76.5,76.5,76.5s76.5-34.3,76.5-76.5c0-0.7,0-1.3-0.1-2C351.1,361.3,351.2,360.6,351.2,360z"/>
<circle class="st10" cx="274.7" cy="356" r="73"/>
<circle class="st2" cx="274.7" cy="356" r="51.5"/>
<path class="st8" d="M607.8,360c0-42.2-34.3-76.5-76.5-76.5s-76.5,34.3-76.5,76.5c0,0.7,0,1.3,0.1,2c0,0.7-0.1,1.3-0.1,2
	c0,42.2,34.3,76.5,76.5,76.5s76.5-34.3,76.5-76.5c0-0.7,0-1.3-0.1-2C607.8,361.3,607.8,360.7,607.8,360z"/>
<circle class="st10" cx="531.3" cy="356" r="73"/>
<circle class="st2" cx="531.3" cy="356" r="51.5"/>
<path class="st8" d="M534.8,128c-0.5-3.2-3.2-5.6-6.5-5.6H277.7c-3.3,0-6.1,2.4-6.5,5.6c-0.1,0.7-0.1,1.4-0.1,2.1v127.4
	c0,8.9,7.2,16.1,16.1,16.1c0,0,0,0,0,0h231.6c8.9,0,16.1-7.2,16.1-16.1c0,0,0,0,0,0V130.1C535,129.4,534.9,128.7,534.8,128z"/>
<circle class="st2" cx="652.3" cy="244.8" r="94.3"/>
<circle class="st2" cx="153.7" cy="244.8" r="94.3"/>
<path class="st14" d="M230.4,254.1l9.5-8.9c0.5-0.4,0.5-1.2,0.1-1.6c0,0,0-0.1-0.1-0.1l-9.5-8.9c-0.4-0.4-1.2-0.4-1.6,0
	c-0.2,0.2-0.3,0.5-0.3,0.8v17.8c0,0.6,0.5,1.2,1.1,1.2C229.9,254.4,230.2,254.3,230.4,254.1z"/>
<path class="st14" d="M145,169.8h17.8c0.6,0,1.1-0.5,1.1-1.1c0-0.3-0.1-0.6-0.3-0.8l-8.9-9.5c-0.4-0.5-1.2-0.5-1.6-0.1
	c0,0-0.1,0-0.1,0.1l-8.9,9.5c-0.4,0.5-0.3,1.2,0.2,1.6C144.5,169.7,144.7,169.8,145,169.8z"/>
<path class="st14" d="M77.5,234.6l-9.5,8.9c-0.5,0.4-0.5,1.2-0.1,1.6c0,0,0,0.1,0.1,0.1l9.5,8.9c0.4,0.4,1.2,0.4,1.6,0
	c0.2-0.2,0.3-0.5,0.3-0.8v-17.8c0-0.6-0.4-1.2-1.1-1.2C78,234.3,77.7,234.4,77.5,234.6z"/>
<path class="st14" d="M162.8,318.8H145c-0.6,0-1.1,0.5-1.1,1.1c0,0.3,0.1,0.6,0.3,0.8l8.9,9.5c0.4,0.5,1.2,0.5,1.6,0.1
	c0,0,0.1,0,0.1-0.1l8.9-9.5c0.4-0.5,0.3-1.2-0.2-1.6C163.3,318.9,163.1,318.8,162.8,318.8z"/>
<path class="st15" d="M105.2,544.5c-40.5-2.8-75.8-20.3-87.3-30.5S0.4,482.4,0.4,482.4C0,497.4,0,508.7,0,508.7s4.5,53.4,36.2,74.9
	s56.7,14,56.7,14s33.1-8.2,57.8-41.9c5.3-7.6,10-15.5,14.1-23.8C164.7,531.9,145.6,547.2,105.2,544.5z"/>
<path class="st10" d="M105.2,544.5c-40.5-2.8-75.8-20.3-87.3-30.5S0.4,482.4,0.4,482.4C0,497.4,0,508.7,0,508.7s4.5,53.4,36.2,74.9
	s56.7,14,56.7,14s33.1-8.2,57.8-41.9c5.3-7.6,10-15.5,14.1-23.8C164.7,531.9,145.6,547.2,105.2,544.5z"/>
<path class="st16" d="M90,592.5c-12.5,1.8-31.3-2-45.1-7.7c-13.6-5.7-24-16.4-24-16.4c4.2,5.9,9.4,11,15.3,15.2
	c31.7,21.5,56.7,14,56.7,14s11.7-2.9,26.3-12.3C109.7,588.6,99.9,591,90,592.5z"/>
<path class="st15" d="M700.8,544.5c40.5-2.8,75.8-20.3,87.3-30.5s17.5-31.5,17.5-31.5c0.4,15,0.4,26.3,0.4,26.3s-4.5,53.4-36.2,74.9
	s-56.7,14-56.7,14s-33.1-8.2-57.8-41.9c-5.3-7.6-10-15.5-14.1-23.8C641.3,531.9,660.4,547.2,700.8,544.5z"/>
<path class="st10" d="M700.8,544.5c40.5-2.8,75.8-20.3,87.3-30.5s17.5-31.5,17.5-31.5c0.4,15,0.4,26.3,0.4,26.3s-4.5,53.4-36.2,74.9
	s-56.7,14-56.7,14s-33.1-8.2-57.8-41.9c-5.3-7.6-10-15.5-14.1-23.8C641.3,531.9,660.4,547.2,700.8,544.5z"/>
<path class="st16" d="M716,592.5c12.5,1.8,31.3-2,45.1-7.7c13.6-5.7,24-16.4,24-16.4c-4.2,5.9-9.4,11-15.3,15.2
	c-31.7,21.5-56.7,14-56.7,14s-11.7-2.9-26.3-12.3C696.3,588.6,706.1,591,716,592.5z"/>
<path class="st8" d="M240.5,143.5c6.9,0,12.5,5.6,12.5,12.5v18.3c0,6.9-5.6,12.5-12.5,12.5s-12.5-5.6-12.5-12.5V156
	C228,149.1,233.6,143.5,240.5,143.5 M240.5,141.8c-7.8,0-14.2,6.4-14.2,14.2v18.3c0,7.8,6.4,14.2,14.2,14.2
	c7.8,0,14.2-6.4,14.2-14.2V156C254.7,148.2,248.4,141.8,240.5,141.8C240.5,141.8,240.5,141.8,240.5,141.8z"/>
<path class="st10" d="M240.5,143.5c-6.9,0-12.5,5.6-12.5,12.5v18.3c0,6.9,5.6,12.5,12.5,12.5s12.5-5.6,12.5-12.5V156
	C253,149.1,247.4,143.5,240.5,143.5z"/>
<path class="st8" d="M565.5,143.5c6.9,0,12.5,5.6,12.5,12.5v18.3c0,6.9-5.6,12.5-12.5,12.5l0,0l0,0c-6.9,0-12.5-5.6-12.5-12.5l0,0
	V156C553,149.1,558.6,143.5,565.5,143.5L565.5,143.5 M565.5,141.8c-7.8,0-14.2,6.4-14.2,14.2v18.3c0,7.8,6.4,14.2,14.2,14.2
	s14.2-6.4,14.2-14.2l0,0V156C579.7,148.2,573.4,141.8,565.5,141.8C565.5,141.8,565.5,141.8,565.5,141.8z"/>
<path class="st10" d="M565.5,143.5c-6.9,0-12.5,5.6-12.5,12.5v18.3c0,6.9,5.6,12.5,12.5,12.5s12.5-5.6,12.5-12.5V156
	C578,149.1,572.4,143.5,565.5,143.5z"/>
<path class="st17" d="M141.2,247.2c1.4-2,1.2-2.9,1.2-2.9s0.2-0.9-1.2-2.9s-15-13.6-15.7-14s-28.5-2.2-31.4,1.3s-2.6,15.6-2.6,15.6
	s-0.3,12.1,2.6,15.6s30.7,1.7,31.4,1.3S139.8,249.2,141.2,247.2z"/>
<path class="st8" d="M141.2,247.2c1.4-2,1.2-2.9,1.2-2.9s0.2-0.9-1.2-2.9c-0.9-1.3-6.9-6.6-11.2-10.3c-2.2,4.1-3.4,8.6-3.4,13.2
	c0,4.6,1.1,9.2,3.4,13.2C134.3,253.8,140.3,248.5,141.2,247.2z"/>
<path class="st17" d="M151,231.6c2,1.4,2.9,1.2,2.9,1.2s0.9,0.2,2.9-1.2s13.6-15,14-15.7s2.2-28.5-1.3-31.4s-15.6-2.6-15.6-2.6
	s-12.1-0.3-15.6,2.6s-1.7,30.7-1.3,31.4S149,230.2,151,231.6z"/>
<path class="st8" d="M151,231.6c2,1.4,2.9,1.2,2.9,1.2s0.9,0.2,2.9-1.2c1.3-0.9,6.6-6.9,10.3-11.2c-4.1-2.2-8.6-3.4-13.2-3.4
	c-4.6,0-9.2,1.1-13.2,3.4C144.5,224.7,149.7,230.7,151,231.6z"/>
<path class="st17" d="M213.7,228.8c-2.9-3.5-30.7-1.7-31.4-1.3s-14.3,12-15.7,14s-1.2,2.9-1.2,2.9s-0.2,0.9,1.2,2.9s15,13.6,15.7,14
	s28.5,2.2,31.4-1.3s2.6-15.6,2.6-15.6S216.6,232.3,213.7,228.8z"/>
<path class="st8" d="M177.9,231.2c-4.3,3.7-10.3,9-11.2,10.3c-1.4,2-1.2,2.9-1.2,2.9s-0.2,0.9,1.2,2.9c0.9,1.3,6.9,6.6,11.2,10.3
	C182.4,249.4,182.4,239.4,177.9,231.2L177.9,231.2z"/>
<path class="st17" d="M156.8,257.1c-2-1.4-2.9-1.2-2.9-1.2s-0.9-0.2-2.9,1.2s-13.6,15-14,15.7s-2.2,28.5,1.3,31.4s15.6,2.6,15.6,2.6
	s12.1,0.3,15.6-2.6s1.7-30.7,1.3-31.4S158.8,258.5,156.8,257.1z"/>
<path class="st8" d="M156.8,257.1c-2-1.4-2.9-1.2-2.9-1.2s-0.9-0.2-2.9,1.2c-1.3,0.9-6.6,6.9-10.3,11.2c4.1,2.2,8.6,3.4,13.2,3.4
	c4.6,0,9.2-1.1,13.2-3.4C163.4,264,158.1,258,156.8,257.1z"/>
<g class="st18">
	<path class="st4" d="M403,319.5c-2.1,0-3.8-1.6-4.1-3.6c0,0.2-0.1,0.3-0.1,0.5c0,2.3,1.8,4.1,4.1,4.1s4.1-1.8,4.1-4.1
		c0-0.2,0-0.3-0.1-0.5C406.8,317.9,405.1,319.5,403,319.5z"/>
	<path class="st4" d="M403,299.6c2.2,0,4.1-1.8,4.1-4c0,0,0-0.1,0-0.1c0-0.2,0-0.3-0.1-0.5c-0.3,2.1-2,3.6-4.1,3.6
		c-2.1,0-3.8-1.6-4.1-3.6c0,0.2-0.1,0.3-0.1,0.5C398.9,297.8,400.7,299.5,403,299.6z"/>
	<path class="st4" d="M400.2,305.7c0-0.2,0-0.3-0.1-0.5c-0.3,2.1-2,3.6-4.1,3.6c-2.1,0-3.8-1.6-4.1-3.6c0,0.2-0.1,0.3-0.1,0.5
		c0,2.2,1.8,4.1,4,4.1c0,0,0.1,0,0.1,0C398.2,309.9,400.1,308.1,400.2,305.7C400.2,305.7,400.2,305.7,400.2,305.7z"/>
	<path class="st4" d="M385.4,305.2c-0.3,2.1-2,3.6-4.1,3.6c-2.1,0-3.8-1.6-4.1-3.6c0,0.2-0.1,0.3-0.1,0.5c0,2.3,1.8,4.1,4.1,4.1
		s4.1-1.8,4.1-4.1C385.5,305.5,385.5,305.4,385.4,305.2z"/>
	<path class="st4" d="M388.8,319.5c-2.1,0-3.8-1.6-4.1-3.6c0,0.2-0.1,0.3-0.1,0.5c0,2.3,1.8,4.1,4.1,4.1s4.1-1.8,4.1-4.1
		c0-0.2,0-0.3-0.1-0.5C392.6,317.9,390.9,319.5,388.8,319.5z"/>
	<path class="st4" d="M388.8,299.6c2.2,0,4.1-1.8,4.1-4c0,0,0-0.1,0-0.1c0-0.2,0-0.3-0.1-0.5c-0.3,2.1-2,3.6-4.1,3.6
		c-2.1,0-3.8-1.6-4.1-3.6c0,0.2-0.1,0.3-0.1,0.5C384.6,297.8,386.5,299.6,388.8,299.6z"/>
	<path class="st4" d="M378.6,295.5c0-0.2,0-0.3-0.1-0.5c-0.3,2.1-2,3.6-4.1,3.6c-2.1,0-3.8-1.6-4.1-3.6c0,0.2-0.1,0.3-0.1,0.5
		c0,2.2,1.8,4.1,4,4.1c0,0,0.1,0,0.1,0C376.6,299.6,378.5,297.8,378.6,295.5z"/>
	<path class="st4" d="M414,305.2c-0.3,2.1-2,3.6-4.1,3.6c-2.1,0-3.8-1.6-4.1-3.6c0,0.2-0.1,0.3-0.1,0.5c0,2.3,1.8,4.1,4.1,4.1
		s4.1-1.8,4.1-4.1C414.1,305.5,414,305.4,414,305.2z"/>
	<path class="st4" d="M424.6,308.8c-2.1,0-3.8-1.6-4.1-3.6c0,0.2-0.1,0.3-0.1,0.5c0,2.3,1.8,4.1,4.1,4.1s4.1-1.8,4.1-4.1
		c0-0.2,0-0.3-0.1-0.5C428.4,307.3,426.7,308.9,424.6,308.8C424.6,308.8,424.6,308.8,424.6,308.8z"/>
	<path class="st4" d="M417.3,319.5c-2.1,0-3.8-1.6-4.1-3.6c0,0.2-0.1,0.3-0.1,0.5c0,2.3,1.8,4.1,4.1,4.1s4.1-1.8,4.1-4.1
		c0-0.2,0-0.3-0.1-0.5C421.1,317.9,419.4,319.5,417.3,319.5z"/>
	<path class="st4" d="M417.3,299.6c2.2,0,4.1-1.8,4.1-4c0,0,0-0.1,0-0.1c0-0.2,0-0.3-0.1-0.5c-0.3,2.1-2,3.6-4.1,3.6
		c-2.1,0-3.8-1.6-4.1-3.6c0,0.2-0.1,0.3-0.1,0.5C413.1,297.8,415,299.6,417.3,299.6z"/>
	<path class="st4" d="M431.6,298.6c-2.1,0-3.8-1.6-4.1-3.6c0,0.2-0.1,0.3-0.1,0.5c0,2.3,1.8,4.1,4.1,4.1s4.1-1.8,4.1-4.1
		c0-0.2,0-0.3-0.1-0.5C435.4,297,433.7,298.6,431.6,298.6z"/>
</g>
<path class="st17" d="M436.6,421h-67.9c-2.8,0-4.6,0.6-4.6-2.2l0,0c0-2.8,2.2-5,5-5H437c2.8,0,5,2.2,5,5l0,0
	C442.1,421.5,439.4,421,436.6,421z"/>
<path class="st2" d="M408.3,418.8h-36.5c-0.5,0-0.9-0.4-0.9-0.9l0,0c0-1.1,0.9-2,2-2h34.2c1.1,0,2,0.9,2,2l0,0
	c0.1,0.4-0.2,0.8-0.6,0.9C408.4,418.8,408.4,418.8,408.3,418.8z"/>
<path class="st2" d="M430.5,419.6h-4.2c-0.9,0-1.7-0.8-1.7-1.7l0,0c0-1.5,1.3-2.8,2.8-2.8h1.9c1.5,0,2.8,1.3,2.8,2.8l0,0
	c0.1,0.8-0.5,1.6-1.3,1.7C430.7,419.6,430.6,419.6,430.5,419.6z"/>
<path class="st10" d="M530.4,124.3c0-1-0.9-1.9-1.9-1.9l0,0H277.4c-1,0-1.9,0.9-1.9,1.9v129.2c0,8.6,7,15.6,15.6,15.6h223.8
	c8.6,0,15.6-7,15.6-15.6V130.4L530.4,124.3z"/>
<g class="st18">
	<pattern  id="SVGID_4_" xlink:href="#SVGID_2_" patternTransform="matrix(0.1 0 0 -0.1 -34827.668 -13168.5996)"  class="st18">
	</pattern>
	<path class="st19" d="M275.5,253.5c0,8.6,7,15.6,15.6,15.6h223.8c8.6,0,15.6-7,15.6-15.6V147h-255V253.5z"/>
</g>
<path class="st10" d="M709.9,271c-14.5,0-26.3-11.8-26.3-26.3s11.8-26.3,26.3-26.3c14.5,0,26.3,11.8,26.3,26.3l0,0
	C736.2,259.2,724.4,271,709.9,271z"/>
<path class="st8" d="M709.9,219.5c13.9,0,25.2,11.4,25.2,25.3c0,13.9-11.4,25.2-25.3,25.2c-13.9,0-25.2-11.4-25.2-25.3
	C684.7,230.8,696,219.5,709.9,219.5 M709.9,217.5c-15.1,0-27.3,12.2-27.3,27.3c0,15.1,12.2,27.3,27.3,27.3
	c15.1,0,27.3-12.2,27.3-27.3c0,0,0,0,0,0C737.2,229.7,725,217.5,709.9,217.5z"/>
<path class="st2" d="M709.9,225.9c-10.4,0-18.9,8.5-18.9,18.9s8.5,18.9,18.9,18.9c10.4,0,18.9-8.5,18.9-18.9
	C728.8,234.4,720.3,225.9,709.9,225.9z M709.9,260.8c-8.8,0-16-7.2-16-16s7.2-16,16-16s16,7.2,16,16S718.7,260.8,709.9,260.8z"/>
<path class="st10" d="M652.3,328.6c-14.5,0-26.3-11.8-26.3-26.3s11.8-26.3,26.3-26.3s26.3,11.8,26.3,26.3c0,0,0,0,0,0
	C678.6,316.8,666.8,328.6,652.3,328.6z"/>
<path class="st8" d="M652.3,277.1c14,0,25.3,11.3,25.3,25.3s-11.3,25.3-25.3,25.3c-14,0-25.3-11.3-25.3-25.3v0
	C627,288.4,638.3,277.1,652.3,277.1 M652.3,275.1c-15.1,0-27.3,12.2-27.3,27.3s12.2,27.3,27.3,27.3c15.1,0,27.3-12.2,27.3-27.3v0
	C679.6,287.3,667.4,275.1,652.3,275.1z"/>
<polygon class="st2" points="666.7,290 664.7,288 652.3,300.4 640,288 638,290 650.3,302.4 638,314.7 640,316.7 652.3,304.4 
	664.7,316.7 666.7,314.7 654.3,302.4 "/>
<path class="st10" d="M594.8,271c-14.5,0-26.3-11.8-26.3-26.3s11.8-26.3,26.3-26.3c14.5,0,26.3,11.8,26.3,26.3l0,0
	C621.1,259.2,609.3,271,594.8,271z"/>
<path class="st8" d="M594.7,219.5c13.9,0,25.2,11.4,25.2,25.3c0,13.9-11.4,25.2-25.3,25.2c-13.9,0-25.2-11.4-25.2-25.3
	C569.5,230.8,580.8,219.5,594.7,219.5 M594.7,217.5c-15.1,0-27.3,12.2-27.3,27.3c0,15.1,12.2,27.3,27.3,27.3
	c15.1,0,27.3-12.2,27.3-27.3c0,0,0,0,0,0C622,229.7,609.8,217.5,594.7,217.5z"/>
<path class="st2" d="M606.3,230.4h-25.8V259h28.6v-28.6H606.3z M606.3,256.3h-23v-23h23V256.3z"/>
<path class="st10" d="M652.3,213.5c-14.5,0-26.3-11.8-26.3-26.3s11.8-26.3,26.3-26.3c14.5,0,26.3,11.8,26.3,26.3l0,0
	C678.6,201.7,666.8,213.5,652.3,213.5z"/>
<path class="st8" d="M652.3,162c14,0,25.3,11.3,25.3,25.3s-11.3,25.3-25.3,25.3c-14,0-25.3-11.3-25.3-25.3c0,0,0,0,0,0
	C627,173.3,638.3,162,652.3,162 M652.3,160c-15.1,0-27.3,12.2-27.3,27.3s12.2,27.3,27.3,27.3c15.1,0,27.3-12.2,27.3-27.3
	c0,0,0,0,0,0C679.6,172.2,667.4,160,652.3,160z"/>
<path class="st2" d="M668.3,195.2l-16-27.6l-16,27.6l-1.6,2.8h35.2L668.3,195.2z M652.3,195.2h-12.7l12.7-21.9l12.7,21.9H652.3z"/>
<path class="st8" d="M697.2,109.9c0-0.8-0.4-1.5-1.1-1.9c-4.5-2.9-23.4-13.6-51.5-13.6c-26.9,0-41.1,5.9-45.1,8
	c-0.7,0.4-1.2,1.2-1.2,2c0,0,9.8-2.9,47.5-2.9S697.2,109.9,697.2,109.9z"/>
<path class="st10" d="M697.1,116.8L697.1,116.8v-6.9c0,0-13.7-8.4-51.4-8.4s-47.5,2.9-47.5,2.9v11l0,0c7.7-1.3,21.2-2.6,44.1-2.6
	C670.8,112.9,688.2,115.2,697.1,116.8z"/>
<path class="st8" d="M108.8,109.9c0-0.8,0.4-1.5,1.1-1.9c4.5-2.9,23.4-13.6,51.5-13.6c26.9,0,41.1,5.9,45.1,8c0.7,0.4,1.2,1.2,1.2,2
	c0,0-9.8-2.9-47.5-2.9S108.8,109.9,108.8,109.9z"/>
<path class="st10" d="M108.9,116.8L108.9,116.8v-6.9c0,0,13.7-8.4,51.4-8.4s47.5,2.9,47.5,2.9v11l0,0c-7.7-1.3-21.2-2.6-44.1-2.6
	C135.2,112.9,117.8,115.2,108.9,116.8z"/>
<path class="st10" d="M697.2,90.8c0,0-32.7-3.2-50.6-3.2S598.2,90,598.2,90s3.1-44.7,4.8-52s7.7-21.3,16.9-27.9S631.8,0,642.6,0
	s25.4,6.4,34.6,21.4S697.2,90.8,697.2,90.8z"/>
<path class="st8" d="M598.7,83.2c0,0,26.1-4.4,49-4.4s47.9,4.4,47.9,4.4c1,4.7,1.6,7.6,1.6,7.6s-32.7-3.2-50.6-3.2
	S598.2,90,598.2,90S598.4,87.3,598.7,83.2z"/>
<path class="st10" d="M108.8,90.8c0,0,32.7-3.2,50.6-3.2s48.3,2.4,48.3,2.4s-3.1-44.7-4.8-52s-7.7-21.3-16.9-27.9S174.2,0,163.4,0
	S138,6.4,128.8,21.4S108.8,90.8,108.8,90.8z"/>
<path class="st8" d="M207.3,83.2c0,0-26.1-4.4-49-4.4s-47.9,4.4-47.9,4.4c-1,4.7-1.6,7.6-1.6,7.6s32.7-3.2,50.6-3.2
	s48.3,2.4,48.3,2.4S207.6,87.3,207.3,83.2z"/>
</svg>
