<?xml version="1.0" encoding="utf-8"?>
<!-- Generator: Adobe Illustrator 22.1.0, SVG Export Plug-In . SVG Version: 6.00 Build 0)  -->
<svg version="1.1" id="Layer_1" xmlns="http://www.w3.org/2000/svg" xmlns:xlink="http://www.w3.org/1999/xlink" x="0px" y="0px" width="286px" height="94px"
	 viewBox="0 0 286 94" style="enable-background:new 0 0 286 94;" xml:space="preserve">
<style type="text/css">
	.st0{fill:#11CBD2;}
	.st1{fill:#0FB7BD;}
	.st2{fill:#F7F7F7;}
	.st3{fill:#E3E3E3;}
	.st4{clip-path:url(#SVGID_2_);fill:#F7F7F7;}
	.st5{clip-path:url(#SVGID_4_);fill:#F7F7F7;}
	.st6{clip-path:url(#SVGID_6_);fill:#11CBD2;}
	.st7{clip-path:url(#SVGID_8_);fill:#11CBD2;}
	.st8{clip-path:url(#SVGID_10_);fill:#11CBD2;}
	.st9{clip-path:url(#SVGID_12_);fill:#11CBD2;}
</style>
<g>
	<g>
		<path class="st0" d="M47,92.5C21.9,92.5,1.5,72.1,1.5,47S21.9,1.5,47,1.5S92.5,21.9,92.5,47S72.1,92.5,47,92.5z"/>
		<path class="st1" d="M47,3c24.3,0,44,19.7,44,44S71.3,91,47,91S3,71.3,3,47S22.7,3,47,3 M47,0C21,0,0,21,0,47s21,47,47,47
			s47-21,47-47S73,0,47,0L47,0z"/>
	</g>
	<circle class="st0" cx="47" cy="47" r="27.3"/>
</g>
<g>
	<g>
		<path class="st2" d="M239,92.5c-25.1,0-45.5-20.4-45.5-45.5S213.9,1.5,239,1.5s45.5,20.4,45.5,45.5S264.1,92.5,239,92.5z"/>
		<path class="st3" d="M239,3c24.3,0,44,19.7,44,44s-19.7,44-44,44s-44-19.7-44-44S214.7,3,239,3 M239,0c-26,0-47,21-47,47
			s21,47,47,47s47-21,47-47S265,0,239,0L239,0z"/>
	</g>
	<ellipse transform="matrix(0.4996 -0.8663 0.8663 0.4996 78.877 230.5404)" class="st2" cx="239" cy="47" rx="27.3" ry="27.3"/>
</g>
<g>
	<g>
		<path class="st2" d="M143,92.5c-25.1,0-45.5-20.4-45.5-45.5S117.9,1.5,143,1.5s45.5,20.4,45.5,45.5S168.1,92.5,143,92.5z"/>
		<path class="st3" d="M143,3c24.3,0,44,19.7,44,44s-19.7,44-44,44S99,71.3,99,47S118.7,3,143,3 M143,0c-26,0-47,21-47,47
			s21,47,47,47s47-21,47-47S169,0,143,0L143,0z"/>
	</g>
	<circle class="st2" cx="143" cy="47" r="27.3"/>
</g>
<g>
	<g>
		<g>
			<g>
				<g>
					<defs>
						<rect id="SVGID_1_" x="-1" y="-1" width="96" height="96"/>
					</defs>
					<clipPath id="SVGID_2_">
						<use xlink:href="#SVGID_1_"  style="overflow:visible;"/>
					</clipPath>
					<path class="st4" d="M80,74H14L47,4.6L80,74z M20.5,69.8h53L47,14.2L20.5,69.8z"/>
				</g>
			</g>
		</g>
		<g>
			<g>
				<g>
					<defs>
						<rect id="SVGID_3_" x="-1" y="-1" width="96" height="96"/>
					</defs>
					<clipPath id="SVGID_4_">
						<use xlink:href="#SVGID_3_"  style="overflow:visible;"/>
					</clipPath>
					<polygon class="st5" points="49.2,27.1 44.1,27.1 29,61.8 31.5,65.7 33.3,65.7 35.7,60.2 35.7,60.2 42.8,44 43,43.5 46.7,35.1 
						57.6,60.2 41.1,60.2 38.7,65.7 61.9,65.7 64.4,61.8 					"/>
				</g>
			</g>
		</g>
		<g>
			<g>
				<g>
					<g>
						<g>
							<defs>
								<rect id="SVGID_5_" x="191" y="-1" width="96" height="96"/>
							</defs>
							<clipPath id="SVGID_6_">
								<use xlink:href="#SVGID_5_"  style="overflow:visible;"/>
							</clipPath>
							<path class="st6" d="M272,74h-66l33-69.4L272,74z M212.5,69.8h53L239,14.2L212.5,69.8z"/>
						</g>
					</g>
				</g>
				<g>
					<g>
						<g>
							<defs>
								<rect id="SVGID_7_" x="191" y="-1" width="96" height="96"/>
							</defs>
							<clipPath id="SVGID_8_">
								<use xlink:href="#SVGID_7_"  style="overflow:visible;"/>
							</clipPath>
							<polygon class="st7" points="241.2,27.1 236.1,27.1 221,61.8 223.5,65.7 225.3,65.7 227.7,60.2 227.7,60.2 234.8,44 
								235,43.5 238.7,35.1 249.6,60.2 233.1,60.2 230.7,65.7 253.9,65.7 256.4,61.8 							"/>
						</g>
					</g>
				</g>
				<g>
					<g>
						<g>
							<g>
								<g>
									<defs>
										<rect id="SVGID_9_" x="95" y="-1" width="96" height="96"/>
									</defs>
									<clipPath id="SVGID_10_">
										<use xlink:href="#SVGID_9_"  style="overflow:visible;"/>
									</clipPath>
									<path class="st8" d="M176,74h-66l33-69.4L176,74z M116.5,69.8h53L143,14.2L116.5,69.8z"/>
								</g>
							</g>
						</g>
						<g>
							<g>
								<g>
									<defs>
										<rect id="SVGID_11_" x="95" y="-1" width="96" height="96"/>
									</defs>
									<clipPath id="SVGID_12_">
										<use xlink:href="#SVGID_11_"  style="overflow:visible;"/>
									</clipPath>
									<polygon class="st9" points="145.2,27.1 140.1,27.1 125,61.8 127.5,65.7 129.3,65.7 131.7,60.2 131.7,60.2 138.8,44 
										139,43.5 142.7,35.1 153.6,60.2 137.1,60.2 134.7,65.7 157.9,65.7 160.4,61.8 									"/>
								</g>
							</g>
						</g>
					</g>
				</g>
			</g>
		</g>
	</g>
</g>
</svg>
