<?xml version="1.0" encoding="utf-8"?>
<!-- Generator: Adobe Illustrator 22.1.0, SVG Export Plug-In . SVG Version: 6.00 Build 0)  -->
<svg version="1.1" id="Layer_1" xmlns="http://www.w3.org/2000/svg" xmlns:xlink="http://www.w3.org/1999/xlink" x="0px" y="0px" width="286px" height="94px"
	 viewBox="0 0 286 94" style="enable-background:new 0 0 286 94;" xml:space="preserve">
<style type="text/css">
	.st0{fill:#11CBD2;}
	.st1{fill:#F7F7F7;}
	.st2{clip-path:url(#SVGID_2_);fill:#F7F7F7;}
	.st3{clip-path:url(#SVGID_4_);fill:#F7F7F7;}
	.st4{clip-path:url(#SVGID_6_);}
	.st5{clip-path:url(#SVGID_8_);fill:#F7F7F7;}
	.st6{clip-path:url(#SVGID_10_);fill:#11CBD2;}
	.st7{clip-path:url(#SVGID_12_);fill:#11CBD2;}
	.st8{clip-path:url(#SVGID_14_);}
	.st9{clip-path:url(#SVGID_16_);fill:#11CBD2;}
	.st10{clip-path:url(#SVGID_18_);fill:#11CBD2;}
	.st11{clip-path:url(#SVGID_20_);fill:#11CBD2;}
	.st12{clip-path:url(#SVGID_22_);}
	.st13{clip-path:url(#SVGID_24_);fill:#11CBD2;}
</style>
<g>
	<g>
		<path class="st0" d="M47,92.5C21.9,92.5,1.5,72.1,1.5,47S21.9,1.5,47,1.5S92.5,21.9,92.5,47S72.1,92.5,47,92.5z"/>
		<path class="st0" d="M47,3c24.3,0,44,19.7,44,44S71.3,91,47,91S3,71.3,3,47S22.7,3,47,3 M47,0C21,0,0,21,0,47s21,47,47,47
			s47-21,47-47S73,0,47,0L47,0z"/>
	</g>
	<circle class="st0" cx="47" cy="47" r="27.3"/>
</g>
<g>
	<g>
		<path class="st1" d="M239,92.5c-25.1,0-45.5-20.4-45.5-45.5S213.9,1.5,239,1.5s45.5,20.4,45.5,45.5S264.1,92.5,239,92.5z"/>
		<path class="st1" d="M239,3c24.3,0,44,19.7,44,44s-19.7,44-44,44s-44-19.7-44-44S214.7,3,239,3 M239,0c-26,0-47,21-47,47
			s21,47,47,47s47-21,47-47S265,0,239,0L239,0z"/>
	</g>
	<ellipse transform="matrix(0.3417 -0.9398 0.9398 0.3417 113.1437 255.5513)" class="st1" cx="239" cy="47" rx="27.3" ry="27.3"/>
</g>
<g>
	<g>
		<path class="st1" d="M143,92.5c-25.1,0-45.5-20.4-45.5-45.5S117.9,1.5,143,1.5s45.5,20.4,45.5,45.5S168.1,92.5,143,92.5z"/>
		<path class="st1" d="M143,3c24.3,0,44,19.7,44,44s-19.7,44-44,44S99,71.3,99,47S118.7,3,143,3 M143,0c-26,0-47,21-47,47
			s21,47,47,47s47-21,47-47S169,0,143,0L143,0z"/>
	</g>
	<circle class="st1" cx="143" cy="47" r="27.3"/>
</g>
<g>
	<g>
		<g>
			<g>
				<defs>
					<rect id="SVGID_1_" x="-1" y="-1" width="96" height="96"/>
				</defs>
				<clipPath id="SVGID_2_">
					<use xlink:href="#SVGID_1_"  style="overflow:visible;"/>
				</clipPath>
				<path class="st2" d="M80,74H14L47,4.6L80,74z M20.5,69.8h53L47,14.2L20.5,69.8z"/>
			</g>
		</g>
		<g>
			<g>
				<defs>
					<rect id="SVGID_3_" x="-1" y="-1" width="96" height="96"/>
				</defs>
				<clipPath id="SVGID_4_">
					<use xlink:href="#SVGID_3_"  style="overflow:visible;"/>
				</clipPath>
				<polygon class="st3" points="49.2,27.1 44.1,27.1 29,61.8 31.5,65.7 33.3,65.7 35.7,60.2 35.7,60.2 42.8,44 43,43.5 46.7,35.1 
					57.6,60.2 41.1,60.2 38.7,65.7 61.9,65.7 64.4,61.8 				"/>
			</g>
		</g>
		<g>
			<g>
				<defs>
					<rect id="SVGID_5_" x="-5" y="-5" width="104" height="104"/>
				</defs>
				<clipPath id="SVGID_6_">
					<use xlink:href="#SVGID_5_"  style="overflow:visible;"/>
				</clipPath>
				<g class="st4">
					<g>
						<g>
							<defs>
								<rect id="SVGID_7_" x="-5" y="-5" width="104" height="104"/>
							</defs>
							<clipPath id="SVGID_8_">
								<use xlink:href="#SVGID_7_"  style="overflow:visible;"/>
							</clipPath>
							<path class="st5" d="M47,94.2c-6.5,0-12.7-1.2-18.6-3.6c-5.8-2.2-11-5.6-15.4-9.8C8.5,76.6,5,71.5,2.5,66
								c-2.6-5.9-3.9-12-3.9-18.4S-0.1,34.9,2.5,29c2.5-5.6,6-10.7,10.4-15.2C17.3,9.5,22.5,6,28.3,3.6c6-2.5,12.3-3.8,18.7-3.8
								s12.7,1.3,18.6,3.8c5.8,2.3,11,5.8,15.4,10.1c4.4,4.4,8,9.5,10.4,15.2c2.6,5.9,3.9,12.1,3.9,18.6c0,6.4-1.3,12.7-3.9,18.4
								c-2.5,5.5-6,10.6-10.5,14.8c-4.4,4.2-9.6,7.6-15.4,9.9C59.8,93,53.5,94.2,47,94.2 M47,2.9c-24.9,0-45.2,20-45.2,44.5
								c0,24,20.3,43.7,45.2,43.7s45.2-19.6,45.2-43.7C92.2,22.9,71.9,2.9,47,2.9"/>
						</g>
					</g>
				</g>
			</g>
		</g>
	</g>
</g>
<g>
	<g>
		<g>
			<g>
				<defs>
					<rect id="SVGID_9_" x="191" y="-1" width="96" height="96"/>
				</defs>
				<clipPath id="SVGID_10_">
					<use xlink:href="#SVGID_9_"  style="overflow:visible;"/>
				</clipPath>
				<path class="st6" d="M272,74h-66l33-69.4L272,74z M212.5,69.8h53L239,14.2L212.5,69.8z"/>
			</g>
		</g>
		<g>
			<g>
				<defs>
					<rect id="SVGID_11_" x="191" y="-1" width="96" height="96"/>
				</defs>
				<clipPath id="SVGID_12_">
					<use xlink:href="#SVGID_11_"  style="overflow:visible;"/>
				</clipPath>
				<polygon class="st7" points="241.2,27.1 236.1,27.1 221,61.8 223.5,65.7 225.3,65.7 227.7,60.2 227.7,60.2 234.8,44 235,43.5 
					238.7,35.1 249.6,60.2 233.1,60.2 230.7,65.7 253.9,65.7 256.4,61.8 				"/>
			</g>
		</g>
		<g>
			<g>
				<defs>
					<rect id="SVGID_13_" x="187" y="-5" width="104" height="104"/>
				</defs>
				<clipPath id="SVGID_14_">
					<use xlink:href="#SVGID_13_"  style="overflow:visible;"/>
				</clipPath>
				<g class="st8">
					<g>
						<g>
							<defs>
								<rect id="SVGID_15_" x="186" y="-9" width="104" height="104"/>
							</defs>
							<clipPath id="SVGID_16_">
								<use xlink:href="#SVGID_15_"  style="overflow:visible;"/>
							</clipPath>
							<path class="st9" d="M239,94.2c-6.5,0-12.7-1.2-18.6-3.6c-5.8-2.2-11-5.6-15.4-9.8c-4.5-4.2-8-9.3-10.5-14.8
								c-2.6-5.9-3.9-12-3.9-18.4s1.3-12.7,3.9-18.6c2.5-5.6,6-10.7,10.4-15.2c4.4-4.3,9.6-7.8,15.4-10.2c6-2.5,12.3-3.8,18.7-3.8
								c6.4,0,12.7,1.3,18.6,3.8c5.8,2.3,11,5.8,15.4,10.1c4.4,4.4,8,9.5,10.4,15.2c2.6,5.9,3.9,12.1,3.9,18.6
								c0,6.4-1.3,12.7-3.9,18.4c-2.5,5.5-6,10.6-10.5,14.8c-4.4,4.2-9.6,7.6-15.4,9.9C251.8,93,245.5,94.2,239,94.2 M239,2.9
								c-24.9,0-45.2,20-45.2,44.5c0,24,20.3,43.7,45.2,43.7s45.2-19.6,45.2-43.7C284.2,22.9,263.9,2.9,239,2.9"/>
						</g>
					</g>
				</g>
			</g>
		</g>
	</g>
</g>
<g>
	<g>
		<g>
			<g>
				<defs>
					<rect id="SVGID_17_" x="95" y="-1" width="96" height="96"/>
				</defs>
				<clipPath id="SVGID_18_">
					<use xlink:href="#SVGID_17_"  style="overflow:visible;"/>
				</clipPath>
				<path class="st10" d="M176,74h-66l33-69.4L176,74z M116.5,69.8h53L143,14.2L116.5,69.8z"/>
			</g>
		</g>
		<g>
			<g>
				<defs>
					<rect id="SVGID_19_" x="95" y="-1" width="96" height="96"/>
				</defs>
				<clipPath id="SVGID_20_">
					<use xlink:href="#SVGID_19_"  style="overflow:visible;"/>
				</clipPath>
				<polygon class="st11" points="145.2,27.1 140.1,27.1 125,61.8 127.5,65.7 129.3,65.7 131.7,60.2 131.7,60.2 138.8,44 139,43.5 
					142.7,35.1 153.6,60.2 137.1,60.2 134.7,65.7 157.9,65.7 160.4,61.8 				"/>
			</g>
		</g>
		<g>
			<g>
				<defs>
					<rect id="SVGID_21_" x="91" y="-5" width="104" height="104"/>
				</defs>
				<clipPath id="SVGID_22_">
					<use xlink:href="#SVGID_21_"  style="overflow:visible;"/>
				</clipPath>
				<g class="st12">
					<g>
						<g>
							<defs>
								<rect id="SVGID_23_" x="90" y="-9" width="104" height="104"/>
							</defs>
							<clipPath id="SVGID_24_">
								<use xlink:href="#SVGID_23_"  style="overflow:visible;"/>
							</clipPath>
							<path class="st13" d="M143,94.2c-6.5,0-12.7-1.2-18.6-3.6c-5.8-2.2-11-5.6-15.4-9.8c-4.5-4.2-8-9.3-10.5-14.8
								c-2.6-5.9-3.9-12-3.9-18.4s1.3-12.7,3.9-18.6c2.5-5.6,6-10.7,10.4-15.2c4.4-4.3,9.6-7.8,15.4-10.2c6-2.5,12.3-3.8,18.7-3.8
								s12.7,1.3,18.6,3.8c5.8,2.3,11,5.8,15.4,10.1c4.4,4.4,8,9.5,10.4,15.2c2.6,5.9,3.9,12.1,3.9,18.6c0,6.4-1.3,12.7-3.9,18.4
								c-2.5,5.5-6,10.6-10.5,14.8c-4.4,4.2-9.6,7.6-15.4,9.9C155.8,93,149.5,94.2,143,94.2 M143,2.9c-24.9,0-45.2,20-45.2,44.5
								c0,24,20.3,43.7,45.2,43.7s45.2-19.6,45.2-43.7C188.2,22.9,167.9,2.9,143,2.9"/>
						</g>
					</g>
				</g>
			</g>
		</g>
	</g>
</g>
</svg>
