<?xml version="1.0" encoding="utf-8"?>
<!-- Generator: Adobe Illustrator 22.1.0, SVG Export Plug-In . SVG Version: 6.00 Build 0)  -->
<svg version="1.1" id="Layer_1" xmlns="http://www.w3.org/2000/svg" xmlns:xlink="http://www.w3.org/1999/xlink" x="0px" y="0px" width="286px" height="94px"
	 viewBox="0 0 286 94" style="enable-background:new 0 0 286 94;" xml:space="preserve">
<style type="text/css">
	.st0{fill:#0FB7BD;}
	.st1{fill:#11CBD2;}
	.st2{fill:#F7F7F7;}
	.st3{clip-path:url(#SVGID_2_);fill:#F7F7F7;}
	.st4{clip-path:url(#SVGID_2_);}
	.st5{clip-path:url(#SVGID_4_);fill:#F7F7F7;}
	.st6{clip-path:url(#SVGID_6_);fill:#11CBD2;}
	.st7{clip-path:url(#SVGID_6_);}
	.st8{clip-path:url(#SVGID_8_);fill:#11CBD2;}
	.st9{clip-path:url(#SVGID_10_);fill:#11CBD2;}
	.st10{clip-path:url(#SVGID_10_);}
	.st11{clip-path:url(#SVGID_12_);fill:#11CBD2;}
</style>
<g>
	<g>
		<path class="st0" d="M47,92.5C21.9,92.5,1.5,72.1,1.5,47S21.9,1.5,47,1.5S92.5,21.9,92.5,47S72.1,92.5,47,92.5z"/>
		<path class="st1" d="M47,3c24.3,0,44,19.7,44,44S71.3,91,47,91S3,71.3,3,47S22.7,3,47,3 M47,0C21,0,0,21,0,47s21,47,47,47
			s47-21,47-47S73,0,47,0L47,0z"/>
	</g>
	<circle class="st0" cx="47" cy="47" r="27.3"/>
</g>
<g>
	<g>
		<path class="st2" d="M239,92.5c-25.1,0-45.5-20.4-45.5-45.5S213.9,1.5,239,1.5s45.5,20.4,45.5,45.5S264.1,92.5,239,92.5z"/>
		<path class="st2" d="M239,3c24.3,0,44,19.7,44,44s-19.7,44-44,44s-44-19.7-44-44S214.7,3,239,3 M239,0c-26,0-47,21-47,47
			s21,47,47,47s47-21,47-47S265,0,239,0L239,0z"/>
	</g>
	<circle class="st2" cx="239" cy="47" r="27.3"/>
</g>
<g>
	<g>
		<path class="st2" d="M143,92.5c-25.1,0-45.5-20.4-45.5-45.5S117.9,1.5,143,1.5s45.5,20.4,45.5,45.5S168.1,92.5,143,92.5z"/>
		<path class="st2" d="M143,3c24.3,0,44,19.7,44,44s-19.7,44-44,44S99,71.3,99,47S118.7,3,143,3 M143,0c-26,0-47,21-47,47
			s21,47,47,47s47-21,47-47S169,0,143,0L143,0z"/>
	</g>
	<circle class="st2" cx="143" cy="47" r="27.3"/>
</g>
<g>
	<g>
		<defs>
			<rect id="SVGID_1_" x="-1" y="-1" width="96" height="96"/>
		</defs>
		<clipPath id="SVGID_2_">
			<use xlink:href="#SVGID_1_"  style="overflow:visible;"/>
		</clipPath>
		<path class="st3" d="M80,74H14L47,4.6L80,74z M20.5,69.8h53L47,14.2L20.5,69.8z"/>
		<polygon class="st3" points="49.2,27.1 44.1,27.1 29,61.8 31.5,65.7 33.3,65.7 35.7,60.2 35.7,60.2 42.8,44 43,43.5 46.7,35.1 
			57.6,60.2 41.1,60.2 38.7,65.7 61.9,65.7 64.4,61.8 		"/>
		<g class="st4">
			<defs>
				<rect id="SVGID_3_" x="-1" y="-1" width="96" height="96"/>
			</defs>
			<clipPath id="SVGID_4_">
				<use xlink:href="#SVGID_3_"  style="overflow:visible;"/>
			</clipPath>
			<path class="st5" d="M47,90.6c-6,0-11.7-1.1-17.2-3.3c-5.3-2.1-10.1-5.2-14.2-9.1c-4.1-3.9-7.4-8.6-9.7-13.7
				c-2.4-5.4-3.6-11.1-3.6-17c0-5.9,1.2-11.7,3.6-17.2c2.3-5.2,5.5-9.9,9.6-14c4.1-4,8.9-7.2,14.2-9.4C35.3,4.6,41.1,3.4,47,3.4
				s11.7,1.2,17.2,3.5c5.3,2.2,10.1,5.4,14.2,9.4c4.1,4.1,7.4,8.8,9.6,14c2.4,5.4,3.6,11.2,3.6,17.2c0,5.9-1.2,11.7-3.6,17
				c-2.3,5.1-5.5,9.8-9.7,13.7c-4.1,3.9-8.9,7-14.2,9.1C58.8,89.5,53,90.6,47,90.6 M47,6.3C24,6.3,5.3,24.8,5.3,47.4
				C5.3,69.6,24,87.7,47,87.7c23,0,41.7-18.1,41.7-40.3C88.7,24.8,70,6.3,47,6.3"/>
		</g>
	</g>
</g>
<g>
	<g>
		<defs>
			<rect id="SVGID_5_" x="95" y="-1" width="96" height="96"/>
		</defs>
		<clipPath id="SVGID_6_">
			<use xlink:href="#SVGID_5_"  style="overflow:visible;"/>
		</clipPath>
		<path class="st6" d="M176,74h-66l33-69.3L176,74z M116.5,69.8h53L143,14.2L116.5,69.8z"/>
		<polygon class="st6" points="145.2,27.1 140.1,27.1 125,61.8 127.5,65.7 129.3,65.7 131.7,60.2 131.7,60.2 138.8,44 139,43.5 
			142.7,35.1 153.6,60.2 137.1,60.2 134.7,65.7 157.9,65.7 160.4,61.8 		"/>
		<g class="st7">
			<defs>
				<rect id="SVGID_7_" x="95" y="-1" width="96" height="96"/>
			</defs>
			<clipPath id="SVGID_8_">
				<use xlink:href="#SVGID_7_"  style="overflow:visible;"/>
			</clipPath>
			<path class="st8" d="M143,90.6c-6,0-11.7-1.1-17.2-3.3c-5.3-2.1-10.1-5.2-14.2-9.1c-4.1-3.9-7.4-8.6-9.7-13.7
				c-2.4-5.4-3.6-11.1-3.6-17c0-5.9,1.2-11.7,3.6-17.2c2.3-5.2,5.5-9.9,9.6-14c4.1-4,8.9-7.2,14.2-9.4c5.5-2.3,11.3-3.5,17.2-3.5
				c5.9,0,11.7,1.2,17.2,3.5c5.3,2.2,10.1,5.4,14.2,9.4c4.1,4.1,7.4,8.8,9.6,14c2.4,5.4,3.6,11.2,3.6,17.2c0,5.9-1.2,11.7-3.6,17
				c-2.3,5.1-5.5,9.8-9.7,13.7c-4.1,3.9-8.9,7-14.2,9.1C154.8,89.5,149,90.6,143,90.6 M143,6.3c-23,0-41.7,18.4-41.7,41.1
				c0,22.2,18.7,40.3,41.7,40.3c23,0,41.7-18.1,41.7-40.3C184.7,24.8,166,6.3,143,6.3"/>
		</g>
	</g>
</g>
<g>
	<g>
		<defs>
			<rect id="SVGID_9_" x="191" y="-1" width="96" height="96"/>
		</defs>
		<clipPath id="SVGID_10_">
			<use xlink:href="#SVGID_9_"  style="overflow:visible;"/>
		</clipPath>
		<path class="st9" d="M272,74h-66l33-69.3L272,74z M212.5,69.8h53L239,14.2L212.5,69.8z"/>
		<polygon class="st9" points="241.2,27.1 236.1,27.1 221,61.8 223.5,65.7 225.3,65.7 227.7,60.2 227.7,60.2 234.8,44 235,43.5 
			238.7,35.1 249.6,60.2 233.1,60.2 230.7,65.7 253.9,65.7 256.4,61.8 		"/>
		<g class="st10">
			<defs>
				<rect id="SVGID_11_" x="191" y="-1" width="96" height="96"/>
			</defs>
			<clipPath id="SVGID_12_">
				<use xlink:href="#SVGID_11_"  style="overflow:visible;"/>
			</clipPath>
			<path class="st11" d="M239,90.6c-6,0-11.7-1.1-17.2-3.3c-5.3-2.1-10.1-5.2-14.2-9.1c-4.1-3.9-7.4-8.6-9.7-13.7
				c-2.4-5.4-3.6-11.1-3.6-17c0-5.9,1.2-11.7,3.6-17.2c2.3-5.2,5.5-9.9,9.6-14c4.1-4,8.9-7.2,14.2-9.4c5.5-2.3,11.3-3.5,17.2-3.5
				c5.9,0,11.7,1.2,17.2,3.5c5.3,2.2,10.1,5.4,14.2,9.4c4.1,4.1,7.4,8.8,9.6,14c2.4,5.4,3.6,11.2,3.6,17.2c0,5.9-1.2,11.7-3.6,17
				c-2.3,5.1-5.5,9.8-9.7,13.7c-4.1,3.9-8.9,7-14.2,9.1C250.8,89.5,245,90.6,239,90.6 M239,6.3c-23,0-41.7,18.4-41.7,41.1
				c0,22.2,18.7,40.3,41.7,40.3c23,0,41.7-18.1,41.7-40.3C280.7,24.8,262,6.3,239,6.3"/>
		</g>
	</g>
</g>
</svg>
