<?xml version="1.0" encoding="utf-8"?>
<!-- Generator: Adobe Illustrator 22.1.0, SVG Export Plug-In . SVG Version: 6.00 Build 0)  -->
<svg version="1.1" id="Layer_1" xmlns="http://www.w3.org/2000/svg" xmlns:xlink="http://www.w3.org/1999/xlink" x="0px" y="0px"
	 width="806px" height="598.9px" viewBox="0 0 806 598.9" style="enable-background:new 0 0 806 598.9;" xml:space="preserve">
<style type="text/css">
	.st0{fill:url(#SVGID_1_);}
	.st1{filter:url(#Adobe_OpacityMaskFilter);}
	.st2{opacity:0.75;mask:url(#SVGID_2_);}
	.st3{fill:#FFFFFF;}
	.st4{fill:#FFD6F3;}
	.st5{fill:#FFDEF5;}
	.st6{fill:#FF7BAC;}
	.st7{fill:#FFDEF5;stroke:#FFDEF5;stroke-miterlimit:10;}
	.st8{fill:none;stroke:#FFDEF5;stroke-width:3;stroke-miterlimit:10;}
	.st9{fill:#FF7BAC;stroke:#FFDEF5;stroke-miterlimit:10;}
	.st10{opacity:0.22;enable-background:new    ;}
	.st11{fill:#FFDEF5;stroke:#FF7BAC;stroke-miterlimit:10;}
</style>
<g>
	<g>
		<g>
			<g>
				
					<linearGradient id="SVGID_1_" gradientUnits="userSpaceOnUse" x1="403" y1="1.0167" x2="403" y2="487.1833" gradientTransform="matrix(1 0 0 -1 0 600)">
					<stop  offset="0" style="stop-color:#FF7BAC"/>
					<stop  offset="0.1888" style="stop-color:#FF84B2"/>
					<stop  offset="0.4967" style="stop-color:#FF9CC1"/>
					<stop  offset="0.8832" style="stop-color:#FFC4DA"/>
					<stop  offset="1" style="stop-color:#FFD1E2"/>
				</linearGradient>
				<path class="st0" d="M801.3,418.6c-2.9-15.5-17.7-102.5-32-144.6c-9.4-27.7-13.1-53-17-64.9c-12-35.7-33-65.7-33-65.7
					s-9.5-13.1-10.1-16.3c-0.6-3.3-4.7-8.6-4.7-8.6s-17.4-5.7-62.3-5.7s-53.7,5-53.7,5s-2.4,2.9-5.9,4.8c-3.5,1.8-11.7,1.7-11.7,1.7
					h-33.4c0,0-0.6-0.1-0.9,0.3c-0.4,0.4-0.6,2-0.6,2H403H269.9c0,0-0.3-1.7-0.6-2c-0.4-0.4-0.9-0.3-0.9-0.3H235
					c0,0-8.2,0.2-11.7-1.7c-3.5-1.8-5.9-4.8-5.9-4.8s-8.8-5-53.7-5c-44.8,0-62.3,5.7-62.3,5.7s-4.1,5.3-4.7,8.6
					s-10.1,16.3-10.1,16.3s-21,30-33,65.7c-4,11.9-7.7,37.2-17,64.9c-14.3,42.1-29.1,129.1-32,144.6C0.3,441.8,0,508.8,0,508.8
					s4.5,53.4,36.2,74.9s56.7,14,56.7,14s33.1-8.2,57.8-41.9s56.6-129.2,56.6-129.2s2.2-3,5.7-5.3s6.3-2.6,6.3-2.6l183.7,0.1
					l183.7-0.1c0,0,2.8,0.3,6.3,2.6s5.7,5.3,5.7,5.3s31.9,95.4,56.6,129.2s57.8,41.9,57.8,41.9s25,7.5,56.7-14s36.2-74.9,36.2-74.9
					S805.7,441.8,801.3,418.6z"/>
			</g>
			<defs>
				<filter id="Adobe_OpacityMaskFilter" filterUnits="userSpaceOnUse" x="0" y="112.8" width="806" height="486.2">
					
						<feColorMatrix  type="matrix" values="-1 0 0 0 1  0 -1 0 0 1  0 0 -1 0 1  0 0 0 1 0" color-interpolation-filters="sRGB" result="source"/>
				</filter>
			</defs>
			<mask maskUnits="userSpaceOnUse" x="0" y="112.8" width="806" height="486.2" id="SVGID_2_">
				<g class="st1">
					
						<image style="overflow:visible;" width="810" height="491" xlink:href="E56FFDD9.jpg"  transform="matrix(1 0 0 1 -2 110.3667)">
					</image>
				</g>
			</mask>
			<g class="st2">
				<path class="st3" d="M801.3,418.6c-2.9-15.5-17.7-102.5-32-144.6c-9.4-27.7-13.1-53-17-64.9c-12-35.7-33-65.7-33-65.7
					s-9.5-13.1-10.1-16.3c-0.6-3.3-4.7-8.6-4.7-8.6s-17.4-5.7-62.3-5.7s-53.7,5-53.7,5s-2.4,2.9-5.9,4.8c-3.5,1.8-11.7,1.7-11.7,1.7
					h-33.4c0,0-0.6-0.1-0.9,0.3c-0.4,0.4-0.6,2-0.6,2H403H269.9c0,0-0.3-1.7-0.6-2c-0.4-0.4-0.9-0.3-0.9-0.3H235
					c0,0-8.2,0.2-11.7-1.7c-3.5-1.8-5.9-4.8-5.9-4.8s-8.8-5-53.7-5c-44.8,0-62.3,5.7-62.3,5.7s-4.1,5.3-4.7,8.6
					s-10.1,16.3-10.1,16.3s-21,30-33,65.7c-4,11.9-7.7,37.2-17,64.9c-14.3,42.1-29.1,129.1-32,144.6C0.3,441.8,0,508.8,0,508.8
					s4.5,53.4,36.2,74.9s56.7,14,56.7,14s33.1-8.2,57.8-41.9s56.6-129.2,56.6-129.2s2.2-3,5.7-5.3s6.3-2.6,6.3-2.6l183.7,0.1
					l183.7-0.1c0,0,2.8,0.3,6.3,2.6s5.7,5.3,5.7,5.3s31.9,95.4,56.6,129.2s57.8,41.9,57.8,41.9s25,7.5,56.7-14s36.2-74.9,36.2-74.9
					S805.7,441.8,801.3,418.6z"/>
			</g>
		</g>
	</g>
</g>
<path class="st4" d="M351.2,359.9c0-42.2-34.3-76.5-76.5-76.5s-76.5,34.3-76.5,76.5c0,0.7,0,1.3,0.1,2c0,0.7-0.1,1.3-0.1,2
	c0,42.2,34.3,76.5,76.5,76.5s76.5-34.3,76.5-76.5c0-0.7,0-1.3-0.1-2C351.1,361.2,351.2,360.5,351.2,359.9z"/>
<circle class="st5" cx="274.7" cy="355.9" r="73"/>
<circle class="st6" cx="274.7" cy="355.9" r="51.5"/>
<path class="st4" d="M607.8,359.9c0-42.2-34.3-76.5-76.5-76.5s-76.5,34.3-76.5,76.5c0,0.7,0,1.3,0.1,2c0,0.7-0.1,1.3-0.1,2
	c0,42.2,34.3,76.5,76.5,76.5s76.5-34.3,76.5-76.5c0-0.7,0-1.3-0.1-2C607.8,361.2,607.8,360.5,607.8,359.9z"/>
<circle class="st7" cx="531.3" cy="355.9" r="73"/>
<circle class="st6" cx="531.3" cy="355.9" r="51.5"/>
<path class="st6" d="M534.8,127.9c-0.4-3.2-3.3-5.6-6.5-5.6l0,0H403l0,0H277.7l0,0c-3.2,0-6.1,2.3-6.5,5.6c-0.1,0.7-0.1,1.4-0.1,2.1
	v127.4c0,8.9,7.2,16.1,16.1,16.1H403l0,0h115.8c8.9,0,16.1-7.2,16.1-16.1V130C535,129.3,534.9,128.6,534.8,127.9z"/>
<circle class="st8" cx="652.3" cy="244.7" r="94.3"/>
<path class="st9" d="M230.4,254l9.5-8.9c0.5-0.5,0.5-1.2,0-1.7l-9.5-8.9c-0.7-0.7-1.9-0.2-1.9,0.8v8.9v8.9
	C228.4,254.1,229.6,254.6,230.4,254z"/>
<path class="st9" d="M145,169.7h8.9h8.9c1,0,1.5-1.2,0.8-1.9l-8.9-9.5c-0.5-0.5-1.2-0.5-1.7,0l-8.9,9.5
	C143.5,168.5,144,169.7,145,169.7z"/>
<path class="st9" d="M77.5,234.5l-9.5,8.9c-0.5,0.5-0.5,1.2,0,1.7l9.5,8.9c0.7,0.7,1.9,0.2,1.9-0.8v-8.9v-8.9
	C79.4,234.3,78.2,233.8,77.5,234.5z"/>
<path class="st9" d="M162.8,318.7h-8.9H145c-1,0-1.5,1.2-0.8,1.9l8.9,9.5c0.5,0.5,1.2,0.5,1.7,0l8.9-9.5
	C164.3,319.9,163.8,318.7,162.8,318.7z"/>
<path class="st5" d="M105.2,544.5c-40.5-2.8-75.8-20.3-87.3-30.5C6.4,503.7,0.4,482.4,0.4,482.4C0,497.4,0,508.7,0,508.7
	s4.5,53.4,36.2,74.9s56.7,14,56.7,14s33.1-8.2,57.8-41.9c4.5-6.2,9.3-14.5,14.1-23.8C164.7,531.9,145.6,547.2,105.2,544.5z"/>
<path class="st10" d="M90,592.4c-12.5,1.8-31.3-2-45.1-7.7c-13.6-5.7-24-16.4-24-16.4c4.2,5.8,9.3,11.1,15.3,15.2
	c31.7,21.5,56.7,14,56.7,14s11.7-2.9,26.3-12.3C119.2,585.2,104.6,590.4,90,592.4z"/>
<path class="st5" d="M700.8,544.4c40.5-2.8,75.8-20.3,87.3-30.5s17.5-31.5,17.5-31.5c0.4,15,0.4,26.3,0.4,26.3s-4.5,53.4-36.2,74.9
	s-56.7,14-56.7,14s-33.1-8.2-57.8-41.9c-4.5-6.2-9.3-14.5-14.1-23.8C641.3,531.8,660.4,547.1,700.8,544.4z"/>
<path class="st10" d="M716,592.4c12.5,1.8,31.3-2,45.1-7.7c13.6-5.7,24-16.4,24-16.4c-4.2,5.8-9.3,11.1-15.3,15.2
	c-31.7,21.5-56.7,14-56.7,14s-11.7-2.9-26.3-12.3C686.8,585.2,701.4,590.4,716,592.4z"/>
<path class="st6" d="M240.5,143.4c6.9,0,12.5,5.6,12.5,12.5v18.3c0,6.9-5.6,12.5-12.5,12.5s-12.5-5.6-12.5-12.5v-18.3
	C228,149,233.6,143.4,240.5,143.4 M240.5,141.7c-7.8,0-14.2,6.4-14.2,14.2v18.3c0,7.8,6.4,14.2,14.2,14.2s14.2-6.4,14.2-14.2v-18.3
	C254.7,148,248.3,141.7,240.5,141.7L240.5,141.7z"/>
<path class="st5" d="M240.5,143.4c-6.9,0-12.5,5.6-12.5,12.5v18.3c0,6.9,5.6,12.5,12.5,12.5s12.5-5.6,12.5-12.5v-18.3
	C253,149,247.4,143.4,240.5,143.4z"/>
<path class="st6" d="M565.5,143.4c6.9,0,12.5,5.6,12.5,12.5v18.3c0,6.9-5.6,12.5-12.5,12.5l0,0c-6.9,0-12.5-5.6-12.5-12.5v-18.3
	C553,149,558.6,143.4,565.5,143.4L565.5,143.4 M565.5,141.7c-7.8,0-14.2,6.4-14.2,14.2v18.3c0,7.8,6.4,14.2,14.2,14.2
	s14.2-6.4,14.2-14.2v-18.3C579.7,148,573.3,141.7,565.5,141.7L565.5,141.7z"/>
<path class="st5" d="M565.5,143.4c-6.9,0-12.5,5.6-12.5,12.5v18.3c0,6.9,5.6,12.5,12.5,12.5s12.5-5.6,12.5-12.5v-18.3
	C578,149,572.4,143.4,565.5,143.4z"/>
<path class="st11" d="M141.2,247.1c1.4-2,1.2-2.9,1.2-2.9s0.2-0.9-1.2-2.9s-15-13.6-15.7-14s-28.5-2.2-31.4,1.3s-2.6,15.6-2.6,15.6
	s-0.3,12.1,2.6,15.6s30.7,1.7,31.4,1.3S139.8,249.1,141.2,247.1z"/>
<path class="st6" d="M141.2,247.1c1.4-2,1.2-2.9,1.2-2.9s0.2-0.9-1.2-2.9c-0.9-1.3-6.9-6.6-11.2-10.3c-2.1,3.9-3.4,8.4-3.4,13.2
	s1.2,9.3,3.4,13.2C134.3,253.7,140.3,248.4,141.2,247.1z"/>
<path class="st11" d="M151,231.5c2,1.4,2.9,1.2,2.9,1.2s0.9,0.2,2.9-1.2s13.6-15,14-15.7s2.2-28.5-1.3-31.4s-15.6-2.6-15.6-2.6
	s-12.1-0.3-15.6,2.6s-1.7,30.7-1.3,31.4C137.5,216.5,149,230.1,151,231.5z"/>
<path class="st6" d="M151,231.5c2,1.4,2.9,1.2,2.9,1.2s0.9,0.2,2.9-1.2c1.3-0.9,6.6-6.9,10.3-11.2c-3.9-2.1-8.4-3.4-13.2-3.4
	s-9.3,1.2-13.2,3.4C144.5,224.6,149.7,230.6,151,231.5z"/>
<path class="st11" d="M213.7,228.7c-2.9-3.5-30.7-1.7-31.4-1.3s-14.3,12-15.7,14s-1.2,2.9-1.2,2.9s-0.2,0.9,1.2,2.9s15,13.6,15.7,14
	s28.5,2.2,31.4-1.3s2.6-15.6,2.6-15.6S216.6,232.2,213.7,228.7z"/>
<path class="st6" d="M177.9,231.1c-4.3,3.7-10.3,9-11.2,10.3c-1.4,2-1.2,2.9-1.2,2.9s-0.2,0.9,1.2,2.9c0.9,1.3,6.9,6.6,11.2,10.3
	c2.1-3.9,3.4-8.4,3.4-13.2C181.3,239.5,180,235,177.9,231.1z"/>
<path class="st11" d="M156.8,257c-2-1.4-2.9-1.2-2.9-1.2s-0.9-0.2-2.9,1.2s-13.6,15-14,15.7s-2.2,28.5,1.3,31.4s15.6,2.6,15.6,2.6
	s12.1,0.3,15.6-2.6s1.7-30.7,1.3-31.4C170.4,271.9,158.8,258.4,156.8,257z"/>
<path class="st6" d="M156.8,257c-2-1.4-2.9-1.2-2.9-1.2s-0.9-0.2-2.9,1.2c-1.3,0.9-6.6,6.9-10.3,11.2c3.9,2.1,8.4,3.4,13.2,3.4
	s9.3-1.2,13.2-3.4C163.4,263.9,158.1,257.9,156.8,257z"/>
<path class="st6" d="M436.6,420.9h-67.9c-2.8,0-4.6,0.6-4.6-2.2l0,0c0-2.8,2.3-5,5-5H437c2.8,0,5,2.3,5,5l0,0
	C442.1,421.4,439.4,420.9,436.6,420.9z"/>
<path class="st5" d="M408.3,418.7h-36.5c-0.5,0-0.9-0.4-0.9-0.9l0,0c0-1.1,0.9-2,2-2h34.2c1.1,0,2,0.9,2,2l0,0
	C409.2,418.3,408.8,418.7,408.3,418.7z"/>
<path class="st5" d="M430.5,419.5h-4.2c-0.9,0-1.7-0.8-1.7-1.7l0,0c0-1.6,1.3-2.8,2.8-2.8h1.9c1.6,0,2.8,1.3,2.8,2.8l0,0
	C432.2,418.8,431.5,419.5,430.5,419.5z"/>
<path class="st5" d="M530.4,124.2c0-1-0.8-1.9-1.9-1.9H403l0,0H277.4c-1,0-1.9,0.8-1.9,1.9v6v123.2c0,8.6,7,15.6,15.6,15.6H403l0,0
	h111.9c8.6,0,15.6-7,15.6-15.6V130.3L530.4,124.2z"/>
<path class="st5" d="M709.9,270.9c-14.5,0-26.3-11.8-26.3-26.3c0-14.5,11.8-26.3,26.3-26.3s26.3,11.8,26.3,26.3
	C736.2,259.1,724.4,270.9,709.9,270.9z"/>
<path class="st6" d="M709.9,219.4c13.9,0,25.3,11.3,25.3,25.3c0,14-11.3,25.2-25.3,25.2s-25.3-11.3-25.3-25.3
	C684.6,230.6,696,219.4,709.9,219.4 M709.9,217.4c-15,0-27.3,12.2-27.3,27.3c0,15.1,12.2,27.3,27.3,27.3s27.3-12.2,27.3-27.3
	C737.2,229.6,724.9,217.4,709.9,217.4L709.9,217.4z"/>
<path class="st6" d="M709.9,225.8c-10.4,0-18.9,8.5-18.9,18.9s8.5,18.9,18.9,18.9s18.9-8.5,18.9-18.9
	C728.8,234.3,720.4,225.8,709.9,225.8z M709.9,260.7c-8.9,0-16-7.2-16-16c0-8.9,7.2-16,16-16s16,7.2,16,16
	C726,253.6,718.8,260.7,709.9,260.7z"/>
<path class="st5" d="M652.3,328.5c-14.5,0-26.3-11.8-26.3-26.3s11.8-26.3,26.3-26.3s26.3,11.8,26.3,26.3S666.8,328.5,652.3,328.5z"
	/>
<path class="st6" d="M652.3,277c13.9,0,25.3,11.3,25.3,25.3s-11.3,25.3-25.3,25.3S627,316.3,627,302.3S638.4,277,652.3,277
	 M652.3,275c-15,0-27.3,12.2-27.3,27.3c0,15,12.2,27.3,27.3,27.3s27.3-12.2,27.3-27.3C679.6,287.3,667.4,275,652.3,275L652.3,275z"
	/>
<polygon class="st6" points="666.7,289.9 664.7,287.9 652.3,300.3 640,287.9 638,289.9 650.3,302.3 638,314.6 640,316.6 
	652.3,304.3 664.7,316.6 666.7,314.6 654.3,302.3 "/>
<path class="st5" d="M594.8,270.9c-14.5,0-26.3-11.8-26.3-26.3c0-14.5,11.8-26.3,26.3-26.3s26.3,11.8,26.3,26.3
	C621.1,259.1,609.2,270.9,594.8,270.9z"/>
<path class="st6" d="M594.7,219.4c13.9,0,25.3,11.3,25.3,25.3c0,14-11.3,25.2-25.3,25.2s-25.3-11.3-25.3-25.3
	C569.4,230.6,580.8,219.4,594.7,219.4 M594.7,217.4c-15,0-27.3,12.2-27.3,27.3c0,15.1,12.2,27.3,27.3,27.3s27.3-12.2,27.3-27.3
	C622,229.6,609.8,217.4,594.7,217.4L594.7,217.4z"/>
<path class="st6" d="M606.3,230.3h-23h-2.8v2.8v23v2.8h2.8h23h2.8v-2.8v-23v-2.8L606.3,230.3L606.3,230.3z M606.3,256.2h-23v-23h23
	V256.2z"/>
<path class="st5" d="M652.3,213.4c-14.5,0-26.3-11.8-26.3-26.3s11.8-26.3,26.3-26.3s26.3,11.8,26.3,26.3S666.8,213.4,652.3,213.4z"
	/>
<path class="st6" d="M652.3,161.9c13.9,0,25.3,11.3,25.3,25.3s-11.3,25.3-25.3,25.3S627,201.2,627,187.2S638.4,161.9,652.3,161.9
	 M652.3,159.9c-15,0-27.3,12.2-27.3,27.3s12.2,27.3,27.3,27.3s27.3-12.2,27.3-27.3S667.4,159.9,652.3,159.9L652.3,159.9z"/>
<path class="st6" d="M668.3,195.1l-16-27.6l-16,27.6l-1.6,2.8h3.3h14.3h14.3h3.3L668.3,195.1z M652.3,195.1h-12.7l12.7-21.9
	l12.7,21.9H652.3z"/>
<path class="st6" d="M697.2,109.8c0-0.8-0.4-1.5-1.1-1.9c-4.5-2.9-23.4-13.6-51.5-13.6c-26.9,0-41.1,5.9-45.1,8
	c-0.8,0.4-1.2,1.2-1.2,2c0,0,9.8-2.9,47.5-2.9C683.5,101.4,697.2,109.8,697.2,109.8z"/>
<path class="st5" d="M697.1,116.7L697.1,116.7v-6.9c0,0-13.7-8.4-51.4-8.4c-37.8,0-47.5,2.9-47.5,2.9v11l0,0
	c7.7-1.3,21.2-2.6,44.1-2.6C670.8,112.8,688.2,115.1,697.1,116.7z"/>
<path class="st6" d="M108.8,109.8c0-0.8,0.4-1.5,1.1-1.9c4.5-2.9,23.4-13.6,51.5-13.6c26.9,0,41.1,5.9,45.1,8c0.8,0.4,1.2,1.2,1.2,2
	c0,0-9.8-2.9-47.5-2.9S108.8,109.8,108.8,109.8z"/>
<path class="st5" d="M108.9,116.7L108.9,116.7v-6.9c0,0,13.7-8.4,51.4-8.4c37.8,0,47.5,2.9,47.5,2.9v11l0,0
	c-7.7-1.3-21.2-2.6-44.1-2.6C135.2,112.8,117.8,115.1,108.9,116.7z"/>
<path class="st5" d="M697.2,90.7c0,0-32.7-3.2-50.6-3.2s-48.4,2.4-48.4,2.4s3.1-44.7,4.8-52c1.6-7.3,7.7-21.3,16.9-27.9
	s11.9-10.1,22.7-10.1s25.4,6.4,34.6,21.4C686.5,36.3,697.2,90.7,697.2,90.7z"/>
<path class="st6" d="M598.7,83.1c0,0,26.1-4.4,49-4.4c22.8,0,47.9,4.4,47.9,4.4c1,4.7,1.6,7.6,1.6,7.6s-32.7-3.2-50.6-3.2
	s-48.4,2.4-48.4,2.4S598.4,87.2,598.7,83.1z"/>
<path class="st5" d="M108.8,90.7c0,0,32.7-3.2,50.6-3.2s48.3,2.4,48.3,2.4s-3.1-44.7-4.8-52c-1.6-7.3-7.7-21.3-16.9-27.9
	c-9.1-6.7-11.8-10.1-22.6-10.1S138,6.3,128.8,21.3S108.8,90.7,108.8,90.7z"/>
<path class="st6" d="M207.3,83.1c0,0-26.1-4.4-49-4.4c-22.8,0-47.9,4.4-47.9,4.4c-1,4.7-1.6,7.6-1.6,7.6s32.7-3.2,50.6-3.2
	s48.3,2.4,48.3,2.4S207.6,87.2,207.3,83.1z"/>
<circle class="st8" cx="153.9" cy="244.7" r="94.3"/>
</svg>
