<?xml version="1.0" encoding="utf-8"?>
<!-- Generator: Adobe Illustrator 22.1.0, SVG Export Plug-In . SVG Version: 6.00 Build 0)  -->
<svg version="1.1" id="Layer_1" xmlns="http://www.w3.org/2000/svg" xmlns:xlink="http://www.w3.org/1999/xlink" x="0px" y="0px"
	 viewBox="0 0 750 630.5" style="enable-background:new 0 0 750 630.5;" xml:space="preserve">
<style type="text/css">
	.st0{fill:#F7F7F7;}
	.st1{fill:none;}
	.st2{clip-path:url(#SVGID_2_);}
	.st3{fill:none;stroke:#11CBD2;stroke-width:0.25;stroke-miterlimit:10;}
	.st4{fill:none;stroke:#0FB7BD;stroke-miterlimit:10;}
	.st5{fill:#0FB7BD;}
	.st6{fill:#FFFFFF;stroke:#11CBD2;stroke-miterlimit:10;}
	.st7{fill:#11CBD2;}
	.st8{fill:none;stroke:#E6E7E8;stroke-width:3;stroke-linecap:round;stroke-miterlimit:10;stroke-dasharray:0,10;}
	.st9{fill:none;stroke:#11CBD2;stroke-width:2;stroke-miterlimit:10;}
	.st10{fill:#0FB7BD;stroke:#FFFFFF;stroke-miterlimit:10;}
	.st11{display:none;}
	.st12{display:inline;}
	.st13{fill:#141414;}
	.st14{fill:#FF0000;}
	.st15{display:inline;fill:none;}
	.st16{display:inline;fill:#F7F7F7;}
	.st17{fill:#242424;}
	.st18{fill:#1C1C1C;}
	.st19{fill:#EDF4F4;}
	.st20{fill:#0F0F0F;}
	.st21{fill:#11CBD2;stroke:#11CBD2;stroke-miterlimit:10;}
	.st22{display:inline;fill:#F5F5F5;stroke:#FFFFFF;stroke-miterlimit:10;}
	.st23{fill:#929493;}
	.st24{fill:#11CBD2;stroke:#0FB7BD;stroke-width:2;stroke-miterlimit:10;}
	.st25{fill:#F7F7F7;stroke:#0FB7BD;stroke-width:2;stroke-miterlimit:10;}
	.st26{display:none;fill:#1A1A1A;}
	.st27{clip-path:url(#SVGID_4_);fill:#F7F7F7;}
	.st28{clip-path:url(#SVGID_6_);fill:#F7F7F7;}
	.st29{clip-path:url(#SVGID_8_);}
	.st30{clip-path:url(#SVGID_10_);fill:#F7F7F7;}
</style>
<g id="Layer_1_1_">
	<path class="st0" d="M664.4,214c-6.7-16.7-20.5-20.9-21.8-22c-11.7-10.3-2.5-21.2-19.9-30.7c-18.3-9.9-72-37-114.2-31.4
		c-9.2,1.2-27.8,17.6-41.2,17.6c-21.9,0-92.2,0-92.2,0s-70.3,0-92.2,0c-13.4,0-32-16.4-41.2-17.6c-42.2-5.6-95.9,21.5-114.2,31.4
		c-17.5,9.5-8.2,20.4-19.9,30.7c-1.3,1.1-15.1,5.3-21.8,22C22.9,370-1.7,469.1,0.1,529.1C3,623.5,76.7,630.5,76.7,630.5
		c37-8.6,111.6-129.1,168.5-129.1c31.2,0,129.8,0,129.8,0s98.6,0,129.8,0c57,0,131.5,120.5,168.5,129.1c0,0,73.7-6.9,76.6-101.3
		C751.8,469.1,727.1,370,664.4,214z"/>
	<g>
		<path class="st1" d="M106.2,192.6c0.5-0.3,0.9-0.5,1.2-0.6C107,192.2,106.6,192.4,106.2,192.6z"/>
		<path class="st1" d="M642.6,192c0.2,0.2,0.8,0.4,1.5,0.8C643.6,192.5,643.1,192.2,642.6,192z"/>
		<path class="st0" d="M664.4,214c-3.3-8.3-8.4-13.5-12.9-16.8c-3-2.2-5.7-3.6-7.4-4.4c-0.8-0.4-1.3-0.6-1.5-0.8
			c-33.6-18-97.5-38.2-117.5-34.3c-26,5-65.5,79.7-89,79.7c-15.1,0-60.5,0-60.5,0s-45.4,0-60.5,0c-23.4,0-63-74.7-89-79.7
			c-19.6-3.8-85.6,16.5-118.7,34.3c-0.2,0.2-0.6,0.4-1.2,0.6c-1.8,0.8-5.1,2.4-8.7,5.3c-4.2,3.3-8.8,8.4-11.9,16.1
			C22.9,370-1.7,469.1,0.1,529.1C3,623.5,76.7,630.5,76.7,630.5c37-8.6,111.6-129.1,168.5-129.1c31.2,0,129.8,0,129.8,0
			s98.6,0,129.8,0c57,0,131.5,120.5,168.5,129.1c0,0,73.7-6.9,76.6-101.3C751.8,469.1,727.1,370,664.4,214z"/>
	</g>
	<line class="st1" x1="107.5" y1="192" x2="107.5" y2="193.5"/>
	<line class="st1" x1="642.5" y1="191.5" x2="642.5" y2="192.4"/>
	<g id="Dpad">
		<g>
			<g>
				<g>
					<defs>
						<path id="SVGID_1_" d="M665,214c-3.3-8.3-8.4-13.5-12.9-16.8c-3-2.2-5.7-3.6-7.4-4.4c-0.8-0.4-1.3-0.6-1.5-0.8
							c-33.6-18-97.5-38.2-117.5-34.3c-26,5-65.5,79.7-89,79.7c-15.1,0-60.5,0-60.5,0s-45.4,0-60.5,0c-23.4,0-63-74.7-89-79.7
							c-19.6-3.8-85.6,16.5-118.7,34.3c-0.2,0.2-0.6,0.4-1.2,0.6c-1.8,0.8-5.1,2.4-8.7,5.3c-4.2,3.3-8.8,8.4-11.9,16.1
							C23.5,370-1.1,469.2,0.7,529.2c2.9,94.4,76.6,101.3,76.6,101.3c37-8.6,111.6-129.1,168.5-129.1c31.2,0,129.8,0,129.8,0
							s98.6,0,129.8,0c57,0,131.5,120.5,168.5,129.1c0,0,73.7-6.9,76.6-101.3C752.4,469.2,727.7,370,665,214z"/>
					</defs>
					<clipPath id="SVGID_2_">
						<use xlink:href="#SVGID_1_"  style="overflow:visible;"/>
					</clipPath>
					<g id="Pattern" class="st2">
						<rect x="-0.4" y="74" class="st1" width="752.6" height="635.2"/>
						<line class="st3" x1="742.9" y1="690.2" x2="710.4" y2="830.5"/>
						<line class="st3" x1="742.9" y1="690.2" x2="710.4" y2="830.5"/>
						<line class="st3" x1="744.6" y1="695.9" x2="714.6" y2="825.5"/>
						<line class="st3" x1="744.6" y1="695.9" x2="714.6" y2="825.5"/>
						<line class="st3" x1="746.4" y1="701.6" x2="718.8" y2="820.6"/>
						<line class="st3" x1="746.4" y1="701.6" x2="718.8" y2="820.6"/>
						<line class="st3" x1="748.1" y1="707.3" x2="723" y2="815.6"/>
						<line class="st3" x1="748.1" y1="707.3" x2="723" y2="815.6"/>
						<line class="st3" x1="742.9" y1="372.6" x2="710.4" y2="512.9"/>
						<line class="st3" x1="742.9" y1="372.6" x2="710.4" y2="512.9"/>
						<line class="st3" x1="744.6" y1="378.3" x2="714.6" y2="508"/>
						<line class="st3" x1="744.6" y1="378.3" x2="714.6" y2="508"/>
						<line class="st3" x1="746.4" y1="384" x2="718.8" y2="503"/>
						<line class="st3" x1="746.4" y1="384" x2="718.8" y2="503"/>
						<line class="st3" x1="748.1" y1="389.7" x2="723" y2="498"/>
						<line class="st3" x1="748.1" y1="389.7" x2="723" y2="498"/>
						<line class="st3" x1="749.9" y1="395.4" x2="727.2" y2="493.1"/>
						<line class="st3" x1="749.9" y1="395.4" x2="727.2" y2="493.1"/>
						<line class="st3" x1="751.6" y1="401.1" x2="731.4" y2="488.1"/>
						<line class="st3" x1="751.6" y1="401.1" x2="731.4" y2="488.1"/>
						<line class="st3" x1="731.5" y1="422.1" x2="698.9" y2="562.4"/>
						<line class="st3" x1="731.5" y1="422.1" x2="698.9" y2="562.4"/>
						<line class="st3" x1="733.2" y1="427.8" x2="703.2" y2="557.4"/>
						<line class="st3" x1="733.2" y1="427.8" x2="703.2" y2="557.4"/>
						<line class="st3" x1="734.9" y1="433.5" x2="707.4" y2="552.5"/>
						<line class="st3" x1="734.9" y1="433.5" x2="707.4" y2="552.5"/>
						<line class="st3" x1="736.7" y1="439.2" x2="711.6" y2="547.5"/>
						<line class="st3" x1="736.7" y1="439.2" x2="711.6" y2="547.5"/>
						<line class="st3" x1="738.4" y1="444.9" x2="715.8" y2="542.5"/>
						<line class="st3" x1="738.4" y1="444.9" x2="715.8" y2="542.5"/>
						<line class="st3" x1="768.6" y1="456.7" x2="736.1" y2="597"/>
						<line class="st3" x1="768.6" y1="456.7" x2="736.1" y2="597"/>
						<line class="st3" x1="770.3" y1="462.4" x2="740.3" y2="592"/>
						<line class="st3" x1="770.3" y1="462.4" x2="740.3" y2="592"/>
						<line class="st4" x1="772" y1="468.1" x2="744.5" y2="587.1"/>
						<line class="st4" x1="772" y1="468.1" x2="744.5" y2="587.1"/>
						<line class="st4" x1="773.8" y1="473.8" x2="748.7" y2="582.1"/>
						<line class="st4" x1="773.8" y1="473.8" x2="748.7" y2="582.1"/>
						<line class="st4" x1="757.1" y1="506.1" x2="724.6" y2="646.5"/>
						<line class="st4" x1="757.1" y1="506.1" x2="724.6" y2="646.5"/>
						<line class="st4" x1="758.8" y1="511.9" x2="728.8" y2="641.5"/>
						<line class="st4" x1="758.8" y1="511.9" x2="728.8" y2="641.5"/>
						<line class="st4" x1="760.6" y1="517.6" x2="733" y2="636.5"/>
						<line class="st4" x1="760.6" y1="517.6" x2="733" y2="636.5"/>
						<line class="st4" x1="762.3" y1="523.3" x2="737.2" y2="631.6"/>
						<line class="st4" x1="762.3" y1="523.3" x2="737.2" y2="631.6"/>
						<polygon class="st5" points="616.5,601 593.9,698.6 689.8,669.4 616.5,601 593.9,698.6 689.8,669.4 						"/>
						<polygon class="st6" points="658.3,483.6 633.2,592 739.6,559.5 658.3,483.6 633.2,592 739.6,559.5 						"/>
						<polygon class="st7" points="637.2,605 622.9,666.4 683.3,648 637.2,605 622.9,666.4 683.3,648 						"/>
						<line class="st8" x1="725.7" y1="452.4" x2="624.2" y2="483.3"/>
						<line class="st8" x1="723" y1="443.6" x2="621.5" y2="474.5"/>
						<line class="st8" x1="720.3" y1="434.8" x2="618.8" y2="465.7"/>
						<line class="st8" x1="717.6" y1="426" x2="616.1" y2="456.9"/>
						<line class="st8" x1="715" y1="417.2" x2="613.5" y2="448.1"/>
						<path class="st9" d="M471.8,577.8c13.8-4.2,19.6,14.9,33.4,10.7c13.8-4.2,8-23.3,21.7-27.5s19.6,14.9,33.4,10.7
							c13.8-4.2,8-23.3,21.7-27.5s19.6,14.9,33.4,10.7"/>
						<polygon class="st5" points="803.1,597 746.6,679.8 846.5,687.3 803.1,597 746.6,679.8 846.5,687.3 						"/>
						<line class="st3" x1="366.6" y1="531.4" x2="334.1" y2="671.7"/>
						<line class="st3" x1="366.6" y1="531.4" x2="334.1" y2="671.7"/>
						<line class="st3" x1="368.3" y1="537.1" x2="338.3" y2="666.8"/>
						<line class="st3" x1="368.3" y1="537.1" x2="338.3" y2="666.8"/>
						<line class="st3" x1="370.1" y1="542.8" x2="342.5" y2="661.8"/>
						<line class="st3" x1="370.1" y1="542.8" x2="342.5" y2="661.8"/>
						<line class="st3" x1="371.8" y1="548.5" x2="346.7" y2="656.8"/>
						<line class="st3" x1="371.8" y1="548.5" x2="346.7" y2="656.8"/>
						<line class="st3" x1="373.6" y1="554.2" x2="350.9" y2="651.9"/>
						<line class="st3" x1="373.6" y1="554.2" x2="350.9" y2="651.9"/>
						<line class="st3" x1="375.3" y1="559.9" x2="355.1" y2="646.9"/>
						<line class="st3" x1="375.3" y1="559.9" x2="355.1" y2="646.9"/>
						<line class="st3" x1="355.1" y1="580.9" x2="322.6" y2="721.2"/>
						<line class="st3" x1="355.1" y1="580.9" x2="322.6" y2="721.2"/>
						<line class="st3" x1="356.9" y1="586.5" x2="326.9" y2="716.2"/>
						<line class="st3" x1="356.9" y1="586.5" x2="326.9" y2="716.2"/>
						<line class="st3" x1="358.6" y1="592.3" x2="331.1" y2="711.2"/>
						<line class="st3" x1="358.6" y1="592.3" x2="331.1" y2="711.2"/>
						<line class="st3" x1="360.4" y1="598" x2="335.3" y2="706.3"/>
						<line class="st3" x1="360.4" y1="598" x2="335.3" y2="706.3"/>
						<line class="st3" x1="362.1" y1="603.7" x2="339.5" y2="701.3"/>
						<line class="st3" x1="362.1" y1="603.7" x2="339.5" y2="701.3"/>
						<line class="st3" x1="392.2" y1="615.5" x2="359.7" y2="755.8"/>
						<line class="st3" x1="392.2" y1="615.5" x2="359.7" y2="755.8"/>
						<line class="st3" x1="394" y1="621.2" x2="363.9" y2="750.8"/>
						<line class="st3" x1="394" y1="621.2" x2="363.9" y2="750.8"/>
						<line class="st4" x1="395.7" y1="626.9" x2="368.1" y2="745.9"/>
						<line class="st4" x1="395.7" y1="626.9" x2="368.1" y2="745.9"/>
						<line class="st4" x1="397.5" y1="632.6" x2="372.4" y2="740.9"/>
						<line class="st4" x1="397.5" y1="632.6" x2="372.4" y2="740.9"/>
						<line class="st4" x1="399.2" y1="638.3" x2="376.6" y2="736"/>
						<line class="st4" x1="399.2" y1="638.3" x2="376.6" y2="736"/>
						<line class="st4" x1="400.9" y1="644" x2="380.8" y2="731"/>
						<line class="st4" x1="400.9" y1="644" x2="380.8" y2="731"/>
						<line class="st4" x1="402.7" y1="649.7" x2="385" y2="726"/>
						<line class="st4" x1="402.7" y1="649.7" x2="385" y2="726"/>
						<line class="st4" x1="404.4" y1="655.4" x2="389.2" y2="721.1"/>
						<line class="st4" x1="404.4" y1="655.4" x2="389.2" y2="721.1"/>
						<line class="st4" x1="406.1" y1="661.1" x2="393.4" y2="716.1"/>
						<line class="st4" x1="406.1" y1="661.1" x2="393.4" y2="716.1"/>
						<line class="st4" x1="380.8" y1="664.9" x2="348.3" y2="805.3"/>
						<line class="st4" x1="380.8" y1="664.9" x2="348.3" y2="805.3"/>
						<line class="st4" x1="382.5" y1="670.6" x2="352.5" y2="800.3"/>
						<line class="st4" x1="382.5" y1="670.6" x2="352.5" y2="800.3"/>
						<line class="st4" x1="384.3" y1="676.3" x2="356.7" y2="795.3"/>
						<line class="st4" x1="384.3" y1="676.3" x2="356.7" y2="795.3"/>
						<line class="st4" x1="386" y1="682" x2="360.9" y2="790.4"/>
						<line class="st4" x1="386" y1="682" x2="360.9" y2="790.4"/>
						<polygon class="st6" points="282,642.4 256.9,750.7 363.2,718.3 282,642.4 256.9,750.7 363.2,718.3 						"/>
						<line class="st4" x1="417.9" y1="699.6" x2="385.4" y2="839.9"/>
						<line class="st4" x1="417.9" y1="699.6" x2="385.4" y2="839.9"/>
						<line class="st4" x1="419.6" y1="705.3" x2="389.6" y2="834.9"/>
						<line class="st4" x1="419.6" y1="705.3" x2="389.6" y2="834.9"/>
						<polygon class="st10" points="432.6,697.7 418.4,759.1 478.7,740.7 432.6,697.7 418.4,759.1 478.7,740.7 						"/>
						<polygon class="st7" points="432.6,615.7 418.4,677.2 478.7,658.8 432.6,615.7 418.4,677.2 478.7,658.8 						"/>
						<line class="st8" x1="349.4" y1="611.2" x2="247.9" y2="642.1"/>
						<line class="st8" x1="346.7" y1="602.4" x2="245.2" y2="633.3"/>
						<line class="st8" x1="344" y1="593.6" x2="242.5" y2="624.5"/>
						<line class="st8" x1="341.3" y1="584.8" x2="239.8" y2="615.7"/>
						<line class="st8" x1="338.6" y1="576" x2="237.1" y2="606.9"/>
						<path class="st9" d="M95.5,736.6c13.8-4.2,19.6,14.9,33.4,10.7s8-23.3,21.7-27.5s19.6,14.9,33.4,10.7s8-23.3,21.7-27.5
							s19.6,14.9,33.4,10.7"/>
						<polygon class="st7" points="389.8,586.5 383.7,613 409.7,605.1 389.8,586.5 383.7,613 409.7,605.1 						"/>
						<line class="st3" x1="627.4" y1="588.8" x2="546.2" y2="707.8"/>
						<line class="st3" x1="627.4" y1="588.8" x2="546.2" y2="707.8"/>
						<line class="st3" x1="627" y1="594.8" x2="551.9" y2="704.7"/>
						<line class="st3" x1="627" y1="594.8" x2="551.9" y2="704.7"/>
						<line class="st3" x1="626.5" y1="600.7" x2="557.7" y2="701.6"/>
						<line class="st3" x1="626.5" y1="600.7" x2="557.7" y2="701.6"/>
						<line class="st3" x1="626.1" y1="606.7" x2="563.4" y2="698.5"/>
						<line class="st3" x1="626.1" y1="606.7" x2="563.4" y2="698.5"/>
						<line class="st3" x1="625.6" y1="612.6" x2="569.1" y2="695.4"/>
						<line class="st3" x1="625.6" y1="612.6" x2="569.1" y2="695.4"/>
						<line class="st3" x1="625.2" y1="618.5" x2="574.8" y2="692.3"/>
						<line class="st3" x1="625.2" y1="618.5" x2="574.8" y2="692.3"/>
						<line class="st3" x1="598.8" y1="630.7" x2="517.6" y2="749.7"/>
						<line class="st3" x1="598.8" y1="630.7" x2="517.6" y2="749.7"/>
						<line class="st3" x1="598.4" y1="636.7" x2="523.3" y2="746.6"/>
						<line class="st3" x1="598.4" y1="636.7" x2="523.3" y2="746.6"/>
						<line class="st3" x1="597.9" y1="642.6" x2="529.1" y2="743.5"/>
						<line class="st3" x1="597.9" y1="642.6" x2="529.1" y2="743.5"/>
						<line class="st3" x1="597.5" y1="648.6" x2="534.8" y2="740.4"/>
						<line class="st3" x1="597.5" y1="648.6" x2="534.8" y2="740.4"/>
						<line class="st3" x1="597" y1="654.5" x2="540.5" y2="737.3"/>
						<line class="st3" x1="597" y1="654.5" x2="540.5" y2="737.3"/>
						<line class="st3" x1="620.8" y1="676.5" x2="539.6" y2="795.4"/>
						<line class="st3" x1="620.8" y1="676.5" x2="539.6" y2="795.4"/>
						<line class="st3" x1="620.4" y1="682.4" x2="545.3" y2="792.3"/>
						<line class="st3" x1="620.4" y1="682.4" x2="545.3" y2="792.3"/>
						<line class="st4" x1="619.9" y1="688.4" x2="551.1" y2="789.3"/>
						<line class="st4" x1="619.9" y1="688.4" x2="551.1" y2="789.3"/>
						<line class="st4" x1="619.5" y1="694.3" x2="556.8" y2="786.2"/>
						<line class="st4" x1="619.5" y1="694.3" x2="556.8" y2="786.2"/>
						<line class="st4" x1="619" y1="700.3" x2="562.5" y2="783.1"/>
						<line class="st4" x1="619" y1="700.3" x2="562.5" y2="783.1"/>
						<line class="st4" x1="618.6" y1="706.2" x2="568.2" y2="780"/>
						<line class="st4" x1="618.6" y1="706.2" x2="568.2" y2="780"/>
						<polygon class="st6" points="508.3,661.6 445.6,753.4 556.5,761.8 508.3,661.6 445.6,753.4 556.5,761.8 						"/>
						<polygon class="st5" points="531.6,690 496.1,742.1 558.9,746.8 531.6,690 496.1,742.1 558.9,746.8 						"/>
						<line class="st8" x1="582.4" y1="656.9" x2="476.6" y2="648.9"/>
						<line class="st8" x1="583.1" y1="647.7" x2="477.3" y2="639.8"/>
						<line class="st8" x1="583.8" y1="638.6" x2="478" y2="630.6"/>
						<line class="st8" x1="584.5" y1="629.4" x2="478.7" y2="621.4"/>
						<line class="st8" x1="585.2" y1="620.2" x2="479.4" y2="612.2"/>
						<polygon class="st7" points="629,648.6 613.7,671.1 640.8,673.1 629,648.6 613.7,671.1 640.8,673.1 						"/>
						<line class="st3" x1="15.9" y1="456.7" x2="-16.6" y2="597"/>
						<line class="st3" x1="15.9" y1="456.7" x2="-16.6" y2="597"/>
						<line class="st3" x1="17.7" y1="462.4" x2="-12.4" y2="592"/>
						<line class="st3" x1="17.7" y1="462.4" x2="-12.4" y2="592"/>
						<line class="st4" x1="19.4" y1="468.1" x2="-8.2" y2="587.1"/>
						<line class="st4" x1="19.4" y1="468.1" x2="-8.2" y2="587.1"/>
						<line class="st4" x1="21.1" y1="473.8" x2="-3.9" y2="582.1"/>
						<line class="st4" x1="21.1" y1="473.8" x2="-3.9" y2="582.1"/>
						<line class="st4" x1="22.9" y1="479.5" x2="0.3" y2="577.2"/>
						<line class="st4" x1="22.9" y1="479.5" x2="0.3" y2="577.2"/>
						<line class="st4" x1="24.6" y1="485.2" x2="4.5" y2="572.2"/>
						<line class="st4" x1="24.6" y1="485.2" x2="4.5" y2="572.2"/>
						<line class="st4" x1="26.4" y1="490.9" x2="8.7" y2="567.3"/>
						<line class="st4" x1="26.4" y1="490.9" x2="8.7" y2="567.3"/>
						<line class="st4" x1="28.1" y1="496.6" x2="12.9" y2="562.3"/>
						<line class="st4" x1="28.1" y1="496.6" x2="12.9" y2="562.3"/>
						<line class="st4" x1="29.8" y1="502.3" x2="17.1" y2="557.3"/>
						<line class="st4" x1="29.8" y1="502.3" x2="17.1" y2="557.3"/>
						<line class="st4" x1="4.5" y1="506.1" x2="-28" y2="646.5"/>
						<line class="st4" x1="4.5" y1="506.1" x2="-28" y2="646.5"/>
						<line class="st4" x1="6.2" y1="511.9" x2="-23.8" y2="641.5"/>
						<line class="st4" x1="6.2" y1="511.9" x2="-23.8" y2="641.5"/>
						<line class="st4" x1="8" y1="517.6" x2="-19.6" y2="636.5"/>
						<line class="st4" x1="8" y1="517.6" x2="-19.6" y2="636.5"/>
						<line class="st4" x1="9.7" y1="523.3" x2="-15.4" y2="631.6"/>
						<line class="st4" x1="9.7" y1="523.3" x2="-15.4" y2="631.6"/>
						<line class="st4" x1="41.6" y1="540.8" x2="9.1" y2="681.1"/>
						<line class="st4" x1="41.6" y1="540.8" x2="9.1" y2="681.1"/>
						<line class="st4" x1="43.3" y1="546.5" x2="13.3" y2="676.1"/>
						<line class="st4" x1="43.3" y1="546.5" x2="13.3" y2="676.1"/>
						<polygon class="st10" points="56.3,538.9 42.1,600.3 102.4,581.9 56.3,538.9 42.1,600.3 102.4,581.9 						"/>
						<polygon class="st7" points="56.3,457 42.1,518.4 102.4,500 56.3,457 42.1,518.4 102.4,500 						"/>
						<polygon class="st7" points="13.5,427.8 7.4,454.3 33.4,446.3 13.5,427.8 7.4,454.3 33.4,446.3 						"/>
						<line class="st3" x1="251.1" y1="430" x2="169.9" y2="549"/>
						<line class="st3" x1="251.1" y1="430" x2="169.9" y2="549"/>
						<line class="st3" x1="250.7" y1="436" x2="175.6" y2="545.9"/>
						<line class="st3" x1="250.7" y1="436" x2="175.6" y2="545.9"/>
						<line class="st3" x1="250.2" y1="441.9" x2="181.4" y2="542.8"/>
						<line class="st3" x1="250.2" y1="441.9" x2="181.4" y2="542.8"/>
						<line class="st3" x1="249.8" y1="447.9" x2="187.1" y2="539.7"/>
						<line class="st3" x1="249.8" y1="447.9" x2="187.1" y2="539.7"/>
						<line class="st3" x1="249.3" y1="453.8" x2="192.8" y2="536.6"/>
						<line class="st3" x1="249.3" y1="453.8" x2="192.8" y2="536.6"/>
						<line class="st3" x1="248.9" y1="459.8" x2="198.5" y2="533.5"/>
						<line class="st3" x1="248.9" y1="459.8" x2="198.5" y2="533.5"/>
						<line class="st3" x1="222.5" y1="472" x2="141.3" y2="590.9"/>
						<line class="st3" x1="222.5" y1="472" x2="141.3" y2="590.9"/>
						<line class="st3" x1="222" y1="477.9" x2="147" y2="587.8"/>
						<line class="st3" x1="222" y1="477.9" x2="147" y2="587.8"/>
						<line class="st3" x1="221.6" y1="483.9" x2="152.7" y2="584.7"/>
						<line class="st3" x1="221.6" y1="483.9" x2="152.7" y2="584.7"/>
						<line class="st3" x1="221.2" y1="489.8" x2="158.5" y2="581.6"/>
						<line class="st3" x1="221.2" y1="489.8" x2="158.5" y2="581.6"/>
						<line class="st3" x1="220.7" y1="495.7" x2="164.2" y2="578.5"/>
						<line class="st3" x1="220.7" y1="495.7" x2="164.2" y2="578.5"/>
						<line class="st3" x1="244.5" y1="517.7" x2="163.3" y2="636.7"/>
						<line class="st3" x1="244.5" y1="517.7" x2="163.3" y2="636.7"/>
						<line class="st3" x1="244" y1="523.6" x2="169" y2="633.6"/>
						<line class="st3" x1="244" y1="523.6" x2="169" y2="633.6"/>
						<line class="st4" x1="243.6" y1="529.6" x2="174.7" y2="630.5"/>
						<line class="st4" x1="243.6" y1="529.6" x2="174.7" y2="630.5"/>
						<line class="st4" x1="243.2" y1="535.5" x2="180.5" y2="627.4"/>
						<line class="st4" x1="243.2" y1="535.5" x2="180.5" y2="627.4"/>
						<line class="st4" x1="242.7" y1="541.5" x2="186.2" y2="624.3"/>
						<line class="st4" x1="242.7" y1="541.5" x2="186.2" y2="624.3"/>
						<line class="st4" x1="242.2" y1="547.4" x2="191.9" y2="621.2"/>
						<line class="st4" x1="242.2" y1="547.4" x2="191.9" y2="621.2"/>
						<line class="st4" x1="241.8" y1="553.4" x2="197.6" y2="618.1"/>
						<line class="st4" x1="241.8" y1="553.4" x2="197.6" y2="618.1"/>
						<line class="st4" x1="241.4" y1="559.3" x2="203.4" y2="615"/>
						<line class="st4" x1="241.4" y1="559.3" x2="203.4" y2="615"/>
						<line class="st4" x1="240.9" y1="565.3" x2="209.1" y2="611.9"/>
						<line class="st4" x1="240.9" y1="565.3" x2="209.1" y2="611.9"/>
						<line class="st4" x1="215.9" y1="559.6" x2="134.7" y2="678.6"/>
						<line class="st4" x1="215.9" y1="559.6" x2="134.7" y2="678.6"/>
						<line class="st4" x1="215.4" y1="565.6" x2="140.4" y2="675.5"/>
						<line class="st4" x1="215.4" y1="565.6" x2="140.4" y2="675.5"/>
						<line class="st4" x1="215" y1="571.5" x2="146.1" y2="672.4"/>
						<line class="st4" x1="215" y1="571.5" x2="146.1" y2="672.4"/>
						<line class="st4" x1="214.5" y1="577.5" x2="151.9" y2="669.3"/>
						<line class="st4" x1="214.5" y1="577.5" x2="151.9" y2="669.3"/>
						<polygon class="st5" points="50.5,597 -6.1,679.8 93.9,687.3 50.5,597 -6.1,679.8 93.9,687.3 						"/>
						<polygon class="st6" points="132,502.8 69.3,594.6 180.2,603 132,502.8 69.3,594.6 180.2,603 						"/>
						<line class="st4" x1="237.9" y1="605.4" x2="156.7" y2="724.3"/>
						<line class="st4" x1="237.9" y1="605.4" x2="156.7" y2="724.3"/>
						<line class="st4" x1="237.4" y1="611.3" x2="162.4" y2="721.2"/>
						<line class="st4" x1="237.4" y1="611.3" x2="162.4" y2="721.2"/>
						<polygon class="st7" points="68.3,608.2 32.7,660.3 95.6,665 68.3,608.2 32.7,660.3 95.6,665 						"/>
						<polygon class="st10" points="252.3,608.9 216.8,661 279.6,665.8 252.3,608.9 216.8,661 279.6,665.8 						"/>
						<polygon class="st5" points="155.3,531.2 119.7,583.3 182.6,588 155.3,531.2 119.7,583.3 182.6,588 						"/>
						<line class="st8" x1="206.1" y1="498.1" x2="100.3" y2="490.1"/>
						<line class="st8" x1="206.8" y1="489" x2="101" y2="481"/>
						<line class="st8" x1="207.5" y1="479.8" x2="101.7" y2="471.8"/>
						<line class="st8" x1="208.2" y1="470.6" x2="102.4" y2="462.6"/>
						<line class="st8" x1="208.9" y1="461.4" x2="103.1" y2="453.5"/>
						<polygon class="st7" points="252.7,489.8 237.4,512.3 264.5,514.3 252.7,489.8 237.4,512.3 264.5,514.3 						"/>
						<line class="st3" x1="742.9" y1="55" x2="710.4" y2="195.3"/>
						<line class="st3" x1="742.9" y1="55" x2="710.4" y2="195.3"/>
						<line class="st3" x1="744.6" y1="60.7" x2="714.6" y2="190.4"/>
						<line class="st3" x1="744.6" y1="60.7" x2="714.6" y2="190.4"/>
						<line class="st3" x1="746.4" y1="66.4" x2="718.8" y2="185.4"/>
						<line class="st3" x1="746.4" y1="66.4" x2="718.8" y2="185.4"/>
						<line class="st3" x1="748.1" y1="72.1" x2="723" y2="180.5"/>
						<line class="st3" x1="748.1" y1="72.1" x2="723" y2="180.5"/>
						<line class="st3" x1="749.9" y1="77.8" x2="727.2" y2="175.5"/>
						<line class="st3" x1="749.9" y1="77.8" x2="727.2" y2="175.5"/>
						<line class="st3" x1="751.6" y1="83.6" x2="731.4" y2="170.6"/>
						<line class="st3" x1="751.6" y1="83.6" x2="731.4" y2="170.6"/>
						<line class="st3" x1="731.5" y1="104.5" x2="698.9" y2="244.8"/>
						<line class="st3" x1="731.5" y1="104.5" x2="698.9" y2="244.8"/>
						<line class="st3" x1="733.2" y1="110.2" x2="703.2" y2="239.8"/>
						<line class="st3" x1="733.2" y1="110.2" x2="703.2" y2="239.8"/>
						<line class="st3" x1="734.9" y1="115.9" x2="707.4" y2="234.9"/>
						<line class="st3" x1="734.9" y1="115.9" x2="707.4" y2="234.9"/>
						<line class="st3" x1="736.7" y1="121.6" x2="711.6" y2="229.9"/>
						<line class="st3" x1="736.7" y1="121.6" x2="711.6" y2="229.9"/>
						<line class="st3" x1="738.4" y1="127.3" x2="715.8" y2="225"/>
						<line class="st3" x1="738.4" y1="127.3" x2="715.8" y2="225"/>
						<line class="st3" x1="768.6" y1="139.1" x2="736.1" y2="279.4"/>
						<line class="st3" x1="768.6" y1="139.1" x2="736.1" y2="279.4"/>
						<line class="st3" x1="770.3" y1="144.8" x2="740.3" y2="274.5"/>
						<line class="st3" x1="770.3" y1="144.8" x2="740.3" y2="274.5"/>
						<line class="st4" x1="772" y1="150.5" x2="744.5" y2="269.5"/>
						<line class="st4" x1="772" y1="150.5" x2="744.5" y2="269.5"/>
						<line class="st4" x1="773.8" y1="156.2" x2="748.7" y2="264.6"/>
						<line class="st4" x1="773.8" y1="156.2" x2="748.7" y2="264.6"/>
						<line class="st4" x1="757.1" y1="188.6" x2="724.6" y2="328.9"/>
						<line class="st4" x1="757.1" y1="188.6" x2="724.6" y2="328.9"/>
						<line class="st4" x1="758.8" y1="194.3" x2="728.8" y2="323.9"/>
						<line class="st4" x1="758.8" y1="194.3" x2="728.8" y2="323.9"/>
						<line class="st4" x1="760.6" y1="200" x2="733" y2="319"/>
						<line class="st4" x1="760.6" y1="200" x2="733" y2="319"/>
						<line class="st4" x1="762.3" y1="205.7" x2="737.2" y2="314"/>
						<line class="st4" x1="762.3" y1="205.7" x2="737.2" y2="314"/>
						<polygon class="st5" points="616.5,283.4 593.9,381 689.8,351.8 616.5,283.4 593.9,381 689.8,351.8 						"/>
						<polygon class="st6" points="658.3,166.1 633.2,274.4 739.6,241.9 658.3,166.1 633.2,274.4 739.6,241.9 						"/>
						<polygon class="st7" points="637.2,287.4 622.9,348.9 683.3,330.5 637.2,287.4 622.9,348.9 683.3,330.5 						"/>
						<line class="st8" x1="725.7" y1="134.8" x2="624.2" y2="165.8"/>
						<line class="st8" x1="723" y1="126" x2="621.5" y2="157"/>
						<line class="st8" x1="720.3" y1="117.2" x2="618.8" y2="148.2"/>
						<line class="st8" x1="717.6" y1="108.4" x2="616.1" y2="139.4"/>
						<line class="st8" x1="715" y1="99.6" x2="613.5" y2="130.6"/>
						<path class="st9" d="M471.8,260.2c13.8-4.2,19.6,14.9,33.4,10.8c13.8-4.1,8-23.3,21.7-27.5s19.6,14.9,33.4,10.7
							c13.8-4.2,8-23.3,21.7-27.5s19.6,14.9,33.4,10.7"/>
						<polygon class="st5" points="803.1,279.4 746.6,362.2 846.5,369.7 803.1,279.4 746.6,362.2 846.5,369.7 						"/>
						<line class="st3" x1="366.6" y1="213.8" x2="334.1" y2="354.1"/>
						<line class="st3" x1="366.6" y1="213.8" x2="334.1" y2="354.1"/>
						<line class="st3" x1="368.3" y1="219.5" x2="338.3" y2="349.2"/>
						<line class="st3" x1="368.3" y1="219.5" x2="338.3" y2="349.2"/>
						<line class="st3" x1="370.1" y1="225.2" x2="342.5" y2="344.2"/>
						<line class="st3" x1="370.1" y1="225.2" x2="342.5" y2="344.2"/>
						<line class="st3" x1="371.8" y1="230.9" x2="346.7" y2="339.3"/>
						<line class="st3" x1="371.8" y1="230.9" x2="346.7" y2="339.3"/>
						<line class="st3" x1="373.6" y1="236.6" x2="350.9" y2="334.3"/>
						<line class="st3" x1="373.6" y1="236.6" x2="350.9" y2="334.3"/>
						<line class="st3" x1="375.3" y1="242.3" x2="355.1" y2="329.3"/>
						<line class="st3" x1="375.3" y1="242.3" x2="355.1" y2="329.3"/>
						<line class="st3" x1="355.1" y1="263.3" x2="322.6" y2="403.6"/>
						<line class="st3" x1="355.1" y1="263.3" x2="322.6" y2="403.6"/>
						<line class="st3" x1="356.9" y1="269" x2="326.9" y2="398.6"/>
						<line class="st3" x1="356.9" y1="269" x2="326.9" y2="398.6"/>
						<line class="st3" x1="358.6" y1="274.7" x2="331.1" y2="393.7"/>
						<line class="st3" x1="358.6" y1="274.7" x2="331.1" y2="393.7"/>
						<line class="st3" x1="360.4" y1="280.4" x2="335.3" y2="388.7"/>
						<line class="st3" x1="360.4" y1="280.4" x2="335.3" y2="388.7"/>
						<line class="st3" x1="362.1" y1="286.1" x2="339.5" y2="383.8"/>
						<line class="st3" x1="362.1" y1="286.1" x2="339.5" y2="383.8"/>
						<line class="st3" x1="392.2" y1="297.9" x2="359.7" y2="438.2"/>
						<line class="st3" x1="392.2" y1="297.9" x2="359.7" y2="438.2"/>
						<line class="st3" x1="394" y1="303.6" x2="363.9" y2="433.3"/>
						<line class="st3" x1="394" y1="303.6" x2="363.9" y2="433.3"/>
						<line class="st4" x1="395.7" y1="309.3" x2="368.1" y2="428.3"/>
						<line class="st4" x1="395.7" y1="309.3" x2="368.1" y2="428.3"/>
						<line class="st4" x1="397.5" y1="315" x2="372.4" y2="423.4"/>
						<line class="st4" x1="397.5" y1="315" x2="372.4" y2="423.4"/>
						<line class="st4" x1="399.2" y1="320.7" x2="376.6" y2="418.4"/>
						<line class="st4" x1="399.2" y1="320.7" x2="376.6" y2="418.4"/>
						<line class="st4" x1="400.9" y1="326.4" x2="380.8" y2="413.4"/>
						<line class="st4" x1="400.9" y1="326.4" x2="380.8" y2="413.4"/>
						<line class="st4" x1="402.7" y1="332.1" x2="385" y2="408.5"/>
						<line class="st4" x1="402.7" y1="332.1" x2="385" y2="408.5"/>
						<line class="st4" x1="404.4" y1="337.8" x2="389.2" y2="403.5"/>
						<line class="st4" x1="404.4" y1="337.8" x2="389.2" y2="403.5"/>
						<line class="st4" x1="406.1" y1="343.5" x2="393.4" y2="398.6"/>
						<line class="st4" x1="406.1" y1="343.5" x2="393.4" y2="398.6"/>
						<line class="st4" x1="380.8" y1="347.4" x2="348.3" y2="487.7"/>
						<line class="st4" x1="380.8" y1="347.4" x2="348.3" y2="487.7"/>
						<line class="st4" x1="382.5" y1="353.1" x2="352.5" y2="482.7"/>
						<line class="st4" x1="382.5" y1="353.1" x2="352.5" y2="482.7"/>
						<line class="st4" x1="384.3" y1="358.8" x2="356.7" y2="477.8"/>
						<line class="st4" x1="384.3" y1="358.8" x2="356.7" y2="477.8"/>
						<line class="st4" x1="386" y1="364.5" x2="360.9" y2="472.8"/>
						<line class="st4" x1="386" y1="364.5" x2="360.9" y2="472.8"/>
						<polygon class="st5" points="240.2,442.2 217.6,539.8 313.5,510.6 240.2,442.2 217.6,539.8 313.5,510.6 						"/>
						<polygon class="st6" points="282,324.8 256.9,433.2 363.2,400.7 282,324.8 256.9,433.2 363.2,400.7 						"/>
						<line class="st4" x1="417.9" y1="382" x2="385.4" y2="522.3"/>
						<line class="st4" x1="417.9" y1="382" x2="385.4" y2="522.3"/>
						<line class="st4" x1="419.6" y1="387.7" x2="389.6" y2="517.4"/>
						<line class="st4" x1="419.6" y1="387.7" x2="389.6" y2="517.4"/>
						<polygon class="st7" points="260.9,446.2 246.6,507.6 306.9,489.3 260.9,446.2 246.6,507.6 306.9,489.3 						"/>
						<polygon class="st10" points="432.6,380.1 418.4,441.5 478.7,423.1 432.6,380.1 418.4,441.5 478.7,423.1 						"/>
						<polygon class="st7" points="432.6,298.2 418.4,359.6 478.7,341.2 432.6,298.2 418.4,359.6 478.7,341.2 						"/>
						<line class="st8" x1="349.4" y1="293.6" x2="247.9" y2="324.6"/>
						<line class="st8" x1="346.7" y1="284.8" x2="245.2" y2="315.8"/>
						<line class="st8" x1="344" y1="276" x2="242.5" y2="306.9"/>
						<line class="st8" x1="341.3" y1="267.2" x2="239.8" y2="298.2"/>
						<line class="st8" x1="338.6" y1="258.4" x2="237.1" y2="289.4"/>
						<path class="st9" d="M95.5,419c13.8-4.2,19.6,14.9,33.4,10.7s8-23.3,21.7-27.5s19.6,14.9,33.4,10.7s8-23.3,21.7-27.5
							s19.6,14.9,33.4,10.7"/>
						<polygon class="st7" points="389.8,269 383.7,295.5 409.7,287.5 389.8,269 383.7,295.5 409.7,287.5 						"/>
						<line class="st3" x1="627.4" y1="271.3" x2="546.2" y2="390.2"/>
						<line class="st3" x1="627.4" y1="271.3" x2="546.2" y2="390.2"/>
						<line class="st3" x1="627" y1="277.2" x2="551.9" y2="387.1"/>
						<line class="st3" x1="627" y1="277.2" x2="551.9" y2="387.1"/>
						<line class="st3" x1="626.5" y1="283.1" x2="557.7" y2="384"/>
						<line class="st3" x1="626.5" y1="283.1" x2="557.7" y2="384"/>
						<line class="st3" x1="626.1" y1="289.1" x2="563.4" y2="380.9"/>
						<line class="st3" x1="626.1" y1="289.1" x2="563.4" y2="380.9"/>
						<line class="st3" x1="625.6" y1="295" x2="569.1" y2="377.8"/>
						<line class="st3" x1="625.6" y1="295" x2="569.1" y2="377.8"/>
						<line class="st3" x1="625.2" y1="301" x2="574.8" y2="374.7"/>
						<line class="st3" x1="625.2" y1="301" x2="574.8" y2="374.7"/>
						<line class="st3" x1="598.8" y1="313.2" x2="517.6" y2="432.1"/>
						<line class="st3" x1="598.8" y1="313.2" x2="517.6" y2="432.1"/>
						<line class="st3" x1="598.4" y1="319.1" x2="523.3" y2="429"/>
						<line class="st3" x1="598.4" y1="319.1" x2="523.3" y2="429"/>
						<line class="st3" x1="597.9" y1="325.1" x2="529.1" y2="425.9"/>
						<line class="st3" x1="597.9" y1="325.1" x2="529.1" y2="425.9"/>
						<line class="st3" x1="597.5" y1="331" x2="534.8" y2="422.8"/>
						<line class="st3" x1="597.5" y1="331" x2="534.8" y2="422.8"/>
						<line class="st3" x1="597" y1="337" x2="540.5" y2="419.8"/>
						<line class="st3" x1="597" y1="337" x2="540.5" y2="419.8"/>
						<line class="st3" x1="620.8" y1="358.9" x2="539.6" y2="477.9"/>
						<line class="st3" x1="620.8" y1="358.9" x2="539.6" y2="477.9"/>
						<line class="st3" x1="620.4" y1="364.9" x2="545.3" y2="474.8"/>
						<line class="st3" x1="620.4" y1="364.9" x2="545.3" y2="474.8"/>
						<line class="st4" x1="619.9" y1="370.8" x2="551.1" y2="471.7"/>
						<line class="st4" x1="619.9" y1="370.8" x2="551.1" y2="471.7"/>
						<line class="st4" x1="619.5" y1="376.8" x2="556.8" y2="468.6"/>
						<line class="st4" x1="619.5" y1="376.8" x2="556.8" y2="468.6"/>
						<line class="st4" x1="619" y1="382.7" x2="562.5" y2="465.5"/>
						<line class="st4" x1="619" y1="382.7" x2="562.5" y2="465.5"/>
						<line class="st4" x1="618.6" y1="388.6" x2="568.2" y2="462.4"/>
						<line class="st4" x1="618.6" y1="388.6" x2="568.2" y2="462.4"/>
						<line class="st4" x1="618.1" y1="394.6" x2="573.9" y2="459.3"/>
						<line class="st4" x1="618.1" y1="394.6" x2="573.9" y2="459.3"/>
						<line class="st4" x1="617.7" y1="400.5" x2="579.7" y2="456.2"/>
						<line class="st4" x1="617.7" y1="400.5" x2="579.7" y2="456.2"/>
						<line class="st4" x1="617.2" y1="406.5" x2="585.4" y2="453.1"/>
						<line class="st4" x1="617.2" y1="406.5" x2="585.4" y2="453.1"/>
						<line class="st4" x1="592.2" y1="400.8" x2="511" y2="519.8"/>
						<line class="st4" x1="592.2" y1="400.8" x2="511" y2="519.8"/>
						<line class="st4" x1="591.7" y1="406.8" x2="516.7" y2="516.7"/>
						<line class="st4" x1="591.7" y1="406.8" x2="516.7" y2="516.7"/>
						<line class="st4" x1="591.3" y1="412.7" x2="522.4" y2="513.6"/>
						<line class="st4" x1="591.3" y1="412.7" x2="522.4" y2="513.6"/>
						<line class="st4" x1="590.9" y1="418.7" x2="528.2" y2="510.5"/>
						<line class="st4" x1="590.9" y1="418.7" x2="528.2" y2="510.5"/>
						<polygon class="st5" points="426.8,438.2 370.3,521 470.2,528.5 426.8,438.2 370.3,521 470.2,528.5 						"/>
						<polygon class="st6" points="508.3,344 445.6,435.8 556.5,444.2 508.3,344 445.6,435.8 556.5,444.2 						"/>
						<line class="st4" x1="614.2" y1="446.6" x2="533" y2="565.5"/>
						<line class="st4" x1="614.2" y1="446.6" x2="533" y2="565.5"/>
						<line class="st4" x1="613.7" y1="452.5" x2="538.7" y2="562.4"/>
						<line class="st4" x1="613.7" y1="452.5" x2="538.7" y2="562.4"/>
						<polygon class="st7" points="444.6,449.4 409,501.5 471.9,506.3 444.6,449.4 409,501.5 471.9,506.3 						"/>
						<polygon class="st10" points="628.6,450.1 593.1,502.2 656,507 628.6,450.1 593.1,502.2 656,507 						"/>
						<polygon class="st5" points="531.6,372.4 496.1,424.5 558.9,429.2 531.6,372.4 496.1,424.5 558.9,429.2 						"/>
						<line class="st8" x1="582.4" y1="339.3" x2="476.6" y2="331.4"/>
						<line class="st8" x1="583.1" y1="330.2" x2="477.3" y2="322.2"/>
						<line class="st8" x1="583.8" y1="321" x2="478" y2="313"/>
						<line class="st8" x1="584.5" y1="311.8" x2="478.7" y2="303.8"/>
						<line class="st8" x1="585.2" y1="302.6" x2="479.4" y2="294.7"/>
						<polygon class="st7" points="629,331 613.7,353.5 640.8,355.5 629,331 613.7,353.5 640.8,355.5 						"/>
						<line class="st3" x1="15.9" y1="139.1" x2="-16.6" y2="279.4"/>
						<line class="st3" x1="15.9" y1="139.1" x2="-16.6" y2="279.4"/>
						<line class="st3" x1="17.7" y1="144.8" x2="-12.4" y2="274.5"/>
						<line class="st3" x1="17.7" y1="144.8" x2="-12.4" y2="274.5"/>
						<line class="st4" x1="19.4" y1="150.5" x2="-8.2" y2="269.5"/>
						<line class="st4" x1="19.4" y1="150.5" x2="-8.2" y2="269.5"/>
						<line class="st4" x1="21.1" y1="156.2" x2="-3.9" y2="264.6"/>
						<line class="st4" x1="21.1" y1="156.2" x2="-3.9" y2="264.6"/>
						<line class="st4" x1="22.9" y1="161.9" x2="0.3" y2="259.6"/>
						<line class="st4" x1="22.9" y1="161.9" x2="0.3" y2="259.6"/>
						<line class="st4" x1="24.6" y1="167.7" x2="4.5" y2="254.6"/>
						<line class="st4" x1="24.6" y1="167.7" x2="4.5" y2="254.6"/>
						<line class="st4" x1="26.4" y1="173.3" x2="8.7" y2="249.7"/>
						<line class="st4" x1="26.4" y1="173.3" x2="8.7" y2="249.7"/>
						<line class="st4" x1="28.1" y1="179.1" x2="12.9" y2="244.7"/>
						<line class="st4" x1="28.1" y1="179.1" x2="12.9" y2="244.7"/>
						<line class="st4" x1="29.8" y1="184.8" x2="17.1" y2="239.8"/>
						<line class="st4" x1="29.8" y1="184.8" x2="17.1" y2="239.8"/>
						<line class="st4" x1="4.5" y1="188.6" x2="-28" y2="328.9"/>
						<line class="st4" x1="4.5" y1="188.6" x2="-28" y2="328.9"/>
						<line class="st4" x1="6.2" y1="194.3" x2="-23.8" y2="323.9"/>
						<line class="st4" x1="6.2" y1="194.3" x2="-23.8" y2="323.9"/>
						<line class="st4" x1="8" y1="200" x2="-19.6" y2="319"/>
						<line class="st4" x1="8" y1="200" x2="-19.6" y2="319"/>
						<line class="st4" x1="9.7" y1="205.7" x2="-15.4" y2="314"/>
						<line class="st4" x1="9.7" y1="205.7" x2="-15.4" y2="314"/>
						<line class="st4" x1="41.6" y1="223.2" x2="9.1" y2="363.5"/>
						<line class="st4" x1="41.6" y1="223.2" x2="9.1" y2="363.5"/>
						<line class="st4" x1="43.3" y1="228.9" x2="13.3" y2="358.6"/>
						<line class="st4" x1="43.3" y1="228.9" x2="13.3" y2="358.6"/>
						<polygon class="st10" points="56.3,221.3 42.1,282.7 102.4,264.4 56.3,221.3 42.1,282.7 102.4,264.4 						"/>
						<polygon class="st7" points="56.3,139.4 42.1,200.8 102.4,182.4 56.3,139.4 42.1,200.8 102.4,182.4 						"/>
						<polygon class="st7" points="13.5,110.2 7.4,136.7 33.4,128.7 13.5,110.2 7.4,136.7 33.4,128.7 						"/>
						<line class="st3" x1="251.1" y1="112.5" x2="169.9" y2="231.4"/>
						<line class="st3" x1="251.1" y1="112.5" x2="169.9" y2="231.4"/>
						<line class="st3" x1="250.7" y1="118.4" x2="175.6" y2="228.3"/>
						<line class="st3" x1="250.7" y1="118.4" x2="175.6" y2="228.3"/>
						<line class="st3" x1="250.2" y1="124.3" x2="181.4" y2="225.2"/>
						<line class="st3" x1="250.2" y1="124.3" x2="181.4" y2="225.2"/>
						<line class="st3" x1="249.8" y1="130.3" x2="187.1" y2="222.1"/>
						<line class="st3" x1="249.8" y1="130.3" x2="187.1" y2="222.1"/>
						<line class="st3" x1="249.3" y1="136.2" x2="192.8" y2="219"/>
						<line class="st3" x1="249.3" y1="136.2" x2="192.8" y2="219"/>
						<line class="st3" x1="248.9" y1="142.2" x2="198.5" y2="215.9"/>
						<line class="st3" x1="248.9" y1="142.2" x2="198.5" y2="215.9"/>
						<line class="st3" x1="222.5" y1="154.4" x2="141.3" y2="273.3"/>
						<line class="st3" x1="222.5" y1="154.4" x2="141.3" y2="273.3"/>
						<line class="st3" x1="222" y1="160.3" x2="147" y2="270.3"/>
						<line class="st3" x1="222" y1="160.3" x2="147" y2="270.3"/>
						<line class="st3" x1="221.6" y1="166.3" x2="152.7" y2="267.1"/>
						<line class="st3" x1="221.6" y1="166.3" x2="152.7" y2="267.1"/>
						<line class="st3" x1="221.2" y1="172.2" x2="158.5" y2="264.1"/>
						<line class="st3" x1="221.2" y1="172.2" x2="158.5" y2="264.1"/>
						<line class="st3" x1="220.7" y1="178.2" x2="164.2" y2="261"/>
						<line class="st3" x1="220.7" y1="178.2" x2="164.2" y2="261"/>
						<line class="st3" x1="244.5" y1="200.1" x2="163.3" y2="319.1"/>
						<line class="st3" x1="244.5" y1="200.1" x2="163.3" y2="319.1"/>
						<line class="st3" x1="244" y1="206.1" x2="169" y2="316"/>
						<line class="st3" x1="244" y1="206.1" x2="169" y2="316"/>
						<line class="st4" x1="243.6" y1="212" x2="174.7" y2="312.9"/>
						<line class="st4" x1="243.6" y1="212" x2="174.7" y2="312.9"/>
						<line class="st4" x1="243.2" y1="218" x2="180.5" y2="309.8"/>
						<line class="st4" x1="243.2" y1="218" x2="180.5" y2="309.8"/>
						<line class="st4" x1="242.7" y1="223.9" x2="186.2" y2="306.7"/>
						<line class="st4" x1="242.7" y1="223.9" x2="186.2" y2="306.7"/>
						<line class="st4" x1="242.2" y1="229.9" x2="191.9" y2="303.6"/>
						<line class="st4" x1="242.2" y1="229.9" x2="191.9" y2="303.6"/>
						<line class="st4" x1="241.8" y1="235.8" x2="197.6" y2="300.5"/>
						<line class="st4" x1="241.8" y1="235.8" x2="197.6" y2="300.5"/>
						<line class="st4" x1="241.4" y1="241.7" x2="203.4" y2="297.4"/>
						<line class="st4" x1="241.4" y1="241.7" x2="203.4" y2="297.4"/>
						<line class="st4" x1="240.9" y1="247.7" x2="209.1" y2="294.3"/>
						<line class="st4" x1="240.9" y1="247.7" x2="209.1" y2="294.3"/>
						<line class="st4" x1="215.9" y1="242" x2="134.7" y2="361"/>
						<line class="st4" x1="215.9" y1="242" x2="134.7" y2="361"/>
						<line class="st4" x1="215.4" y1="248" x2="140.4" y2="357.9"/>
						<line class="st4" x1="215.4" y1="248" x2="140.4" y2="357.9"/>
						<line class="st4" x1="215" y1="253.9" x2="146.1" y2="354.8"/>
						<line class="st4" x1="215" y1="253.9" x2="146.1" y2="354.8"/>
						<line class="st4" x1="214.5" y1="259.9" x2="151.9" y2="351.7"/>
						<line class="st4" x1="214.5" y1="259.9" x2="151.9" y2="351.7"/>
						<polygon class="st5" points="50.5,279.4 -6.1,362.2 93.9,369.7 50.5,279.4 -6.1,362.2 93.9,369.7 						"/>
						<polygon class="st6" points="132,185.2 69.3,277.1 180.2,285.4 132,185.2 69.3,277.1 180.2,285.4 						"/>
						<line class="st4" x1="237.9" y1="287.8" x2="156.7" y2="406.7"/>
						<line class="st4" x1="237.9" y1="287.8" x2="156.7" y2="406.7"/>
						<line class="st4" x1="237.4" y1="293.7" x2="162.4" y2="403.6"/>
						<line class="st4" x1="237.4" y1="293.7" x2="162.4" y2="403.6"/>
						<polygon class="st7" points="68.3,290.7 32.7,342.7 95.6,347.5 68.3,290.7 32.7,342.7 95.6,347.5 						"/>
						<polygon class="st10" points="252.3,291.4 216.8,343.4 279.6,348.2 252.3,291.4 216.8,343.4 279.6,348.2 						"/>
						<polygon class="st5" points="155.3,213.6 119.7,265.7 182.6,270.4 155.3,213.6 119.7,265.7 182.6,270.4 						"/>
						<line class="st8" x1="206.1" y1="180.6" x2="100.3" y2="172.6"/>
						<line class="st8" x1="206.8" y1="171.4" x2="101" y2="163.4"/>
						<line class="st8" x1="207.5" y1="162.2" x2="101.7" y2="154.2"/>
						<line class="st8" x1="208.2" y1="153" x2="102.4" y2="145.1"/>
						<line class="st8" x1="208.9" y1="143.9" x2="103.1" y2="135.9"/>
						<polygon class="st7" points="252.7,172.3 237.4,194.7 264.5,196.8 252.7,172.3 237.4,194.7 264.5,196.8 						"/>
						<line class="st3" x1="355.1" y1="-54.3" x2="322.6" y2="86"/>
						<line class="st3" x1="355.1" y1="-54.3" x2="322.6" y2="86"/>
						<line class="st3" x1="356.9" y1="-48.6" x2="326.9" y2="81.1"/>
						<line class="st3" x1="356.9" y1="-48.6" x2="326.9" y2="81.1"/>
						<line class="st3" x1="358.6" y1="-42.9" x2="331.1" y2="76.1"/>
						<line class="st3" x1="358.6" y1="-42.9" x2="331.1" y2="76.1"/>
						<line class="st3" x1="392.2" y1="-19.7" x2="359.7" y2="120.7"/>
						<line class="st3" x1="392.2" y1="-19.7" x2="359.7" y2="120.7"/>
						<line class="st3" x1="394" y1="-13.9" x2="363.9" y2="115.7"/>
						<line class="st3" x1="394" y1="-13.9" x2="363.9" y2="115.7"/>
						<line class="st4" x1="395.7" y1="-8.3" x2="368.1" y2="110.7"/>
						<line class="st4" x1="395.7" y1="-8.3" x2="368.1" y2="110.7"/>
						<line class="st4" x1="397.5" y1="-2.6" x2="372.4" y2="105.8"/>
						<line class="st4" x1="397.5" y1="-2.6" x2="372.4" y2="105.8"/>
						<line class="st4" x1="399.2" y1="3.2" x2="376.6" y2="100.8"/>
						<line class="st4" x1="399.2" y1="3.2" x2="376.6" y2="100.8"/>
						<line class="st4" x1="400.9" y1="8.9" x2="380.8" y2="95.9"/>
						<line class="st4" x1="400.9" y1="8.9" x2="380.8" y2="95.9"/>
						<line class="st4" x1="402.7" y1="14.6" x2="385" y2="90.9"/>
						<line class="st4" x1="402.7" y1="14.6" x2="385" y2="90.9"/>
						<line class="st4" x1="404.4" y1="20.3" x2="389.2" y2="85.9"/>
						<line class="st4" x1="404.4" y1="20.3" x2="389.2" y2="85.9"/>
						<line class="st4" x1="406.1" y1="26" x2="393.4" y2="81"/>
						<line class="st4" x1="406.1" y1="26" x2="393.4" y2="81"/>
						<line class="st4" x1="380.8" y1="29.8" x2="348.3" y2="170.1"/>
						<line class="st4" x1="380.8" y1="29.8" x2="348.3" y2="170.1"/>
						<line class="st4" x1="382.5" y1="35.5" x2="352.5" y2="165.1"/>
						<line class="st4" x1="382.5" y1="35.5" x2="352.5" y2="165.1"/>
						<line class="st4" x1="384.3" y1="41.2" x2="356.7" y2="160.2"/>
						<line class="st4" x1="384.3" y1="41.2" x2="356.7" y2="160.2"/>
						<line class="st4" x1="386" y1="46.9" x2="360.9" y2="155.2"/>
						<line class="st4" x1="386" y1="46.9" x2="360.9" y2="155.2"/>
						<polygon class="st5" points="240.2,124.6 217.6,222.3 313.5,193 240.2,124.6 217.6,222.3 313.5,193 						"/>
						<polygon class="st6" points="282,7.3 256.9,115.6 363.2,83.2 282,7.3 256.9,115.6 363.2,83.2 						"/>
						<line class="st4" x1="417.9" y1="64.4" x2="385.4" y2="204.7"/>
						<line class="st4" x1="417.9" y1="64.4" x2="385.4" y2="204.7"/>
						<line class="st4" x1="419.6" y1="70.1" x2="389.6" y2="199.8"/>
						<line class="st4" x1="419.6" y1="70.1" x2="389.6" y2="199.8"/>
						<polygon class="st7" points="260.9,128.6 246.6,190.1 306.9,171.7 260.9,128.6 246.6,190.1 306.9,171.7 						"/>
						<polygon class="st10" points="432.6,62.5 418.4,124 478.7,105.6 432.6,62.5 418.4,124 478.7,105.6 						"/>
						<path class="st9" d="M95.5,101.5c13.8-4.2,19.6,14.9,33.4,10.7c13.8-4.2,8-23.3,21.7-27.5s19.6,14.9,33.4,10.7
							s8-23.3,21.7-27.5s19.6,14.9,33.4,10.7"/>
						<line class="st3" x1="598.8" y1="-4.4" x2="517.6" y2="114.5"/>
						<line class="st3" x1="598.8" y1="-4.4" x2="517.6" y2="114.5"/>
						<line class="st3" x1="598.4" y1="1.5" x2="523.3" y2="111.5"/>
						<line class="st3" x1="598.4" y1="1.5" x2="523.3" y2="111.5"/>
						<line class="st3" x1="597.9" y1="7.5" x2="529.1" y2="108.4"/>
						<line class="st3" x1="597.9" y1="7.5" x2="529.1" y2="108.4"/>
						<line class="st3" x1="597.5" y1="13.4" x2="534.8" y2="105.3"/>
						<line class="st3" x1="597.5" y1="13.4" x2="534.8" y2="105.3"/>
						<line class="st3" x1="597" y1="19.4" x2="540.5" y2="102.2"/>
						<line class="st3" x1="597" y1="19.4" x2="540.5" y2="102.2"/>
						<line class="st3" x1="620.8" y1="41.3" x2="539.6" y2="160.3"/>
						<line class="st3" x1="620.8" y1="41.3" x2="539.6" y2="160.3"/>
						<line class="st3" x1="620.4" y1="47.3" x2="545.3" y2="157.2"/>
						<line class="st3" x1="620.4" y1="47.3" x2="545.3" y2="157.2"/>
						<line class="st4" x1="619.9" y1="53.2" x2="551.1" y2="154.1"/>
						<line class="st4" x1="619.9" y1="53.2" x2="551.1" y2="154.1"/>
						<line class="st4" x1="619.5" y1="59.2" x2="556.8" y2="151"/>
						<line class="st4" x1="619.5" y1="59.2" x2="556.8" y2="151"/>
						<line class="st4" x1="619" y1="65.1" x2="562.5" y2="147.9"/>
						<line class="st4" x1="619" y1="65.1" x2="562.5" y2="147.9"/>
						<line class="st4" x1="618.6" y1="71.1" x2="568.2" y2="144.8"/>
						<line class="st4" x1="618.6" y1="71.1" x2="568.2" y2="144.8"/>
						<line class="st4" x1="618.1" y1="77" x2="573.9" y2="141.7"/>
						<line class="st4" x1="618.1" y1="77" x2="573.9" y2="141.7"/>
						<line class="st4" x1="617.7" y1="82.9" x2="579.7" y2="138.6"/>
						<line class="st4" x1="617.7" y1="82.9" x2="579.7" y2="138.6"/>
						<line class="st4" x1="617.2" y1="88.9" x2="585.4" y2="135.5"/>
						<line class="st4" x1="617.2" y1="88.9" x2="585.4" y2="135.5"/>
						<line class="st4" x1="592.2" y1="83.3" x2="511" y2="202.2"/>
						<line class="st4" x1="592.2" y1="83.3" x2="511" y2="202.2"/>
						<line class="st4" x1="591.7" y1="89.2" x2="516.7" y2="199.1"/>
						<line class="st4" x1="591.7" y1="89.2" x2="516.7" y2="199.1"/>
						<line class="st4" x1="591.3" y1="95.1" x2="522.4" y2="196"/>
						<line class="st4" x1="591.3" y1="95.1" x2="522.4" y2="196"/>
						<line class="st4" x1="590.9" y1="101.1" x2="528.2" y2="192.9"/>
						<line class="st4" x1="590.9" y1="101.1" x2="528.2" y2="192.9"/>
						<polygon class="st5" points="426.8,120.6 370.3,203.4 470.2,210.9 426.8,120.6 370.3,203.4 470.2,210.9 						"/>
						<polygon class="st6" points="508.3,26.4 445.6,118.3 556.5,126.6 508.3,26.4 445.6,118.3 556.5,126.6 						"/>
						<line class="st4" x1="614.2" y1="129" x2="533" y2="248"/>
						<line class="st4" x1="614.2" y1="129" x2="533" y2="248"/>
						<line class="st4" x1="613.7" y1="134.9" x2="538.7" y2="244.9"/>
						<line class="st4" x1="613.7" y1="134.9" x2="538.7" y2="244.9"/>
						<polygon class="st7" points="444.6,131.9 409,183.9 471.9,188.7 444.6,131.9 409,183.9 471.9,188.7 						"/>
						<polygon class="st10" points="628.6,132.6 593.1,184.7 656,189.4 628.6,132.6 593.1,184.7 656,189.4 						"/>
						<polygon class="st5" points="531.6,54.8 496.1,106.9 558.9,111.7 531.6,54.8 496.1,106.9 558.9,111.7 						"/>
						<line class="st4" x1="237.9" y1="-29.8" x2="156.7" y2="89.2"/>
						<line class="st4" x1="237.9" y1="-29.8" x2="156.7" y2="89.2"/>
						<line class="st4" x1="237.4" y1="-23.8" x2="162.4" y2="86.1"/>
						<line class="st4" x1="237.4" y1="-23.8" x2="162.4" y2="86.1"/>
					</g>
				</g>
			</g>
		</g>
		<g>
			<path class="st0" d="M277.7,462.1c-33.4,0-60.6-27.2-60.6-60.6s27.2-60.6,60.6-60.6s60.6,27.2,60.6,60.6
				C338.3,434.9,311.1,462.1,277.7,462.1z"/>
			<g>
				<path class="st5" d="M277.7,341.9c32.9,0,59.6,26.7,59.6,59.6s-26.7,59.6-59.6,59.6s-59.6-26.7-59.6-59.6
					C218,368.6,244.8,341.9,277.7,341.9 M277.7,339.9c-34,0-61.6,27.6-61.6,61.6s27.6,61.6,61.6,61.6s61.6-27.6,61.6-61.6
					C339.3,367.4,311.7,339.9,277.7,339.9L277.7,339.9z"/>
			</g>
		</g>
		<g class="st11">
			<g class="st12">
				<path class="st13" d="M291.2,353.5L291.2,353.5c0-5-27.1-5-27.1,0c0,23.8,0,96,0,96l0,0l0,0c0,5,27.1,5,27.1,0
					C291.2,425.6,291.2,353.5,291.2,353.5L291.2,353.5z"/>
			</g>
			<g class="st12">
				<path class="st13" d="M229.7,387.9L229.7,387.9c-5,0-5,27.1,0,27.1c23.9,0,96,0,96,0l0,0l0,0c5,0,5-27.1,0-27.1
					C301.8,387.9,229.7,387.9,229.7,387.9L229.7,387.9z"/>
			</g>
		</g>
		<g class="st11">
			<g class="st12">
				<path class="st14" d="M277.7,349.8c6.8,0,13.6,1.2,13.6,3.7l0,0l0,0c0,0,0,15.4,0,34.4c13.8,0,26.7,0,34.4,0c5,0,5,27.1,0,27.1
					l0,0l0,0c0,0-15.5,0-34.4,0c0,13.8,0,26.7,0,34.4c0,2.5-6.8,3.7-13.6,3.7c-6.8,0-13.6-1.2-13.6-3.7l0,0l0,0c0,0,0-15.4,0-34.4
					c-13.8,0-26.7,0-34.4,0c-5,0-5-27.1,0-27.1l0,0c0,0,15.5,0,34.4,0c0-13.8,0-26.7,0-34.4C264.1,351,270.9,349.8,277.7,349.8
					 M277.7,346.2c-3.8,0-7.5,0.4-10.2,1c-5.8,1.4-7,4.2-7,6.3v30.8h-30.8c-2.1,0-4.9,1.2-6.3,7c-0.7,2.7-1,6.4-1,10.2
					c0,3.8,0.4,7.4,1,10.2c1.4,5.8,4.2,7,6.3,7h30.8v30.8v0.8l0.1,0.2c0.4,1.9,2.1,4,6.9,5.2c2.7,0.7,6.3,1,10.2,1
					c3.8,0,7.4-0.4,10.2-1c5.8-1.4,7-4.2,7-6.3v-30.8h30.8h1.5l0.3-0.3c1.7-0.7,3.4-2.5,4.5-6.6c0.7-2.7,1-6.4,1-10.2
					c0-3.8-0.4-7.4-1-10.2c-1.4-5.8-4.2-7-6.3-7h-30.8v-30.8c0-2.1-1.2-4.9-7-6.3C285.1,346.5,281.5,346.2,277.7,346.2L277.7,346.2z
					"/>
			</g>
			<line class="st15" x1="287.6" y1="357.1" x2="294.8" y2="349.9"/>
			<line class="st15" x1="267.8" y1="356.2" x2="260.9" y2="349.3"/>
			<line class="st15" x1="322.3" y1="391.3" x2="329" y2="384.6"/>
			<line class="st15" x1="322.8" y1="412.2" x2="328.5" y2="417.9"/>
			<line class="st15" x1="286.7" y1="392.5" x2="295.8" y2="383.4"/>
			<line class="st15" x1="286.1" y1="409.9" x2="296.3" y2="420.2"/>
			<line class="st15" x1="287.5" y1="445.8" x2="294.9" y2="453.2"/>
			<line class="st15" x1="268.5" y1="445.1" x2="259.7" y2="453.9"/>
			<line class="st15" x1="269.6" y1="409.6" x2="258.6" y2="420.5"/>
			<line class="st15" x1="270.3" y1="394.2" x2="257.9" y2="381.7"/>
			<line class="st15" x1="233.8" y1="411" x2="225.6" y2="419.1"/>
			<line class="st15" x1="233.4" y1="391.6" x2="226" y2="384.2"/>
		</g>
		<g class="st11">
			<g class="st12">
				<path class="st0" d="M277.7,452.7c-7.1,0-12.7-1.3-13-3.1v-0.1c0-0.1,0-15.5,0-34.4c0-0.3-0.2-0.5-0.5-0.5h-34.4
					c-1.8,0-3.2-5.7-3.2-13.1s1.4-13.1,3.2-13.1h34.4c0.3,0,0.5-0.2,0.5-0.5v-34.4v-0.1l0.1-0.2l0.1-0.1c0.5-0.8,2.1-1.5,4.5-2
					c0.3-0.1,0.6-0.1,0.9-0.2c0.4-0.1,0.7-0.1,1-0.1c0,0,0.1,0,0.2,0c0.3,0,0.6-0.1,0.9-0.1s0.7-0.1,1-0.1c0.4,0,0.7-0.1,1-0.1
					l2.4-0.1c0.4,0,0.7,0,1,0c7.3,0,13.1,1.4,13.1,3.2c0,0.2,0,16,0,34.4c0,0.3,0.2,0.5,0.5,0.5h34.4c1.8,0,3.2,5.7,3.2,13.1
					s-1.4,13.1-3.2,13.1h-34.4c-0.3,0-0.5,0.2-0.5,0.5v34.4c0,0,0,0.1,0,0.2C290.4,451.4,284.8,452.7,277.7,452.7z"/>
				<path class="st7" d="M277.7,350.8c8.1,0,12.6,1.6,12.6,2.7l0,0v34.4c0,0.6,0.4,1,1,1h34.4c1.1,0,2.7,4.8,2.7,12.6
					c0,7.8-1.6,12.6-2.7,12.6h-34.4c-0.6,0-1,0.4-1,1v34.4c0,0,0,0,0,0.1c-0.2,1.1-4.7,2.7-12.6,2.7s-12.4-1.5-12.6-2.7v-0.1V415
					c0-0.6-0.4-1-1-1h-34.4c-1.1,0-2.7-4.8-2.7-12.6s1.6-12.6,2.7-12.6h34.4c0.6,0,1-0.4,1-1v-34.4l0,0l0,0l0,0l0,0v-0.1
					c0,0,0,0,0-0.1c0.2-0.3,0.9-1.1,4.2-1.8c0,0,0,0,0.1,0c0.3-0.1,0.6-0.1,0.8-0.2h0.1c0.3-0.1,0.6-0.1,0.8-0.1c0,0,0.1,0,0.2,0
					c0.3,0,0.6-0.1,0.9-0.1l0,0c0.3,0,0.7-0.1,1-0.1l0,0l0,0c0.3,0,0.6-0.1,1-0.1h0.1c0.2,0,0.4,0,0.6,0h0.4c0.1,0,0.1,0,0.2,0
					c0.3,0,0.7,0,1,0h0.1C277,350.8,277.3,350.8,277.7,350.8 M277.7,349.8c-0.4,0-0.7,0-1.1,0h-0.1c-0.3,0-0.7,0-1,0
					c-0.1,0-0.1,0-0.2,0c-0.3,0-0.7,0-1,0h-0.1c-0.3,0-0.7,0-1,0.1l0,0c-0.3,0-0.7,0.1-1,0.1l0,0c-0.3,0-0.7,0.1-1,0.1
					c0,0,0,0-0.1,0c-0.3,0-0.6,0.1-0.9,0.1c0,0,0,0-0.1,0c-0.3,0.1-0.6,0.1-0.9,0.2l0,0c-2.4,0.5-4.3,1.2-4.9,2.2
					c0,0-0.1,0.1-0.1,0.2l0,0c0,0.1,0,0.1,0,0.2l0,0v0.1c0,0.1,0,0.1,0,0.2c0,7.7,0,20.6,0,34.4c-19,0-34.4,0-34.4,0l0,0
					c-5,0-5,27.1,0,27.1c7.8,0,20.6,0,34.4,0c0,19,0,34.4,0,34.4l0,0c0,0.1,0,0.2,0,0.2c0.4,2.3,7,3.5,13.5,3.5
					c6.6,0,13.1-1.2,13.5-3.5c0-0.1,0-0.2,0-0.2c0-7.7,0-20.6,0-34.4c19,0,34.4,0,34.4,0l0,0c5,0,5-27.1,0-27.1
					c-7.8,0-20.6,0-34.4,0c0-19,0-34.4,0-34.4l0,0l0,0C291.2,351,284.4,349.8,277.7,349.8L277.7,349.8z"/>
			</g>
			<path class="st16" d="M264.1,387.9l-3.6-3.6h-30.8c-0.9,0-1.8,0.2-2.8,0.8l2.8,2.8C229.7,387.9,245.1,387.9,264.1,387.9z"/>
			<path class="st16" d="M229.7,387.9L229.7,387.9l-2.8-2.8c-1.4,0.9-2.7,2.7-3.5,6.1c-0.7,2.7-1,6.4-1,10.2c0,3.8,0.4,7.4,1,10.2
				c0.8,3.4,2.2,5.2,3.5,6.1l2.8-2.8C224.7,415,224.7,387.9,229.7,387.9z"/>
			<path class="st16" d="M269.2,350.5L269.2,350.5c0.3-0.1,0.6-0.1,0.9-0.2c0,0,0,0,0.1,0c0.3-0.1,0.6-0.1,0.9-0.1c0,0,0,0,0.1,0
				c0.3,0,0.7-0.1,1-0.1l0,0c0.3,0,0.7-0.1,1-0.1l0,0c0.3,0,0.7-0.1,1-0.1h0.1c0.3,0,0.6,0,1,0c0.1,0,0.1,0,0.2,0c0.3,0,0.7,0,1,0
				h0.1c0.4,0,0.7,0,1.1,0c6.8,0,13.6,1.2,13.6,3.7l2.8-2.8c-0.9-1.4-2.7-2.7-6.1-3.5c-2.7-0.7-6.4-1-10.2-1c-3.8,0-7.5,0.4-10.2,1
				c-2.9,0.7-4.7,1.8-5.7,3l2.6,2.6C265,351.7,266.8,351,269.2,350.5z"/>
			<path class="st16" d="M325.7,387.9l2.8-2.8c-0.9-0.6-1.9-0.8-2.8-0.8h-30.8l-3.6,3.6C305,387.9,317.9,387.9,325.7,387.9z"/>
			<path class="st16" d="M291.2,353.5L291.2,353.5c0,0,0,15.4,0,34.4l3.6-3.6l0,0v-30.8c0-0.9-0.2-1.8-0.8-2.8L291.2,353.5
				L291.2,353.5z"/>
			<path class="st16" d="M264.1,353.5c0-0.1,0-0.1,0-0.2v-0.1l0,0c0-0.1,0-0.1,0-0.2l0,0c0-0.1,0.1-0.1,0.1-0.2l-2.6-2.6
				c-1,1.1-1.3,2.3-1.3,3.3v30.8l3.6,3.6C264.1,374.1,264.1,361.3,264.1,353.5z"/>
			<path class="st16" d="M325.7,415L325.7,415c0,0-15.5,0-34.4,0l3.6,3.6h30.8h1.5l0.3-0.3c0.3-0.1,0.6-0.3,0.9-0.5L325.7,415
				L325.7,415z"/>
			<path class="st16" d="M291.2,449.5l2.8,2.8c0.6-0.9,0.8-1.9,0.8-2.8v-30.8l-3.6-3.6C291.2,428.9,291.2,441.7,291.2,449.5z"/>
			<path class="st16" d="M332,391.3c-0.8-3.4-2.2-5.2-3.6-6.1l-2.8,2.8c5,0,5,27.1,0,27.1l2.8,2.8c1.4-0.9,2.7-2.7,3.5-6.1
				c0.7-2.7,1-6.4,1-10.2C333,397.7,332.6,394,332,391.3z"/>
			<path class="st16" d="M291.2,449.7c-0.4,2.3-7,3.5-13.5,3.5s-13.1-1.2-13.5-3.5c0-0.1,0-0.2,0-0.2l-2.8,2.8
				c0.9,1.4,2.7,2.7,6.2,3.5c2.7,0.7,6.3,1,10.2,1c3.8,0,7.4-0.4,10.2-1c3.4-0.8,5.2-2.2,6.1-3.5l-2.8-2.8
				C291.2,449.5,291.2,449.6,291.2,449.7z"/>
			<path class="st16" d="M264.1,449.5L264.1,449.5c0,0,0-15.4,0-34.4l-3.6,3.6v30.8v0.8l0.1,0.2c0.1,0.5,0.3,1.1,0.7,1.7
				L264.1,449.5L264.1,449.5z"/>
			<path class="st16" d="M229.7,415l-2.8,2.8c1,0.6,1.9,0.8,2.8,0.8h30.8l3.6-3.6C250.3,415,237.4,415,229.7,415z"/>
		</g>
		<g>
			<path class="st17" d="M264.1,387.9l-3.6-3.6L264.1,387.9z"/>
			<polygon class="st18" points="291.2,387.9 294.8,384.3 294.8,384.3 294.8,384.3 			"/>
			<g id="Up">
				<g>
					<path class="st7" d="M264.6,387.7v-34.2v-0.1l0.1-0.2l0.1-0.1c0.5-0.8,2.1-1.5,4.5-2c0.3-0.1,0.6-0.1,0.9-0.2
						c0.4-0.1,0.7-0.1,1-0.1c0,0,0.1,0,0.2,0c0.3,0,0.6-0.1,0.9-0.1s0.7-0.1,1-0.1c0.4,0,0.7-0.1,1-0.1l2.4-0.1c0.4,0,0.7,0,1,0
						c7.3,0,13.1,1.4,13.1,3.2c0,0.2,0,15.9,0,34.2l-13.1,13.1L264.6,387.7z"/>
					<path class="st19" d="M277.7,350.8c8.1,0,12.6,1.6,12.6,2.7l0,0v34l-12.6,12.6l-12.6-12.6v-34l0,0l0,0l0,0l0,0v-0.1
						c0,0,0,0,0-0.1c0.2-0.3,0.9-1.1,4.2-1.8c0,0,0,0,0.1,0c0.3-0.1,0.6-0.1,0.8-0.2h0.1c0.3-0.1,0.6-0.1,0.8-0.1c0,0,0.1,0,0.2,0
						c0.3,0,0.6-0.1,0.9-0.1l0,0c0.3,0,0.7-0.1,1-0.1l0,0l0,0c0.3,0,0.6-0.1,1-0.1h0.1c0.2,0,0.4,0,0.6,0h0.4c0.1,0,0.1,0,0.2,0
						c0.3,0,0.7,0,1,0h0.1C277,350.8,277.3,350.8,277.7,350.8 M277.7,349.8c-0.4,0-0.7,0-1.1,0h-0.1c-0.3,0-0.7,0-1,0
						c-0.1,0-0.1,0-0.2,0c-0.3,0-0.7,0-1,0h-0.1c-0.3,0-0.7,0-1,0.1l0,0c-0.3,0-0.7,0.1-1,0.1l0,0c-0.3,0-0.7,0.1-1,0.1
						c0,0,0,0-0.1,0c-0.3,0-0.6,0.1-0.9,0.1c0,0,0,0-0.1,0c-0.3,0.1-0.6,0.1-0.9,0.2l0,0c-2.4,0.5-4.3,1.2-4.9,2.2
						c0,0-0.1,0.1-0.1,0.2l0,0c0,0.1,0,0.1,0,0.2l0,0v0.1c0,0.1,0,0.1,0,0.2c0,7.7,0,20.6,0,34.4l13.6,13.6l13.6-13.6
						c0-19,0-34.4,0-34.4l0,0l0,0C291.2,351,284.4,349.8,277.7,349.8L277.7,349.8z"/>
				</g>
				<path class="st5" d="M269.2,350.5L269.2,350.5c0.3-0.1,0.6-0.1,0.9-0.2c0,0,0,0,0.1,0c0.3-0.1,0.6-0.1,0.9-0.1c0,0,0,0,0.1,0
					c0.3,0,0.7-0.1,1-0.1l0,0c0.3,0,0.7-0.1,1-0.1l0,0c0.3,0,0.7-0.1,1-0.1h0.1c0.3,0,0.6,0,1,0c0.1,0,0.1,0,0.2,0c0.3,0,0.7,0,1,0
					h0.1c0.4,0,0.7,0,1.1,0c6.8,0,13.6,1.2,13.6,3.7l2.8-2.8c-0.9-1.4-2.7-2.7-6.1-3.5c-2.7-0.7-6.4-1-10.2-1c-3.8,0-7.5,0.4-10.2,1
					c-2.9,0.7-4.7,1.8-5.7,3l2.6,2.6C265,351.7,266.8,351,269.2,350.5z"/>
				<path class="st5" d="M291.2,353.5L291.2,353.5c0,0,0,15.4,0,34.4l3.6-3.6v-30.8c0-0.9-0.2-1.8-0.8-2.8L291.2,353.5L291.2,353.5z
					"/>
				<path class="st5" d="M264.1,353.5c0-0.1,0-0.1,0-0.2v-0.1l0,0c0-0.1,0-0.1,0-0.2l0,0c0-0.1,0.1-0.1,0.1-0.2l-2.6-2.6
					c-1,1.1-1.3,2.3-1.3,3.3v30.8l3.6,3.6C264.1,374.1,264.1,361.3,264.1,353.5z"/>
			</g>
			<polygon class="st20" points="294.9,418.7 291.3,415.1 291.3,415.1 			"/>
			<g id="Right">
				<g>
					<path class="st7" d="M291.4,414.5l-13.1-13.1l13.1-13.1h34.2c1.8,0,3.2,5.7,3.2,13.1s-1.4,13.1-3.2,13.1H291.4z"/>
					<path class="st19" d="M325.7,388.9c1.1,0,2.7,4.8,2.7,12.6c0,7.8-1.6,12.6-2.7,12.6h-34l-12.6-12.6l12.6-12.6H325.7
						 M325.7,387.9c-7.8,0-20.6,0-34.4,0l-13.6,13.6l13.6,13.6c19,0,34.4,0,34.4,0l0,0C330.6,415,330.6,387.9,325.7,387.9
						L325.7,387.9z"/>
				</g>
				<path class="st5" d="M325.7,387.9l2.8-2.8c-0.9-0.6-1.9-0.8-2.8-0.8h-30.8l-3.6,3.6C305,387.9,317.9,387.9,325.7,387.9z"/>
				<path class="st5" d="M325.7,415L325.7,415c0,0-15.5,0-34.4,0l3.6,3.6h30.8h1.5l0.3-0.3c0.3-0.1,0.6-0.3,0.9-0.5L325.7,415
					L325.7,415z"/>
				<path class="st5" d="M328.4,385.2l-2.8,2.8c5,0,5,27.1,0,27.1l2.8,2.8c1.4-0.9,2.7-2.7,3.5-6.1c0.7-2.7,1-6.4,1-10.2
					c0-3.8-0.4-7.4-1-10.2C331.1,387.9,329.8,386.1,328.4,385.2z"/>
			</g>
			<g id="Down">
				<g>
					<path class="st7" d="M277.7,452.7c-7.1,0-12.7-1.3-13-3.1v-0.1c0-0.1,0-15.4,0-34.2l13.1-13.1l13.1,13.1v34.2c0,0,0,0.1,0,0.2
						C290.4,451.4,284.8,452.7,277.7,452.7z"/>
					<path class="st19" d="M277.7,402.9l12.6,12.6v34c0,0,0,0,0,0.1c-0.2,1.1-4.7,2.7-12.6,2.7s-12.4-1.5-12.6-2.7v-0.1v-34
						L277.7,402.9 M277.7,401.5L264.1,415c0,19,0,34.4,0,34.4l0,0c0,0.1,0,0.2,0,0.2c0.4,2.3,7,3.5,13.5,3.5
						c6.6,0,13.1-1.2,13.5-3.5c0-0.1,0-0.2,0-0.2c0-7.7,0-20.6,0-34.4L277.7,401.5L277.7,401.5z"/>
				</g>
				<path class="st5" d="M291.2,449.5l2.8,2.8c0.6-0.9,0.8-1.9,0.8-2.8v-30.8l-3.6-3.6C291.2,428.9,291.2,441.7,291.2,449.5z"/>
				<path class="st5" d="M291.2,449.7c-0.4,2.3-7,3.5-13.5,3.5s-13.1-1.2-13.5-3.5c0-0.1,0-0.2,0-0.2l-2.8,2.8
					c0.9,1.4,2.7,2.7,6.2,3.5c2.7,0.7,6.3,1,10.2,1c3.8,0,7.4-0.4,10.2-1c3.4-0.8,5.2-2.2,6.1-3.5l-2.8-2.8
					C291.2,449.5,291.2,449.6,291.2,449.7z"/>
				<path class="st5" d="M264.1,449.5L264.1,449.5c0,0,0-15.4,0-34.4l-3.6,3.6v30.8v0.8l0.1,0.2c0.1,0.5,0.3,1.1,0.7,1.7
					L264.1,449.5L264.1,449.5z"/>
			</g>
			<g id="left">
				<g>
					<path class="st7" d="M229.7,414.5c-1.8,0-3.2-5.7-3.2-13.1s1.4-13.1,3.2-13.1h34.2l13.1,13.1l-13.1,13.1H229.7z"/>
					<path class="st19" d="M263.7,388.9l12.6,12.6L263.7,414h-34c-1.1,0-2.7-4.8-2.7-12.6s1.6-12.6,2.7-12.6L263.7,388.9
						 M264.1,387.9c-19,0-34.4,0-34.4,0l0,0c-5,0-5,27.1,0,27.1c7.8,0,20.6,0,34.4,0l13.6-13.6L264.1,387.9L264.1,387.9z"/>
				</g>
				<path class="st5" d="M264.1,387.9l-3.6-3.6h-30.8c-0.9,0-1.8,0.2-2.8,0.8l2.8,2.8C229.7,387.9,245.1,387.9,264.1,387.9z"/>
				<path class="st5" d="M229.7,387.9L229.7,387.9l-2.8-2.8c-1.4,0.9-2.7,2.7-3.5,6.1c-0.7,2.7-1,6.4-1,10.2c0,3.8,0.4,7.4,1,10.2
					c0.8,3.4,2.2,5.2,3.5,6.1l2.8-2.8C224.7,415,224.7,387.9,229.7,387.9z"/>
				<path class="st5" d="M229.7,415l-2.8,2.8c1,0.6,1.9,0.8,2.8,0.8h30.8l3.6-3.6C250.3,415,237.4,415,229.7,415z"/>
			</g>
		</g>
	</g>
	<g id="Menu_Key">
		<g>
			<path class="st5" d="M448.9,280.4c0,10.4-8.4,18.8-18.8,18.8s-18.8-8.4-18.8-18.8s8.4-18.8,18.8-18.8S448.9,270,448.9,280.4z"/>
		</g>
		<g>
			<path class="st21" d="M446.2,280.4c0,8.9-7.2,16.1-16.1,16.1s-16.1-7.2-16.1-16.1s7.2-16.1,16.1-16.1S446.2,271.5,446.2,280.4z"
				/>
			<g>
				<rect x="422.9" y="275.7" class="st0" width="14.4" height="1.6"/>
				<rect x="422.9" y="279.7" class="st0" width="14.4" height="1.6"/>
				<rect x="422.9" y="283.5" class="st0" width="14.4" height="1.5"/>
			</g>
		</g>
		<g id="Menu_Pressed" class="st11">
			<path class="st22" d="M446.2,280.4c0,8.9-7.2,16.1-16.1,16.1s-16.1-7.2-16.1-16.1s7.2-16.1,16.1-16.1S446.2,271.5,446.2,280.4z"
				/>
			<g class="st12">
				<rect x="422.9" y="275.7" class="st23" width="14.4" height="1.6"/>
				<rect x="422.9" y="279.7" class="st23" width="14.4" height="1.6"/>
				<rect x="422.9" y="283.5" class="st23" width="14.4" height="1.5"/>
			</g>
		</g>
	</g>
	<g id="Switcher_Key">
		<g>
			<path class="st5" d="M340.9,280.4c0,10.4-8.4,18.8-18.8,18.8s-18.8-8.4-18.8-18.8s8.4-18.8,18.8-18.8S340.9,270,340.9,280.4z"/>
		</g>
		<g>
			<path class="st21" d="M338.2,280.4c0,8.9-7.2,16.1-16.1,16.1s-16.1-7.2-16.1-16.1s7.2-16.1,16.1-16.1S338.2,271.5,338.2,280.4z"
				/>
			<g>
				<polygon class="st0" points="319.6,280.3 316.6,280.3 316.6,276.5 322,276.5 322,277.8 323.8,277.8 323.8,274.7 315,274.7 
					315,282.1 319.6,282.1 				"/>
				<path class="st0" d="M320.4,278.4v7.6h9v-7.6H320.4z M327.5,284.2H322v-3.9h5.5V284.2z"/>
			</g>
		</g>
	</g>
	<g id="Left_Stick">
		<g>
			<path class="st24" d="M185.5,351.5c-37.3,0-67.7-30.4-67.7-67.7s30.4-67.7,67.7-67.7s67.7,30.4,67.7,67.7
				S222.8,351.5,185.5,351.5z"/>
		</g>
		<path class="st25" d="M241.6,279.9c0,31-25.1,56.1-56.1,56.1s-56.1-25.1-56.1-56.1s25.1-56.1,56.1-56.1
			C216.5,223.8,241.6,248.9,241.6,279.9z"/>
	</g>
	<g id="Right_Stick">
		<g>
			<path class="st24" d="M473,465.5c-37.3,0-67.7-30.4-67.7-67.7s30.4-67.7,67.7-67.7s67.7,30.4,67.7,67.7S510.4,465.5,473,465.5z"
				/>
		</g>
		<path class="st25" d="M529.2,393.8c0,31-25.1,56.1-56.1,56.1S417,424.8,417,393.8s25.1-56.1,56.1-56.1
			C504,337.7,529.2,362.8,529.2,393.8z"/>
	</g>
	<g id="Button_Base">
		<g id="A">
			<path class="st5" d="M566.8,355.3c-13.9,0-25.2-11.3-25.2-25.2c0-13.9,11.3-25.2,25.2-25.2s25.2,11.3,25.2,25.2
				S580.7,355.3,566.8,355.3z"/>
			<path class="st1" d="M566.8,306.4c13.1,0,23.7,10.6,23.7,23.7s-10.6,23.7-23.7,23.7c-13.1,0-23.7-10.6-23.7-23.7
				S553.7,306.4,566.8,306.4 M566.8,303.4c-14.7,0-26.7,12-26.7,26.7s12,26.7,26.7,26.7s26.7-12,26.7-26.7S581.5,303.4,566.8,303.4
				L566.8,303.4z"/>
		</g>
		<g id="Y">
			<path class="st5" d="M566.8,254.2c-13.9,0-25.2-11.3-25.2-25.2s11.3-25.2,25.2-25.2S592,215.1,592,229S580.7,254.2,566.8,254.2z"
				/>
			<path class="st1" d="M566.8,205.3c13.1,0,23.7,10.6,23.7,23.7c0,13.1-10.6,23.7-23.7,23.7c-13.1,0-23.7-10.6-23.7-23.7
				C543.1,215.9,553.7,205.3,566.8,205.3 M566.8,202.3c-14.7,0-26.7,12-26.7,26.7s12,26.7,26.7,26.7s26.7-12,26.7-26.7
				S581.5,202.3,566.8,202.3L566.8,202.3z"/>
		</g>
		<g id="B">
			<path class="st5" d="M617.3,304.7c-13.9,0-25.2-11.3-25.2-25.2c0-13.9,11.3-25.2,25.2-25.2s25.2,11.3,25.2,25.2
				S631.2,304.7,617.3,304.7z"/>
			<path class="st1" d="M617.3,255.8c13.1,0,23.7,10.6,23.7,23.7s-10.6,23.7-23.7,23.7c-13.1,0-23.7-10.6-23.7-23.7
				S604.2,255.8,617.3,255.8 M617.3,252.8c-14.7,0-26.7,12-26.7,26.7s12,26.7,26.7,26.7s26.7-12,26.7-26.7S632,252.8,617.3,252.8
				L617.3,252.8z"/>
		</g>
		<g id="X">
			<path class="st5" d="M516.2,304.7c-13.9,0-25.2-11.3-25.2-25.2c0-13.9,11.3-25.2,25.2-25.2s25.2,11.3,25.2,25.2
				S530.1,304.7,516.2,304.7z"/>
			<path class="st1" d="M516.2,255.8c13.1,0,23.7,10.6,23.7,23.7s-10.6,23.7-23.7,23.7c-13.1,0-23.7-10.6-23.7-23.7
				S503.1,255.8,516.2,255.8 M516.2,252.8c-14.7,0-26.7,12-26.7,26.7s12,26.7,26.7,26.7s26.7-12,26.7-26.7S530.9,252.8,516.2,252.8
				L516.2,252.8z"/>
		</g>
	</g>
	<g>
		<g>
			<path class="st7" d="M375.6,156.5c0,0-88.9-1.1-100.5-3L258.7,184c20.2,23.3,41.6,53.3,56.4,53.3c15.1,0,60.5,0,60.5,0
				s45.4,0,60.5,0c14.9,0,36.2-30,56.5-53.3l-16.4-30.5C464.6,155.4,375.6,156.5,375.6,156.5z"/>
			<path class="st5" d="M476.2,153.5l-3.6-6.8c-1.9,0.5-3.7,0.7-5.4,0.7c-21.9,0-92.2,0-92.2,0s-70.3,0-92.2,0
				c-1.4,0-2.8-0.2-4.3-0.5l-3.5,6.5c11.6,1.9,100.5,3,100.5,3S464.6,155.4,476.2,153.5z"/>
		</g>
		<g id="RB_1_">
			<path class="st7" d="M642.5,192c-9-7.9-5.6-16.2-11.5-23.8c0.2,0.3,0.5,0.7,0.7,1c0,0-96.5-42.1-120.8-34.5
				c-15.6,4.9-27.2,15.3-32.8,18.2l15.9,29.6c11.2-12.7,21.9-23,31.1-24.8C545.1,153.8,609,174,642.5,192
				C642.6,192,642.6,192,642.5,192z"/>
			<path class="st5" d="M511,134.6c24.3-7.6,120.8,34.5,120.8,34.5c-0.2-0.3-0.5-0.7-0.7-1L631,168c-0.1-0.1-0.2-0.2-0.3-0.4
				c0-0.1-0.1-0.1-0.1-0.2c-0.1-0.1-0.2-0.2-0.3-0.3s-0.1-0.1-0.2-0.2c-0.1-0.1-0.2-0.2-0.3-0.3s-0.1-0.1-0.2-0.2
				c-0.1-0.1-0.2-0.2-0.3-0.3s-0.1-0.1-0.2-0.2c-0.1-0.1-0.2-0.2-0.3-0.3s-0.2-0.1-0.2-0.2c-0.1-0.1-0.2-0.2-0.3-0.3
				s-0.1-0.1-0.2-0.2c-0.1-0.1-0.2-0.2-0.3-0.3s-0.2-0.1-0.3-0.2c-0.1-0.1-0.2-0.2-0.3-0.3s-0.2-0.1-0.3-0.2
				c-0.1-0.1-0.2-0.2-0.4-0.3c-0.1-0.1-0.2-0.1-0.3-0.2c-0.1-0.1-0.3-0.2-0.4-0.3c-0.1-0.1-0.2-0.1-0.3-0.2
				c-0.1-0.1-0.3-0.2-0.4-0.3c-0.1-0.1-0.2-0.1-0.3-0.2c-0.2-0.1-0.3-0.2-0.5-0.3c-0.1-0.1-0.2-0.1-0.3-0.2
				c-0.2-0.1-0.4-0.2-0.5-0.3s-0.2-0.1-0.3-0.2c-0.3-0.2-0.6-0.3-0.8-0.5c-18.3-9.9-72-37-114.2-31.4c-7.6,1-21.6,12.3-33.8,16.3
				l3.6,6.7C483.7,149.9,495.4,139.5,511,134.6z"/>
		</g>
		<g id="LB_1_">
			<path class="st5" d="M241.6,129.9c-42.2-5.6-95.9,21.5-114.2,31.4c-0.3,0.2-0.6,0.3-0.8,0.5c-0.1,0.1-0.2,0.1-0.3,0.2
				c-0.2,0.1-0.4,0.2-0.5,0.3s-0.2,0.1-0.3,0.2c-0.1,0.1-0.3,0.2-0.5,0.3c-0.1,0-0.2,0.1-0.3,0.2c-0.1,0.1-0.3,0.2-0.4,0.3
				s-0.2,0.1-0.3,0.2c-0.1,0.1-0.3,0.2-0.4,0.3s-0.2,0.1-0.3,0.2c-0.1,0.1-0.3,0.2-0.4,0.3s-0.2,0.1-0.2,0.2
				c-0.1,0.1-0.3,0.2-0.4,0.3s-0.1,0.1-0.2,0.2c-0.1,0.1-0.2,0.2-0.3,0.3c-0.1,0.1-0.1,0.1-0.2,0.2c-0.1,0.1-0.2,0.2-0.3,0.3
				c-0.1,0.1-0.1,0.1-0.2,0.2c-0.1,0.1-0.2,0.2-0.3,0.3c-0.1,0-0.1,0.1-0.2,0.2c-0.1,0.1-0.2,0.2-0.3,0.3c0,0.1-0.1,0.1-0.1,0.2
				c-0.1,0.1-0.2,0.2-0.3,0.3l-0.1,0.1c-0.1,0.1-0.2,0.3-0.3,0.4l-0.1,0.1c-0.1,0.1-0.2,0.3-0.3,0.4c0,0,0,0.1-0.1,0.1
				c-0.1,0.1-0.2,0.3-0.3,0.4l0,0c-0.1,0.2-0.2,0.3-0.3,0.5c0,0,97.7-42,122-34.4c15.5,4.9,27.2,15.3,32.8,18.2l3.4-6.3
				C264.1,142.9,249.5,130.9,241.6,129.9z"/>
			<g>
				<path class="st0" d="M273.6,153.1c0.2,0.1,0.3,0.1,0.5,0.2C273.9,153.2,273.7,153.2,273.6,153.1z"/>
				<path class="st7" d="M273.1,152.8c-5.6-2.9-17.3-13.4-32.8-18.2c-24.2-7.6-121.3,34.1-122,34.4c-5,7.4-2.2,15.3-10.8,23
					c0,0,0,0-0.1,0c33.2-17.9,99.2-38.1,118.7-34.3c9.1,1.8,19.9,12.1,31.1,24.8L273.1,152.8L273.1,152.8z"/>
				<path class="st0" d="M273.1,152.8c0.2,0.1,0.3,0.2,0.5,0.2C273.4,153,273.3,152.9,273.1,152.8z"/>
			</g>
			<path class="st0" d="M258,183.2c0.2,0.3,0.5,0.6,0.7,0.8l16.4-30.5l3.5-6.5c-0.3-0.1-0.7-0.1-1-0.2c-0.3-0.1-0.7-0.2-1-0.3
				l-3.4,6.3l-15.9,29.6C257.5,182.7,257.7,183,258,183.2L258,183.2"/>
		</g>
		<path class="st0" d="M478.1,152.8l-3.6-6.7c-0.3,0.1-0.7,0.2-1,0.3s-0.7,0.2-1,0.3l3.6,6.8l16.4,30.5c0.2-0.3,0.5-0.5,0.7-0.8
			s0.5-0.5,0.7-0.8L478.1,152.8z"/>
		<path class="st0" d="M356.9,169.3L356.9,169.3L356.9,169.3z"/>
	</g>
	<g>
		<g>
			
				<image style="overflow:visible;opacity:0.75;enable-background:new    ;" width="103" height="103" xlink:href="CC13970F.png"  transform="matrix(0.9903 0 0 0.9903 324.2354 145.4111)">
			</image>
			<g>
				<path class="st5" d="M407.6,196.4c0,18-14.6,32.6-32.6,32.6s-32.6-14.6-32.6-32.6s14.6-32.6,32.6-32.6
					C393,163.8,407.6,178.4,407.6,196.4z"/>
			</g>
		</g>
		<path class="st26" d="M384,182c0,0,8.9-9.4,13.8-8.9l0,0c-0.7-0.7-1.5-1.4-2.3-2l0,0c-0.4-0.3-0.8-0.6-1.2-0.9c0,0,0,0-0.1-0.1
			c-0.4-0.3-0.8-0.5-1.2-0.8l0,0c-0.4-0.1-0.8-0.1-1.2-0.2c-5.3-0.5-16.9,4.5-16.9,4.5s-11.6-5-16.9-4.5c-0.4,0-0.8,0.1-1.2,0.2l0,0
			c-0.4,0.3-0.8,0.6-1.2,0.8c0,0,0,0-0.1,0c-0.4,0.3-0.8,0.6-1.2,0.9l0,0c-0.8,0.6-1.5,1.3-2.3,2l0,0c4.8-0.6,13.8,8.9,13.8,8.9
			s-17.7,20.9-17,34.1c1.1,1.4,2.3,2.8,3.6,4c-0.4-12,22.3-30.1,22.3-30.1S397.5,208,397,220c1.3-1.2,2.5-2.6,3.6-4l0,0
			C401.7,202.9,384,182,384,182z"/>
	</g>
	<g>
		<g>
			<path class="st7" d="M549.1,5.5c-0.4-0.3-0.8-0.6-1.2-0.9l-2.3,110l53.3,7.2C586.7,5,555.8,10.8,549.1,5.5z"/>
			<path class="st5" d="M522,0.1c-10.8,0.4-12.1,11.4-12.2,15.2v1.2c0,0,2.9,40.7,0,93.1c9.9,2.3,38.5,5.3,38.5,5.3s0-20.9,0.7-50.6
				c0.8-37.5-1.2-59.8-1.2-59.8C541.5,0.1,534.3-0.3,522,0.1z"/>
		</g>
		<g>
			<path class="st7" d="M201,5.5c0.4-0.3,0.8-0.6,1.2-0.9l2.3,110l-53.2,7.2C163.3,5,194.2,10.8,201,5.5z"/>
			<path class="st5" d="M228,0.1c10.8,0.4,12.1,11.4,12.2,15.2v1.2c0,0-2.9,40.7,0,93.1c-9.9,2.3-38.5,5.3-38.5,5.3
				S201.6,94,201,64.4c-0.8-37.5,1.2-59.8,1.2-59.8C208.6,0.1,215.8-0.3,228,0.1z"/>
		</g>
	</g>
</g>
<g id="Layer_2_1_">
</g>
<g>
	<g>
		<g>
			<g>
				<defs>
					<rect id="SVGID_3_" x="337.4" y="157.8" width="75.2" height="75.2"/>
				</defs>
				<clipPath id="SVGID_4_">
					<use xlink:href="#SVGID_3_"  style="overflow:visible;"/>
				</clipPath>
				<path class="st27" d="M400.9,216.5h-51.7l25.8-54.3L400.9,216.5z M354.3,213.3h41.5L375,169.7L354.3,213.3z"/>
			</g>
		</g>
		<g>
			<g>
				<defs>
					<rect id="SVGID_5_" x="337.4" y="157.8" width="75.2" height="75.2"/>
				</defs>
				<clipPath id="SVGID_6_">
					<use xlink:href="#SVGID_5_"  style="overflow:visible;"/>
				</clipPath>
				<polygon class="st28" points="376.7,179.8 372.8,179.8 360.9,207 362.8,210 364.3,210 366.1,205.7 366.1,205.7 371.7,193 
					371.8,192.7 374.7,186.1 383.3,205.7 370.4,205.7 368.5,210 386.6,210 388.6,207 				"/>
			</g>
		</g>
		<g>
			<g>
				<defs>
					<rect id="SVGID_7_" x="337.4" y="157.8" width="75.2" height="75.2"/>
				</defs>
				<clipPath id="SVGID_8_">
					<use xlink:href="#SVGID_7_"  style="overflow:visible;"/>
				</clipPath>
				<g class="st29">
					<g>
						<g>
							<defs>
								<rect id="SVGID_9_" x="337.4" y="157.8" width="75.2" height="75.2"/>
							</defs>
							<clipPath id="SVGID_10_">
								<use xlink:href="#SVGID_9_"  style="overflow:visible;"/>
							</clipPath>
							<path class="st30" d="M375,229.6c-4.7,0-9.2-0.9-13.5-2.6c-4.2-1.7-7.9-4.1-11.1-7.2c-3.2-3.1-5.8-6.7-7.6-10.7
								c-1.9-4.2-2.8-8.7-2.8-13.3c0-4.7,0.9-9.2,2.8-13.4c1.8-4.1,4.3-7.8,7.6-11c3.2-3.2,7-5.6,11.1-7.4c4.3-1.8,8.8-2.7,13.5-2.7
								s9.2,0.9,13.5,2.7c4.2,1.7,7.9,4.2,11.1,7.4s5.8,6.9,7.6,11c1.8,4.3,2.8,8.8,2.8,13.4c0,4.7-0.9,9.1-2.8,13.3
								c-1.8,4-4.3,7.6-7.6,10.7c-3.2,3.1-7,5.5-11.1,7.2C384.2,228.7,379.7,229.6,375,229.6 M375,163.5c-18,0-32.7,14.5-32.7,32.2
								c0,17.4,14.7,31.5,32.7,31.5s32.7-14.1,32.7-31.5C407.7,178,393,163.5,375,163.5"/>
						</g>
					</g>
				</g>
				<title>Artboard 2</title>
			</g>
		</g>
	</g>
</g>
</svg>
